G04 #@! TF.GenerationSoftware,KiCad,Pcbnew,(5.0.1-3-g963ef8bb5)*
G04 #@! TF.CreationDate,2018-11-01T01:45:15+09:00*
G04 #@! TF.ProjectId,firstTraining,6669727374547261696E696E672E6B69,rev?*
G04 #@! TF.SameCoordinates,Original*
G04 #@! TF.FileFunction,Copper,L2,Bot,Signal*
G04 #@! TF.FilePolarity,Positive*
%FSLAX46Y46*%
G04 Gerber Fmt 4.6, Leading zero omitted, Abs format (unit mm)*
G04 Created by KiCad (PCBNEW (5.0.1-3-g963ef8bb5)) date 2018年11月01日 木曜日 01:45:15*
%MOMM*%
%LPD*%
G01*
G04 APERTURE LIST*
G04 #@! TA.AperFunction,ComponentPad*
%ADD10R,2.000000X2.000000*%
G04 #@! TD*
G04 #@! TA.AperFunction,ComponentPad*
%ADD11C,2.000000*%
G04 #@! TD*
G04 #@! TA.AperFunction,ComponentPad*
%ADD12C,1.600000*%
G04 #@! TD*
G04 #@! TA.AperFunction,ComponentPad*
%ADD13R,1.800000X1.800000*%
G04 #@! TD*
G04 #@! TA.AperFunction,ComponentPad*
%ADD14O,1.800000X1.800000*%
G04 #@! TD*
G04 #@! TA.AperFunction,ComponentPad*
%ADD15O,1.700000X1.700000*%
G04 #@! TD*
G04 #@! TA.AperFunction,ComponentPad*
%ADD16R,1.700000X1.700000*%
G04 #@! TD*
G04 #@! TA.AperFunction,ComponentPad*
%ADD17C,9.000000*%
G04 #@! TD*
G04 #@! TA.AperFunction,ComponentPad*
%ADD18C,0.900000*%
G04 #@! TD*
G04 #@! TA.AperFunction,Conductor*
%ADD19C,0.254000*%
G04 #@! TD*
G04 APERTURE END LIST*
D10*
G04 #@! TO.P,C1,1*
G04 #@! TO.N,Net-(C1-Pad1)*
X123190000Y-74930000D03*
D11*
G04 #@! TO.P,C1,2*
G04 #@! TO.N,GND*
X123190000Y-79930000D03*
G04 #@! TD*
D12*
G04 #@! TO.P,C2,1*
G04 #@! TO.N,Net-(C1-Pad1)*
X133350000Y-74930000D03*
G04 #@! TO.P,C2,2*
G04 #@! TO.N,GND*
X133350000Y-77430000D03*
G04 #@! TD*
D11*
G04 #@! TO.P,C3,2*
G04 #@! TO.N,GND*
X143510000Y-79930000D03*
D10*
G04 #@! TO.P,C3,1*
G04 #@! TO.N,Net-(C1-Pad1)*
X143510000Y-74930000D03*
G04 #@! TD*
G04 #@! TO.P,C4,1*
G04 #@! TO.N,Net-(C1-Pad1)*
X143510000Y-88900000D03*
D11*
G04 #@! TO.P,C4,2*
G04 #@! TO.N,GND*
X143510000Y-93900000D03*
G04 #@! TD*
D12*
G04 #@! TO.P,C5,2*
G04 #@! TO.N,GND*
X160020000Y-79970000D03*
G04 #@! TO.P,C5,1*
G04 #@! TO.N,Net-(C5-Pad1)*
X160020000Y-77470000D03*
G04 #@! TD*
G04 #@! TO.P,C6,1*
G04 #@! TO.N,Net-(C6-Pad1)*
X160020000Y-91440000D03*
G04 #@! TO.P,C6,2*
G04 #@! TO.N,GND*
X160020000Y-93940000D03*
G04 #@! TD*
D13*
G04 #@! TO.P,D1,1*
G04 #@! TO.N,Net-(C1-Pad1)*
X114300000Y-74930000D03*
D14*
G04 #@! TO.P,D1,2*
G04 #@! TO.N,Net-(D1-Pad2)*
X114300000Y-67310000D03*
G04 #@! TD*
G04 #@! TO.P,D2,2*
G04 #@! TO.N,Net-(D2-Pad2)*
X114300000Y-87630000D03*
D13*
G04 #@! TO.P,D2,1*
G04 #@! TO.N,Net-(C1-Pad1)*
X114300000Y-80010000D03*
G04 #@! TD*
D11*
G04 #@! TO.P,T1,5*
G04 #@! TO.N,Net-(D2-Pad2)*
X108520000Y-92360000D03*
G04 #@! TO.P,T1,4*
G04 #@! TO.N,GND*
X108520000Y-86360000D03*
G04 #@! TO.P,T1,3*
G04 #@! TO.N,Net-(D1-Pad2)*
X108520000Y-80360000D03*
G04 #@! TO.P,T1,2*
G04 #@! TO.N,Net-(H2-Pad1)*
X84520000Y-80360000D03*
G04 #@! TO.P,T1,1*
G04 #@! TO.N,AC*
X84520000Y-92360000D03*
G04 #@! TD*
D15*
G04 #@! TO.P,U1,3*
G04 #@! TO.N,GND*
X154940000Y-80010000D03*
G04 #@! TO.P,U1,2*
G04 #@! TO.N,Net-(C5-Pad1)*
X154940000Y-77470000D03*
D16*
G04 #@! TO.P,U1,1*
G04 #@! TO.N,Net-(C1-Pad1)*
X154940000Y-74930000D03*
G04 #@! TD*
G04 #@! TO.P,U2,1*
G04 #@! TO.N,Net-(C1-Pad1)*
X154940000Y-88900000D03*
D15*
G04 #@! TO.P,U2,2*
G04 #@! TO.N,Net-(C6-Pad1)*
X154940000Y-91440000D03*
G04 #@! TO.P,U2,3*
G04 #@! TO.N,GND*
X154940000Y-93980000D03*
G04 #@! TD*
D17*
G04 #@! TO.P,H1,1*
G04 #@! TO.N,AC*
X73660000Y-93980000D03*
D18*
X77035000Y-93980000D03*
X76046485Y-96366485D03*
X73660000Y-97355000D03*
X71273515Y-96366485D03*
X70285000Y-93980000D03*
X71273515Y-91593515D03*
X73660000Y-90605000D03*
X76046485Y-91593515D03*
G04 #@! TD*
G04 #@! TO.P,H2,1*
G04 #@! TO.N,Net-(H2-Pad1)*
X76046485Y-74458516D03*
X73660000Y-73470001D03*
X71273515Y-74458516D03*
X70285000Y-76845001D03*
X71273515Y-79231486D03*
X73660000Y-80220001D03*
X76046485Y-79231486D03*
X77035000Y-76845001D03*
D17*
X73660000Y-76845001D03*
G04 #@! TD*
D16*
G04 #@! TO.P,H3,1*
G04 #@! TO.N,Net-(C5-Pad1)*
X166370000Y-77470000D03*
G04 #@! TD*
G04 #@! TO.P,H4,1*
G04 #@! TO.N,Net-(C6-Pad1)*
X166370000Y-91440000D03*
G04 #@! TD*
G04 #@! TO.P,H5,1*
G04 #@! TO.N,GND*
X166370000Y-82550000D03*
G04 #@! TD*
G04 #@! TO.P,H6,1*
G04 #@! TO.N,GND*
X166370000Y-96520000D03*
G04 #@! TD*
D19*
G04 #@! TO.N,GND*
G36*
X177090000Y-112320000D02*
X64210000Y-112320000D01*
X64210000Y-92958585D01*
X68525000Y-92958585D01*
X68525000Y-95001415D01*
X69306757Y-96888744D01*
X70751256Y-98333243D01*
X72638585Y-99115000D01*
X74681415Y-99115000D01*
X76568744Y-98333243D01*
X78013243Y-96888744D01*
X78047620Y-96805750D01*
X164885000Y-96805750D01*
X164885000Y-97496310D01*
X164981673Y-97729699D01*
X165160302Y-97908327D01*
X165393691Y-98005000D01*
X166084250Y-98005000D01*
X166243000Y-97846250D01*
X166243000Y-96647000D01*
X166497000Y-96647000D01*
X166497000Y-97846250D01*
X166655750Y-98005000D01*
X167346309Y-98005000D01*
X167579698Y-97908327D01*
X167758327Y-97729699D01*
X167855000Y-97496310D01*
X167855000Y-96805750D01*
X167696250Y-96647000D01*
X166497000Y-96647000D01*
X166243000Y-96647000D01*
X165043750Y-96647000D01*
X164885000Y-96805750D01*
X78047620Y-96805750D01*
X78773826Y-95052532D01*
X142537073Y-95052532D01*
X142635736Y-95319387D01*
X143245461Y-95545908D01*
X143305401Y-95543690D01*
X164885000Y-95543690D01*
X164885000Y-96234250D01*
X165043750Y-96393000D01*
X166243000Y-96393000D01*
X166243000Y-95193750D01*
X166497000Y-95193750D01*
X166497000Y-96393000D01*
X167696250Y-96393000D01*
X167855000Y-96234250D01*
X167855000Y-95543690D01*
X167758327Y-95310301D01*
X167579698Y-95131673D01*
X167346309Y-95035000D01*
X166655750Y-95035000D01*
X166497000Y-95193750D01*
X166243000Y-95193750D01*
X166084250Y-95035000D01*
X165393691Y-95035000D01*
X165160302Y-95131673D01*
X164981673Y-95310301D01*
X164885000Y-95543690D01*
X143305401Y-95543690D01*
X143895460Y-95521856D01*
X144384264Y-95319387D01*
X144482927Y-95052532D01*
X143510000Y-94079605D01*
X142537073Y-95052532D01*
X78773826Y-95052532D01*
X78795000Y-95001415D01*
X78795000Y-92958585D01*
X78412347Y-92034778D01*
X82885000Y-92034778D01*
X82885000Y-92685222D01*
X83133914Y-93286153D01*
X83593847Y-93746086D01*
X84194778Y-93995000D01*
X84845222Y-93995000D01*
X85446153Y-93746086D01*
X85906086Y-93286153D01*
X86155000Y-92685222D01*
X86155000Y-92034778D01*
X106885000Y-92034778D01*
X106885000Y-92685222D01*
X107133914Y-93286153D01*
X107593847Y-93746086D01*
X108194778Y-93995000D01*
X108845222Y-93995000D01*
X109446153Y-93746086D01*
X109556778Y-93635461D01*
X141864092Y-93635461D01*
X141888144Y-94285460D01*
X142090613Y-94774264D01*
X142357468Y-94872927D01*
X143330395Y-93900000D01*
X143689605Y-93900000D01*
X144662532Y-94872927D01*
X144929387Y-94774264D01*
X145091877Y-94336890D01*
X153498524Y-94336890D01*
X153668355Y-94746924D01*
X154058642Y-95175183D01*
X154583108Y-95421486D01*
X154813000Y-95300819D01*
X154813000Y-94107000D01*
X155067000Y-94107000D01*
X155067000Y-95300819D01*
X155296892Y-95421486D01*
X155821358Y-95175183D01*
X156028629Y-94947745D01*
X159191861Y-94947745D01*
X159265995Y-95193864D01*
X159803223Y-95386965D01*
X160373454Y-95359778D01*
X160774005Y-95193864D01*
X160848139Y-94947745D01*
X160020000Y-94119605D01*
X159191861Y-94947745D01*
X156028629Y-94947745D01*
X156211645Y-94746924D01*
X156381476Y-94336890D01*
X156260155Y-94107000D01*
X155067000Y-94107000D01*
X154813000Y-94107000D01*
X153619845Y-94107000D01*
X153498524Y-94336890D01*
X145091877Y-94336890D01*
X145155908Y-94164539D01*
X145131856Y-93514540D01*
X144929387Y-93025736D01*
X144662532Y-92927073D01*
X143689605Y-93900000D01*
X143330395Y-93900000D01*
X142357468Y-92927073D01*
X142090613Y-93025736D01*
X141864092Y-93635461D01*
X109556778Y-93635461D01*
X109906086Y-93286153D01*
X110129216Y-92747468D01*
X142537073Y-92747468D01*
X143510000Y-93720395D01*
X144482927Y-92747468D01*
X144384264Y-92480613D01*
X143774539Y-92254092D01*
X143124540Y-92278144D01*
X142635736Y-92480613D01*
X142537073Y-92747468D01*
X110129216Y-92747468D01*
X110155000Y-92685222D01*
X110155000Y-92034778D01*
X109908635Y-91440000D01*
X153425908Y-91440000D01*
X153541161Y-92019418D01*
X153869375Y-92510625D01*
X154188478Y-92723843D01*
X154058642Y-92784817D01*
X153668355Y-93213076D01*
X153498524Y-93623110D01*
X153619845Y-93853000D01*
X154813000Y-93853000D01*
X154813000Y-93833000D01*
X155067000Y-93833000D01*
X155067000Y-93853000D01*
X156260155Y-93853000D01*
X156328642Y-93723223D01*
X158573035Y-93723223D01*
X158600222Y-94293454D01*
X158766136Y-94694005D01*
X159012255Y-94768139D01*
X159840395Y-93940000D01*
X160199605Y-93940000D01*
X161027745Y-94768139D01*
X161273864Y-94694005D01*
X161466965Y-94156777D01*
X161439778Y-93586546D01*
X161273864Y-93185995D01*
X161027745Y-93111861D01*
X160199605Y-93940000D01*
X159840395Y-93940000D01*
X159012255Y-93111861D01*
X158766136Y-93185995D01*
X158573035Y-93723223D01*
X156328642Y-93723223D01*
X156381476Y-93623110D01*
X156211645Y-93213076D01*
X155821358Y-92784817D01*
X155691522Y-92723843D01*
X156010625Y-92510625D01*
X156338839Y-92019418D01*
X156454092Y-91440000D01*
X156397315Y-91154561D01*
X158585000Y-91154561D01*
X158585000Y-91725439D01*
X158803466Y-92252862D01*
X159207138Y-92656534D01*
X159272299Y-92683525D01*
X159265995Y-92686136D01*
X159191861Y-92932255D01*
X160020000Y-93760395D01*
X160848139Y-92932255D01*
X160774005Y-92686136D01*
X160767254Y-92683710D01*
X160832862Y-92656534D01*
X161236534Y-92252862D01*
X161455000Y-91725439D01*
X161455000Y-91154561D01*
X161236534Y-90627138D01*
X161199396Y-90590000D01*
X164872560Y-90590000D01*
X164872560Y-92290000D01*
X164921843Y-92537765D01*
X165062191Y-92747809D01*
X165272235Y-92888157D01*
X165520000Y-92937440D01*
X167220000Y-92937440D01*
X167467765Y-92888157D01*
X167677809Y-92747809D01*
X167818157Y-92537765D01*
X167867440Y-92290000D01*
X167867440Y-90590000D01*
X167818157Y-90342235D01*
X167677809Y-90132191D01*
X167467765Y-89991843D01*
X167220000Y-89942560D01*
X165520000Y-89942560D01*
X165272235Y-89991843D01*
X165062191Y-90132191D01*
X164921843Y-90342235D01*
X164872560Y-90590000D01*
X161199396Y-90590000D01*
X160832862Y-90223466D01*
X160305439Y-90005000D01*
X159734561Y-90005000D01*
X159207138Y-90223466D01*
X158803466Y-90627138D01*
X158585000Y-91154561D01*
X156397315Y-91154561D01*
X156338839Y-90860582D01*
X156010625Y-90369375D01*
X155992381Y-90357184D01*
X156037765Y-90348157D01*
X156247809Y-90207809D01*
X156388157Y-89997765D01*
X156437440Y-89750000D01*
X156437440Y-88050000D01*
X156388157Y-87802235D01*
X156247809Y-87592191D01*
X156037765Y-87451843D01*
X155790000Y-87402560D01*
X154090000Y-87402560D01*
X153842235Y-87451843D01*
X153632191Y-87592191D01*
X153491843Y-87802235D01*
X153442560Y-88050000D01*
X153442560Y-89750000D01*
X153491843Y-89997765D01*
X153632191Y-90207809D01*
X153842235Y-90348157D01*
X153887619Y-90357184D01*
X153869375Y-90369375D01*
X153541161Y-90860582D01*
X153425908Y-91440000D01*
X109908635Y-91440000D01*
X109906086Y-91433847D01*
X109446153Y-90973914D01*
X108845222Y-90725000D01*
X108194778Y-90725000D01*
X107593847Y-90973914D01*
X107133914Y-91433847D01*
X106885000Y-92034778D01*
X86155000Y-92034778D01*
X85906086Y-91433847D01*
X85446153Y-90973914D01*
X84845222Y-90725000D01*
X84194778Y-90725000D01*
X83593847Y-90973914D01*
X83133914Y-91433847D01*
X82885000Y-92034778D01*
X78412347Y-92034778D01*
X78013243Y-91071256D01*
X76568744Y-89626757D01*
X74681415Y-88845000D01*
X72638585Y-88845000D01*
X70751256Y-89626757D01*
X69306757Y-91071256D01*
X68525000Y-92958585D01*
X64210000Y-92958585D01*
X64210000Y-87512532D01*
X107547073Y-87512532D01*
X107645736Y-87779387D01*
X108255461Y-88005908D01*
X108905460Y-87981856D01*
X109394264Y-87779387D01*
X109449496Y-87630000D01*
X112734928Y-87630000D01*
X112854062Y-88228927D01*
X113193327Y-88736673D01*
X113701073Y-89075938D01*
X114148818Y-89165000D01*
X114451182Y-89165000D01*
X114898927Y-89075938D01*
X115406673Y-88736673D01*
X115745938Y-88228927D01*
X115811365Y-87900000D01*
X141862560Y-87900000D01*
X141862560Y-89900000D01*
X141911843Y-90147765D01*
X142052191Y-90357809D01*
X142262235Y-90498157D01*
X142510000Y-90547440D01*
X144510000Y-90547440D01*
X144757765Y-90498157D01*
X144967809Y-90357809D01*
X145108157Y-90147765D01*
X145157440Y-89900000D01*
X145157440Y-87900000D01*
X145108157Y-87652235D01*
X144967809Y-87442191D01*
X144757765Y-87301843D01*
X144510000Y-87252560D01*
X142510000Y-87252560D01*
X142262235Y-87301843D01*
X142052191Y-87442191D01*
X141911843Y-87652235D01*
X141862560Y-87900000D01*
X115811365Y-87900000D01*
X115865072Y-87630000D01*
X115745938Y-87031073D01*
X115406673Y-86523327D01*
X114898927Y-86184062D01*
X114451182Y-86095000D01*
X114148818Y-86095000D01*
X113701073Y-86184062D01*
X113193327Y-86523327D01*
X112854062Y-87031073D01*
X112734928Y-87630000D01*
X109449496Y-87630000D01*
X109492927Y-87512532D01*
X108520000Y-86539605D01*
X107547073Y-87512532D01*
X64210000Y-87512532D01*
X64210000Y-86095461D01*
X106874092Y-86095461D01*
X106898144Y-86745460D01*
X107100613Y-87234264D01*
X107367468Y-87332927D01*
X108340395Y-86360000D01*
X108699605Y-86360000D01*
X109672532Y-87332927D01*
X109939387Y-87234264D01*
X110165908Y-86624539D01*
X110141856Y-85974540D01*
X109939387Y-85485736D01*
X109672532Y-85387073D01*
X108699605Y-86360000D01*
X108340395Y-86360000D01*
X107367468Y-85387073D01*
X107100613Y-85485736D01*
X106874092Y-86095461D01*
X64210000Y-86095461D01*
X64210000Y-85207468D01*
X107547073Y-85207468D01*
X108520000Y-86180395D01*
X109492927Y-85207468D01*
X109394264Y-84940613D01*
X108784539Y-84714092D01*
X108134540Y-84738144D01*
X107645736Y-84940613D01*
X107547073Y-85207468D01*
X64210000Y-85207468D01*
X64210000Y-82835750D01*
X164885000Y-82835750D01*
X164885000Y-83526310D01*
X164981673Y-83759699D01*
X165160302Y-83938327D01*
X165393691Y-84035000D01*
X166084250Y-84035000D01*
X166243000Y-83876250D01*
X166243000Y-82677000D01*
X166497000Y-82677000D01*
X166497000Y-83876250D01*
X166655750Y-84035000D01*
X167346309Y-84035000D01*
X167579698Y-83938327D01*
X167758327Y-83759699D01*
X167855000Y-83526310D01*
X167855000Y-82835750D01*
X167696250Y-82677000D01*
X166497000Y-82677000D01*
X166243000Y-82677000D01*
X165043750Y-82677000D01*
X164885000Y-82835750D01*
X64210000Y-82835750D01*
X64210000Y-75823586D01*
X68525000Y-75823586D01*
X68525000Y-77866416D01*
X69306757Y-79753745D01*
X70751256Y-81198244D01*
X72638585Y-81980001D01*
X74681415Y-81980001D01*
X76568744Y-81198244D01*
X77732210Y-80034778D01*
X82885000Y-80034778D01*
X82885000Y-80685222D01*
X83133914Y-81286153D01*
X83593847Y-81746086D01*
X84194778Y-81995000D01*
X84845222Y-81995000D01*
X85446153Y-81746086D01*
X85906086Y-81286153D01*
X86155000Y-80685222D01*
X86155000Y-80034778D01*
X106885000Y-80034778D01*
X106885000Y-80685222D01*
X107133914Y-81286153D01*
X107593847Y-81746086D01*
X108194778Y-81995000D01*
X108845222Y-81995000D01*
X109446153Y-81746086D01*
X109906086Y-81286153D01*
X110155000Y-80685222D01*
X110155000Y-80034778D01*
X109906086Y-79433847D01*
X109582239Y-79110000D01*
X112752560Y-79110000D01*
X112752560Y-80910000D01*
X112801843Y-81157765D01*
X112942191Y-81367809D01*
X113152235Y-81508157D01*
X113400000Y-81557440D01*
X115200000Y-81557440D01*
X115447765Y-81508157D01*
X115657809Y-81367809D01*
X115798157Y-81157765D01*
X115813121Y-81082532D01*
X122217073Y-81082532D01*
X122315736Y-81349387D01*
X122925461Y-81575908D01*
X123575460Y-81551856D01*
X124064264Y-81349387D01*
X124162927Y-81082532D01*
X142537073Y-81082532D01*
X142635736Y-81349387D01*
X143245461Y-81575908D01*
X143305401Y-81573690D01*
X164885000Y-81573690D01*
X164885000Y-82264250D01*
X165043750Y-82423000D01*
X166243000Y-82423000D01*
X166243000Y-81223750D01*
X166497000Y-81223750D01*
X166497000Y-82423000D01*
X167696250Y-82423000D01*
X167855000Y-82264250D01*
X167855000Y-81573690D01*
X167758327Y-81340301D01*
X167579698Y-81161673D01*
X167346309Y-81065000D01*
X166655750Y-81065000D01*
X166497000Y-81223750D01*
X166243000Y-81223750D01*
X166084250Y-81065000D01*
X165393691Y-81065000D01*
X165160302Y-81161673D01*
X164981673Y-81340301D01*
X164885000Y-81573690D01*
X143305401Y-81573690D01*
X143895460Y-81551856D01*
X144384264Y-81349387D01*
X144482927Y-81082532D01*
X143510000Y-80109605D01*
X142537073Y-81082532D01*
X124162927Y-81082532D01*
X123190000Y-80109605D01*
X122217073Y-81082532D01*
X115813121Y-81082532D01*
X115847440Y-80910000D01*
X115847440Y-79665461D01*
X121544092Y-79665461D01*
X121568144Y-80315460D01*
X121770613Y-80804264D01*
X122037468Y-80902927D01*
X123010395Y-79930000D01*
X123369605Y-79930000D01*
X124342532Y-80902927D01*
X124609387Y-80804264D01*
X124835908Y-80194539D01*
X124816331Y-79665461D01*
X141864092Y-79665461D01*
X141888144Y-80315460D01*
X142090613Y-80804264D01*
X142357468Y-80902927D01*
X143330395Y-79930000D01*
X143689605Y-79930000D01*
X144662532Y-80902927D01*
X144929387Y-80804264D01*
X145091877Y-80366890D01*
X153498524Y-80366890D01*
X153668355Y-80776924D01*
X154058642Y-81205183D01*
X154583108Y-81451486D01*
X154813000Y-81330819D01*
X154813000Y-80137000D01*
X155067000Y-80137000D01*
X155067000Y-81330819D01*
X155296892Y-81451486D01*
X155821358Y-81205183D01*
X156028629Y-80977745D01*
X159191861Y-80977745D01*
X159265995Y-81223864D01*
X159803223Y-81416965D01*
X160373454Y-81389778D01*
X160774005Y-81223864D01*
X160848139Y-80977745D01*
X160020000Y-80149605D01*
X159191861Y-80977745D01*
X156028629Y-80977745D01*
X156211645Y-80776924D01*
X156381476Y-80366890D01*
X156260155Y-80137000D01*
X155067000Y-80137000D01*
X154813000Y-80137000D01*
X153619845Y-80137000D01*
X153498524Y-80366890D01*
X145091877Y-80366890D01*
X145155908Y-80194539D01*
X145131856Y-79544540D01*
X144929387Y-79055736D01*
X144662532Y-78957073D01*
X143689605Y-79930000D01*
X143330395Y-79930000D01*
X142357468Y-78957073D01*
X142090613Y-79055736D01*
X141864092Y-79665461D01*
X124816331Y-79665461D01*
X124811856Y-79544540D01*
X124609387Y-79055736D01*
X124342532Y-78957073D01*
X123369605Y-79930000D01*
X123010395Y-79930000D01*
X122037468Y-78957073D01*
X121770613Y-79055736D01*
X121544092Y-79665461D01*
X115847440Y-79665461D01*
X115847440Y-79110000D01*
X115798157Y-78862235D01*
X115741518Y-78777468D01*
X122217073Y-78777468D01*
X123190000Y-79750395D01*
X124162927Y-78777468D01*
X124064264Y-78510613D01*
X123868126Y-78437745D01*
X132521861Y-78437745D01*
X132595995Y-78683864D01*
X133133223Y-78876965D01*
X133703454Y-78849778D01*
X133878025Y-78777468D01*
X142537073Y-78777468D01*
X143510000Y-79750395D01*
X144482927Y-78777468D01*
X144384264Y-78510613D01*
X143774539Y-78284092D01*
X143124540Y-78308144D01*
X142635736Y-78510613D01*
X142537073Y-78777468D01*
X133878025Y-78777468D01*
X134104005Y-78683864D01*
X134178139Y-78437745D01*
X133350000Y-77609605D01*
X132521861Y-78437745D01*
X123868126Y-78437745D01*
X123454539Y-78284092D01*
X122804540Y-78308144D01*
X122315736Y-78510613D01*
X122217073Y-78777468D01*
X115741518Y-78777468D01*
X115657809Y-78652191D01*
X115447765Y-78511843D01*
X115200000Y-78462560D01*
X113400000Y-78462560D01*
X113152235Y-78511843D01*
X112942191Y-78652191D01*
X112801843Y-78862235D01*
X112752560Y-79110000D01*
X109582239Y-79110000D01*
X109446153Y-78973914D01*
X108845222Y-78725000D01*
X108194778Y-78725000D01*
X107593847Y-78973914D01*
X107133914Y-79433847D01*
X106885000Y-80034778D01*
X86155000Y-80034778D01*
X85906086Y-79433847D01*
X85446153Y-78973914D01*
X84845222Y-78725000D01*
X84194778Y-78725000D01*
X83593847Y-78973914D01*
X83133914Y-79433847D01*
X82885000Y-80034778D01*
X77732210Y-80034778D01*
X78013243Y-79753745D01*
X78795000Y-77866416D01*
X78795000Y-77213223D01*
X131903035Y-77213223D01*
X131930222Y-77783454D01*
X132096136Y-78184005D01*
X132342255Y-78258139D01*
X133170395Y-77430000D01*
X133529605Y-77430000D01*
X134357745Y-78258139D01*
X134603864Y-78184005D01*
X134796965Y-77646777D01*
X134788537Y-77470000D01*
X153425908Y-77470000D01*
X153541161Y-78049418D01*
X153869375Y-78540625D01*
X154188478Y-78753843D01*
X154058642Y-78814817D01*
X153668355Y-79243076D01*
X153498524Y-79653110D01*
X153619845Y-79883000D01*
X154813000Y-79883000D01*
X154813000Y-79863000D01*
X155067000Y-79863000D01*
X155067000Y-79883000D01*
X156260155Y-79883000D01*
X156328642Y-79753223D01*
X158573035Y-79753223D01*
X158600222Y-80323454D01*
X158766136Y-80724005D01*
X159012255Y-80798139D01*
X159840395Y-79970000D01*
X160199605Y-79970000D01*
X161027745Y-80798139D01*
X161273864Y-80724005D01*
X161466965Y-80186777D01*
X161439778Y-79616546D01*
X161273864Y-79215995D01*
X161027745Y-79141861D01*
X160199605Y-79970000D01*
X159840395Y-79970000D01*
X159012255Y-79141861D01*
X158766136Y-79215995D01*
X158573035Y-79753223D01*
X156328642Y-79753223D01*
X156381476Y-79653110D01*
X156211645Y-79243076D01*
X155821358Y-78814817D01*
X155691522Y-78753843D01*
X156010625Y-78540625D01*
X156338839Y-78049418D01*
X156454092Y-77470000D01*
X156397315Y-77184561D01*
X158585000Y-77184561D01*
X158585000Y-77755439D01*
X158803466Y-78282862D01*
X159207138Y-78686534D01*
X159272299Y-78713525D01*
X159265995Y-78716136D01*
X159191861Y-78962255D01*
X160020000Y-79790395D01*
X160848139Y-78962255D01*
X160774005Y-78716136D01*
X160767254Y-78713710D01*
X160832862Y-78686534D01*
X161236534Y-78282862D01*
X161455000Y-77755439D01*
X161455000Y-77184561D01*
X161236534Y-76657138D01*
X161199396Y-76620000D01*
X164872560Y-76620000D01*
X164872560Y-78320000D01*
X164921843Y-78567765D01*
X165062191Y-78777809D01*
X165272235Y-78918157D01*
X165520000Y-78967440D01*
X167220000Y-78967440D01*
X167467765Y-78918157D01*
X167677809Y-78777809D01*
X167818157Y-78567765D01*
X167867440Y-78320000D01*
X167867440Y-76620000D01*
X167818157Y-76372235D01*
X167677809Y-76162191D01*
X167467765Y-76021843D01*
X167220000Y-75972560D01*
X165520000Y-75972560D01*
X165272235Y-76021843D01*
X165062191Y-76162191D01*
X164921843Y-76372235D01*
X164872560Y-76620000D01*
X161199396Y-76620000D01*
X160832862Y-76253466D01*
X160305439Y-76035000D01*
X159734561Y-76035000D01*
X159207138Y-76253466D01*
X158803466Y-76657138D01*
X158585000Y-77184561D01*
X156397315Y-77184561D01*
X156338839Y-76890582D01*
X156010625Y-76399375D01*
X155992381Y-76387184D01*
X156037765Y-76378157D01*
X156247809Y-76237809D01*
X156388157Y-76027765D01*
X156437440Y-75780000D01*
X156437440Y-74080000D01*
X156388157Y-73832235D01*
X156247809Y-73622191D01*
X156037765Y-73481843D01*
X155790000Y-73432560D01*
X154090000Y-73432560D01*
X153842235Y-73481843D01*
X153632191Y-73622191D01*
X153491843Y-73832235D01*
X153442560Y-74080000D01*
X153442560Y-75780000D01*
X153491843Y-76027765D01*
X153632191Y-76237809D01*
X153842235Y-76378157D01*
X153887619Y-76387184D01*
X153869375Y-76399375D01*
X153541161Y-76890582D01*
X153425908Y-77470000D01*
X134788537Y-77470000D01*
X134769778Y-77076546D01*
X134603864Y-76675995D01*
X134357745Y-76601861D01*
X133529605Y-77430000D01*
X133170395Y-77430000D01*
X132342255Y-76601861D01*
X132096136Y-76675995D01*
X131903035Y-77213223D01*
X78795000Y-77213223D01*
X78795000Y-75823586D01*
X78052073Y-74030000D01*
X112752560Y-74030000D01*
X112752560Y-75830000D01*
X112801843Y-76077765D01*
X112942191Y-76287809D01*
X113152235Y-76428157D01*
X113400000Y-76477440D01*
X115200000Y-76477440D01*
X115447765Y-76428157D01*
X115657809Y-76287809D01*
X115798157Y-76077765D01*
X115847440Y-75830000D01*
X115847440Y-74030000D01*
X115827549Y-73930000D01*
X121542560Y-73930000D01*
X121542560Y-75930000D01*
X121591843Y-76177765D01*
X121732191Y-76387809D01*
X121942235Y-76528157D01*
X122190000Y-76577440D01*
X124190000Y-76577440D01*
X124437765Y-76528157D01*
X124647809Y-76387809D01*
X124788157Y-76177765D01*
X124837440Y-75930000D01*
X124837440Y-74644561D01*
X131915000Y-74644561D01*
X131915000Y-75215439D01*
X132133466Y-75742862D01*
X132537138Y-76146534D01*
X132602299Y-76173525D01*
X132595995Y-76176136D01*
X132521861Y-76422255D01*
X133350000Y-77250395D01*
X134178139Y-76422255D01*
X134104005Y-76176136D01*
X134097254Y-76173710D01*
X134162862Y-76146534D01*
X134566534Y-75742862D01*
X134785000Y-75215439D01*
X134785000Y-74644561D01*
X134566534Y-74117138D01*
X134379396Y-73930000D01*
X141862560Y-73930000D01*
X141862560Y-75930000D01*
X141911843Y-76177765D01*
X142052191Y-76387809D01*
X142262235Y-76528157D01*
X142510000Y-76577440D01*
X144510000Y-76577440D01*
X144757765Y-76528157D01*
X144967809Y-76387809D01*
X145108157Y-76177765D01*
X145157440Y-75930000D01*
X145157440Y-73930000D01*
X145108157Y-73682235D01*
X144967809Y-73472191D01*
X144757765Y-73331843D01*
X144510000Y-73282560D01*
X142510000Y-73282560D01*
X142262235Y-73331843D01*
X142052191Y-73472191D01*
X141911843Y-73682235D01*
X141862560Y-73930000D01*
X134379396Y-73930000D01*
X134162862Y-73713466D01*
X133635439Y-73495000D01*
X133064561Y-73495000D01*
X132537138Y-73713466D01*
X132133466Y-74117138D01*
X131915000Y-74644561D01*
X124837440Y-74644561D01*
X124837440Y-73930000D01*
X124788157Y-73682235D01*
X124647809Y-73472191D01*
X124437765Y-73331843D01*
X124190000Y-73282560D01*
X122190000Y-73282560D01*
X121942235Y-73331843D01*
X121732191Y-73472191D01*
X121591843Y-73682235D01*
X121542560Y-73930000D01*
X115827549Y-73930000D01*
X115798157Y-73782235D01*
X115657809Y-73572191D01*
X115447765Y-73431843D01*
X115200000Y-73382560D01*
X113400000Y-73382560D01*
X113152235Y-73431843D01*
X112942191Y-73572191D01*
X112801843Y-73782235D01*
X112752560Y-74030000D01*
X78052073Y-74030000D01*
X78013243Y-73936257D01*
X76568744Y-72491758D01*
X74681415Y-71710001D01*
X72638585Y-71710001D01*
X70751256Y-72491758D01*
X69306757Y-73936257D01*
X68525000Y-75823586D01*
X64210000Y-75823586D01*
X64210000Y-67310000D01*
X112734928Y-67310000D01*
X112854062Y-67908927D01*
X113193327Y-68416673D01*
X113701073Y-68755938D01*
X114148818Y-68845000D01*
X114451182Y-68845000D01*
X114898927Y-68755938D01*
X115406673Y-68416673D01*
X115745938Y-67908927D01*
X115865072Y-67310000D01*
X115745938Y-66711073D01*
X115406673Y-66203327D01*
X114898927Y-65864062D01*
X114451182Y-65775000D01*
X114148818Y-65775000D01*
X113701073Y-65864062D01*
X113193327Y-66203327D01*
X112854062Y-66711073D01*
X112734928Y-67310000D01*
X64210000Y-67310000D01*
X64210000Y-62940000D01*
X177090001Y-62940000D01*
X177090000Y-112320000D01*
X177090000Y-112320000D01*
G37*
X177090000Y-112320000D02*
X64210000Y-112320000D01*
X64210000Y-92958585D01*
X68525000Y-92958585D01*
X68525000Y-95001415D01*
X69306757Y-96888744D01*
X70751256Y-98333243D01*
X72638585Y-99115000D01*
X74681415Y-99115000D01*
X76568744Y-98333243D01*
X78013243Y-96888744D01*
X78047620Y-96805750D01*
X164885000Y-96805750D01*
X164885000Y-97496310D01*
X164981673Y-97729699D01*
X165160302Y-97908327D01*
X165393691Y-98005000D01*
X166084250Y-98005000D01*
X166243000Y-97846250D01*
X166243000Y-96647000D01*
X166497000Y-96647000D01*
X166497000Y-97846250D01*
X166655750Y-98005000D01*
X167346309Y-98005000D01*
X167579698Y-97908327D01*
X167758327Y-97729699D01*
X167855000Y-97496310D01*
X167855000Y-96805750D01*
X167696250Y-96647000D01*
X166497000Y-96647000D01*
X166243000Y-96647000D01*
X165043750Y-96647000D01*
X164885000Y-96805750D01*
X78047620Y-96805750D01*
X78773826Y-95052532D01*
X142537073Y-95052532D01*
X142635736Y-95319387D01*
X143245461Y-95545908D01*
X143305401Y-95543690D01*
X164885000Y-95543690D01*
X164885000Y-96234250D01*
X165043750Y-96393000D01*
X166243000Y-96393000D01*
X166243000Y-95193750D01*
X166497000Y-95193750D01*
X166497000Y-96393000D01*
X167696250Y-96393000D01*
X167855000Y-96234250D01*
X167855000Y-95543690D01*
X167758327Y-95310301D01*
X167579698Y-95131673D01*
X167346309Y-95035000D01*
X166655750Y-95035000D01*
X166497000Y-95193750D01*
X166243000Y-95193750D01*
X166084250Y-95035000D01*
X165393691Y-95035000D01*
X165160302Y-95131673D01*
X164981673Y-95310301D01*
X164885000Y-95543690D01*
X143305401Y-95543690D01*
X143895460Y-95521856D01*
X144384264Y-95319387D01*
X144482927Y-95052532D01*
X143510000Y-94079605D01*
X142537073Y-95052532D01*
X78773826Y-95052532D01*
X78795000Y-95001415D01*
X78795000Y-92958585D01*
X78412347Y-92034778D01*
X82885000Y-92034778D01*
X82885000Y-92685222D01*
X83133914Y-93286153D01*
X83593847Y-93746086D01*
X84194778Y-93995000D01*
X84845222Y-93995000D01*
X85446153Y-93746086D01*
X85906086Y-93286153D01*
X86155000Y-92685222D01*
X86155000Y-92034778D01*
X106885000Y-92034778D01*
X106885000Y-92685222D01*
X107133914Y-93286153D01*
X107593847Y-93746086D01*
X108194778Y-93995000D01*
X108845222Y-93995000D01*
X109446153Y-93746086D01*
X109556778Y-93635461D01*
X141864092Y-93635461D01*
X141888144Y-94285460D01*
X142090613Y-94774264D01*
X142357468Y-94872927D01*
X143330395Y-93900000D01*
X143689605Y-93900000D01*
X144662532Y-94872927D01*
X144929387Y-94774264D01*
X145091877Y-94336890D01*
X153498524Y-94336890D01*
X153668355Y-94746924D01*
X154058642Y-95175183D01*
X154583108Y-95421486D01*
X154813000Y-95300819D01*
X154813000Y-94107000D01*
X155067000Y-94107000D01*
X155067000Y-95300819D01*
X155296892Y-95421486D01*
X155821358Y-95175183D01*
X156028629Y-94947745D01*
X159191861Y-94947745D01*
X159265995Y-95193864D01*
X159803223Y-95386965D01*
X160373454Y-95359778D01*
X160774005Y-95193864D01*
X160848139Y-94947745D01*
X160020000Y-94119605D01*
X159191861Y-94947745D01*
X156028629Y-94947745D01*
X156211645Y-94746924D01*
X156381476Y-94336890D01*
X156260155Y-94107000D01*
X155067000Y-94107000D01*
X154813000Y-94107000D01*
X153619845Y-94107000D01*
X153498524Y-94336890D01*
X145091877Y-94336890D01*
X145155908Y-94164539D01*
X145131856Y-93514540D01*
X144929387Y-93025736D01*
X144662532Y-92927073D01*
X143689605Y-93900000D01*
X143330395Y-93900000D01*
X142357468Y-92927073D01*
X142090613Y-93025736D01*
X141864092Y-93635461D01*
X109556778Y-93635461D01*
X109906086Y-93286153D01*
X110129216Y-92747468D01*
X142537073Y-92747468D01*
X143510000Y-93720395D01*
X144482927Y-92747468D01*
X144384264Y-92480613D01*
X143774539Y-92254092D01*
X143124540Y-92278144D01*
X142635736Y-92480613D01*
X142537073Y-92747468D01*
X110129216Y-92747468D01*
X110155000Y-92685222D01*
X110155000Y-92034778D01*
X109908635Y-91440000D01*
X153425908Y-91440000D01*
X153541161Y-92019418D01*
X153869375Y-92510625D01*
X154188478Y-92723843D01*
X154058642Y-92784817D01*
X153668355Y-93213076D01*
X153498524Y-93623110D01*
X153619845Y-93853000D01*
X154813000Y-93853000D01*
X154813000Y-93833000D01*
X155067000Y-93833000D01*
X155067000Y-93853000D01*
X156260155Y-93853000D01*
X156328642Y-93723223D01*
X158573035Y-93723223D01*
X158600222Y-94293454D01*
X158766136Y-94694005D01*
X159012255Y-94768139D01*
X159840395Y-93940000D01*
X160199605Y-93940000D01*
X161027745Y-94768139D01*
X161273864Y-94694005D01*
X161466965Y-94156777D01*
X161439778Y-93586546D01*
X161273864Y-93185995D01*
X161027745Y-93111861D01*
X160199605Y-93940000D01*
X159840395Y-93940000D01*
X159012255Y-93111861D01*
X158766136Y-93185995D01*
X158573035Y-93723223D01*
X156328642Y-93723223D01*
X156381476Y-93623110D01*
X156211645Y-93213076D01*
X155821358Y-92784817D01*
X155691522Y-92723843D01*
X156010625Y-92510625D01*
X156338839Y-92019418D01*
X156454092Y-91440000D01*
X156397315Y-91154561D01*
X158585000Y-91154561D01*
X158585000Y-91725439D01*
X158803466Y-92252862D01*
X159207138Y-92656534D01*
X159272299Y-92683525D01*
X159265995Y-92686136D01*
X159191861Y-92932255D01*
X160020000Y-93760395D01*
X160848139Y-92932255D01*
X160774005Y-92686136D01*
X160767254Y-92683710D01*
X160832862Y-92656534D01*
X161236534Y-92252862D01*
X161455000Y-91725439D01*
X161455000Y-91154561D01*
X161236534Y-90627138D01*
X161199396Y-90590000D01*
X164872560Y-90590000D01*
X164872560Y-92290000D01*
X164921843Y-92537765D01*
X165062191Y-92747809D01*
X165272235Y-92888157D01*
X165520000Y-92937440D01*
X167220000Y-92937440D01*
X167467765Y-92888157D01*
X167677809Y-92747809D01*
X167818157Y-92537765D01*
X167867440Y-92290000D01*
X167867440Y-90590000D01*
X167818157Y-90342235D01*
X167677809Y-90132191D01*
X167467765Y-89991843D01*
X167220000Y-89942560D01*
X165520000Y-89942560D01*
X165272235Y-89991843D01*
X165062191Y-90132191D01*
X164921843Y-90342235D01*
X164872560Y-90590000D01*
X161199396Y-90590000D01*
X160832862Y-90223466D01*
X160305439Y-90005000D01*
X159734561Y-90005000D01*
X159207138Y-90223466D01*
X158803466Y-90627138D01*
X158585000Y-91154561D01*
X156397315Y-91154561D01*
X156338839Y-90860582D01*
X156010625Y-90369375D01*
X155992381Y-90357184D01*
X156037765Y-90348157D01*
X156247809Y-90207809D01*
X156388157Y-89997765D01*
X156437440Y-89750000D01*
X156437440Y-88050000D01*
X156388157Y-87802235D01*
X156247809Y-87592191D01*
X156037765Y-87451843D01*
X155790000Y-87402560D01*
X154090000Y-87402560D01*
X153842235Y-87451843D01*
X153632191Y-87592191D01*
X153491843Y-87802235D01*
X153442560Y-88050000D01*
X153442560Y-89750000D01*
X153491843Y-89997765D01*
X153632191Y-90207809D01*
X153842235Y-90348157D01*
X153887619Y-90357184D01*
X153869375Y-90369375D01*
X153541161Y-90860582D01*
X153425908Y-91440000D01*
X109908635Y-91440000D01*
X109906086Y-91433847D01*
X109446153Y-90973914D01*
X108845222Y-90725000D01*
X108194778Y-90725000D01*
X107593847Y-90973914D01*
X107133914Y-91433847D01*
X106885000Y-92034778D01*
X86155000Y-92034778D01*
X85906086Y-91433847D01*
X85446153Y-90973914D01*
X84845222Y-90725000D01*
X84194778Y-90725000D01*
X83593847Y-90973914D01*
X83133914Y-91433847D01*
X82885000Y-92034778D01*
X78412347Y-92034778D01*
X78013243Y-91071256D01*
X76568744Y-89626757D01*
X74681415Y-88845000D01*
X72638585Y-88845000D01*
X70751256Y-89626757D01*
X69306757Y-91071256D01*
X68525000Y-92958585D01*
X64210000Y-92958585D01*
X64210000Y-87512532D01*
X107547073Y-87512532D01*
X107645736Y-87779387D01*
X108255461Y-88005908D01*
X108905460Y-87981856D01*
X109394264Y-87779387D01*
X109449496Y-87630000D01*
X112734928Y-87630000D01*
X112854062Y-88228927D01*
X113193327Y-88736673D01*
X113701073Y-89075938D01*
X114148818Y-89165000D01*
X114451182Y-89165000D01*
X114898927Y-89075938D01*
X115406673Y-88736673D01*
X115745938Y-88228927D01*
X115811365Y-87900000D01*
X141862560Y-87900000D01*
X141862560Y-89900000D01*
X141911843Y-90147765D01*
X142052191Y-90357809D01*
X142262235Y-90498157D01*
X142510000Y-90547440D01*
X144510000Y-90547440D01*
X144757765Y-90498157D01*
X144967809Y-90357809D01*
X145108157Y-90147765D01*
X145157440Y-89900000D01*
X145157440Y-87900000D01*
X145108157Y-87652235D01*
X144967809Y-87442191D01*
X144757765Y-87301843D01*
X144510000Y-87252560D01*
X142510000Y-87252560D01*
X142262235Y-87301843D01*
X142052191Y-87442191D01*
X141911843Y-87652235D01*
X141862560Y-87900000D01*
X115811365Y-87900000D01*
X115865072Y-87630000D01*
X115745938Y-87031073D01*
X115406673Y-86523327D01*
X114898927Y-86184062D01*
X114451182Y-86095000D01*
X114148818Y-86095000D01*
X113701073Y-86184062D01*
X113193327Y-86523327D01*
X112854062Y-87031073D01*
X112734928Y-87630000D01*
X109449496Y-87630000D01*
X109492927Y-87512532D01*
X108520000Y-86539605D01*
X107547073Y-87512532D01*
X64210000Y-87512532D01*
X64210000Y-86095461D01*
X106874092Y-86095461D01*
X106898144Y-86745460D01*
X107100613Y-87234264D01*
X107367468Y-87332927D01*
X108340395Y-86360000D01*
X108699605Y-86360000D01*
X109672532Y-87332927D01*
X109939387Y-87234264D01*
X110165908Y-86624539D01*
X110141856Y-85974540D01*
X109939387Y-85485736D01*
X109672532Y-85387073D01*
X108699605Y-86360000D01*
X108340395Y-86360000D01*
X107367468Y-85387073D01*
X107100613Y-85485736D01*
X106874092Y-86095461D01*
X64210000Y-86095461D01*
X64210000Y-85207468D01*
X107547073Y-85207468D01*
X108520000Y-86180395D01*
X109492927Y-85207468D01*
X109394264Y-84940613D01*
X108784539Y-84714092D01*
X108134540Y-84738144D01*
X107645736Y-84940613D01*
X107547073Y-85207468D01*
X64210000Y-85207468D01*
X64210000Y-82835750D01*
X164885000Y-82835750D01*
X164885000Y-83526310D01*
X164981673Y-83759699D01*
X165160302Y-83938327D01*
X165393691Y-84035000D01*
X166084250Y-84035000D01*
X166243000Y-83876250D01*
X166243000Y-82677000D01*
X166497000Y-82677000D01*
X166497000Y-83876250D01*
X166655750Y-84035000D01*
X167346309Y-84035000D01*
X167579698Y-83938327D01*
X167758327Y-83759699D01*
X167855000Y-83526310D01*
X167855000Y-82835750D01*
X167696250Y-82677000D01*
X166497000Y-82677000D01*
X166243000Y-82677000D01*
X165043750Y-82677000D01*
X164885000Y-82835750D01*
X64210000Y-82835750D01*
X64210000Y-75823586D01*
X68525000Y-75823586D01*
X68525000Y-77866416D01*
X69306757Y-79753745D01*
X70751256Y-81198244D01*
X72638585Y-81980001D01*
X74681415Y-81980001D01*
X76568744Y-81198244D01*
X77732210Y-80034778D01*
X82885000Y-80034778D01*
X82885000Y-80685222D01*
X83133914Y-81286153D01*
X83593847Y-81746086D01*
X84194778Y-81995000D01*
X84845222Y-81995000D01*
X85446153Y-81746086D01*
X85906086Y-81286153D01*
X86155000Y-80685222D01*
X86155000Y-80034778D01*
X106885000Y-80034778D01*
X106885000Y-80685222D01*
X107133914Y-81286153D01*
X107593847Y-81746086D01*
X108194778Y-81995000D01*
X108845222Y-81995000D01*
X109446153Y-81746086D01*
X109906086Y-81286153D01*
X110155000Y-80685222D01*
X110155000Y-80034778D01*
X109906086Y-79433847D01*
X109582239Y-79110000D01*
X112752560Y-79110000D01*
X112752560Y-80910000D01*
X112801843Y-81157765D01*
X112942191Y-81367809D01*
X113152235Y-81508157D01*
X113400000Y-81557440D01*
X115200000Y-81557440D01*
X115447765Y-81508157D01*
X115657809Y-81367809D01*
X115798157Y-81157765D01*
X115813121Y-81082532D01*
X122217073Y-81082532D01*
X122315736Y-81349387D01*
X122925461Y-81575908D01*
X123575460Y-81551856D01*
X124064264Y-81349387D01*
X124162927Y-81082532D01*
X142537073Y-81082532D01*
X142635736Y-81349387D01*
X143245461Y-81575908D01*
X143305401Y-81573690D01*
X164885000Y-81573690D01*
X164885000Y-82264250D01*
X165043750Y-82423000D01*
X166243000Y-82423000D01*
X166243000Y-81223750D01*
X166497000Y-81223750D01*
X166497000Y-82423000D01*
X167696250Y-82423000D01*
X167855000Y-82264250D01*
X167855000Y-81573690D01*
X167758327Y-81340301D01*
X167579698Y-81161673D01*
X167346309Y-81065000D01*
X166655750Y-81065000D01*
X166497000Y-81223750D01*
X166243000Y-81223750D01*
X166084250Y-81065000D01*
X165393691Y-81065000D01*
X165160302Y-81161673D01*
X164981673Y-81340301D01*
X164885000Y-81573690D01*
X143305401Y-81573690D01*
X143895460Y-81551856D01*
X144384264Y-81349387D01*
X144482927Y-81082532D01*
X143510000Y-80109605D01*
X142537073Y-81082532D01*
X124162927Y-81082532D01*
X123190000Y-80109605D01*
X122217073Y-81082532D01*
X115813121Y-81082532D01*
X115847440Y-80910000D01*
X115847440Y-79665461D01*
X121544092Y-79665461D01*
X121568144Y-80315460D01*
X121770613Y-80804264D01*
X122037468Y-80902927D01*
X123010395Y-79930000D01*
X123369605Y-79930000D01*
X124342532Y-80902927D01*
X124609387Y-80804264D01*
X124835908Y-80194539D01*
X124816331Y-79665461D01*
X141864092Y-79665461D01*
X141888144Y-80315460D01*
X142090613Y-80804264D01*
X142357468Y-80902927D01*
X143330395Y-79930000D01*
X143689605Y-79930000D01*
X144662532Y-80902927D01*
X144929387Y-80804264D01*
X145091877Y-80366890D01*
X153498524Y-80366890D01*
X153668355Y-80776924D01*
X154058642Y-81205183D01*
X154583108Y-81451486D01*
X154813000Y-81330819D01*
X154813000Y-80137000D01*
X155067000Y-80137000D01*
X155067000Y-81330819D01*
X155296892Y-81451486D01*
X155821358Y-81205183D01*
X156028629Y-80977745D01*
X159191861Y-80977745D01*
X159265995Y-81223864D01*
X159803223Y-81416965D01*
X160373454Y-81389778D01*
X160774005Y-81223864D01*
X160848139Y-80977745D01*
X160020000Y-80149605D01*
X159191861Y-80977745D01*
X156028629Y-80977745D01*
X156211645Y-80776924D01*
X156381476Y-80366890D01*
X156260155Y-80137000D01*
X155067000Y-80137000D01*
X154813000Y-80137000D01*
X153619845Y-80137000D01*
X153498524Y-80366890D01*
X145091877Y-80366890D01*
X145155908Y-80194539D01*
X145131856Y-79544540D01*
X144929387Y-79055736D01*
X144662532Y-78957073D01*
X143689605Y-79930000D01*
X143330395Y-79930000D01*
X142357468Y-78957073D01*
X142090613Y-79055736D01*
X141864092Y-79665461D01*
X124816331Y-79665461D01*
X124811856Y-79544540D01*
X124609387Y-79055736D01*
X124342532Y-78957073D01*
X123369605Y-79930000D01*
X123010395Y-79930000D01*
X122037468Y-78957073D01*
X121770613Y-79055736D01*
X121544092Y-79665461D01*
X115847440Y-79665461D01*
X115847440Y-79110000D01*
X115798157Y-78862235D01*
X115741518Y-78777468D01*
X122217073Y-78777468D01*
X123190000Y-79750395D01*
X124162927Y-78777468D01*
X124064264Y-78510613D01*
X123868126Y-78437745D01*
X132521861Y-78437745D01*
X132595995Y-78683864D01*
X133133223Y-78876965D01*
X133703454Y-78849778D01*
X133878025Y-78777468D01*
X142537073Y-78777468D01*
X143510000Y-79750395D01*
X144482927Y-78777468D01*
X144384264Y-78510613D01*
X143774539Y-78284092D01*
X143124540Y-78308144D01*
X142635736Y-78510613D01*
X142537073Y-78777468D01*
X133878025Y-78777468D01*
X134104005Y-78683864D01*
X134178139Y-78437745D01*
X133350000Y-77609605D01*
X132521861Y-78437745D01*
X123868126Y-78437745D01*
X123454539Y-78284092D01*
X122804540Y-78308144D01*
X122315736Y-78510613D01*
X122217073Y-78777468D01*
X115741518Y-78777468D01*
X115657809Y-78652191D01*
X115447765Y-78511843D01*
X115200000Y-78462560D01*
X113400000Y-78462560D01*
X113152235Y-78511843D01*
X112942191Y-78652191D01*
X112801843Y-78862235D01*
X112752560Y-79110000D01*
X109582239Y-79110000D01*
X109446153Y-78973914D01*
X108845222Y-78725000D01*
X108194778Y-78725000D01*
X107593847Y-78973914D01*
X107133914Y-79433847D01*
X106885000Y-80034778D01*
X86155000Y-80034778D01*
X85906086Y-79433847D01*
X85446153Y-78973914D01*
X84845222Y-78725000D01*
X84194778Y-78725000D01*
X83593847Y-78973914D01*
X83133914Y-79433847D01*
X82885000Y-80034778D01*
X77732210Y-80034778D01*
X78013243Y-79753745D01*
X78795000Y-77866416D01*
X78795000Y-77213223D01*
X131903035Y-77213223D01*
X131930222Y-77783454D01*
X132096136Y-78184005D01*
X132342255Y-78258139D01*
X133170395Y-77430000D01*
X133529605Y-77430000D01*
X134357745Y-78258139D01*
X134603864Y-78184005D01*
X134796965Y-77646777D01*
X134788537Y-77470000D01*
X153425908Y-77470000D01*
X153541161Y-78049418D01*
X153869375Y-78540625D01*
X154188478Y-78753843D01*
X154058642Y-78814817D01*
X153668355Y-79243076D01*
X153498524Y-79653110D01*
X153619845Y-79883000D01*
X154813000Y-79883000D01*
X154813000Y-79863000D01*
X155067000Y-79863000D01*
X155067000Y-79883000D01*
X156260155Y-79883000D01*
X156328642Y-79753223D01*
X158573035Y-79753223D01*
X158600222Y-80323454D01*
X158766136Y-80724005D01*
X159012255Y-80798139D01*
X159840395Y-79970000D01*
X160199605Y-79970000D01*
X161027745Y-80798139D01*
X161273864Y-80724005D01*
X161466965Y-80186777D01*
X161439778Y-79616546D01*
X161273864Y-79215995D01*
X161027745Y-79141861D01*
X160199605Y-79970000D01*
X159840395Y-79970000D01*
X159012255Y-79141861D01*
X158766136Y-79215995D01*
X158573035Y-79753223D01*
X156328642Y-79753223D01*
X156381476Y-79653110D01*
X156211645Y-79243076D01*
X155821358Y-78814817D01*
X155691522Y-78753843D01*
X156010625Y-78540625D01*
X156338839Y-78049418D01*
X156454092Y-77470000D01*
X156397315Y-77184561D01*
X158585000Y-77184561D01*
X158585000Y-77755439D01*
X158803466Y-78282862D01*
X159207138Y-78686534D01*
X159272299Y-78713525D01*
X159265995Y-78716136D01*
X159191861Y-78962255D01*
X160020000Y-79790395D01*
X160848139Y-78962255D01*
X160774005Y-78716136D01*
X160767254Y-78713710D01*
X160832862Y-78686534D01*
X161236534Y-78282862D01*
X161455000Y-77755439D01*
X161455000Y-77184561D01*
X161236534Y-76657138D01*
X161199396Y-76620000D01*
X164872560Y-76620000D01*
X164872560Y-78320000D01*
X164921843Y-78567765D01*
X165062191Y-78777809D01*
X165272235Y-78918157D01*
X165520000Y-78967440D01*
X167220000Y-78967440D01*
X167467765Y-78918157D01*
X167677809Y-78777809D01*
X167818157Y-78567765D01*
X167867440Y-78320000D01*
X167867440Y-76620000D01*
X167818157Y-76372235D01*
X167677809Y-76162191D01*
X167467765Y-76021843D01*
X167220000Y-75972560D01*
X165520000Y-75972560D01*
X165272235Y-76021843D01*
X165062191Y-76162191D01*
X164921843Y-76372235D01*
X164872560Y-76620000D01*
X161199396Y-76620000D01*
X160832862Y-76253466D01*
X160305439Y-76035000D01*
X159734561Y-76035000D01*
X159207138Y-76253466D01*
X158803466Y-76657138D01*
X158585000Y-77184561D01*
X156397315Y-77184561D01*
X156338839Y-76890582D01*
X156010625Y-76399375D01*
X155992381Y-76387184D01*
X156037765Y-76378157D01*
X156247809Y-76237809D01*
X156388157Y-76027765D01*
X156437440Y-75780000D01*
X156437440Y-74080000D01*
X156388157Y-73832235D01*
X156247809Y-73622191D01*
X156037765Y-73481843D01*
X155790000Y-73432560D01*
X154090000Y-73432560D01*
X153842235Y-73481843D01*
X153632191Y-73622191D01*
X153491843Y-73832235D01*
X153442560Y-74080000D01*
X153442560Y-75780000D01*
X153491843Y-76027765D01*
X153632191Y-76237809D01*
X153842235Y-76378157D01*
X153887619Y-76387184D01*
X153869375Y-76399375D01*
X153541161Y-76890582D01*
X153425908Y-77470000D01*
X134788537Y-77470000D01*
X134769778Y-77076546D01*
X134603864Y-76675995D01*
X134357745Y-76601861D01*
X133529605Y-77430000D01*
X133170395Y-77430000D01*
X132342255Y-76601861D01*
X132096136Y-76675995D01*
X131903035Y-77213223D01*
X78795000Y-77213223D01*
X78795000Y-75823586D01*
X78052073Y-74030000D01*
X112752560Y-74030000D01*
X112752560Y-75830000D01*
X112801843Y-76077765D01*
X112942191Y-76287809D01*
X113152235Y-76428157D01*
X113400000Y-76477440D01*
X115200000Y-76477440D01*
X115447765Y-76428157D01*
X115657809Y-76287809D01*
X115798157Y-76077765D01*
X115847440Y-75830000D01*
X115847440Y-74030000D01*
X115827549Y-73930000D01*
X121542560Y-73930000D01*
X121542560Y-75930000D01*
X121591843Y-76177765D01*
X121732191Y-76387809D01*
X121942235Y-76528157D01*
X122190000Y-76577440D01*
X124190000Y-76577440D01*
X124437765Y-76528157D01*
X124647809Y-76387809D01*
X124788157Y-76177765D01*
X124837440Y-75930000D01*
X124837440Y-74644561D01*
X131915000Y-74644561D01*
X131915000Y-75215439D01*
X132133466Y-75742862D01*
X132537138Y-76146534D01*
X132602299Y-76173525D01*
X132595995Y-76176136D01*
X132521861Y-76422255D01*
X133350000Y-77250395D01*
X134178139Y-76422255D01*
X134104005Y-76176136D01*
X134097254Y-76173710D01*
X134162862Y-76146534D01*
X134566534Y-75742862D01*
X134785000Y-75215439D01*
X134785000Y-74644561D01*
X134566534Y-74117138D01*
X134379396Y-73930000D01*
X141862560Y-73930000D01*
X141862560Y-75930000D01*
X141911843Y-76177765D01*
X142052191Y-76387809D01*
X142262235Y-76528157D01*
X142510000Y-76577440D01*
X144510000Y-76577440D01*
X144757765Y-76528157D01*
X144967809Y-76387809D01*
X145108157Y-76177765D01*
X145157440Y-75930000D01*
X145157440Y-73930000D01*
X145108157Y-73682235D01*
X144967809Y-73472191D01*
X144757765Y-73331843D01*
X144510000Y-73282560D01*
X142510000Y-73282560D01*
X142262235Y-73331843D01*
X142052191Y-73472191D01*
X141911843Y-73682235D01*
X141862560Y-73930000D01*
X134379396Y-73930000D01*
X134162862Y-73713466D01*
X133635439Y-73495000D01*
X133064561Y-73495000D01*
X132537138Y-73713466D01*
X132133466Y-74117138D01*
X131915000Y-74644561D01*
X124837440Y-74644561D01*
X124837440Y-73930000D01*
X124788157Y-73682235D01*
X124647809Y-73472191D01*
X124437765Y-73331843D01*
X124190000Y-73282560D01*
X122190000Y-73282560D01*
X121942235Y-73331843D01*
X121732191Y-73472191D01*
X121591843Y-73682235D01*
X121542560Y-73930000D01*
X115827549Y-73930000D01*
X115798157Y-73782235D01*
X115657809Y-73572191D01*
X115447765Y-73431843D01*
X115200000Y-73382560D01*
X113400000Y-73382560D01*
X113152235Y-73431843D01*
X112942191Y-73572191D01*
X112801843Y-73782235D01*
X112752560Y-74030000D01*
X78052073Y-74030000D01*
X78013243Y-73936257D01*
X76568744Y-72491758D01*
X74681415Y-71710001D01*
X72638585Y-71710001D01*
X70751256Y-72491758D01*
X69306757Y-73936257D01*
X68525000Y-75823586D01*
X64210000Y-75823586D01*
X64210000Y-67310000D01*
X112734928Y-67310000D01*
X112854062Y-67908927D01*
X113193327Y-68416673D01*
X113701073Y-68755938D01*
X114148818Y-68845000D01*
X114451182Y-68845000D01*
X114898927Y-68755938D01*
X115406673Y-68416673D01*
X115745938Y-67908927D01*
X115865072Y-67310000D01*
X115745938Y-66711073D01*
X115406673Y-66203327D01*
X114898927Y-65864062D01*
X114451182Y-65775000D01*
X114148818Y-65775000D01*
X113701073Y-65864062D01*
X113193327Y-66203327D01*
X112854062Y-66711073D01*
X112734928Y-67310000D01*
X64210000Y-67310000D01*
X64210000Y-62940000D01*
X177090001Y-62940000D01*
X177090000Y-112320000D01*
G36*
X177090000Y-112320000D02*
X64210000Y-112320000D01*
X64210000Y-92958585D01*
X68525000Y-92958585D01*
X68525000Y-95001415D01*
X69306757Y-96888744D01*
X70751256Y-98333243D01*
X72638585Y-99115000D01*
X74681415Y-99115000D01*
X76568744Y-98333243D01*
X78013243Y-96888744D01*
X78047620Y-96805750D01*
X164885000Y-96805750D01*
X164885000Y-97496310D01*
X164981673Y-97729699D01*
X165160302Y-97908327D01*
X165393691Y-98005000D01*
X166084250Y-98005000D01*
X166243000Y-97846250D01*
X166243000Y-96647000D01*
X166497000Y-96647000D01*
X166497000Y-97846250D01*
X166655750Y-98005000D01*
X167346309Y-98005000D01*
X167579698Y-97908327D01*
X167758327Y-97729699D01*
X167855000Y-97496310D01*
X167855000Y-96805750D01*
X167696250Y-96647000D01*
X166497000Y-96647000D01*
X166243000Y-96647000D01*
X165043750Y-96647000D01*
X164885000Y-96805750D01*
X78047620Y-96805750D01*
X78773826Y-95052532D01*
X142537073Y-95052532D01*
X142635736Y-95319387D01*
X143245461Y-95545908D01*
X143305401Y-95543690D01*
X164885000Y-95543690D01*
X164885000Y-96234250D01*
X165043750Y-96393000D01*
X166243000Y-96393000D01*
X166243000Y-95193750D01*
X166497000Y-95193750D01*
X166497000Y-96393000D01*
X167696250Y-96393000D01*
X167855000Y-96234250D01*
X167855000Y-95543690D01*
X167758327Y-95310301D01*
X167579698Y-95131673D01*
X167346309Y-95035000D01*
X166655750Y-95035000D01*
X166497000Y-95193750D01*
X166243000Y-95193750D01*
X166084250Y-95035000D01*
X165393691Y-95035000D01*
X165160302Y-95131673D01*
X164981673Y-95310301D01*
X164885000Y-95543690D01*
X143305401Y-95543690D01*
X143895460Y-95521856D01*
X144384264Y-95319387D01*
X144482927Y-95052532D01*
X143510000Y-94079605D01*
X142537073Y-95052532D01*
X78773826Y-95052532D01*
X78795000Y-95001415D01*
X78795000Y-92958585D01*
X78412347Y-92034778D01*
X82885000Y-92034778D01*
X82885000Y-92685222D01*
X83133914Y-93286153D01*
X83593847Y-93746086D01*
X84194778Y-93995000D01*
X84845222Y-93995000D01*
X85446153Y-93746086D01*
X85906086Y-93286153D01*
X86155000Y-92685222D01*
X86155000Y-92034778D01*
X106885000Y-92034778D01*
X106885000Y-92685222D01*
X107133914Y-93286153D01*
X107593847Y-93746086D01*
X108194778Y-93995000D01*
X108845222Y-93995000D01*
X109446153Y-93746086D01*
X109556778Y-93635461D01*
X141864092Y-93635461D01*
X141888144Y-94285460D01*
X142090613Y-94774264D01*
X142357468Y-94872927D01*
X143330395Y-93900000D01*
X143689605Y-93900000D01*
X144662532Y-94872927D01*
X144929387Y-94774264D01*
X145091877Y-94336890D01*
X153498524Y-94336890D01*
X153668355Y-94746924D01*
X154058642Y-95175183D01*
X154583108Y-95421486D01*
X154813000Y-95300819D01*
X154813000Y-94107000D01*
X155067000Y-94107000D01*
X155067000Y-95300819D01*
X155296892Y-95421486D01*
X155821358Y-95175183D01*
X156028629Y-94947745D01*
X159191861Y-94947745D01*
X159265995Y-95193864D01*
X159803223Y-95386965D01*
X160373454Y-95359778D01*
X160774005Y-95193864D01*
X160848139Y-94947745D01*
X160020000Y-94119605D01*
X159191861Y-94947745D01*
X156028629Y-94947745D01*
X156211645Y-94746924D01*
X156381476Y-94336890D01*
X156260155Y-94107000D01*
X155067000Y-94107000D01*
X154813000Y-94107000D01*
X153619845Y-94107000D01*
X153498524Y-94336890D01*
X145091877Y-94336890D01*
X145155908Y-94164539D01*
X145131856Y-93514540D01*
X144929387Y-93025736D01*
X144662532Y-92927073D01*
X143689605Y-93900000D01*
X143330395Y-93900000D01*
X142357468Y-92927073D01*
X142090613Y-93025736D01*
X141864092Y-93635461D01*
X109556778Y-93635461D01*
X109906086Y-93286153D01*
X110129216Y-92747468D01*
X142537073Y-92747468D01*
X143510000Y-93720395D01*
X144482927Y-92747468D01*
X144384264Y-92480613D01*
X143774539Y-92254092D01*
X143124540Y-92278144D01*
X142635736Y-92480613D01*
X142537073Y-92747468D01*
X110129216Y-92747468D01*
X110155000Y-92685222D01*
X110155000Y-92034778D01*
X109908635Y-91440000D01*
X153425908Y-91440000D01*
X153541161Y-92019418D01*
X153869375Y-92510625D01*
X154188478Y-92723843D01*
X154058642Y-92784817D01*
X153668355Y-93213076D01*
X153498524Y-93623110D01*
X153619845Y-93853000D01*
X154813000Y-93853000D01*
X154813000Y-93833000D01*
X155067000Y-93833000D01*
X155067000Y-93853000D01*
X156260155Y-93853000D01*
X156328642Y-93723223D01*
X158573035Y-93723223D01*
X158600222Y-94293454D01*
X158766136Y-94694005D01*
X159012255Y-94768139D01*
X159840395Y-93940000D01*
X160199605Y-93940000D01*
X161027745Y-94768139D01*
X161273864Y-94694005D01*
X161466965Y-94156777D01*
X161439778Y-93586546D01*
X161273864Y-93185995D01*
X161027745Y-93111861D01*
X160199605Y-93940000D01*
X159840395Y-93940000D01*
X159012255Y-93111861D01*
X158766136Y-93185995D01*
X158573035Y-93723223D01*
X156328642Y-93723223D01*
X156381476Y-93623110D01*
X156211645Y-93213076D01*
X155821358Y-92784817D01*
X155691522Y-92723843D01*
X156010625Y-92510625D01*
X156338839Y-92019418D01*
X156454092Y-91440000D01*
X156397315Y-91154561D01*
X158585000Y-91154561D01*
X158585000Y-91725439D01*
X158803466Y-92252862D01*
X159207138Y-92656534D01*
X159272299Y-92683525D01*
X159265995Y-92686136D01*
X159191861Y-92932255D01*
X160020000Y-93760395D01*
X160848139Y-92932255D01*
X160774005Y-92686136D01*
X160767254Y-92683710D01*
X160832862Y-92656534D01*
X161236534Y-92252862D01*
X161455000Y-91725439D01*
X161455000Y-91154561D01*
X161236534Y-90627138D01*
X161199396Y-90590000D01*
X164872560Y-90590000D01*
X164872560Y-92290000D01*
X164921843Y-92537765D01*
X165062191Y-92747809D01*
X165272235Y-92888157D01*
X165520000Y-92937440D01*
X167220000Y-92937440D01*
X167467765Y-92888157D01*
X167677809Y-92747809D01*
X167818157Y-92537765D01*
X167867440Y-92290000D01*
X167867440Y-90590000D01*
X167818157Y-90342235D01*
X167677809Y-90132191D01*
X167467765Y-89991843D01*
X167220000Y-89942560D01*
X165520000Y-89942560D01*
X165272235Y-89991843D01*
X165062191Y-90132191D01*
X164921843Y-90342235D01*
X164872560Y-90590000D01*
X161199396Y-90590000D01*
X160832862Y-90223466D01*
X160305439Y-90005000D01*
X159734561Y-90005000D01*
X159207138Y-90223466D01*
X158803466Y-90627138D01*
X158585000Y-91154561D01*
X156397315Y-91154561D01*
X156338839Y-90860582D01*
X156010625Y-90369375D01*
X155992381Y-90357184D01*
X156037765Y-90348157D01*
X156247809Y-90207809D01*
X156388157Y-89997765D01*
X156437440Y-89750000D01*
X156437440Y-88050000D01*
X156388157Y-87802235D01*
X156247809Y-87592191D01*
X156037765Y-87451843D01*
X155790000Y-87402560D01*
X154090000Y-87402560D01*
X153842235Y-87451843D01*
X153632191Y-87592191D01*
X153491843Y-87802235D01*
X153442560Y-88050000D01*
X153442560Y-89750000D01*
X153491843Y-89997765D01*
X153632191Y-90207809D01*
X153842235Y-90348157D01*
X153887619Y-90357184D01*
X153869375Y-90369375D01*
X153541161Y-90860582D01*
X153425908Y-91440000D01*
X109908635Y-91440000D01*
X109906086Y-91433847D01*
X109446153Y-90973914D01*
X108845222Y-90725000D01*
X108194778Y-90725000D01*
X107593847Y-90973914D01*
X107133914Y-91433847D01*
X106885000Y-92034778D01*
X86155000Y-92034778D01*
X85906086Y-91433847D01*
X85446153Y-90973914D01*
X84845222Y-90725000D01*
X84194778Y-90725000D01*
X83593847Y-90973914D01*
X83133914Y-91433847D01*
X82885000Y-92034778D01*
X78412347Y-92034778D01*
X78013243Y-91071256D01*
X76568744Y-89626757D01*
X74681415Y-88845000D01*
X72638585Y-88845000D01*
X70751256Y-89626757D01*
X69306757Y-91071256D01*
X68525000Y-92958585D01*
X64210000Y-92958585D01*
X64210000Y-87512532D01*
X107547073Y-87512532D01*
X107645736Y-87779387D01*
X108255461Y-88005908D01*
X108905460Y-87981856D01*
X109394264Y-87779387D01*
X109449496Y-87630000D01*
X112734928Y-87630000D01*
X112854062Y-88228927D01*
X113193327Y-88736673D01*
X113701073Y-89075938D01*
X114148818Y-89165000D01*
X114451182Y-89165000D01*
X114898927Y-89075938D01*
X115406673Y-88736673D01*
X115745938Y-88228927D01*
X115811365Y-87900000D01*
X141862560Y-87900000D01*
X141862560Y-89900000D01*
X141911843Y-90147765D01*
X142052191Y-90357809D01*
X142262235Y-90498157D01*
X142510000Y-90547440D01*
X144510000Y-90547440D01*
X144757765Y-90498157D01*
X144967809Y-90357809D01*
X145108157Y-90147765D01*
X145157440Y-89900000D01*
X145157440Y-87900000D01*
X145108157Y-87652235D01*
X144967809Y-87442191D01*
X144757765Y-87301843D01*
X144510000Y-87252560D01*
X142510000Y-87252560D01*
X142262235Y-87301843D01*
X142052191Y-87442191D01*
X141911843Y-87652235D01*
X141862560Y-87900000D01*
X115811365Y-87900000D01*
X115865072Y-87630000D01*
X115745938Y-87031073D01*
X115406673Y-86523327D01*
X114898927Y-86184062D01*
X114451182Y-86095000D01*
X114148818Y-86095000D01*
X113701073Y-86184062D01*
X113193327Y-86523327D01*
X112854062Y-87031073D01*
X112734928Y-87630000D01*
X109449496Y-87630000D01*
X109492927Y-87512532D01*
X108520000Y-86539605D01*
X107547073Y-87512532D01*
X64210000Y-87512532D01*
X64210000Y-86095461D01*
X106874092Y-86095461D01*
X106898144Y-86745460D01*
X107100613Y-87234264D01*
X107367468Y-87332927D01*
X108340395Y-86360000D01*
X108699605Y-86360000D01*
X109672532Y-87332927D01*
X109939387Y-87234264D01*
X110165908Y-86624539D01*
X110141856Y-85974540D01*
X109939387Y-85485736D01*
X109672532Y-85387073D01*
X108699605Y-86360000D01*
X108340395Y-86360000D01*
X107367468Y-85387073D01*
X107100613Y-85485736D01*
X106874092Y-86095461D01*
X64210000Y-86095461D01*
X64210000Y-85207468D01*
X107547073Y-85207468D01*
X108520000Y-86180395D01*
X109492927Y-85207468D01*
X109394264Y-84940613D01*
X108784539Y-84714092D01*
X108134540Y-84738144D01*
X107645736Y-84940613D01*
X107547073Y-85207468D01*
X64210000Y-85207468D01*
X64210000Y-82835750D01*
X164885000Y-82835750D01*
X164885000Y-83526310D01*
X164981673Y-83759699D01*
X165160302Y-83938327D01*
X165393691Y-84035000D01*
X166084250Y-84035000D01*
X166243000Y-83876250D01*
X166243000Y-82677000D01*
X166497000Y-82677000D01*
X166497000Y-83876250D01*
X166655750Y-84035000D01*
X167346309Y-84035000D01*
X167579698Y-83938327D01*
X167758327Y-83759699D01*
X167855000Y-83526310D01*
X167855000Y-82835750D01*
X167696250Y-82677000D01*
X166497000Y-82677000D01*
X166243000Y-82677000D01*
X165043750Y-82677000D01*
X164885000Y-82835750D01*
X64210000Y-82835750D01*
X64210000Y-75823586D01*
X68525000Y-75823586D01*
X68525000Y-77866416D01*
X69306757Y-79753745D01*
X70751256Y-81198244D01*
X72638585Y-81980001D01*
X74681415Y-81980001D01*
X76568744Y-81198244D01*
X77732210Y-80034778D01*
X82885000Y-80034778D01*
X82885000Y-80685222D01*
X83133914Y-81286153D01*
X83593847Y-81746086D01*
X84194778Y-81995000D01*
X84845222Y-81995000D01*
X85446153Y-81746086D01*
X85906086Y-81286153D01*
X86155000Y-80685222D01*
X86155000Y-80034778D01*
X106885000Y-80034778D01*
X106885000Y-80685222D01*
X107133914Y-81286153D01*
X107593847Y-81746086D01*
X108194778Y-81995000D01*
X108845222Y-81995000D01*
X109446153Y-81746086D01*
X109906086Y-81286153D01*
X110155000Y-80685222D01*
X110155000Y-80034778D01*
X109906086Y-79433847D01*
X109582239Y-79110000D01*
X112752560Y-79110000D01*
X112752560Y-80910000D01*
X112801843Y-81157765D01*
X112942191Y-81367809D01*
X113152235Y-81508157D01*
X113400000Y-81557440D01*
X115200000Y-81557440D01*
X115447765Y-81508157D01*
X115657809Y-81367809D01*
X115798157Y-81157765D01*
X115813121Y-81082532D01*
X122217073Y-81082532D01*
X122315736Y-81349387D01*
X122925461Y-81575908D01*
X123575460Y-81551856D01*
X124064264Y-81349387D01*
X124162927Y-81082532D01*
X142537073Y-81082532D01*
X142635736Y-81349387D01*
X143245461Y-81575908D01*
X143305401Y-81573690D01*
X164885000Y-81573690D01*
X164885000Y-82264250D01*
X165043750Y-82423000D01*
X166243000Y-82423000D01*
X166243000Y-81223750D01*
X166497000Y-81223750D01*
X166497000Y-82423000D01*
X167696250Y-82423000D01*
X167855000Y-82264250D01*
X167855000Y-81573690D01*
X167758327Y-81340301D01*
X167579698Y-81161673D01*
X167346309Y-81065000D01*
X166655750Y-81065000D01*
X166497000Y-81223750D01*
X166243000Y-81223750D01*
X166084250Y-81065000D01*
X165393691Y-81065000D01*
X165160302Y-81161673D01*
X164981673Y-81340301D01*
X164885000Y-81573690D01*
X143305401Y-81573690D01*
X143895460Y-81551856D01*
X144384264Y-81349387D01*
X144482927Y-81082532D01*
X143510000Y-80109605D01*
X142537073Y-81082532D01*
X124162927Y-81082532D01*
X123190000Y-80109605D01*
X122217073Y-81082532D01*
X115813121Y-81082532D01*
X115847440Y-80910000D01*
X115847440Y-79665461D01*
X121544092Y-79665461D01*
X121568144Y-80315460D01*
X121770613Y-80804264D01*
X122037468Y-80902927D01*
X123010395Y-79930000D01*
X123369605Y-79930000D01*
X124342532Y-80902927D01*
X124609387Y-80804264D01*
X124835908Y-80194539D01*
X124816331Y-79665461D01*
X141864092Y-79665461D01*
X141888144Y-80315460D01*
X142090613Y-80804264D01*
X142357468Y-80902927D01*
X143330395Y-79930000D01*
X143689605Y-79930000D01*
X144662532Y-80902927D01*
X144929387Y-80804264D01*
X145091877Y-80366890D01*
X153498524Y-80366890D01*
X153668355Y-80776924D01*
X154058642Y-81205183D01*
X154583108Y-81451486D01*
X154813000Y-81330819D01*
X154813000Y-80137000D01*
X155067000Y-80137000D01*
X155067000Y-81330819D01*
X155296892Y-81451486D01*
X155821358Y-81205183D01*
X156028629Y-80977745D01*
X159191861Y-80977745D01*
X159265995Y-81223864D01*
X159803223Y-81416965D01*
X160373454Y-81389778D01*
X160774005Y-81223864D01*
X160848139Y-80977745D01*
X160020000Y-80149605D01*
X159191861Y-80977745D01*
X156028629Y-80977745D01*
X156211645Y-80776924D01*
X156381476Y-80366890D01*
X156260155Y-80137000D01*
X155067000Y-80137000D01*
X154813000Y-80137000D01*
X153619845Y-80137000D01*
X153498524Y-80366890D01*
X145091877Y-80366890D01*
X145155908Y-80194539D01*
X145131856Y-79544540D01*
X144929387Y-79055736D01*
X144662532Y-78957073D01*
X143689605Y-79930000D01*
X143330395Y-79930000D01*
X142357468Y-78957073D01*
X142090613Y-79055736D01*
X141864092Y-79665461D01*
X124816331Y-79665461D01*
X124811856Y-79544540D01*
X124609387Y-79055736D01*
X124342532Y-78957073D01*
X123369605Y-79930000D01*
X123010395Y-79930000D01*
X122037468Y-78957073D01*
X121770613Y-79055736D01*
X121544092Y-79665461D01*
X115847440Y-79665461D01*
X115847440Y-79110000D01*
X115798157Y-78862235D01*
X115741518Y-78777468D01*
X122217073Y-78777468D01*
X123190000Y-79750395D01*
X124162927Y-78777468D01*
X124064264Y-78510613D01*
X123868126Y-78437745D01*
X132521861Y-78437745D01*
X132595995Y-78683864D01*
X133133223Y-78876965D01*
X133703454Y-78849778D01*
X133878025Y-78777468D01*
X142537073Y-78777468D01*
X143510000Y-79750395D01*
X144482927Y-78777468D01*
X144384264Y-78510613D01*
X143774539Y-78284092D01*
X143124540Y-78308144D01*
X142635736Y-78510613D01*
X142537073Y-78777468D01*
X133878025Y-78777468D01*
X134104005Y-78683864D01*
X134178139Y-78437745D01*
X133350000Y-77609605D01*
X132521861Y-78437745D01*
X123868126Y-78437745D01*
X123454539Y-78284092D01*
X122804540Y-78308144D01*
X122315736Y-78510613D01*
X122217073Y-78777468D01*
X115741518Y-78777468D01*
X115657809Y-78652191D01*
X115447765Y-78511843D01*
X115200000Y-78462560D01*
X113400000Y-78462560D01*
X113152235Y-78511843D01*
X112942191Y-78652191D01*
X112801843Y-78862235D01*
X112752560Y-79110000D01*
X109582239Y-79110000D01*
X109446153Y-78973914D01*
X108845222Y-78725000D01*
X108194778Y-78725000D01*
X107593847Y-78973914D01*
X107133914Y-79433847D01*
X106885000Y-80034778D01*
X86155000Y-80034778D01*
X85906086Y-79433847D01*
X85446153Y-78973914D01*
X84845222Y-78725000D01*
X84194778Y-78725000D01*
X83593847Y-78973914D01*
X83133914Y-79433847D01*
X82885000Y-80034778D01*
X77732210Y-80034778D01*
X78013243Y-79753745D01*
X78795000Y-77866416D01*
X78795000Y-77213223D01*
X131903035Y-77213223D01*
X131930222Y-77783454D01*
X132096136Y-78184005D01*
X132342255Y-78258139D01*
X133170395Y-77430000D01*
X133529605Y-77430000D01*
X134357745Y-78258139D01*
X134603864Y-78184005D01*
X134796965Y-77646777D01*
X134788537Y-77470000D01*
X153425908Y-77470000D01*
X153541161Y-78049418D01*
X153869375Y-78540625D01*
X154188478Y-78753843D01*
X154058642Y-78814817D01*
X153668355Y-79243076D01*
X153498524Y-79653110D01*
X153619845Y-79883000D01*
X154813000Y-79883000D01*
X154813000Y-79863000D01*
X155067000Y-79863000D01*
X155067000Y-79883000D01*
X156260155Y-79883000D01*
X156328642Y-79753223D01*
X158573035Y-79753223D01*
X158600222Y-80323454D01*
X158766136Y-80724005D01*
X159012255Y-80798139D01*
X159840395Y-79970000D01*
X160199605Y-79970000D01*
X161027745Y-80798139D01*
X161273864Y-80724005D01*
X161466965Y-80186777D01*
X161439778Y-79616546D01*
X161273864Y-79215995D01*
X161027745Y-79141861D01*
X160199605Y-79970000D01*
X159840395Y-79970000D01*
X159012255Y-79141861D01*
X158766136Y-79215995D01*
X158573035Y-79753223D01*
X156328642Y-79753223D01*
X156381476Y-79653110D01*
X156211645Y-79243076D01*
X155821358Y-78814817D01*
X155691522Y-78753843D01*
X156010625Y-78540625D01*
X156338839Y-78049418D01*
X156454092Y-77470000D01*
X156397315Y-77184561D01*
X158585000Y-77184561D01*
X158585000Y-77755439D01*
X158803466Y-78282862D01*
X159207138Y-78686534D01*
X159272299Y-78713525D01*
X159265995Y-78716136D01*
X159191861Y-78962255D01*
X160020000Y-79790395D01*
X160848139Y-78962255D01*
X160774005Y-78716136D01*
X160767254Y-78713710D01*
X160832862Y-78686534D01*
X161236534Y-78282862D01*
X161455000Y-77755439D01*
X161455000Y-77184561D01*
X161236534Y-76657138D01*
X161199396Y-76620000D01*
X164872560Y-76620000D01*
X164872560Y-78320000D01*
X164921843Y-78567765D01*
X165062191Y-78777809D01*
X165272235Y-78918157D01*
X165520000Y-78967440D01*
X167220000Y-78967440D01*
X167467765Y-78918157D01*
X167677809Y-78777809D01*
X167818157Y-78567765D01*
X167867440Y-78320000D01*
X167867440Y-76620000D01*
X167818157Y-76372235D01*
X167677809Y-76162191D01*
X167467765Y-76021843D01*
X167220000Y-75972560D01*
X165520000Y-75972560D01*
X165272235Y-76021843D01*
X165062191Y-76162191D01*
X164921843Y-76372235D01*
X164872560Y-76620000D01*
X161199396Y-76620000D01*
X160832862Y-76253466D01*
X160305439Y-76035000D01*
X159734561Y-76035000D01*
X159207138Y-76253466D01*
X158803466Y-76657138D01*
X158585000Y-77184561D01*
X156397315Y-77184561D01*
X156338839Y-76890582D01*
X156010625Y-76399375D01*
X155992381Y-76387184D01*
X156037765Y-76378157D01*
X156247809Y-76237809D01*
X156388157Y-76027765D01*
X156437440Y-75780000D01*
X156437440Y-74080000D01*
X156388157Y-73832235D01*
X156247809Y-73622191D01*
X156037765Y-73481843D01*
X155790000Y-73432560D01*
X154090000Y-73432560D01*
X153842235Y-73481843D01*
X153632191Y-73622191D01*
X153491843Y-73832235D01*
X153442560Y-74080000D01*
X153442560Y-75780000D01*
X153491843Y-76027765D01*
X153632191Y-76237809D01*
X153842235Y-76378157D01*
X153887619Y-76387184D01*
X153869375Y-76399375D01*
X153541161Y-76890582D01*
X153425908Y-77470000D01*
X134788537Y-77470000D01*
X134769778Y-77076546D01*
X134603864Y-76675995D01*
X134357745Y-76601861D01*
X133529605Y-77430000D01*
X133170395Y-77430000D01*
X132342255Y-76601861D01*
X132096136Y-76675995D01*
X131903035Y-77213223D01*
X78795000Y-77213223D01*
X78795000Y-75823586D01*
X78052073Y-74030000D01*
X112752560Y-74030000D01*
X112752560Y-75830000D01*
X112801843Y-76077765D01*
X112942191Y-76287809D01*
X113152235Y-76428157D01*
X113400000Y-76477440D01*
X115200000Y-76477440D01*
X115447765Y-76428157D01*
X115657809Y-76287809D01*
X115798157Y-76077765D01*
X115847440Y-75830000D01*
X115847440Y-74030000D01*
X115827549Y-73930000D01*
X121542560Y-73930000D01*
X121542560Y-75930000D01*
X121591843Y-76177765D01*
X121732191Y-76387809D01*
X121942235Y-76528157D01*
X122190000Y-76577440D01*
X124190000Y-76577440D01*
X124437765Y-76528157D01*
X124647809Y-76387809D01*
X124788157Y-76177765D01*
X124837440Y-75930000D01*
X124837440Y-74644561D01*
X131915000Y-74644561D01*
X131915000Y-75215439D01*
X132133466Y-75742862D01*
X132537138Y-76146534D01*
X132602299Y-76173525D01*
X132595995Y-76176136D01*
X132521861Y-76422255D01*
X133350000Y-77250395D01*
X134178139Y-76422255D01*
X134104005Y-76176136D01*
X134097254Y-76173710D01*
X134162862Y-76146534D01*
X134566534Y-75742862D01*
X134785000Y-75215439D01*
X134785000Y-74644561D01*
X134566534Y-74117138D01*
X134379396Y-73930000D01*
X141862560Y-73930000D01*
X141862560Y-75930000D01*
X141911843Y-76177765D01*
X142052191Y-76387809D01*
X142262235Y-76528157D01*
X142510000Y-76577440D01*
X144510000Y-76577440D01*
X144757765Y-76528157D01*
X144967809Y-76387809D01*
X145108157Y-76177765D01*
X145157440Y-75930000D01*
X145157440Y-73930000D01*
X145108157Y-73682235D01*
X144967809Y-73472191D01*
X144757765Y-73331843D01*
X144510000Y-73282560D01*
X142510000Y-73282560D01*
X142262235Y-73331843D01*
X142052191Y-73472191D01*
X141911843Y-73682235D01*
X141862560Y-73930000D01*
X134379396Y-73930000D01*
X134162862Y-73713466D01*
X133635439Y-73495000D01*
X133064561Y-73495000D01*
X132537138Y-73713466D01*
X132133466Y-74117138D01*
X131915000Y-74644561D01*
X124837440Y-74644561D01*
X124837440Y-73930000D01*
X124788157Y-73682235D01*
X124647809Y-73472191D01*
X124437765Y-73331843D01*
X124190000Y-73282560D01*
X122190000Y-73282560D01*
X121942235Y-73331843D01*
X121732191Y-73472191D01*
X121591843Y-73682235D01*
X121542560Y-73930000D01*
X115827549Y-73930000D01*
X115798157Y-73782235D01*
X115657809Y-73572191D01*
X115447765Y-73431843D01*
X115200000Y-73382560D01*
X113400000Y-73382560D01*
X113152235Y-73431843D01*
X112942191Y-73572191D01*
X112801843Y-73782235D01*
X112752560Y-74030000D01*
X78052073Y-74030000D01*
X78013243Y-73936257D01*
X76568744Y-72491758D01*
X74681415Y-71710001D01*
X72638585Y-71710001D01*
X70751256Y-72491758D01*
X69306757Y-73936257D01*
X68525000Y-75823586D01*
X64210000Y-75823586D01*
X64210000Y-67310000D01*
X112734928Y-67310000D01*
X112854062Y-67908927D01*
X113193327Y-68416673D01*
X113701073Y-68755938D01*
X114148818Y-68845000D01*
X114451182Y-68845000D01*
X114898927Y-68755938D01*
X115406673Y-68416673D01*
X115745938Y-67908927D01*
X115865072Y-67310000D01*
X115745938Y-66711073D01*
X115406673Y-66203327D01*
X114898927Y-65864062D01*
X114451182Y-65775000D01*
X114148818Y-65775000D01*
X113701073Y-65864062D01*
X113193327Y-66203327D01*
X112854062Y-66711073D01*
X112734928Y-67310000D01*
X64210000Y-67310000D01*
X64210000Y-62940000D01*
X177090001Y-62940000D01*
X177090000Y-112320000D01*
X177090000Y-112320000D01*
G37*
X177090000Y-112320000D02*
X64210000Y-112320000D01*
X64210000Y-92958585D01*
X68525000Y-92958585D01*
X68525000Y-95001415D01*
X69306757Y-96888744D01*
X70751256Y-98333243D01*
X72638585Y-99115000D01*
X74681415Y-99115000D01*
X76568744Y-98333243D01*
X78013243Y-96888744D01*
X78047620Y-96805750D01*
X164885000Y-96805750D01*
X164885000Y-97496310D01*
X164981673Y-97729699D01*
X165160302Y-97908327D01*
X165393691Y-98005000D01*
X166084250Y-98005000D01*
X166243000Y-97846250D01*
X166243000Y-96647000D01*
X166497000Y-96647000D01*
X166497000Y-97846250D01*
X166655750Y-98005000D01*
X167346309Y-98005000D01*
X167579698Y-97908327D01*
X167758327Y-97729699D01*
X167855000Y-97496310D01*
X167855000Y-96805750D01*
X167696250Y-96647000D01*
X166497000Y-96647000D01*
X166243000Y-96647000D01*
X165043750Y-96647000D01*
X164885000Y-96805750D01*
X78047620Y-96805750D01*
X78773826Y-95052532D01*
X142537073Y-95052532D01*
X142635736Y-95319387D01*
X143245461Y-95545908D01*
X143305401Y-95543690D01*
X164885000Y-95543690D01*
X164885000Y-96234250D01*
X165043750Y-96393000D01*
X166243000Y-96393000D01*
X166243000Y-95193750D01*
X166497000Y-95193750D01*
X166497000Y-96393000D01*
X167696250Y-96393000D01*
X167855000Y-96234250D01*
X167855000Y-95543690D01*
X167758327Y-95310301D01*
X167579698Y-95131673D01*
X167346309Y-95035000D01*
X166655750Y-95035000D01*
X166497000Y-95193750D01*
X166243000Y-95193750D01*
X166084250Y-95035000D01*
X165393691Y-95035000D01*
X165160302Y-95131673D01*
X164981673Y-95310301D01*
X164885000Y-95543690D01*
X143305401Y-95543690D01*
X143895460Y-95521856D01*
X144384264Y-95319387D01*
X144482927Y-95052532D01*
X143510000Y-94079605D01*
X142537073Y-95052532D01*
X78773826Y-95052532D01*
X78795000Y-95001415D01*
X78795000Y-92958585D01*
X78412347Y-92034778D01*
X82885000Y-92034778D01*
X82885000Y-92685222D01*
X83133914Y-93286153D01*
X83593847Y-93746086D01*
X84194778Y-93995000D01*
X84845222Y-93995000D01*
X85446153Y-93746086D01*
X85906086Y-93286153D01*
X86155000Y-92685222D01*
X86155000Y-92034778D01*
X106885000Y-92034778D01*
X106885000Y-92685222D01*
X107133914Y-93286153D01*
X107593847Y-93746086D01*
X108194778Y-93995000D01*
X108845222Y-93995000D01*
X109446153Y-93746086D01*
X109556778Y-93635461D01*
X141864092Y-93635461D01*
X141888144Y-94285460D01*
X142090613Y-94774264D01*
X142357468Y-94872927D01*
X143330395Y-93900000D01*
X143689605Y-93900000D01*
X144662532Y-94872927D01*
X144929387Y-94774264D01*
X145091877Y-94336890D01*
X153498524Y-94336890D01*
X153668355Y-94746924D01*
X154058642Y-95175183D01*
X154583108Y-95421486D01*
X154813000Y-95300819D01*
X154813000Y-94107000D01*
X155067000Y-94107000D01*
X155067000Y-95300819D01*
X155296892Y-95421486D01*
X155821358Y-95175183D01*
X156028629Y-94947745D01*
X159191861Y-94947745D01*
X159265995Y-95193864D01*
X159803223Y-95386965D01*
X160373454Y-95359778D01*
X160774005Y-95193864D01*
X160848139Y-94947745D01*
X160020000Y-94119605D01*
X159191861Y-94947745D01*
X156028629Y-94947745D01*
X156211645Y-94746924D01*
X156381476Y-94336890D01*
X156260155Y-94107000D01*
X155067000Y-94107000D01*
X154813000Y-94107000D01*
X153619845Y-94107000D01*
X153498524Y-94336890D01*
X145091877Y-94336890D01*
X145155908Y-94164539D01*
X145131856Y-93514540D01*
X144929387Y-93025736D01*
X144662532Y-92927073D01*
X143689605Y-93900000D01*
X143330395Y-93900000D01*
X142357468Y-92927073D01*
X142090613Y-93025736D01*
X141864092Y-93635461D01*
X109556778Y-93635461D01*
X109906086Y-93286153D01*
X110129216Y-92747468D01*
X142537073Y-92747468D01*
X143510000Y-93720395D01*
X144482927Y-92747468D01*
X144384264Y-92480613D01*
X143774539Y-92254092D01*
X143124540Y-92278144D01*
X142635736Y-92480613D01*
X142537073Y-92747468D01*
X110129216Y-92747468D01*
X110155000Y-92685222D01*
X110155000Y-92034778D01*
X109908635Y-91440000D01*
X153425908Y-91440000D01*
X153541161Y-92019418D01*
X153869375Y-92510625D01*
X154188478Y-92723843D01*
X154058642Y-92784817D01*
X153668355Y-93213076D01*
X153498524Y-93623110D01*
X153619845Y-93853000D01*
X154813000Y-93853000D01*
X154813000Y-93833000D01*
X155067000Y-93833000D01*
X155067000Y-93853000D01*
X156260155Y-93853000D01*
X156328642Y-93723223D01*
X158573035Y-93723223D01*
X158600222Y-94293454D01*
X158766136Y-94694005D01*
X159012255Y-94768139D01*
X159840395Y-93940000D01*
X160199605Y-93940000D01*
X161027745Y-94768139D01*
X161273864Y-94694005D01*
X161466965Y-94156777D01*
X161439778Y-93586546D01*
X161273864Y-93185995D01*
X161027745Y-93111861D01*
X160199605Y-93940000D01*
X159840395Y-93940000D01*
X159012255Y-93111861D01*
X158766136Y-93185995D01*
X158573035Y-93723223D01*
X156328642Y-93723223D01*
X156381476Y-93623110D01*
X156211645Y-93213076D01*
X155821358Y-92784817D01*
X155691522Y-92723843D01*
X156010625Y-92510625D01*
X156338839Y-92019418D01*
X156454092Y-91440000D01*
X156397315Y-91154561D01*
X158585000Y-91154561D01*
X158585000Y-91725439D01*
X158803466Y-92252862D01*
X159207138Y-92656534D01*
X159272299Y-92683525D01*
X159265995Y-92686136D01*
X159191861Y-92932255D01*
X160020000Y-93760395D01*
X160848139Y-92932255D01*
X160774005Y-92686136D01*
X160767254Y-92683710D01*
X160832862Y-92656534D01*
X161236534Y-92252862D01*
X161455000Y-91725439D01*
X161455000Y-91154561D01*
X161236534Y-90627138D01*
X161199396Y-90590000D01*
X164872560Y-90590000D01*
X164872560Y-92290000D01*
X164921843Y-92537765D01*
X165062191Y-92747809D01*
X165272235Y-92888157D01*
X165520000Y-92937440D01*
X167220000Y-92937440D01*
X167467765Y-92888157D01*
X167677809Y-92747809D01*
X167818157Y-92537765D01*
X167867440Y-92290000D01*
X167867440Y-90590000D01*
X167818157Y-90342235D01*
X167677809Y-90132191D01*
X167467765Y-89991843D01*
X167220000Y-89942560D01*
X165520000Y-89942560D01*
X165272235Y-89991843D01*
X165062191Y-90132191D01*
X164921843Y-90342235D01*
X164872560Y-90590000D01*
X161199396Y-90590000D01*
X160832862Y-90223466D01*
X160305439Y-90005000D01*
X159734561Y-90005000D01*
X159207138Y-90223466D01*
X158803466Y-90627138D01*
X158585000Y-91154561D01*
X156397315Y-91154561D01*
X156338839Y-90860582D01*
X156010625Y-90369375D01*
X155992381Y-90357184D01*
X156037765Y-90348157D01*
X156247809Y-90207809D01*
X156388157Y-89997765D01*
X156437440Y-89750000D01*
X156437440Y-88050000D01*
X156388157Y-87802235D01*
X156247809Y-87592191D01*
X156037765Y-87451843D01*
X155790000Y-87402560D01*
X154090000Y-87402560D01*
X153842235Y-87451843D01*
X153632191Y-87592191D01*
X153491843Y-87802235D01*
X153442560Y-88050000D01*
X153442560Y-89750000D01*
X153491843Y-89997765D01*
X153632191Y-90207809D01*
X153842235Y-90348157D01*
X153887619Y-90357184D01*
X153869375Y-90369375D01*
X153541161Y-90860582D01*
X153425908Y-91440000D01*
X109908635Y-91440000D01*
X109906086Y-91433847D01*
X109446153Y-90973914D01*
X108845222Y-90725000D01*
X108194778Y-90725000D01*
X107593847Y-90973914D01*
X107133914Y-91433847D01*
X106885000Y-92034778D01*
X86155000Y-92034778D01*
X85906086Y-91433847D01*
X85446153Y-90973914D01*
X84845222Y-90725000D01*
X84194778Y-90725000D01*
X83593847Y-90973914D01*
X83133914Y-91433847D01*
X82885000Y-92034778D01*
X78412347Y-92034778D01*
X78013243Y-91071256D01*
X76568744Y-89626757D01*
X74681415Y-88845000D01*
X72638585Y-88845000D01*
X70751256Y-89626757D01*
X69306757Y-91071256D01*
X68525000Y-92958585D01*
X64210000Y-92958585D01*
X64210000Y-87512532D01*
X107547073Y-87512532D01*
X107645736Y-87779387D01*
X108255461Y-88005908D01*
X108905460Y-87981856D01*
X109394264Y-87779387D01*
X109449496Y-87630000D01*
X112734928Y-87630000D01*
X112854062Y-88228927D01*
X113193327Y-88736673D01*
X113701073Y-89075938D01*
X114148818Y-89165000D01*
X114451182Y-89165000D01*
X114898927Y-89075938D01*
X115406673Y-88736673D01*
X115745938Y-88228927D01*
X115811365Y-87900000D01*
X141862560Y-87900000D01*
X141862560Y-89900000D01*
X141911843Y-90147765D01*
X142052191Y-90357809D01*
X142262235Y-90498157D01*
X142510000Y-90547440D01*
X144510000Y-90547440D01*
X144757765Y-90498157D01*
X144967809Y-90357809D01*
X145108157Y-90147765D01*
X145157440Y-89900000D01*
X145157440Y-87900000D01*
X145108157Y-87652235D01*
X144967809Y-87442191D01*
X144757765Y-87301843D01*
X144510000Y-87252560D01*
X142510000Y-87252560D01*
X142262235Y-87301843D01*
X142052191Y-87442191D01*
X141911843Y-87652235D01*
X141862560Y-87900000D01*
X115811365Y-87900000D01*
X115865072Y-87630000D01*
X115745938Y-87031073D01*
X115406673Y-86523327D01*
X114898927Y-86184062D01*
X114451182Y-86095000D01*
X114148818Y-86095000D01*
X113701073Y-86184062D01*
X113193327Y-86523327D01*
X112854062Y-87031073D01*
X112734928Y-87630000D01*
X109449496Y-87630000D01*
X109492927Y-87512532D01*
X108520000Y-86539605D01*
X107547073Y-87512532D01*
X64210000Y-87512532D01*
X64210000Y-86095461D01*
X106874092Y-86095461D01*
X106898144Y-86745460D01*
X107100613Y-87234264D01*
X107367468Y-87332927D01*
X108340395Y-86360000D01*
X108699605Y-86360000D01*
X109672532Y-87332927D01*
X109939387Y-87234264D01*
X110165908Y-86624539D01*
X110141856Y-85974540D01*
X109939387Y-85485736D01*
X109672532Y-85387073D01*
X108699605Y-86360000D01*
X108340395Y-86360000D01*
X107367468Y-85387073D01*
X107100613Y-85485736D01*
X106874092Y-86095461D01*
X64210000Y-86095461D01*
X64210000Y-85207468D01*
X107547073Y-85207468D01*
X108520000Y-86180395D01*
X109492927Y-85207468D01*
X109394264Y-84940613D01*
X108784539Y-84714092D01*
X108134540Y-84738144D01*
X107645736Y-84940613D01*
X107547073Y-85207468D01*
X64210000Y-85207468D01*
X64210000Y-82835750D01*
X164885000Y-82835750D01*
X164885000Y-83526310D01*
X164981673Y-83759699D01*
X165160302Y-83938327D01*
X165393691Y-84035000D01*
X166084250Y-84035000D01*
X166243000Y-83876250D01*
X166243000Y-82677000D01*
X166497000Y-82677000D01*
X166497000Y-83876250D01*
X166655750Y-84035000D01*
X167346309Y-84035000D01*
X167579698Y-83938327D01*
X167758327Y-83759699D01*
X167855000Y-83526310D01*
X167855000Y-82835750D01*
X167696250Y-82677000D01*
X166497000Y-82677000D01*
X166243000Y-82677000D01*
X165043750Y-82677000D01*
X164885000Y-82835750D01*
X64210000Y-82835750D01*
X64210000Y-75823586D01*
X68525000Y-75823586D01*
X68525000Y-77866416D01*
X69306757Y-79753745D01*
X70751256Y-81198244D01*
X72638585Y-81980001D01*
X74681415Y-81980001D01*
X76568744Y-81198244D01*
X77732210Y-80034778D01*
X82885000Y-80034778D01*
X82885000Y-80685222D01*
X83133914Y-81286153D01*
X83593847Y-81746086D01*
X84194778Y-81995000D01*
X84845222Y-81995000D01*
X85446153Y-81746086D01*
X85906086Y-81286153D01*
X86155000Y-80685222D01*
X86155000Y-80034778D01*
X106885000Y-80034778D01*
X106885000Y-80685222D01*
X107133914Y-81286153D01*
X107593847Y-81746086D01*
X108194778Y-81995000D01*
X108845222Y-81995000D01*
X109446153Y-81746086D01*
X109906086Y-81286153D01*
X110155000Y-80685222D01*
X110155000Y-80034778D01*
X109906086Y-79433847D01*
X109582239Y-79110000D01*
X112752560Y-79110000D01*
X112752560Y-80910000D01*
X112801843Y-81157765D01*
X112942191Y-81367809D01*
X113152235Y-81508157D01*
X113400000Y-81557440D01*
X115200000Y-81557440D01*
X115447765Y-81508157D01*
X115657809Y-81367809D01*
X115798157Y-81157765D01*
X115813121Y-81082532D01*
X122217073Y-81082532D01*
X122315736Y-81349387D01*
X122925461Y-81575908D01*
X123575460Y-81551856D01*
X124064264Y-81349387D01*
X124162927Y-81082532D01*
X142537073Y-81082532D01*
X142635736Y-81349387D01*
X143245461Y-81575908D01*
X143305401Y-81573690D01*
X164885000Y-81573690D01*
X164885000Y-82264250D01*
X165043750Y-82423000D01*
X166243000Y-82423000D01*
X166243000Y-81223750D01*
X166497000Y-81223750D01*
X166497000Y-82423000D01*
X167696250Y-82423000D01*
X167855000Y-82264250D01*
X167855000Y-81573690D01*
X167758327Y-81340301D01*
X167579698Y-81161673D01*
X167346309Y-81065000D01*
X166655750Y-81065000D01*
X166497000Y-81223750D01*
X166243000Y-81223750D01*
X166084250Y-81065000D01*
X165393691Y-81065000D01*
X165160302Y-81161673D01*
X164981673Y-81340301D01*
X164885000Y-81573690D01*
X143305401Y-81573690D01*
X143895460Y-81551856D01*
X144384264Y-81349387D01*
X144482927Y-81082532D01*
X143510000Y-80109605D01*
X142537073Y-81082532D01*
X124162927Y-81082532D01*
X123190000Y-80109605D01*
X122217073Y-81082532D01*
X115813121Y-81082532D01*
X115847440Y-80910000D01*
X115847440Y-79665461D01*
X121544092Y-79665461D01*
X121568144Y-80315460D01*
X121770613Y-80804264D01*
X122037468Y-80902927D01*
X123010395Y-79930000D01*
X123369605Y-79930000D01*
X124342532Y-80902927D01*
X124609387Y-80804264D01*
X124835908Y-80194539D01*
X124816331Y-79665461D01*
X141864092Y-79665461D01*
X141888144Y-80315460D01*
X142090613Y-80804264D01*
X142357468Y-80902927D01*
X143330395Y-79930000D01*
X143689605Y-79930000D01*
X144662532Y-80902927D01*
X144929387Y-80804264D01*
X145091877Y-80366890D01*
X153498524Y-80366890D01*
X153668355Y-80776924D01*
X154058642Y-81205183D01*
X154583108Y-81451486D01*
X154813000Y-81330819D01*
X154813000Y-80137000D01*
X155067000Y-80137000D01*
X155067000Y-81330819D01*
X155296892Y-81451486D01*
X155821358Y-81205183D01*
X156028629Y-80977745D01*
X159191861Y-80977745D01*
X159265995Y-81223864D01*
X159803223Y-81416965D01*
X160373454Y-81389778D01*
X160774005Y-81223864D01*
X160848139Y-80977745D01*
X160020000Y-80149605D01*
X159191861Y-80977745D01*
X156028629Y-80977745D01*
X156211645Y-80776924D01*
X156381476Y-80366890D01*
X156260155Y-80137000D01*
X155067000Y-80137000D01*
X154813000Y-80137000D01*
X153619845Y-80137000D01*
X153498524Y-80366890D01*
X145091877Y-80366890D01*
X145155908Y-80194539D01*
X145131856Y-79544540D01*
X144929387Y-79055736D01*
X144662532Y-78957073D01*
X143689605Y-79930000D01*
X143330395Y-79930000D01*
X142357468Y-78957073D01*
X142090613Y-79055736D01*
X141864092Y-79665461D01*
X124816331Y-79665461D01*
X124811856Y-79544540D01*
X124609387Y-79055736D01*
X124342532Y-78957073D01*
X123369605Y-79930000D01*
X123010395Y-79930000D01*
X122037468Y-78957073D01*
X121770613Y-79055736D01*
X121544092Y-79665461D01*
X115847440Y-79665461D01*
X115847440Y-79110000D01*
X115798157Y-78862235D01*
X115741518Y-78777468D01*
X122217073Y-78777468D01*
X123190000Y-79750395D01*
X124162927Y-78777468D01*
X124064264Y-78510613D01*
X123868126Y-78437745D01*
X132521861Y-78437745D01*
X132595995Y-78683864D01*
X133133223Y-78876965D01*
X133703454Y-78849778D01*
X133878025Y-78777468D01*
X142537073Y-78777468D01*
X143510000Y-79750395D01*
X144482927Y-78777468D01*
X144384264Y-78510613D01*
X143774539Y-78284092D01*
X143124540Y-78308144D01*
X142635736Y-78510613D01*
X142537073Y-78777468D01*
X133878025Y-78777468D01*
X134104005Y-78683864D01*
X134178139Y-78437745D01*
X133350000Y-77609605D01*
X132521861Y-78437745D01*
X123868126Y-78437745D01*
X123454539Y-78284092D01*
X122804540Y-78308144D01*
X122315736Y-78510613D01*
X122217073Y-78777468D01*
X115741518Y-78777468D01*
X115657809Y-78652191D01*
X115447765Y-78511843D01*
X115200000Y-78462560D01*
X113400000Y-78462560D01*
X113152235Y-78511843D01*
X112942191Y-78652191D01*
X112801843Y-78862235D01*
X112752560Y-79110000D01*
X109582239Y-79110000D01*
X109446153Y-78973914D01*
X108845222Y-78725000D01*
X108194778Y-78725000D01*
X107593847Y-78973914D01*
X107133914Y-79433847D01*
X106885000Y-80034778D01*
X86155000Y-80034778D01*
X85906086Y-79433847D01*
X85446153Y-78973914D01*
X84845222Y-78725000D01*
X84194778Y-78725000D01*
X83593847Y-78973914D01*
X83133914Y-79433847D01*
X82885000Y-80034778D01*
X77732210Y-80034778D01*
X78013243Y-79753745D01*
X78795000Y-77866416D01*
X78795000Y-77213223D01*
X131903035Y-77213223D01*
X131930222Y-77783454D01*
X132096136Y-78184005D01*
X132342255Y-78258139D01*
X133170395Y-77430000D01*
X133529605Y-77430000D01*
X134357745Y-78258139D01*
X134603864Y-78184005D01*
X134796965Y-77646777D01*
X134788537Y-77470000D01*
X153425908Y-77470000D01*
X153541161Y-78049418D01*
X153869375Y-78540625D01*
X154188478Y-78753843D01*
X154058642Y-78814817D01*
X153668355Y-79243076D01*
X153498524Y-79653110D01*
X153619845Y-79883000D01*
X154813000Y-79883000D01*
X154813000Y-79863000D01*
X155067000Y-79863000D01*
X155067000Y-79883000D01*
X156260155Y-79883000D01*
X156328642Y-79753223D01*
X158573035Y-79753223D01*
X158600222Y-80323454D01*
X158766136Y-80724005D01*
X159012255Y-80798139D01*
X159840395Y-79970000D01*
X160199605Y-79970000D01*
X161027745Y-80798139D01*
X161273864Y-80724005D01*
X161466965Y-80186777D01*
X161439778Y-79616546D01*
X161273864Y-79215995D01*
X161027745Y-79141861D01*
X160199605Y-79970000D01*
X159840395Y-79970000D01*
X159012255Y-79141861D01*
X158766136Y-79215995D01*
X158573035Y-79753223D01*
X156328642Y-79753223D01*
X156381476Y-79653110D01*
X156211645Y-79243076D01*
X155821358Y-78814817D01*
X155691522Y-78753843D01*
X156010625Y-78540625D01*
X156338839Y-78049418D01*
X156454092Y-77470000D01*
X156397315Y-77184561D01*
X158585000Y-77184561D01*
X158585000Y-77755439D01*
X158803466Y-78282862D01*
X159207138Y-78686534D01*
X159272299Y-78713525D01*
X159265995Y-78716136D01*
X159191861Y-78962255D01*
X160020000Y-79790395D01*
X160848139Y-78962255D01*
X160774005Y-78716136D01*
X160767254Y-78713710D01*
X160832862Y-78686534D01*
X161236534Y-78282862D01*
X161455000Y-77755439D01*
X161455000Y-77184561D01*
X161236534Y-76657138D01*
X161199396Y-76620000D01*
X164872560Y-76620000D01*
X164872560Y-78320000D01*
X164921843Y-78567765D01*
X165062191Y-78777809D01*
X165272235Y-78918157D01*
X165520000Y-78967440D01*
X167220000Y-78967440D01*
X167467765Y-78918157D01*
X167677809Y-78777809D01*
X167818157Y-78567765D01*
X167867440Y-78320000D01*
X167867440Y-76620000D01*
X167818157Y-76372235D01*
X167677809Y-76162191D01*
X167467765Y-76021843D01*
X167220000Y-75972560D01*
X165520000Y-75972560D01*
X165272235Y-76021843D01*
X165062191Y-76162191D01*
X164921843Y-76372235D01*
X164872560Y-76620000D01*
X161199396Y-76620000D01*
X160832862Y-76253466D01*
X160305439Y-76035000D01*
X159734561Y-76035000D01*
X159207138Y-76253466D01*
X158803466Y-76657138D01*
X158585000Y-77184561D01*
X156397315Y-77184561D01*
X156338839Y-76890582D01*
X156010625Y-76399375D01*
X155992381Y-76387184D01*
X156037765Y-76378157D01*
X156247809Y-76237809D01*
X156388157Y-76027765D01*
X156437440Y-75780000D01*
X156437440Y-74080000D01*
X156388157Y-73832235D01*
X156247809Y-73622191D01*
X156037765Y-73481843D01*
X155790000Y-73432560D01*
X154090000Y-73432560D01*
X153842235Y-73481843D01*
X153632191Y-73622191D01*
X153491843Y-73832235D01*
X153442560Y-74080000D01*
X153442560Y-75780000D01*
X153491843Y-76027765D01*
X153632191Y-76237809D01*
X153842235Y-76378157D01*
X153887619Y-76387184D01*
X153869375Y-76399375D01*
X153541161Y-76890582D01*
X153425908Y-77470000D01*
X134788537Y-77470000D01*
X134769778Y-77076546D01*
X134603864Y-76675995D01*
X134357745Y-76601861D01*
X133529605Y-77430000D01*
X133170395Y-77430000D01*
X132342255Y-76601861D01*
X132096136Y-76675995D01*
X131903035Y-77213223D01*
X78795000Y-77213223D01*
X78795000Y-75823586D01*
X78052073Y-74030000D01*
X112752560Y-74030000D01*
X112752560Y-75830000D01*
X112801843Y-76077765D01*
X112942191Y-76287809D01*
X113152235Y-76428157D01*
X113400000Y-76477440D01*
X115200000Y-76477440D01*
X115447765Y-76428157D01*
X115657809Y-76287809D01*
X115798157Y-76077765D01*
X115847440Y-75830000D01*
X115847440Y-74030000D01*
X115827549Y-73930000D01*
X121542560Y-73930000D01*
X121542560Y-75930000D01*
X121591843Y-76177765D01*
X121732191Y-76387809D01*
X121942235Y-76528157D01*
X122190000Y-76577440D01*
X124190000Y-76577440D01*
X124437765Y-76528157D01*
X124647809Y-76387809D01*
X124788157Y-76177765D01*
X124837440Y-75930000D01*
X124837440Y-74644561D01*
X131915000Y-74644561D01*
X131915000Y-75215439D01*
X132133466Y-75742862D01*
X132537138Y-76146534D01*
X132602299Y-76173525D01*
X132595995Y-76176136D01*
X132521861Y-76422255D01*
X133350000Y-77250395D01*
X134178139Y-76422255D01*
X134104005Y-76176136D01*
X134097254Y-76173710D01*
X134162862Y-76146534D01*
X134566534Y-75742862D01*
X134785000Y-75215439D01*
X134785000Y-74644561D01*
X134566534Y-74117138D01*
X134379396Y-73930000D01*
X141862560Y-73930000D01*
X141862560Y-75930000D01*
X141911843Y-76177765D01*
X142052191Y-76387809D01*
X142262235Y-76528157D01*
X142510000Y-76577440D01*
X144510000Y-76577440D01*
X144757765Y-76528157D01*
X144967809Y-76387809D01*
X145108157Y-76177765D01*
X145157440Y-75930000D01*
X145157440Y-73930000D01*
X145108157Y-73682235D01*
X144967809Y-73472191D01*
X144757765Y-73331843D01*
X144510000Y-73282560D01*
X142510000Y-73282560D01*
X142262235Y-73331843D01*
X142052191Y-73472191D01*
X141911843Y-73682235D01*
X141862560Y-73930000D01*
X134379396Y-73930000D01*
X134162862Y-73713466D01*
X133635439Y-73495000D01*
X133064561Y-73495000D01*
X132537138Y-73713466D01*
X132133466Y-74117138D01*
X131915000Y-74644561D01*
X124837440Y-74644561D01*
X124837440Y-73930000D01*
X124788157Y-73682235D01*
X124647809Y-73472191D01*
X124437765Y-73331843D01*
X124190000Y-73282560D01*
X122190000Y-73282560D01*
X121942235Y-73331843D01*
X121732191Y-73472191D01*
X121591843Y-73682235D01*
X121542560Y-73930000D01*
X115827549Y-73930000D01*
X115798157Y-73782235D01*
X115657809Y-73572191D01*
X115447765Y-73431843D01*
X115200000Y-73382560D01*
X113400000Y-73382560D01*
X113152235Y-73431843D01*
X112942191Y-73572191D01*
X112801843Y-73782235D01*
X112752560Y-74030000D01*
X78052073Y-74030000D01*
X78013243Y-73936257D01*
X76568744Y-72491758D01*
X74681415Y-71710001D01*
X72638585Y-71710001D01*
X70751256Y-72491758D01*
X69306757Y-73936257D01*
X68525000Y-75823586D01*
X64210000Y-75823586D01*
X64210000Y-67310000D01*
X112734928Y-67310000D01*
X112854062Y-67908927D01*
X113193327Y-68416673D01*
X113701073Y-68755938D01*
X114148818Y-68845000D01*
X114451182Y-68845000D01*
X114898927Y-68755938D01*
X115406673Y-68416673D01*
X115745938Y-67908927D01*
X115865072Y-67310000D01*
X115745938Y-66711073D01*
X115406673Y-66203327D01*
X114898927Y-65864062D01*
X114451182Y-65775000D01*
X114148818Y-65775000D01*
X113701073Y-65864062D01*
X113193327Y-66203327D01*
X112854062Y-66711073D01*
X112734928Y-67310000D01*
X64210000Y-67310000D01*
X64210000Y-62940000D01*
X177090001Y-62940000D01*
X177090000Y-112320000D01*
G04 #@! TD*
M02*
