M48
;DRILL file {KiCad (5.0.1-3-g963ef8bb5)} date 2018年11月01日 木曜日 01:46:09
;FORMAT={-:-/ absolute / inch / decimal}
FMAT,2
INCH,TZ
T1C0.0236
T2C0.0315
T3C0.0354
T4C0.0394
T5C0.1772
%
G90
G05
M72
T1
X2.7671Y-3.0254
X2.806Y-2.9314
X2.806Y-3.1193
X2.9Y-2.8925
X2.9Y-3.1583
X2.994Y-2.9314
X2.994Y-3.1193
X3.0329Y-3.0254
X2.7671Y-3.7
X2.806Y-3.606
X2.806Y-3.794
X2.9Y-3.5671
X2.9Y-3.8329
X2.994Y-3.606
X2.994Y-3.794
X3.0329Y-3.7
T2
X6.3Y-3.05
X6.3Y-3.1484
X5.25Y-2.95
X5.25Y-3.0484
X6.3Y-3.6
X6.3Y-3.6984
T3
X4.5Y-2.65
X4.5Y-2.95
X4.5Y-3.15
X4.5Y-3.45
T4
X5.65Y-2.95
X5.65Y-3.1469
X6.1Y-2.95
X6.1Y-3.05
X6.1Y-3.15
X6.55Y-3.25
X6.55Y-3.6
X5.65Y-3.5
X5.65Y-3.6969
X6.1Y-3.5
X6.1Y-3.6
X6.1Y-3.7
X4.85Y-2.95
X4.85Y-3.1469
X6.55Y-3.8
X6.55Y-3.05
X3.3276Y-3.1638
X3.3276Y-3.6362
X4.2724Y-3.1638
X4.2724Y-3.4
X4.2724Y-3.6362
T5
X2.9Y-3.0254
X2.9Y-3.7
T0
M30
