G04 #@! TF.GenerationSoftware,KiCad,Pcbnew,(5.0.1-3-g963ef8bb5)*
G04 #@! TF.CreationDate,2018-11-01T01:45:15+09:00*
G04 #@! TF.ProjectId,firstTraining,6669727374547261696E696E672E6B69,rev?*
G04 #@! TF.SameCoordinates,Original*
G04 #@! TF.FileFunction,Legend,Top*
G04 #@! TF.FilePolarity,Positive*
%FSLAX46Y46*%
G04 Gerber Fmt 4.6, Leading zero omitted, Abs format (unit mm)*
G04 Created by KiCad (PCBNEW (5.0.1-3-g963ef8bb5)) date 2018年11月01日 木曜日 01:45:15*
%MOMM*%
%LPD*%
G01*
G04 APERTURE LIST*
%ADD10C,0.120000*%
%ADD11C,0.150000*%
G04 APERTURE END LIST*
D10*
G04 #@! TO.C,C1*
X128310000Y-77430000D02*
G75*
G03X128310000Y-77430000I-5120000J0D01*
G01*
X128270000Y-77430000D02*
X118110000Y-77430000D01*
X128270000Y-77470000D02*
X118110000Y-77470000D01*
X128270000Y-77510000D02*
X118110000Y-77510000D01*
X128269000Y-77550000D02*
X118111000Y-77550000D01*
X128268000Y-77590000D02*
X118112000Y-77590000D01*
X128267000Y-77630000D02*
X118113000Y-77630000D01*
X128265000Y-77670000D02*
X118115000Y-77670000D01*
X128263000Y-77710000D02*
X118117000Y-77710000D01*
X128260000Y-77750000D02*
X118120000Y-77750000D01*
X128258000Y-77790000D02*
X118122000Y-77790000D01*
X128255000Y-77830000D02*
X118125000Y-77830000D01*
X128252000Y-77870000D02*
X118128000Y-77870000D01*
X128248000Y-77910000D02*
X118132000Y-77910000D01*
X128244000Y-77950000D02*
X118136000Y-77950000D01*
X128240000Y-77990000D02*
X118140000Y-77990000D01*
X128235000Y-78030000D02*
X118145000Y-78030000D01*
X128230000Y-78070000D02*
X118150000Y-78070000D01*
X128225000Y-78110000D02*
X118155000Y-78110000D01*
X128220000Y-78151000D02*
X118160000Y-78151000D01*
X128214000Y-78191000D02*
X118166000Y-78191000D01*
X128208000Y-78231000D02*
X118172000Y-78231000D01*
X128201000Y-78271000D02*
X118179000Y-78271000D01*
X128194000Y-78311000D02*
X118186000Y-78311000D01*
X128187000Y-78351000D02*
X118193000Y-78351000D01*
X128180000Y-78391000D02*
X118200000Y-78391000D01*
X128172000Y-78431000D02*
X118208000Y-78431000D01*
X128164000Y-78471000D02*
X118216000Y-78471000D01*
X128155000Y-78511000D02*
X118225000Y-78511000D01*
X128146000Y-78551000D02*
X118234000Y-78551000D01*
X128137000Y-78591000D02*
X118243000Y-78591000D01*
X128128000Y-78631000D02*
X118252000Y-78631000D01*
X128118000Y-78671000D02*
X118262000Y-78671000D01*
X128108000Y-78711000D02*
X124431000Y-78711000D01*
X121949000Y-78711000D02*
X118272000Y-78711000D01*
X128097000Y-78751000D02*
X124431000Y-78751000D01*
X121949000Y-78751000D02*
X118283000Y-78751000D01*
X128087000Y-78791000D02*
X124431000Y-78791000D01*
X121949000Y-78791000D02*
X118293000Y-78791000D01*
X128075000Y-78831000D02*
X124431000Y-78831000D01*
X121949000Y-78831000D02*
X118305000Y-78831000D01*
X128064000Y-78871000D02*
X124431000Y-78871000D01*
X121949000Y-78871000D02*
X118316000Y-78871000D01*
X128052000Y-78911000D02*
X124431000Y-78911000D01*
X121949000Y-78911000D02*
X118328000Y-78911000D01*
X128040000Y-78951000D02*
X124431000Y-78951000D01*
X121949000Y-78951000D02*
X118340000Y-78951000D01*
X128027000Y-78991000D02*
X124431000Y-78991000D01*
X121949000Y-78991000D02*
X118353000Y-78991000D01*
X128014000Y-79031000D02*
X124431000Y-79031000D01*
X121949000Y-79031000D02*
X118366000Y-79031000D01*
X128001000Y-79071000D02*
X124431000Y-79071000D01*
X121949000Y-79071000D02*
X118379000Y-79071000D01*
X127987000Y-79111000D02*
X124431000Y-79111000D01*
X121949000Y-79111000D02*
X118393000Y-79111000D01*
X127973000Y-79151000D02*
X124431000Y-79151000D01*
X121949000Y-79151000D02*
X118407000Y-79151000D01*
X127958000Y-79191000D02*
X124431000Y-79191000D01*
X121949000Y-79191000D02*
X118422000Y-79191000D01*
X127944000Y-79231000D02*
X124431000Y-79231000D01*
X121949000Y-79231000D02*
X118436000Y-79231000D01*
X127928000Y-79271000D02*
X124431000Y-79271000D01*
X121949000Y-79271000D02*
X118452000Y-79271000D01*
X127913000Y-79311000D02*
X124431000Y-79311000D01*
X121949000Y-79311000D02*
X118467000Y-79311000D01*
X127897000Y-79351000D02*
X124431000Y-79351000D01*
X121949000Y-79351000D02*
X118483000Y-79351000D01*
X127880000Y-79391000D02*
X124431000Y-79391000D01*
X121949000Y-79391000D02*
X118500000Y-79391000D01*
X127864000Y-79431000D02*
X124431000Y-79431000D01*
X121949000Y-79431000D02*
X118516000Y-79431000D01*
X127847000Y-79471000D02*
X124431000Y-79471000D01*
X121949000Y-79471000D02*
X118533000Y-79471000D01*
X127829000Y-79511000D02*
X124431000Y-79511000D01*
X121949000Y-79511000D02*
X118551000Y-79511000D01*
X127811000Y-79551000D02*
X124431000Y-79551000D01*
X121949000Y-79551000D02*
X118569000Y-79551000D01*
X127793000Y-79591000D02*
X124431000Y-79591000D01*
X121949000Y-79591000D02*
X118587000Y-79591000D01*
X127774000Y-79631000D02*
X124431000Y-79631000D01*
X121949000Y-79631000D02*
X118606000Y-79631000D01*
X127754000Y-79671000D02*
X124431000Y-79671000D01*
X121949000Y-79671000D02*
X118626000Y-79671000D01*
X127735000Y-79711000D02*
X124431000Y-79711000D01*
X121949000Y-79711000D02*
X118645000Y-79711000D01*
X127715000Y-79751000D02*
X124431000Y-79751000D01*
X121949000Y-79751000D02*
X118665000Y-79751000D01*
X127694000Y-79791000D02*
X124431000Y-79791000D01*
X121949000Y-79791000D02*
X118686000Y-79791000D01*
X127673000Y-79831000D02*
X124431000Y-79831000D01*
X121949000Y-79831000D02*
X118707000Y-79831000D01*
X127652000Y-79871000D02*
X124431000Y-79871000D01*
X121949000Y-79871000D02*
X118728000Y-79871000D01*
X127630000Y-79911000D02*
X124431000Y-79911000D01*
X121949000Y-79911000D02*
X118750000Y-79911000D01*
X127607000Y-79951000D02*
X124431000Y-79951000D01*
X121949000Y-79951000D02*
X118773000Y-79951000D01*
X127585000Y-79991000D02*
X124431000Y-79991000D01*
X121949000Y-79991000D02*
X118795000Y-79991000D01*
X127561000Y-80031000D02*
X124431000Y-80031000D01*
X121949000Y-80031000D02*
X118819000Y-80031000D01*
X127537000Y-80071000D02*
X124431000Y-80071000D01*
X121949000Y-80071000D02*
X118843000Y-80071000D01*
X127513000Y-80111000D02*
X124431000Y-80111000D01*
X121949000Y-80111000D02*
X118867000Y-80111000D01*
X127488000Y-80151000D02*
X124431000Y-80151000D01*
X121949000Y-80151000D02*
X118892000Y-80151000D01*
X127463000Y-80191000D02*
X124431000Y-80191000D01*
X121949000Y-80191000D02*
X118917000Y-80191000D01*
X127437000Y-80231000D02*
X124431000Y-80231000D01*
X121949000Y-80231000D02*
X118943000Y-80231000D01*
X127411000Y-80271000D02*
X124431000Y-80271000D01*
X121949000Y-80271000D02*
X118969000Y-80271000D01*
X127384000Y-80311000D02*
X124431000Y-80311000D01*
X121949000Y-80311000D02*
X118996000Y-80311000D01*
X127356000Y-80351000D02*
X124431000Y-80351000D01*
X121949000Y-80351000D02*
X119024000Y-80351000D01*
X127328000Y-80391000D02*
X124431000Y-80391000D01*
X121949000Y-80391000D02*
X119052000Y-80391000D01*
X127300000Y-80431000D02*
X124431000Y-80431000D01*
X121949000Y-80431000D02*
X119080000Y-80431000D01*
X127270000Y-80471000D02*
X124431000Y-80471000D01*
X121949000Y-80471000D02*
X119110000Y-80471000D01*
X127240000Y-80511000D02*
X124431000Y-80511000D01*
X121949000Y-80511000D02*
X119140000Y-80511000D01*
X127210000Y-80551000D02*
X124431000Y-80551000D01*
X121949000Y-80551000D02*
X119170000Y-80551000D01*
X127179000Y-80591000D02*
X124431000Y-80591000D01*
X121949000Y-80591000D02*
X119201000Y-80591000D01*
X127147000Y-80631000D02*
X124431000Y-80631000D01*
X121949000Y-80631000D02*
X119233000Y-80631000D01*
X127115000Y-80671000D02*
X124431000Y-80671000D01*
X121949000Y-80671000D02*
X119265000Y-80671000D01*
X127082000Y-80711000D02*
X124431000Y-80711000D01*
X121949000Y-80711000D02*
X119298000Y-80711000D01*
X127048000Y-80751000D02*
X124431000Y-80751000D01*
X121949000Y-80751000D02*
X119332000Y-80751000D01*
X127014000Y-80791000D02*
X124431000Y-80791000D01*
X121949000Y-80791000D02*
X119366000Y-80791000D01*
X126979000Y-80831000D02*
X124431000Y-80831000D01*
X121949000Y-80831000D02*
X119401000Y-80831000D01*
X126943000Y-80871000D02*
X124431000Y-80871000D01*
X121949000Y-80871000D02*
X119437000Y-80871000D01*
X126906000Y-80911000D02*
X124431000Y-80911000D01*
X121949000Y-80911000D02*
X119474000Y-80911000D01*
X126869000Y-80951000D02*
X124431000Y-80951000D01*
X121949000Y-80951000D02*
X119511000Y-80951000D01*
X126830000Y-80991000D02*
X124431000Y-80991000D01*
X121949000Y-80991000D02*
X119550000Y-80991000D01*
X126791000Y-81031000D02*
X124431000Y-81031000D01*
X121949000Y-81031000D02*
X119589000Y-81031000D01*
X126751000Y-81071000D02*
X124431000Y-81071000D01*
X121949000Y-81071000D02*
X119629000Y-81071000D01*
X126710000Y-81111000D02*
X124431000Y-81111000D01*
X121949000Y-81111000D02*
X119670000Y-81111000D01*
X126668000Y-81151000D02*
X124431000Y-81151000D01*
X121949000Y-81151000D02*
X119712000Y-81151000D01*
X126626000Y-81191000D02*
X119754000Y-81191000D01*
X126582000Y-81231000D02*
X119798000Y-81231000D01*
X126537000Y-81271000D02*
X119843000Y-81271000D01*
X126491000Y-81311000D02*
X119889000Y-81311000D01*
X126444000Y-81351000D02*
X119936000Y-81351000D01*
X126396000Y-81391000D02*
X119984000Y-81391000D01*
X126346000Y-81431000D02*
X120034000Y-81431000D01*
X126296000Y-81471000D02*
X120084000Y-81471000D01*
X126244000Y-81511000D02*
X120136000Y-81511000D01*
X126190000Y-81551000D02*
X120190000Y-81551000D01*
X126135000Y-81591000D02*
X120245000Y-81591000D01*
X126079000Y-81631000D02*
X120301000Y-81631000D01*
X126020000Y-81671000D02*
X120360000Y-81671000D01*
X125960000Y-81711000D02*
X120420000Y-81711000D01*
X125899000Y-81751000D02*
X120481000Y-81751000D01*
X125835000Y-81791000D02*
X120545000Y-81791000D01*
X125769000Y-81831000D02*
X120611000Y-81831000D01*
X125700000Y-81871000D02*
X120680000Y-81871000D01*
X125629000Y-81911000D02*
X120751000Y-81911000D01*
X125555000Y-81951000D02*
X120825000Y-81951000D01*
X125479000Y-81991000D02*
X120901000Y-81991000D01*
X125399000Y-82031000D02*
X120981000Y-82031000D01*
X125315000Y-82071000D02*
X121065000Y-82071000D01*
X125227000Y-82111000D02*
X121153000Y-82111000D01*
X125134000Y-82151000D02*
X121246000Y-82151000D01*
X125036000Y-82191000D02*
X121344000Y-82191000D01*
X124932000Y-82231000D02*
X121448000Y-82231000D01*
X124820000Y-82271000D02*
X121560000Y-82271000D01*
X124700000Y-82311000D02*
X121680000Y-82311000D01*
X124568000Y-82351000D02*
X121812000Y-82351000D01*
X124420000Y-82391000D02*
X121960000Y-82391000D01*
X124252000Y-82431000D02*
X122128000Y-82431000D01*
X124052000Y-82471000D02*
X122328000Y-82471000D01*
X123789000Y-82511000D02*
X122591000Y-82511000D01*
X126065000Y-71950354D02*
X126065000Y-72950354D01*
X126565000Y-72450354D02*
X125565000Y-72450354D01*
G04 #@! TO.C,C2*
X134270000Y-75551000D02*
X134270000Y-76809000D01*
X132430000Y-75551000D02*
X132430000Y-76809000D01*
G04 #@! TO.C,C3*
X146885000Y-72450354D02*
X145885000Y-72450354D01*
X146385000Y-71950354D02*
X146385000Y-72950354D01*
X144109000Y-82511000D02*
X142911000Y-82511000D01*
X144372000Y-82471000D02*
X142648000Y-82471000D01*
X144572000Y-82431000D02*
X142448000Y-82431000D01*
X144740000Y-82391000D02*
X142280000Y-82391000D01*
X144888000Y-82351000D02*
X142132000Y-82351000D01*
X145020000Y-82311000D02*
X142000000Y-82311000D01*
X145140000Y-82271000D02*
X141880000Y-82271000D01*
X145252000Y-82231000D02*
X141768000Y-82231000D01*
X145356000Y-82191000D02*
X141664000Y-82191000D01*
X145454000Y-82151000D02*
X141566000Y-82151000D01*
X145547000Y-82111000D02*
X141473000Y-82111000D01*
X145635000Y-82071000D02*
X141385000Y-82071000D01*
X145719000Y-82031000D02*
X141301000Y-82031000D01*
X145799000Y-81991000D02*
X141221000Y-81991000D01*
X145875000Y-81951000D02*
X141145000Y-81951000D01*
X145949000Y-81911000D02*
X141071000Y-81911000D01*
X146020000Y-81871000D02*
X141000000Y-81871000D01*
X146089000Y-81831000D02*
X140931000Y-81831000D01*
X146155000Y-81791000D02*
X140865000Y-81791000D01*
X146219000Y-81751000D02*
X140801000Y-81751000D01*
X146280000Y-81711000D02*
X140740000Y-81711000D01*
X146340000Y-81671000D02*
X140680000Y-81671000D01*
X146399000Y-81631000D02*
X140621000Y-81631000D01*
X146455000Y-81591000D02*
X140565000Y-81591000D01*
X146510000Y-81551000D02*
X140510000Y-81551000D01*
X146564000Y-81511000D02*
X140456000Y-81511000D01*
X146616000Y-81471000D02*
X140404000Y-81471000D01*
X146666000Y-81431000D02*
X140354000Y-81431000D01*
X146716000Y-81391000D02*
X140304000Y-81391000D01*
X146764000Y-81351000D02*
X140256000Y-81351000D01*
X146811000Y-81311000D02*
X140209000Y-81311000D01*
X146857000Y-81271000D02*
X140163000Y-81271000D01*
X146902000Y-81231000D02*
X140118000Y-81231000D01*
X146946000Y-81191000D02*
X140074000Y-81191000D01*
X142269000Y-81151000D02*
X140032000Y-81151000D01*
X146988000Y-81151000D02*
X144751000Y-81151000D01*
X142269000Y-81111000D02*
X139990000Y-81111000D01*
X147030000Y-81111000D02*
X144751000Y-81111000D01*
X142269000Y-81071000D02*
X139949000Y-81071000D01*
X147071000Y-81071000D02*
X144751000Y-81071000D01*
X142269000Y-81031000D02*
X139909000Y-81031000D01*
X147111000Y-81031000D02*
X144751000Y-81031000D01*
X142269000Y-80991000D02*
X139870000Y-80991000D01*
X147150000Y-80991000D02*
X144751000Y-80991000D01*
X142269000Y-80951000D02*
X139831000Y-80951000D01*
X147189000Y-80951000D02*
X144751000Y-80951000D01*
X142269000Y-80911000D02*
X139794000Y-80911000D01*
X147226000Y-80911000D02*
X144751000Y-80911000D01*
X142269000Y-80871000D02*
X139757000Y-80871000D01*
X147263000Y-80871000D02*
X144751000Y-80871000D01*
X142269000Y-80831000D02*
X139721000Y-80831000D01*
X147299000Y-80831000D02*
X144751000Y-80831000D01*
X142269000Y-80791000D02*
X139686000Y-80791000D01*
X147334000Y-80791000D02*
X144751000Y-80791000D01*
X142269000Y-80751000D02*
X139652000Y-80751000D01*
X147368000Y-80751000D02*
X144751000Y-80751000D01*
X142269000Y-80711000D02*
X139618000Y-80711000D01*
X147402000Y-80711000D02*
X144751000Y-80711000D01*
X142269000Y-80671000D02*
X139585000Y-80671000D01*
X147435000Y-80671000D02*
X144751000Y-80671000D01*
X142269000Y-80631000D02*
X139553000Y-80631000D01*
X147467000Y-80631000D02*
X144751000Y-80631000D01*
X142269000Y-80591000D02*
X139521000Y-80591000D01*
X147499000Y-80591000D02*
X144751000Y-80591000D01*
X142269000Y-80551000D02*
X139490000Y-80551000D01*
X147530000Y-80551000D02*
X144751000Y-80551000D01*
X142269000Y-80511000D02*
X139460000Y-80511000D01*
X147560000Y-80511000D02*
X144751000Y-80511000D01*
X142269000Y-80471000D02*
X139430000Y-80471000D01*
X147590000Y-80471000D02*
X144751000Y-80471000D01*
X142269000Y-80431000D02*
X139400000Y-80431000D01*
X147620000Y-80431000D02*
X144751000Y-80431000D01*
X142269000Y-80391000D02*
X139372000Y-80391000D01*
X147648000Y-80391000D02*
X144751000Y-80391000D01*
X142269000Y-80351000D02*
X139344000Y-80351000D01*
X147676000Y-80351000D02*
X144751000Y-80351000D01*
X142269000Y-80311000D02*
X139316000Y-80311000D01*
X147704000Y-80311000D02*
X144751000Y-80311000D01*
X142269000Y-80271000D02*
X139289000Y-80271000D01*
X147731000Y-80271000D02*
X144751000Y-80271000D01*
X142269000Y-80231000D02*
X139263000Y-80231000D01*
X147757000Y-80231000D02*
X144751000Y-80231000D01*
X142269000Y-80191000D02*
X139237000Y-80191000D01*
X147783000Y-80191000D02*
X144751000Y-80191000D01*
X142269000Y-80151000D02*
X139212000Y-80151000D01*
X147808000Y-80151000D02*
X144751000Y-80151000D01*
X142269000Y-80111000D02*
X139187000Y-80111000D01*
X147833000Y-80111000D02*
X144751000Y-80111000D01*
X142269000Y-80071000D02*
X139163000Y-80071000D01*
X147857000Y-80071000D02*
X144751000Y-80071000D01*
X142269000Y-80031000D02*
X139139000Y-80031000D01*
X147881000Y-80031000D02*
X144751000Y-80031000D01*
X142269000Y-79991000D02*
X139115000Y-79991000D01*
X147905000Y-79991000D02*
X144751000Y-79991000D01*
X142269000Y-79951000D02*
X139093000Y-79951000D01*
X147927000Y-79951000D02*
X144751000Y-79951000D01*
X142269000Y-79911000D02*
X139070000Y-79911000D01*
X147950000Y-79911000D02*
X144751000Y-79911000D01*
X142269000Y-79871000D02*
X139048000Y-79871000D01*
X147972000Y-79871000D02*
X144751000Y-79871000D01*
X142269000Y-79831000D02*
X139027000Y-79831000D01*
X147993000Y-79831000D02*
X144751000Y-79831000D01*
X142269000Y-79791000D02*
X139006000Y-79791000D01*
X148014000Y-79791000D02*
X144751000Y-79791000D01*
X142269000Y-79751000D02*
X138985000Y-79751000D01*
X148035000Y-79751000D02*
X144751000Y-79751000D01*
X142269000Y-79711000D02*
X138965000Y-79711000D01*
X148055000Y-79711000D02*
X144751000Y-79711000D01*
X142269000Y-79671000D02*
X138946000Y-79671000D01*
X148074000Y-79671000D02*
X144751000Y-79671000D01*
X142269000Y-79631000D02*
X138926000Y-79631000D01*
X148094000Y-79631000D02*
X144751000Y-79631000D01*
X142269000Y-79591000D02*
X138907000Y-79591000D01*
X148113000Y-79591000D02*
X144751000Y-79591000D01*
X142269000Y-79551000D02*
X138889000Y-79551000D01*
X148131000Y-79551000D02*
X144751000Y-79551000D01*
X142269000Y-79511000D02*
X138871000Y-79511000D01*
X148149000Y-79511000D02*
X144751000Y-79511000D01*
X142269000Y-79471000D02*
X138853000Y-79471000D01*
X148167000Y-79471000D02*
X144751000Y-79471000D01*
X142269000Y-79431000D02*
X138836000Y-79431000D01*
X148184000Y-79431000D02*
X144751000Y-79431000D01*
X142269000Y-79391000D02*
X138820000Y-79391000D01*
X148200000Y-79391000D02*
X144751000Y-79391000D01*
X142269000Y-79351000D02*
X138803000Y-79351000D01*
X148217000Y-79351000D02*
X144751000Y-79351000D01*
X142269000Y-79311000D02*
X138787000Y-79311000D01*
X148233000Y-79311000D02*
X144751000Y-79311000D01*
X142269000Y-79271000D02*
X138772000Y-79271000D01*
X148248000Y-79271000D02*
X144751000Y-79271000D01*
X142269000Y-79231000D02*
X138756000Y-79231000D01*
X148264000Y-79231000D02*
X144751000Y-79231000D01*
X142269000Y-79191000D02*
X138742000Y-79191000D01*
X148278000Y-79191000D02*
X144751000Y-79191000D01*
X142269000Y-79151000D02*
X138727000Y-79151000D01*
X148293000Y-79151000D02*
X144751000Y-79151000D01*
X142269000Y-79111000D02*
X138713000Y-79111000D01*
X148307000Y-79111000D02*
X144751000Y-79111000D01*
X142269000Y-79071000D02*
X138699000Y-79071000D01*
X148321000Y-79071000D02*
X144751000Y-79071000D01*
X142269000Y-79031000D02*
X138686000Y-79031000D01*
X148334000Y-79031000D02*
X144751000Y-79031000D01*
X142269000Y-78991000D02*
X138673000Y-78991000D01*
X148347000Y-78991000D02*
X144751000Y-78991000D01*
X142269000Y-78951000D02*
X138660000Y-78951000D01*
X148360000Y-78951000D02*
X144751000Y-78951000D01*
X142269000Y-78911000D02*
X138648000Y-78911000D01*
X148372000Y-78911000D02*
X144751000Y-78911000D01*
X142269000Y-78871000D02*
X138636000Y-78871000D01*
X148384000Y-78871000D02*
X144751000Y-78871000D01*
X142269000Y-78831000D02*
X138625000Y-78831000D01*
X148395000Y-78831000D02*
X144751000Y-78831000D01*
X142269000Y-78791000D02*
X138613000Y-78791000D01*
X148407000Y-78791000D02*
X144751000Y-78791000D01*
X142269000Y-78751000D02*
X138603000Y-78751000D01*
X148417000Y-78751000D02*
X144751000Y-78751000D01*
X142269000Y-78711000D02*
X138592000Y-78711000D01*
X148428000Y-78711000D02*
X144751000Y-78711000D01*
X148438000Y-78671000D02*
X138582000Y-78671000D01*
X148448000Y-78631000D02*
X138572000Y-78631000D01*
X148457000Y-78591000D02*
X138563000Y-78591000D01*
X148466000Y-78551000D02*
X138554000Y-78551000D01*
X148475000Y-78511000D02*
X138545000Y-78511000D01*
X148484000Y-78471000D02*
X138536000Y-78471000D01*
X148492000Y-78431000D02*
X138528000Y-78431000D01*
X148500000Y-78391000D02*
X138520000Y-78391000D01*
X148507000Y-78351000D02*
X138513000Y-78351000D01*
X148514000Y-78311000D02*
X138506000Y-78311000D01*
X148521000Y-78271000D02*
X138499000Y-78271000D01*
X148528000Y-78231000D02*
X138492000Y-78231000D01*
X148534000Y-78191000D02*
X138486000Y-78191000D01*
X148540000Y-78151000D02*
X138480000Y-78151000D01*
X148545000Y-78110000D02*
X138475000Y-78110000D01*
X148550000Y-78070000D02*
X138470000Y-78070000D01*
X148555000Y-78030000D02*
X138465000Y-78030000D01*
X148560000Y-77990000D02*
X138460000Y-77990000D01*
X148564000Y-77950000D02*
X138456000Y-77950000D01*
X148568000Y-77910000D02*
X138452000Y-77910000D01*
X148572000Y-77870000D02*
X138448000Y-77870000D01*
X148575000Y-77830000D02*
X138445000Y-77830000D01*
X148578000Y-77790000D02*
X138442000Y-77790000D01*
X148580000Y-77750000D02*
X138440000Y-77750000D01*
X148583000Y-77710000D02*
X138437000Y-77710000D01*
X148585000Y-77670000D02*
X138435000Y-77670000D01*
X148587000Y-77630000D02*
X138433000Y-77630000D01*
X148588000Y-77590000D02*
X138432000Y-77590000D01*
X148589000Y-77550000D02*
X138431000Y-77550000D01*
X148590000Y-77510000D02*
X138430000Y-77510000D01*
X148590000Y-77470000D02*
X138430000Y-77470000D01*
X148590000Y-77430000D02*
X138430000Y-77430000D01*
X148630000Y-77430000D02*
G75*
G03X148630000Y-77430000I-5120000J0D01*
G01*
G04 #@! TO.C,C4*
X148630000Y-91400000D02*
G75*
G03X148630000Y-91400000I-5120000J0D01*
G01*
X148590000Y-91400000D02*
X138430000Y-91400000D01*
X148590000Y-91440000D02*
X138430000Y-91440000D01*
X148590000Y-91480000D02*
X138430000Y-91480000D01*
X148589000Y-91520000D02*
X138431000Y-91520000D01*
X148588000Y-91560000D02*
X138432000Y-91560000D01*
X148587000Y-91600000D02*
X138433000Y-91600000D01*
X148585000Y-91640000D02*
X138435000Y-91640000D01*
X148583000Y-91680000D02*
X138437000Y-91680000D01*
X148580000Y-91720000D02*
X138440000Y-91720000D01*
X148578000Y-91760000D02*
X138442000Y-91760000D01*
X148575000Y-91800000D02*
X138445000Y-91800000D01*
X148572000Y-91840000D02*
X138448000Y-91840000D01*
X148568000Y-91880000D02*
X138452000Y-91880000D01*
X148564000Y-91920000D02*
X138456000Y-91920000D01*
X148560000Y-91960000D02*
X138460000Y-91960000D01*
X148555000Y-92000000D02*
X138465000Y-92000000D01*
X148550000Y-92040000D02*
X138470000Y-92040000D01*
X148545000Y-92080000D02*
X138475000Y-92080000D01*
X148540000Y-92121000D02*
X138480000Y-92121000D01*
X148534000Y-92161000D02*
X138486000Y-92161000D01*
X148528000Y-92201000D02*
X138492000Y-92201000D01*
X148521000Y-92241000D02*
X138499000Y-92241000D01*
X148514000Y-92281000D02*
X138506000Y-92281000D01*
X148507000Y-92321000D02*
X138513000Y-92321000D01*
X148500000Y-92361000D02*
X138520000Y-92361000D01*
X148492000Y-92401000D02*
X138528000Y-92401000D01*
X148484000Y-92441000D02*
X138536000Y-92441000D01*
X148475000Y-92481000D02*
X138545000Y-92481000D01*
X148466000Y-92521000D02*
X138554000Y-92521000D01*
X148457000Y-92561000D02*
X138563000Y-92561000D01*
X148448000Y-92601000D02*
X138572000Y-92601000D01*
X148438000Y-92641000D02*
X138582000Y-92641000D01*
X148428000Y-92681000D02*
X144751000Y-92681000D01*
X142269000Y-92681000D02*
X138592000Y-92681000D01*
X148417000Y-92721000D02*
X144751000Y-92721000D01*
X142269000Y-92721000D02*
X138603000Y-92721000D01*
X148407000Y-92761000D02*
X144751000Y-92761000D01*
X142269000Y-92761000D02*
X138613000Y-92761000D01*
X148395000Y-92801000D02*
X144751000Y-92801000D01*
X142269000Y-92801000D02*
X138625000Y-92801000D01*
X148384000Y-92841000D02*
X144751000Y-92841000D01*
X142269000Y-92841000D02*
X138636000Y-92841000D01*
X148372000Y-92881000D02*
X144751000Y-92881000D01*
X142269000Y-92881000D02*
X138648000Y-92881000D01*
X148360000Y-92921000D02*
X144751000Y-92921000D01*
X142269000Y-92921000D02*
X138660000Y-92921000D01*
X148347000Y-92961000D02*
X144751000Y-92961000D01*
X142269000Y-92961000D02*
X138673000Y-92961000D01*
X148334000Y-93001000D02*
X144751000Y-93001000D01*
X142269000Y-93001000D02*
X138686000Y-93001000D01*
X148321000Y-93041000D02*
X144751000Y-93041000D01*
X142269000Y-93041000D02*
X138699000Y-93041000D01*
X148307000Y-93081000D02*
X144751000Y-93081000D01*
X142269000Y-93081000D02*
X138713000Y-93081000D01*
X148293000Y-93121000D02*
X144751000Y-93121000D01*
X142269000Y-93121000D02*
X138727000Y-93121000D01*
X148278000Y-93161000D02*
X144751000Y-93161000D01*
X142269000Y-93161000D02*
X138742000Y-93161000D01*
X148264000Y-93201000D02*
X144751000Y-93201000D01*
X142269000Y-93201000D02*
X138756000Y-93201000D01*
X148248000Y-93241000D02*
X144751000Y-93241000D01*
X142269000Y-93241000D02*
X138772000Y-93241000D01*
X148233000Y-93281000D02*
X144751000Y-93281000D01*
X142269000Y-93281000D02*
X138787000Y-93281000D01*
X148217000Y-93321000D02*
X144751000Y-93321000D01*
X142269000Y-93321000D02*
X138803000Y-93321000D01*
X148200000Y-93361000D02*
X144751000Y-93361000D01*
X142269000Y-93361000D02*
X138820000Y-93361000D01*
X148184000Y-93401000D02*
X144751000Y-93401000D01*
X142269000Y-93401000D02*
X138836000Y-93401000D01*
X148167000Y-93441000D02*
X144751000Y-93441000D01*
X142269000Y-93441000D02*
X138853000Y-93441000D01*
X148149000Y-93481000D02*
X144751000Y-93481000D01*
X142269000Y-93481000D02*
X138871000Y-93481000D01*
X148131000Y-93521000D02*
X144751000Y-93521000D01*
X142269000Y-93521000D02*
X138889000Y-93521000D01*
X148113000Y-93561000D02*
X144751000Y-93561000D01*
X142269000Y-93561000D02*
X138907000Y-93561000D01*
X148094000Y-93601000D02*
X144751000Y-93601000D01*
X142269000Y-93601000D02*
X138926000Y-93601000D01*
X148074000Y-93641000D02*
X144751000Y-93641000D01*
X142269000Y-93641000D02*
X138946000Y-93641000D01*
X148055000Y-93681000D02*
X144751000Y-93681000D01*
X142269000Y-93681000D02*
X138965000Y-93681000D01*
X148035000Y-93721000D02*
X144751000Y-93721000D01*
X142269000Y-93721000D02*
X138985000Y-93721000D01*
X148014000Y-93761000D02*
X144751000Y-93761000D01*
X142269000Y-93761000D02*
X139006000Y-93761000D01*
X147993000Y-93801000D02*
X144751000Y-93801000D01*
X142269000Y-93801000D02*
X139027000Y-93801000D01*
X147972000Y-93841000D02*
X144751000Y-93841000D01*
X142269000Y-93841000D02*
X139048000Y-93841000D01*
X147950000Y-93881000D02*
X144751000Y-93881000D01*
X142269000Y-93881000D02*
X139070000Y-93881000D01*
X147927000Y-93921000D02*
X144751000Y-93921000D01*
X142269000Y-93921000D02*
X139093000Y-93921000D01*
X147905000Y-93961000D02*
X144751000Y-93961000D01*
X142269000Y-93961000D02*
X139115000Y-93961000D01*
X147881000Y-94001000D02*
X144751000Y-94001000D01*
X142269000Y-94001000D02*
X139139000Y-94001000D01*
X147857000Y-94041000D02*
X144751000Y-94041000D01*
X142269000Y-94041000D02*
X139163000Y-94041000D01*
X147833000Y-94081000D02*
X144751000Y-94081000D01*
X142269000Y-94081000D02*
X139187000Y-94081000D01*
X147808000Y-94121000D02*
X144751000Y-94121000D01*
X142269000Y-94121000D02*
X139212000Y-94121000D01*
X147783000Y-94161000D02*
X144751000Y-94161000D01*
X142269000Y-94161000D02*
X139237000Y-94161000D01*
X147757000Y-94201000D02*
X144751000Y-94201000D01*
X142269000Y-94201000D02*
X139263000Y-94201000D01*
X147731000Y-94241000D02*
X144751000Y-94241000D01*
X142269000Y-94241000D02*
X139289000Y-94241000D01*
X147704000Y-94281000D02*
X144751000Y-94281000D01*
X142269000Y-94281000D02*
X139316000Y-94281000D01*
X147676000Y-94321000D02*
X144751000Y-94321000D01*
X142269000Y-94321000D02*
X139344000Y-94321000D01*
X147648000Y-94361000D02*
X144751000Y-94361000D01*
X142269000Y-94361000D02*
X139372000Y-94361000D01*
X147620000Y-94401000D02*
X144751000Y-94401000D01*
X142269000Y-94401000D02*
X139400000Y-94401000D01*
X147590000Y-94441000D02*
X144751000Y-94441000D01*
X142269000Y-94441000D02*
X139430000Y-94441000D01*
X147560000Y-94481000D02*
X144751000Y-94481000D01*
X142269000Y-94481000D02*
X139460000Y-94481000D01*
X147530000Y-94521000D02*
X144751000Y-94521000D01*
X142269000Y-94521000D02*
X139490000Y-94521000D01*
X147499000Y-94561000D02*
X144751000Y-94561000D01*
X142269000Y-94561000D02*
X139521000Y-94561000D01*
X147467000Y-94601000D02*
X144751000Y-94601000D01*
X142269000Y-94601000D02*
X139553000Y-94601000D01*
X147435000Y-94641000D02*
X144751000Y-94641000D01*
X142269000Y-94641000D02*
X139585000Y-94641000D01*
X147402000Y-94681000D02*
X144751000Y-94681000D01*
X142269000Y-94681000D02*
X139618000Y-94681000D01*
X147368000Y-94721000D02*
X144751000Y-94721000D01*
X142269000Y-94721000D02*
X139652000Y-94721000D01*
X147334000Y-94761000D02*
X144751000Y-94761000D01*
X142269000Y-94761000D02*
X139686000Y-94761000D01*
X147299000Y-94801000D02*
X144751000Y-94801000D01*
X142269000Y-94801000D02*
X139721000Y-94801000D01*
X147263000Y-94841000D02*
X144751000Y-94841000D01*
X142269000Y-94841000D02*
X139757000Y-94841000D01*
X147226000Y-94881000D02*
X144751000Y-94881000D01*
X142269000Y-94881000D02*
X139794000Y-94881000D01*
X147189000Y-94921000D02*
X144751000Y-94921000D01*
X142269000Y-94921000D02*
X139831000Y-94921000D01*
X147150000Y-94961000D02*
X144751000Y-94961000D01*
X142269000Y-94961000D02*
X139870000Y-94961000D01*
X147111000Y-95001000D02*
X144751000Y-95001000D01*
X142269000Y-95001000D02*
X139909000Y-95001000D01*
X147071000Y-95041000D02*
X144751000Y-95041000D01*
X142269000Y-95041000D02*
X139949000Y-95041000D01*
X147030000Y-95081000D02*
X144751000Y-95081000D01*
X142269000Y-95081000D02*
X139990000Y-95081000D01*
X146988000Y-95121000D02*
X144751000Y-95121000D01*
X142269000Y-95121000D02*
X140032000Y-95121000D01*
X146946000Y-95161000D02*
X140074000Y-95161000D01*
X146902000Y-95201000D02*
X140118000Y-95201000D01*
X146857000Y-95241000D02*
X140163000Y-95241000D01*
X146811000Y-95281000D02*
X140209000Y-95281000D01*
X146764000Y-95321000D02*
X140256000Y-95321000D01*
X146716000Y-95361000D02*
X140304000Y-95361000D01*
X146666000Y-95401000D02*
X140354000Y-95401000D01*
X146616000Y-95441000D02*
X140404000Y-95441000D01*
X146564000Y-95481000D02*
X140456000Y-95481000D01*
X146510000Y-95521000D02*
X140510000Y-95521000D01*
X146455000Y-95561000D02*
X140565000Y-95561000D01*
X146399000Y-95601000D02*
X140621000Y-95601000D01*
X146340000Y-95641000D02*
X140680000Y-95641000D01*
X146280000Y-95681000D02*
X140740000Y-95681000D01*
X146219000Y-95721000D02*
X140801000Y-95721000D01*
X146155000Y-95761000D02*
X140865000Y-95761000D01*
X146089000Y-95801000D02*
X140931000Y-95801000D01*
X146020000Y-95841000D02*
X141000000Y-95841000D01*
X145949000Y-95881000D02*
X141071000Y-95881000D01*
X145875000Y-95921000D02*
X141145000Y-95921000D01*
X145799000Y-95961000D02*
X141221000Y-95961000D01*
X145719000Y-96001000D02*
X141301000Y-96001000D01*
X145635000Y-96041000D02*
X141385000Y-96041000D01*
X145547000Y-96081000D02*
X141473000Y-96081000D01*
X145454000Y-96121000D02*
X141566000Y-96121000D01*
X145356000Y-96161000D02*
X141664000Y-96161000D01*
X145252000Y-96201000D02*
X141768000Y-96201000D01*
X145140000Y-96241000D02*
X141880000Y-96241000D01*
X145020000Y-96281000D02*
X142000000Y-96281000D01*
X144888000Y-96321000D02*
X142132000Y-96321000D01*
X144740000Y-96361000D02*
X142280000Y-96361000D01*
X144572000Y-96401000D02*
X142448000Y-96401000D01*
X144372000Y-96441000D02*
X142648000Y-96441000D01*
X144109000Y-96481000D02*
X142911000Y-96481000D01*
X146385000Y-85920354D02*
X146385000Y-86920354D01*
X146885000Y-86420354D02*
X145885000Y-86420354D01*
G04 #@! TO.C,C5*
X159100000Y-78091000D02*
X159100000Y-79349000D01*
X160940000Y-78091000D02*
X160940000Y-79349000D01*
G04 #@! TO.C,C6*
X160940000Y-92061000D02*
X160940000Y-93319000D01*
X159100000Y-92061000D02*
X159100000Y-93319000D01*
G04 #@! TO.C,D1*
X113160000Y-73840000D02*
X112830000Y-73840000D01*
X112830000Y-73840000D02*
X112830000Y-68400000D01*
X112830000Y-68400000D02*
X113160000Y-68400000D01*
X115440000Y-73840000D02*
X115770000Y-73840000D01*
X115770000Y-73840000D02*
X115770000Y-68400000D01*
X115770000Y-68400000D02*
X115440000Y-68400000D01*
X112830000Y-72940000D02*
X115770000Y-72940000D01*
X112830000Y-72820000D02*
X115770000Y-72820000D01*
X112830000Y-73060000D02*
X115770000Y-73060000D01*
G04 #@! TO.C,D2*
X115770000Y-81880000D02*
X112830000Y-81880000D01*
X115770000Y-82120000D02*
X112830000Y-82120000D01*
X115770000Y-82000000D02*
X112830000Y-82000000D01*
X112830000Y-86540000D02*
X113160000Y-86540000D01*
X112830000Y-81100000D02*
X112830000Y-86540000D01*
X113160000Y-81100000D02*
X112830000Y-81100000D01*
X115770000Y-86540000D02*
X115440000Y-86540000D01*
X115770000Y-81100000D02*
X115770000Y-86540000D01*
X115440000Y-81100000D02*
X115770000Y-81100000D01*
D11*
G04 #@! TO.C,T1*
X111020000Y-100860000D02*
X111020000Y-71860000D01*
X82020000Y-100860000D02*
X111020000Y-100860000D01*
X82020000Y-71860000D02*
X82020000Y-100860000D01*
X111020000Y-71860000D02*
X82020000Y-71860000D01*
X101520000Y-103860000D02*
X101520000Y-68860000D01*
X91520000Y-103860000D02*
X101520000Y-103860000D01*
X91520000Y-68860000D02*
X91520000Y-103860000D01*
X101520000Y-68860000D02*
X91520000Y-68860000D01*
D10*
G04 #@! TO.C,U1*
X153610000Y-73600000D02*
X154940000Y-73600000D01*
X153610000Y-74930000D02*
X153610000Y-73600000D01*
X153610000Y-76200000D02*
X156270000Y-76200000D01*
X156270000Y-76200000D02*
X156270000Y-81340000D01*
X153610000Y-76200000D02*
X153610000Y-81340000D01*
X153610000Y-81340000D02*
X156270000Y-81340000D01*
G04 #@! TO.C,U2*
X153610000Y-95310000D02*
X156270000Y-95310000D01*
X153610000Y-90170000D02*
X153610000Y-95310000D01*
X156270000Y-90170000D02*
X156270000Y-95310000D01*
X153610000Y-90170000D02*
X156270000Y-90170000D01*
X153610000Y-88900000D02*
X153610000Y-87570000D01*
X153610000Y-87570000D02*
X154940000Y-87570000D01*
G04 #@! TO.C,H3*
X167810000Y-76140000D02*
X167810000Y-78800000D01*
X167810000Y-78800000D02*
X170470000Y-78800000D01*
X170470000Y-78800000D02*
X170470000Y-76140000D01*
X170470000Y-76140000D02*
X167810000Y-76140000D01*
X170470000Y-77090000D02*
X176470000Y-77090000D01*
X176470000Y-77090000D02*
X176470000Y-77850000D01*
X176470000Y-77850000D02*
X170470000Y-77850000D01*
X170470000Y-77150000D02*
X176470000Y-77150000D01*
X170470000Y-77270000D02*
X176470000Y-77270000D01*
X170470000Y-77390000D02*
X176470000Y-77390000D01*
X170470000Y-77510000D02*
X176470000Y-77510000D01*
X170470000Y-77630000D02*
X176470000Y-77630000D01*
X170470000Y-77750000D02*
X176470000Y-77750000D01*
X167480000Y-77090000D02*
X167810000Y-77090000D01*
X167480000Y-77850000D02*
X167810000Y-77850000D01*
X165100000Y-77470000D02*
X165100000Y-76200000D01*
X165100000Y-76200000D02*
X166370000Y-76200000D01*
G04 #@! TO.C,H4*
X165100000Y-90170000D02*
X166370000Y-90170000D01*
X165100000Y-91440000D02*
X165100000Y-90170000D01*
X167480000Y-91820000D02*
X167810000Y-91820000D01*
X167480000Y-91060000D02*
X167810000Y-91060000D01*
X170470000Y-91720000D02*
X176470000Y-91720000D01*
X170470000Y-91600000D02*
X176470000Y-91600000D01*
X170470000Y-91480000D02*
X176470000Y-91480000D01*
X170470000Y-91360000D02*
X176470000Y-91360000D01*
X170470000Y-91240000D02*
X176470000Y-91240000D01*
X170470000Y-91120000D02*
X176470000Y-91120000D01*
X176470000Y-91820000D02*
X170470000Y-91820000D01*
X176470000Y-91060000D02*
X176470000Y-91820000D01*
X170470000Y-91060000D02*
X176470000Y-91060000D01*
X170470000Y-90110000D02*
X167810000Y-90110000D01*
X170470000Y-92770000D02*
X170470000Y-90110000D01*
X167810000Y-92770000D02*
X170470000Y-92770000D01*
X167810000Y-90110000D02*
X167810000Y-92770000D01*
G04 #@! TO.C,H5*
X167810000Y-81220000D02*
X167810000Y-83880000D01*
X167810000Y-83880000D02*
X170470000Y-83880000D01*
X170470000Y-83880000D02*
X170470000Y-81220000D01*
X170470000Y-81220000D02*
X167810000Y-81220000D01*
X170470000Y-82170000D02*
X176470000Y-82170000D01*
X176470000Y-82170000D02*
X176470000Y-82930000D01*
X176470000Y-82930000D02*
X170470000Y-82930000D01*
X170470000Y-82230000D02*
X176470000Y-82230000D01*
X170470000Y-82350000D02*
X176470000Y-82350000D01*
X170470000Y-82470000D02*
X176470000Y-82470000D01*
X170470000Y-82590000D02*
X176470000Y-82590000D01*
X170470000Y-82710000D02*
X176470000Y-82710000D01*
X170470000Y-82830000D02*
X176470000Y-82830000D01*
X167480000Y-82170000D02*
X167810000Y-82170000D01*
X167480000Y-82930000D02*
X167810000Y-82930000D01*
X165100000Y-82550000D02*
X165100000Y-81280000D01*
X165100000Y-81280000D02*
X166370000Y-81280000D01*
G04 #@! TO.C,H6*
X165100000Y-95250000D02*
X166370000Y-95250000D01*
X165100000Y-96520000D02*
X165100000Y-95250000D01*
X167480000Y-96900000D02*
X167810000Y-96900000D01*
X167480000Y-96140000D02*
X167810000Y-96140000D01*
X170470000Y-96800000D02*
X176470000Y-96800000D01*
X170470000Y-96680000D02*
X176470000Y-96680000D01*
X170470000Y-96560000D02*
X176470000Y-96560000D01*
X170470000Y-96440000D02*
X176470000Y-96440000D01*
X170470000Y-96320000D02*
X176470000Y-96320000D01*
X170470000Y-96200000D02*
X176470000Y-96200000D01*
X176470000Y-96900000D02*
X170470000Y-96900000D01*
X176470000Y-96140000D02*
X176470000Y-96900000D01*
X170470000Y-96140000D02*
X176470000Y-96140000D01*
X170470000Y-95190000D02*
X167810000Y-95190000D01*
X170470000Y-97850000D02*
X170470000Y-95190000D01*
X167810000Y-97850000D02*
X170470000Y-97850000D01*
X167810000Y-95190000D02*
X167810000Y-97850000D01*
G04 #@! TO.C,C1*
D11*
X129797142Y-77596666D02*
X129844761Y-77644285D01*
X129892380Y-77787142D01*
X129892380Y-77882380D01*
X129844761Y-78025238D01*
X129749523Y-78120476D01*
X129654285Y-78168095D01*
X129463809Y-78215714D01*
X129320952Y-78215714D01*
X129130476Y-78168095D01*
X129035238Y-78120476D01*
X128940000Y-78025238D01*
X128892380Y-77882380D01*
X128892380Y-77787142D01*
X128940000Y-77644285D01*
X128987619Y-77596666D01*
X129892380Y-76644285D02*
X129892380Y-77215714D01*
X129892380Y-76930000D02*
X128892380Y-76930000D01*
X129035238Y-77025238D01*
X129130476Y-77120476D01*
X129178095Y-77215714D01*
G04 #@! TO.C,C2*
X135757142Y-76346666D02*
X135804761Y-76394285D01*
X135852380Y-76537142D01*
X135852380Y-76632380D01*
X135804761Y-76775238D01*
X135709523Y-76870476D01*
X135614285Y-76918095D01*
X135423809Y-76965714D01*
X135280952Y-76965714D01*
X135090476Y-76918095D01*
X134995238Y-76870476D01*
X134900000Y-76775238D01*
X134852380Y-76632380D01*
X134852380Y-76537142D01*
X134900000Y-76394285D01*
X134947619Y-76346666D01*
X134947619Y-75965714D02*
X134900000Y-75918095D01*
X134852380Y-75822857D01*
X134852380Y-75584761D01*
X134900000Y-75489523D01*
X134947619Y-75441904D01*
X135042857Y-75394285D01*
X135138095Y-75394285D01*
X135280952Y-75441904D01*
X135852380Y-76013333D01*
X135852380Y-75394285D01*
G04 #@! TO.C,C3*
X150117142Y-77596666D02*
X150164761Y-77644285D01*
X150212380Y-77787142D01*
X150212380Y-77882380D01*
X150164761Y-78025238D01*
X150069523Y-78120476D01*
X149974285Y-78168095D01*
X149783809Y-78215714D01*
X149640952Y-78215714D01*
X149450476Y-78168095D01*
X149355238Y-78120476D01*
X149260000Y-78025238D01*
X149212380Y-77882380D01*
X149212380Y-77787142D01*
X149260000Y-77644285D01*
X149307619Y-77596666D01*
X149212380Y-77263333D02*
X149212380Y-76644285D01*
X149593333Y-76977619D01*
X149593333Y-76834761D01*
X149640952Y-76739523D01*
X149688571Y-76691904D01*
X149783809Y-76644285D01*
X150021904Y-76644285D01*
X150117142Y-76691904D01*
X150164761Y-76739523D01*
X150212380Y-76834761D01*
X150212380Y-77120476D01*
X150164761Y-77215714D01*
X150117142Y-77263333D01*
G04 #@! TO.C,C4*
X150117142Y-91566666D02*
X150164761Y-91614285D01*
X150212380Y-91757142D01*
X150212380Y-91852380D01*
X150164761Y-91995238D01*
X150069523Y-92090476D01*
X149974285Y-92138095D01*
X149783809Y-92185714D01*
X149640952Y-92185714D01*
X149450476Y-92138095D01*
X149355238Y-92090476D01*
X149260000Y-91995238D01*
X149212380Y-91852380D01*
X149212380Y-91757142D01*
X149260000Y-91614285D01*
X149307619Y-91566666D01*
X149545714Y-90709523D02*
X150212380Y-90709523D01*
X149164761Y-90947619D02*
X149879047Y-91185714D01*
X149879047Y-90566666D01*
G04 #@! TO.C,C5*
X162427142Y-78886666D02*
X162474761Y-78934285D01*
X162522380Y-79077142D01*
X162522380Y-79172380D01*
X162474761Y-79315238D01*
X162379523Y-79410476D01*
X162284285Y-79458095D01*
X162093809Y-79505714D01*
X161950952Y-79505714D01*
X161760476Y-79458095D01*
X161665238Y-79410476D01*
X161570000Y-79315238D01*
X161522380Y-79172380D01*
X161522380Y-79077142D01*
X161570000Y-78934285D01*
X161617619Y-78886666D01*
X161522380Y-77981904D02*
X161522380Y-78458095D01*
X161998571Y-78505714D01*
X161950952Y-78458095D01*
X161903333Y-78362857D01*
X161903333Y-78124761D01*
X161950952Y-78029523D01*
X161998571Y-77981904D01*
X162093809Y-77934285D01*
X162331904Y-77934285D01*
X162427142Y-77981904D01*
X162474761Y-78029523D01*
X162522380Y-78124761D01*
X162522380Y-78362857D01*
X162474761Y-78458095D01*
X162427142Y-78505714D01*
G04 #@! TO.C,C6*
X162427142Y-92856666D02*
X162474761Y-92904285D01*
X162522380Y-93047142D01*
X162522380Y-93142380D01*
X162474761Y-93285238D01*
X162379523Y-93380476D01*
X162284285Y-93428095D01*
X162093809Y-93475714D01*
X161950952Y-93475714D01*
X161760476Y-93428095D01*
X161665238Y-93380476D01*
X161570000Y-93285238D01*
X161522380Y-93142380D01*
X161522380Y-93047142D01*
X161570000Y-92904285D01*
X161617619Y-92856666D01*
X161522380Y-91999523D02*
X161522380Y-92190000D01*
X161570000Y-92285238D01*
X161617619Y-92332857D01*
X161760476Y-92428095D01*
X161950952Y-92475714D01*
X162331904Y-92475714D01*
X162427142Y-92428095D01*
X162474761Y-92380476D01*
X162522380Y-92285238D01*
X162522380Y-92094761D01*
X162474761Y-91999523D01*
X162427142Y-91951904D01*
X162331904Y-91904285D01*
X162093809Y-91904285D01*
X161998571Y-91951904D01*
X161950952Y-91999523D01*
X161903333Y-92094761D01*
X161903333Y-92285238D01*
X161950952Y-92380476D01*
X161998571Y-92428095D01*
X162093809Y-92475714D01*
G04 #@! TO.C,D1*
X112282380Y-71858095D02*
X111282380Y-71858095D01*
X111282380Y-71620000D01*
X111330000Y-71477142D01*
X111425238Y-71381904D01*
X111520476Y-71334285D01*
X111710952Y-71286666D01*
X111853809Y-71286666D01*
X112044285Y-71334285D01*
X112139523Y-71381904D01*
X112234761Y-71477142D01*
X112282380Y-71620000D01*
X112282380Y-71858095D01*
X112282380Y-70334285D02*
X112282380Y-70905714D01*
X112282380Y-70620000D02*
X111282380Y-70620000D01*
X111425238Y-70715238D01*
X111520476Y-70810476D01*
X111568095Y-70905714D01*
X112852380Y-75191904D02*
X111852380Y-75191904D01*
X112852380Y-74620476D02*
X112280952Y-75049047D01*
X111852380Y-74620476D02*
X112423809Y-75191904D01*
G04 #@! TO.C,D2*
X117222380Y-84558095D02*
X116222380Y-84558095D01*
X116222380Y-84320000D01*
X116270000Y-84177142D01*
X116365238Y-84081904D01*
X116460476Y-84034285D01*
X116650952Y-83986666D01*
X116793809Y-83986666D01*
X116984285Y-84034285D01*
X117079523Y-84081904D01*
X117174761Y-84177142D01*
X117222380Y-84320000D01*
X117222380Y-84558095D01*
X116317619Y-83605714D02*
X116270000Y-83558095D01*
X116222380Y-83462857D01*
X116222380Y-83224761D01*
X116270000Y-83129523D01*
X116317619Y-83081904D01*
X116412857Y-83034285D01*
X116508095Y-83034285D01*
X116650952Y-83081904D01*
X117222380Y-83653333D01*
X117222380Y-83034285D01*
X116652380Y-80271904D02*
X115652380Y-80271904D01*
X116652380Y-79700476D02*
X116080952Y-80129047D01*
X115652380Y-79700476D02*
X116223809Y-80271904D01*
G04 #@! TO.C,T1*
X95472380Y-87121904D02*
X95472380Y-86550476D01*
X96472380Y-86836190D02*
X95472380Y-86836190D01*
X96472380Y-85693333D02*
X96472380Y-86264761D01*
X96472380Y-85979047D02*
X95472380Y-85979047D01*
X95615238Y-86074285D01*
X95710476Y-86169523D01*
X95758095Y-86264761D01*
G04 #@! TO.C,U1*
X154178095Y-72052380D02*
X154178095Y-72861904D01*
X154225714Y-72957142D01*
X154273333Y-73004761D01*
X154368571Y-73052380D01*
X154559047Y-73052380D01*
X154654285Y-73004761D01*
X154701904Y-72957142D01*
X154749523Y-72861904D01*
X154749523Y-72052380D01*
X155749523Y-73052380D02*
X155178095Y-73052380D01*
X155463809Y-73052380D02*
X155463809Y-72052380D01*
X155368571Y-72195238D01*
X155273333Y-72290476D01*
X155178095Y-72338095D01*
G04 #@! TO.C,U2*
X154178095Y-86022380D02*
X154178095Y-86831904D01*
X154225714Y-86927142D01*
X154273333Y-86974761D01*
X154368571Y-87022380D01*
X154559047Y-87022380D01*
X154654285Y-86974761D01*
X154701904Y-86927142D01*
X154749523Y-86831904D01*
X154749523Y-86022380D01*
X155178095Y-86117619D02*
X155225714Y-86070000D01*
X155320952Y-86022380D01*
X155559047Y-86022380D01*
X155654285Y-86070000D01*
X155701904Y-86117619D01*
X155749523Y-86212857D01*
X155749523Y-86308095D01*
X155701904Y-86450952D01*
X155130476Y-87022380D01*
X155749523Y-87022380D01*
G04 #@! TO.C,H1*
X72898095Y-88932380D02*
X72898095Y-87932380D01*
X72898095Y-88408571D02*
X73469523Y-88408571D01*
X73469523Y-88932380D02*
X73469523Y-87932380D01*
X74469523Y-88932380D02*
X73898095Y-88932380D01*
X74183809Y-88932380D02*
X74183809Y-87932380D01*
X74088571Y-88075238D01*
X73993333Y-88170476D01*
X73898095Y-88218095D01*
G04 #@! TO.C,H2*
X72898095Y-71797381D02*
X72898095Y-70797381D01*
X72898095Y-71273572D02*
X73469523Y-71273572D01*
X73469523Y-71797381D02*
X73469523Y-70797381D01*
X73898095Y-70892620D02*
X73945714Y-70845001D01*
X74040952Y-70797381D01*
X74279047Y-70797381D01*
X74374285Y-70845001D01*
X74421904Y-70892620D01*
X74469523Y-70987858D01*
X74469523Y-71083096D01*
X74421904Y-71225953D01*
X73850476Y-71797381D01*
X74469523Y-71797381D01*
G04 #@! TO.C,H3*
X169993095Y-75652380D02*
X169993095Y-74652380D01*
X169993095Y-75128571D02*
X170564523Y-75128571D01*
X170564523Y-75652380D02*
X170564523Y-74652380D01*
X170945476Y-74652380D02*
X171564523Y-74652380D01*
X171231190Y-75033333D01*
X171374047Y-75033333D01*
X171469285Y-75080952D01*
X171516904Y-75128571D01*
X171564523Y-75223809D01*
X171564523Y-75461904D01*
X171516904Y-75557142D01*
X171469285Y-75604761D01*
X171374047Y-75652380D01*
X171088333Y-75652380D01*
X170993095Y-75604761D01*
X170945476Y-75557142D01*
G04 #@! TO.C,H4*
X169993095Y-89622380D02*
X169993095Y-88622380D01*
X169993095Y-89098571D02*
X170564523Y-89098571D01*
X170564523Y-89622380D02*
X170564523Y-88622380D01*
X171469285Y-88955714D02*
X171469285Y-89622380D01*
X171231190Y-88574761D02*
X170993095Y-89289047D01*
X171612142Y-89289047D01*
G04 #@! TO.C,H5*
X169993095Y-80732380D02*
X169993095Y-79732380D01*
X169993095Y-80208571D02*
X170564523Y-80208571D01*
X170564523Y-80732380D02*
X170564523Y-79732380D01*
X171516904Y-79732380D02*
X171040714Y-79732380D01*
X170993095Y-80208571D01*
X171040714Y-80160952D01*
X171135952Y-80113333D01*
X171374047Y-80113333D01*
X171469285Y-80160952D01*
X171516904Y-80208571D01*
X171564523Y-80303809D01*
X171564523Y-80541904D01*
X171516904Y-80637142D01*
X171469285Y-80684761D01*
X171374047Y-80732380D01*
X171135952Y-80732380D01*
X171040714Y-80684761D01*
X170993095Y-80637142D01*
G04 #@! TO.C,H6*
X169993095Y-94702380D02*
X169993095Y-93702380D01*
X169993095Y-94178571D02*
X170564523Y-94178571D01*
X170564523Y-94702380D02*
X170564523Y-93702380D01*
X171469285Y-93702380D02*
X171278809Y-93702380D01*
X171183571Y-93750000D01*
X171135952Y-93797619D01*
X171040714Y-93940476D01*
X170993095Y-94130952D01*
X170993095Y-94511904D01*
X171040714Y-94607142D01*
X171088333Y-94654761D01*
X171183571Y-94702380D01*
X171374047Y-94702380D01*
X171469285Y-94654761D01*
X171516904Y-94607142D01*
X171564523Y-94511904D01*
X171564523Y-94273809D01*
X171516904Y-94178571D01*
X171469285Y-94130952D01*
X171374047Y-94083333D01*
X171183571Y-94083333D01*
X171088333Y-94130952D01*
X171040714Y-94178571D01*
X170993095Y-94273809D01*
G04 #@! TD*
M02*
