G04 #@! TF.GenerationSoftware,KiCad,Pcbnew,(5.0.1-3-g963ef8bb5)*
G04 #@! TF.CreationDate,2018-11-01T00:56:35+09:00*
G04 #@! TF.ProjectId,firstTraining,6669727374547261696E696E672E6B69,rev?*
G04 #@! TF.SameCoordinates,Original*
G04 #@! TF.FileFunction,Legend,Top*
G04 #@! TF.FilePolarity,Positive*
%FSLAX46Y46*%
G04 Gerber Fmt 4.6, Leading zero omitted, Abs format (unit mm)*
G04 Created by KiCad (PCBNEW (5.0.1-3-g963ef8bb5)) date 2018年11月01日 木曜日 00:56:35*
%MOMM*%
%LPD*%
G01*
G04 APERTURE LIST*
%ADD10C,0.120000*%
%ADD11C,0.150000*%
G04 APERTURE END LIST*
D10*
G04 #@! TO.C,C1*
X154980000Y-76160000D02*
G75*
G03X154980000Y-76160000I-5120000J0D01*
G01*
X154940000Y-76160000D02*
X144780000Y-76160000D01*
X154940000Y-76200000D02*
X144780000Y-76200000D01*
X154940000Y-76240000D02*
X144780000Y-76240000D01*
X154939000Y-76280000D02*
X144781000Y-76280000D01*
X154938000Y-76320000D02*
X144782000Y-76320000D01*
X154937000Y-76360000D02*
X144783000Y-76360000D01*
X154935000Y-76400000D02*
X144785000Y-76400000D01*
X154933000Y-76440000D02*
X144787000Y-76440000D01*
X154930000Y-76480000D02*
X144790000Y-76480000D01*
X154928000Y-76520000D02*
X144792000Y-76520000D01*
X154925000Y-76560000D02*
X144795000Y-76560000D01*
X154922000Y-76600000D02*
X144798000Y-76600000D01*
X154918000Y-76640000D02*
X144802000Y-76640000D01*
X154914000Y-76680000D02*
X144806000Y-76680000D01*
X154910000Y-76720000D02*
X144810000Y-76720000D01*
X154905000Y-76760000D02*
X144815000Y-76760000D01*
X154900000Y-76800000D02*
X144820000Y-76800000D01*
X154895000Y-76840000D02*
X144825000Y-76840000D01*
X154890000Y-76881000D02*
X144830000Y-76881000D01*
X154884000Y-76921000D02*
X144836000Y-76921000D01*
X154878000Y-76961000D02*
X144842000Y-76961000D01*
X154871000Y-77001000D02*
X144849000Y-77001000D01*
X154864000Y-77041000D02*
X144856000Y-77041000D01*
X154857000Y-77081000D02*
X144863000Y-77081000D01*
X154850000Y-77121000D02*
X144870000Y-77121000D01*
X154842000Y-77161000D02*
X144878000Y-77161000D01*
X154834000Y-77201000D02*
X144886000Y-77201000D01*
X154825000Y-77241000D02*
X144895000Y-77241000D01*
X154816000Y-77281000D02*
X144904000Y-77281000D01*
X154807000Y-77321000D02*
X144913000Y-77321000D01*
X154798000Y-77361000D02*
X144922000Y-77361000D01*
X154788000Y-77401000D02*
X144932000Y-77401000D01*
X154778000Y-77441000D02*
X151101000Y-77441000D01*
X148619000Y-77441000D02*
X144942000Y-77441000D01*
X154767000Y-77481000D02*
X151101000Y-77481000D01*
X148619000Y-77481000D02*
X144953000Y-77481000D01*
X154757000Y-77521000D02*
X151101000Y-77521000D01*
X148619000Y-77521000D02*
X144963000Y-77521000D01*
X154745000Y-77561000D02*
X151101000Y-77561000D01*
X148619000Y-77561000D02*
X144975000Y-77561000D01*
X154734000Y-77601000D02*
X151101000Y-77601000D01*
X148619000Y-77601000D02*
X144986000Y-77601000D01*
X154722000Y-77641000D02*
X151101000Y-77641000D01*
X148619000Y-77641000D02*
X144998000Y-77641000D01*
X154710000Y-77681000D02*
X151101000Y-77681000D01*
X148619000Y-77681000D02*
X145010000Y-77681000D01*
X154697000Y-77721000D02*
X151101000Y-77721000D01*
X148619000Y-77721000D02*
X145023000Y-77721000D01*
X154684000Y-77761000D02*
X151101000Y-77761000D01*
X148619000Y-77761000D02*
X145036000Y-77761000D01*
X154671000Y-77801000D02*
X151101000Y-77801000D01*
X148619000Y-77801000D02*
X145049000Y-77801000D01*
X154657000Y-77841000D02*
X151101000Y-77841000D01*
X148619000Y-77841000D02*
X145063000Y-77841000D01*
X154643000Y-77881000D02*
X151101000Y-77881000D01*
X148619000Y-77881000D02*
X145077000Y-77881000D01*
X154628000Y-77921000D02*
X151101000Y-77921000D01*
X148619000Y-77921000D02*
X145092000Y-77921000D01*
X154614000Y-77961000D02*
X151101000Y-77961000D01*
X148619000Y-77961000D02*
X145106000Y-77961000D01*
X154598000Y-78001000D02*
X151101000Y-78001000D01*
X148619000Y-78001000D02*
X145122000Y-78001000D01*
X154583000Y-78041000D02*
X151101000Y-78041000D01*
X148619000Y-78041000D02*
X145137000Y-78041000D01*
X154567000Y-78081000D02*
X151101000Y-78081000D01*
X148619000Y-78081000D02*
X145153000Y-78081000D01*
X154550000Y-78121000D02*
X151101000Y-78121000D01*
X148619000Y-78121000D02*
X145170000Y-78121000D01*
X154534000Y-78161000D02*
X151101000Y-78161000D01*
X148619000Y-78161000D02*
X145186000Y-78161000D01*
X154517000Y-78201000D02*
X151101000Y-78201000D01*
X148619000Y-78201000D02*
X145203000Y-78201000D01*
X154499000Y-78241000D02*
X151101000Y-78241000D01*
X148619000Y-78241000D02*
X145221000Y-78241000D01*
X154481000Y-78281000D02*
X151101000Y-78281000D01*
X148619000Y-78281000D02*
X145239000Y-78281000D01*
X154463000Y-78321000D02*
X151101000Y-78321000D01*
X148619000Y-78321000D02*
X145257000Y-78321000D01*
X154444000Y-78361000D02*
X151101000Y-78361000D01*
X148619000Y-78361000D02*
X145276000Y-78361000D01*
X154424000Y-78401000D02*
X151101000Y-78401000D01*
X148619000Y-78401000D02*
X145296000Y-78401000D01*
X154405000Y-78441000D02*
X151101000Y-78441000D01*
X148619000Y-78441000D02*
X145315000Y-78441000D01*
X154385000Y-78481000D02*
X151101000Y-78481000D01*
X148619000Y-78481000D02*
X145335000Y-78481000D01*
X154364000Y-78521000D02*
X151101000Y-78521000D01*
X148619000Y-78521000D02*
X145356000Y-78521000D01*
X154343000Y-78561000D02*
X151101000Y-78561000D01*
X148619000Y-78561000D02*
X145377000Y-78561000D01*
X154322000Y-78601000D02*
X151101000Y-78601000D01*
X148619000Y-78601000D02*
X145398000Y-78601000D01*
X154300000Y-78641000D02*
X151101000Y-78641000D01*
X148619000Y-78641000D02*
X145420000Y-78641000D01*
X154277000Y-78681000D02*
X151101000Y-78681000D01*
X148619000Y-78681000D02*
X145443000Y-78681000D01*
X154255000Y-78721000D02*
X151101000Y-78721000D01*
X148619000Y-78721000D02*
X145465000Y-78721000D01*
X154231000Y-78761000D02*
X151101000Y-78761000D01*
X148619000Y-78761000D02*
X145489000Y-78761000D01*
X154207000Y-78801000D02*
X151101000Y-78801000D01*
X148619000Y-78801000D02*
X145513000Y-78801000D01*
X154183000Y-78841000D02*
X151101000Y-78841000D01*
X148619000Y-78841000D02*
X145537000Y-78841000D01*
X154158000Y-78881000D02*
X151101000Y-78881000D01*
X148619000Y-78881000D02*
X145562000Y-78881000D01*
X154133000Y-78921000D02*
X151101000Y-78921000D01*
X148619000Y-78921000D02*
X145587000Y-78921000D01*
X154107000Y-78961000D02*
X151101000Y-78961000D01*
X148619000Y-78961000D02*
X145613000Y-78961000D01*
X154081000Y-79001000D02*
X151101000Y-79001000D01*
X148619000Y-79001000D02*
X145639000Y-79001000D01*
X154054000Y-79041000D02*
X151101000Y-79041000D01*
X148619000Y-79041000D02*
X145666000Y-79041000D01*
X154026000Y-79081000D02*
X151101000Y-79081000D01*
X148619000Y-79081000D02*
X145694000Y-79081000D01*
X153998000Y-79121000D02*
X151101000Y-79121000D01*
X148619000Y-79121000D02*
X145722000Y-79121000D01*
X153970000Y-79161000D02*
X151101000Y-79161000D01*
X148619000Y-79161000D02*
X145750000Y-79161000D01*
X153940000Y-79201000D02*
X151101000Y-79201000D01*
X148619000Y-79201000D02*
X145780000Y-79201000D01*
X153910000Y-79241000D02*
X151101000Y-79241000D01*
X148619000Y-79241000D02*
X145810000Y-79241000D01*
X153880000Y-79281000D02*
X151101000Y-79281000D01*
X148619000Y-79281000D02*
X145840000Y-79281000D01*
X153849000Y-79321000D02*
X151101000Y-79321000D01*
X148619000Y-79321000D02*
X145871000Y-79321000D01*
X153817000Y-79361000D02*
X151101000Y-79361000D01*
X148619000Y-79361000D02*
X145903000Y-79361000D01*
X153785000Y-79401000D02*
X151101000Y-79401000D01*
X148619000Y-79401000D02*
X145935000Y-79401000D01*
X153752000Y-79441000D02*
X151101000Y-79441000D01*
X148619000Y-79441000D02*
X145968000Y-79441000D01*
X153718000Y-79481000D02*
X151101000Y-79481000D01*
X148619000Y-79481000D02*
X146002000Y-79481000D01*
X153684000Y-79521000D02*
X151101000Y-79521000D01*
X148619000Y-79521000D02*
X146036000Y-79521000D01*
X153649000Y-79561000D02*
X151101000Y-79561000D01*
X148619000Y-79561000D02*
X146071000Y-79561000D01*
X153613000Y-79601000D02*
X151101000Y-79601000D01*
X148619000Y-79601000D02*
X146107000Y-79601000D01*
X153576000Y-79641000D02*
X151101000Y-79641000D01*
X148619000Y-79641000D02*
X146144000Y-79641000D01*
X153539000Y-79681000D02*
X151101000Y-79681000D01*
X148619000Y-79681000D02*
X146181000Y-79681000D01*
X153500000Y-79721000D02*
X151101000Y-79721000D01*
X148619000Y-79721000D02*
X146220000Y-79721000D01*
X153461000Y-79761000D02*
X151101000Y-79761000D01*
X148619000Y-79761000D02*
X146259000Y-79761000D01*
X153421000Y-79801000D02*
X151101000Y-79801000D01*
X148619000Y-79801000D02*
X146299000Y-79801000D01*
X153380000Y-79841000D02*
X151101000Y-79841000D01*
X148619000Y-79841000D02*
X146340000Y-79841000D01*
X153338000Y-79881000D02*
X151101000Y-79881000D01*
X148619000Y-79881000D02*
X146382000Y-79881000D01*
X153296000Y-79921000D02*
X146424000Y-79921000D01*
X153252000Y-79961000D02*
X146468000Y-79961000D01*
X153207000Y-80001000D02*
X146513000Y-80001000D01*
X153161000Y-80041000D02*
X146559000Y-80041000D01*
X153114000Y-80081000D02*
X146606000Y-80081000D01*
X153066000Y-80121000D02*
X146654000Y-80121000D01*
X153016000Y-80161000D02*
X146704000Y-80161000D01*
X152966000Y-80201000D02*
X146754000Y-80201000D01*
X152914000Y-80241000D02*
X146806000Y-80241000D01*
X152860000Y-80281000D02*
X146860000Y-80281000D01*
X152805000Y-80321000D02*
X146915000Y-80321000D01*
X152749000Y-80361000D02*
X146971000Y-80361000D01*
X152690000Y-80401000D02*
X147030000Y-80401000D01*
X152630000Y-80441000D02*
X147090000Y-80441000D01*
X152569000Y-80481000D02*
X147151000Y-80481000D01*
X152505000Y-80521000D02*
X147215000Y-80521000D01*
X152439000Y-80561000D02*
X147281000Y-80561000D01*
X152370000Y-80601000D02*
X147350000Y-80601000D01*
X152299000Y-80641000D02*
X147421000Y-80641000D01*
X152225000Y-80681000D02*
X147495000Y-80681000D01*
X152149000Y-80721000D02*
X147571000Y-80721000D01*
X152069000Y-80761000D02*
X147651000Y-80761000D01*
X151985000Y-80801000D02*
X147735000Y-80801000D01*
X151897000Y-80841000D02*
X147823000Y-80841000D01*
X151804000Y-80881000D02*
X147916000Y-80881000D01*
X151706000Y-80921000D02*
X148014000Y-80921000D01*
X151602000Y-80961000D02*
X148118000Y-80961000D01*
X151490000Y-81001000D02*
X148230000Y-81001000D01*
X151370000Y-81041000D02*
X148350000Y-81041000D01*
X151238000Y-81081000D02*
X148482000Y-81081000D01*
X151090000Y-81121000D02*
X148630000Y-81121000D01*
X150922000Y-81161000D02*
X148798000Y-81161000D01*
X150722000Y-81201000D02*
X148998000Y-81201000D01*
X150459000Y-81241000D02*
X149261000Y-81241000D01*
X152735000Y-70680354D02*
X152735000Y-71680354D01*
X153235000Y-71180354D02*
X152235000Y-71180354D01*
G04 #@! TO.C,C2*
X163480000Y-74281000D02*
X163480000Y-75539000D01*
X161640000Y-74281000D02*
X161640000Y-75539000D01*
G04 #@! TO.C,C3*
X179905000Y-71180354D02*
X178905000Y-71180354D01*
X179405000Y-70680354D02*
X179405000Y-71680354D01*
X177129000Y-81241000D02*
X175931000Y-81241000D01*
X177392000Y-81201000D02*
X175668000Y-81201000D01*
X177592000Y-81161000D02*
X175468000Y-81161000D01*
X177760000Y-81121000D02*
X175300000Y-81121000D01*
X177908000Y-81081000D02*
X175152000Y-81081000D01*
X178040000Y-81041000D02*
X175020000Y-81041000D01*
X178160000Y-81001000D02*
X174900000Y-81001000D01*
X178272000Y-80961000D02*
X174788000Y-80961000D01*
X178376000Y-80921000D02*
X174684000Y-80921000D01*
X178474000Y-80881000D02*
X174586000Y-80881000D01*
X178567000Y-80841000D02*
X174493000Y-80841000D01*
X178655000Y-80801000D02*
X174405000Y-80801000D01*
X178739000Y-80761000D02*
X174321000Y-80761000D01*
X178819000Y-80721000D02*
X174241000Y-80721000D01*
X178895000Y-80681000D02*
X174165000Y-80681000D01*
X178969000Y-80641000D02*
X174091000Y-80641000D01*
X179040000Y-80601000D02*
X174020000Y-80601000D01*
X179109000Y-80561000D02*
X173951000Y-80561000D01*
X179175000Y-80521000D02*
X173885000Y-80521000D01*
X179239000Y-80481000D02*
X173821000Y-80481000D01*
X179300000Y-80441000D02*
X173760000Y-80441000D01*
X179360000Y-80401000D02*
X173700000Y-80401000D01*
X179419000Y-80361000D02*
X173641000Y-80361000D01*
X179475000Y-80321000D02*
X173585000Y-80321000D01*
X179530000Y-80281000D02*
X173530000Y-80281000D01*
X179584000Y-80241000D02*
X173476000Y-80241000D01*
X179636000Y-80201000D02*
X173424000Y-80201000D01*
X179686000Y-80161000D02*
X173374000Y-80161000D01*
X179736000Y-80121000D02*
X173324000Y-80121000D01*
X179784000Y-80081000D02*
X173276000Y-80081000D01*
X179831000Y-80041000D02*
X173229000Y-80041000D01*
X179877000Y-80001000D02*
X173183000Y-80001000D01*
X179922000Y-79961000D02*
X173138000Y-79961000D01*
X179966000Y-79921000D02*
X173094000Y-79921000D01*
X175289000Y-79881000D02*
X173052000Y-79881000D01*
X180008000Y-79881000D02*
X177771000Y-79881000D01*
X175289000Y-79841000D02*
X173010000Y-79841000D01*
X180050000Y-79841000D02*
X177771000Y-79841000D01*
X175289000Y-79801000D02*
X172969000Y-79801000D01*
X180091000Y-79801000D02*
X177771000Y-79801000D01*
X175289000Y-79761000D02*
X172929000Y-79761000D01*
X180131000Y-79761000D02*
X177771000Y-79761000D01*
X175289000Y-79721000D02*
X172890000Y-79721000D01*
X180170000Y-79721000D02*
X177771000Y-79721000D01*
X175289000Y-79681000D02*
X172851000Y-79681000D01*
X180209000Y-79681000D02*
X177771000Y-79681000D01*
X175289000Y-79641000D02*
X172814000Y-79641000D01*
X180246000Y-79641000D02*
X177771000Y-79641000D01*
X175289000Y-79601000D02*
X172777000Y-79601000D01*
X180283000Y-79601000D02*
X177771000Y-79601000D01*
X175289000Y-79561000D02*
X172741000Y-79561000D01*
X180319000Y-79561000D02*
X177771000Y-79561000D01*
X175289000Y-79521000D02*
X172706000Y-79521000D01*
X180354000Y-79521000D02*
X177771000Y-79521000D01*
X175289000Y-79481000D02*
X172672000Y-79481000D01*
X180388000Y-79481000D02*
X177771000Y-79481000D01*
X175289000Y-79441000D02*
X172638000Y-79441000D01*
X180422000Y-79441000D02*
X177771000Y-79441000D01*
X175289000Y-79401000D02*
X172605000Y-79401000D01*
X180455000Y-79401000D02*
X177771000Y-79401000D01*
X175289000Y-79361000D02*
X172573000Y-79361000D01*
X180487000Y-79361000D02*
X177771000Y-79361000D01*
X175289000Y-79321000D02*
X172541000Y-79321000D01*
X180519000Y-79321000D02*
X177771000Y-79321000D01*
X175289000Y-79281000D02*
X172510000Y-79281000D01*
X180550000Y-79281000D02*
X177771000Y-79281000D01*
X175289000Y-79241000D02*
X172480000Y-79241000D01*
X180580000Y-79241000D02*
X177771000Y-79241000D01*
X175289000Y-79201000D02*
X172450000Y-79201000D01*
X180610000Y-79201000D02*
X177771000Y-79201000D01*
X175289000Y-79161000D02*
X172420000Y-79161000D01*
X180640000Y-79161000D02*
X177771000Y-79161000D01*
X175289000Y-79121000D02*
X172392000Y-79121000D01*
X180668000Y-79121000D02*
X177771000Y-79121000D01*
X175289000Y-79081000D02*
X172364000Y-79081000D01*
X180696000Y-79081000D02*
X177771000Y-79081000D01*
X175289000Y-79041000D02*
X172336000Y-79041000D01*
X180724000Y-79041000D02*
X177771000Y-79041000D01*
X175289000Y-79001000D02*
X172309000Y-79001000D01*
X180751000Y-79001000D02*
X177771000Y-79001000D01*
X175289000Y-78961000D02*
X172283000Y-78961000D01*
X180777000Y-78961000D02*
X177771000Y-78961000D01*
X175289000Y-78921000D02*
X172257000Y-78921000D01*
X180803000Y-78921000D02*
X177771000Y-78921000D01*
X175289000Y-78881000D02*
X172232000Y-78881000D01*
X180828000Y-78881000D02*
X177771000Y-78881000D01*
X175289000Y-78841000D02*
X172207000Y-78841000D01*
X180853000Y-78841000D02*
X177771000Y-78841000D01*
X175289000Y-78801000D02*
X172183000Y-78801000D01*
X180877000Y-78801000D02*
X177771000Y-78801000D01*
X175289000Y-78761000D02*
X172159000Y-78761000D01*
X180901000Y-78761000D02*
X177771000Y-78761000D01*
X175289000Y-78721000D02*
X172135000Y-78721000D01*
X180925000Y-78721000D02*
X177771000Y-78721000D01*
X175289000Y-78681000D02*
X172113000Y-78681000D01*
X180947000Y-78681000D02*
X177771000Y-78681000D01*
X175289000Y-78641000D02*
X172090000Y-78641000D01*
X180970000Y-78641000D02*
X177771000Y-78641000D01*
X175289000Y-78601000D02*
X172068000Y-78601000D01*
X180992000Y-78601000D02*
X177771000Y-78601000D01*
X175289000Y-78561000D02*
X172047000Y-78561000D01*
X181013000Y-78561000D02*
X177771000Y-78561000D01*
X175289000Y-78521000D02*
X172026000Y-78521000D01*
X181034000Y-78521000D02*
X177771000Y-78521000D01*
X175289000Y-78481000D02*
X172005000Y-78481000D01*
X181055000Y-78481000D02*
X177771000Y-78481000D01*
X175289000Y-78441000D02*
X171985000Y-78441000D01*
X181075000Y-78441000D02*
X177771000Y-78441000D01*
X175289000Y-78401000D02*
X171966000Y-78401000D01*
X181094000Y-78401000D02*
X177771000Y-78401000D01*
X175289000Y-78361000D02*
X171946000Y-78361000D01*
X181114000Y-78361000D02*
X177771000Y-78361000D01*
X175289000Y-78321000D02*
X171927000Y-78321000D01*
X181133000Y-78321000D02*
X177771000Y-78321000D01*
X175289000Y-78281000D02*
X171909000Y-78281000D01*
X181151000Y-78281000D02*
X177771000Y-78281000D01*
X175289000Y-78241000D02*
X171891000Y-78241000D01*
X181169000Y-78241000D02*
X177771000Y-78241000D01*
X175289000Y-78201000D02*
X171873000Y-78201000D01*
X181187000Y-78201000D02*
X177771000Y-78201000D01*
X175289000Y-78161000D02*
X171856000Y-78161000D01*
X181204000Y-78161000D02*
X177771000Y-78161000D01*
X175289000Y-78121000D02*
X171840000Y-78121000D01*
X181220000Y-78121000D02*
X177771000Y-78121000D01*
X175289000Y-78081000D02*
X171823000Y-78081000D01*
X181237000Y-78081000D02*
X177771000Y-78081000D01*
X175289000Y-78041000D02*
X171807000Y-78041000D01*
X181253000Y-78041000D02*
X177771000Y-78041000D01*
X175289000Y-78001000D02*
X171792000Y-78001000D01*
X181268000Y-78001000D02*
X177771000Y-78001000D01*
X175289000Y-77961000D02*
X171776000Y-77961000D01*
X181284000Y-77961000D02*
X177771000Y-77961000D01*
X175289000Y-77921000D02*
X171762000Y-77921000D01*
X181298000Y-77921000D02*
X177771000Y-77921000D01*
X175289000Y-77881000D02*
X171747000Y-77881000D01*
X181313000Y-77881000D02*
X177771000Y-77881000D01*
X175289000Y-77841000D02*
X171733000Y-77841000D01*
X181327000Y-77841000D02*
X177771000Y-77841000D01*
X175289000Y-77801000D02*
X171719000Y-77801000D01*
X181341000Y-77801000D02*
X177771000Y-77801000D01*
X175289000Y-77761000D02*
X171706000Y-77761000D01*
X181354000Y-77761000D02*
X177771000Y-77761000D01*
X175289000Y-77721000D02*
X171693000Y-77721000D01*
X181367000Y-77721000D02*
X177771000Y-77721000D01*
X175289000Y-77681000D02*
X171680000Y-77681000D01*
X181380000Y-77681000D02*
X177771000Y-77681000D01*
X175289000Y-77641000D02*
X171668000Y-77641000D01*
X181392000Y-77641000D02*
X177771000Y-77641000D01*
X175289000Y-77601000D02*
X171656000Y-77601000D01*
X181404000Y-77601000D02*
X177771000Y-77601000D01*
X175289000Y-77561000D02*
X171645000Y-77561000D01*
X181415000Y-77561000D02*
X177771000Y-77561000D01*
X175289000Y-77521000D02*
X171633000Y-77521000D01*
X181427000Y-77521000D02*
X177771000Y-77521000D01*
X175289000Y-77481000D02*
X171623000Y-77481000D01*
X181437000Y-77481000D02*
X177771000Y-77481000D01*
X175289000Y-77441000D02*
X171612000Y-77441000D01*
X181448000Y-77441000D02*
X177771000Y-77441000D01*
X181458000Y-77401000D02*
X171602000Y-77401000D01*
X181468000Y-77361000D02*
X171592000Y-77361000D01*
X181477000Y-77321000D02*
X171583000Y-77321000D01*
X181486000Y-77281000D02*
X171574000Y-77281000D01*
X181495000Y-77241000D02*
X171565000Y-77241000D01*
X181504000Y-77201000D02*
X171556000Y-77201000D01*
X181512000Y-77161000D02*
X171548000Y-77161000D01*
X181520000Y-77121000D02*
X171540000Y-77121000D01*
X181527000Y-77081000D02*
X171533000Y-77081000D01*
X181534000Y-77041000D02*
X171526000Y-77041000D01*
X181541000Y-77001000D02*
X171519000Y-77001000D01*
X181548000Y-76961000D02*
X171512000Y-76961000D01*
X181554000Y-76921000D02*
X171506000Y-76921000D01*
X181560000Y-76881000D02*
X171500000Y-76881000D01*
X181565000Y-76840000D02*
X171495000Y-76840000D01*
X181570000Y-76800000D02*
X171490000Y-76800000D01*
X181575000Y-76760000D02*
X171485000Y-76760000D01*
X181580000Y-76720000D02*
X171480000Y-76720000D01*
X181584000Y-76680000D02*
X171476000Y-76680000D01*
X181588000Y-76640000D02*
X171472000Y-76640000D01*
X181592000Y-76600000D02*
X171468000Y-76600000D01*
X181595000Y-76560000D02*
X171465000Y-76560000D01*
X181598000Y-76520000D02*
X171462000Y-76520000D01*
X181600000Y-76480000D02*
X171460000Y-76480000D01*
X181603000Y-76440000D02*
X171457000Y-76440000D01*
X181605000Y-76400000D02*
X171455000Y-76400000D01*
X181607000Y-76360000D02*
X171453000Y-76360000D01*
X181608000Y-76320000D02*
X171452000Y-76320000D01*
X181609000Y-76280000D02*
X171451000Y-76280000D01*
X181610000Y-76240000D02*
X171450000Y-76240000D01*
X181610000Y-76200000D02*
X171450000Y-76200000D01*
X181610000Y-76160000D02*
X171450000Y-76160000D01*
X181650000Y-76160000D02*
G75*
G03X181650000Y-76160000I-5120000J0D01*
G01*
G04 #@! TO.C,C4*
X181650000Y-90130000D02*
G75*
G03X181650000Y-90130000I-5120000J0D01*
G01*
X181610000Y-90130000D02*
X171450000Y-90130000D01*
X181610000Y-90170000D02*
X171450000Y-90170000D01*
X181610000Y-90210000D02*
X171450000Y-90210000D01*
X181609000Y-90250000D02*
X171451000Y-90250000D01*
X181608000Y-90290000D02*
X171452000Y-90290000D01*
X181607000Y-90330000D02*
X171453000Y-90330000D01*
X181605000Y-90370000D02*
X171455000Y-90370000D01*
X181603000Y-90410000D02*
X171457000Y-90410000D01*
X181600000Y-90450000D02*
X171460000Y-90450000D01*
X181598000Y-90490000D02*
X171462000Y-90490000D01*
X181595000Y-90530000D02*
X171465000Y-90530000D01*
X181592000Y-90570000D02*
X171468000Y-90570000D01*
X181588000Y-90610000D02*
X171472000Y-90610000D01*
X181584000Y-90650000D02*
X171476000Y-90650000D01*
X181580000Y-90690000D02*
X171480000Y-90690000D01*
X181575000Y-90730000D02*
X171485000Y-90730000D01*
X181570000Y-90770000D02*
X171490000Y-90770000D01*
X181565000Y-90810000D02*
X171495000Y-90810000D01*
X181560000Y-90851000D02*
X171500000Y-90851000D01*
X181554000Y-90891000D02*
X171506000Y-90891000D01*
X181548000Y-90931000D02*
X171512000Y-90931000D01*
X181541000Y-90971000D02*
X171519000Y-90971000D01*
X181534000Y-91011000D02*
X171526000Y-91011000D01*
X181527000Y-91051000D02*
X171533000Y-91051000D01*
X181520000Y-91091000D02*
X171540000Y-91091000D01*
X181512000Y-91131000D02*
X171548000Y-91131000D01*
X181504000Y-91171000D02*
X171556000Y-91171000D01*
X181495000Y-91211000D02*
X171565000Y-91211000D01*
X181486000Y-91251000D02*
X171574000Y-91251000D01*
X181477000Y-91291000D02*
X171583000Y-91291000D01*
X181468000Y-91331000D02*
X171592000Y-91331000D01*
X181458000Y-91371000D02*
X171602000Y-91371000D01*
X181448000Y-91411000D02*
X177771000Y-91411000D01*
X175289000Y-91411000D02*
X171612000Y-91411000D01*
X181437000Y-91451000D02*
X177771000Y-91451000D01*
X175289000Y-91451000D02*
X171623000Y-91451000D01*
X181427000Y-91491000D02*
X177771000Y-91491000D01*
X175289000Y-91491000D02*
X171633000Y-91491000D01*
X181415000Y-91531000D02*
X177771000Y-91531000D01*
X175289000Y-91531000D02*
X171645000Y-91531000D01*
X181404000Y-91571000D02*
X177771000Y-91571000D01*
X175289000Y-91571000D02*
X171656000Y-91571000D01*
X181392000Y-91611000D02*
X177771000Y-91611000D01*
X175289000Y-91611000D02*
X171668000Y-91611000D01*
X181380000Y-91651000D02*
X177771000Y-91651000D01*
X175289000Y-91651000D02*
X171680000Y-91651000D01*
X181367000Y-91691000D02*
X177771000Y-91691000D01*
X175289000Y-91691000D02*
X171693000Y-91691000D01*
X181354000Y-91731000D02*
X177771000Y-91731000D01*
X175289000Y-91731000D02*
X171706000Y-91731000D01*
X181341000Y-91771000D02*
X177771000Y-91771000D01*
X175289000Y-91771000D02*
X171719000Y-91771000D01*
X181327000Y-91811000D02*
X177771000Y-91811000D01*
X175289000Y-91811000D02*
X171733000Y-91811000D01*
X181313000Y-91851000D02*
X177771000Y-91851000D01*
X175289000Y-91851000D02*
X171747000Y-91851000D01*
X181298000Y-91891000D02*
X177771000Y-91891000D01*
X175289000Y-91891000D02*
X171762000Y-91891000D01*
X181284000Y-91931000D02*
X177771000Y-91931000D01*
X175289000Y-91931000D02*
X171776000Y-91931000D01*
X181268000Y-91971000D02*
X177771000Y-91971000D01*
X175289000Y-91971000D02*
X171792000Y-91971000D01*
X181253000Y-92011000D02*
X177771000Y-92011000D01*
X175289000Y-92011000D02*
X171807000Y-92011000D01*
X181237000Y-92051000D02*
X177771000Y-92051000D01*
X175289000Y-92051000D02*
X171823000Y-92051000D01*
X181220000Y-92091000D02*
X177771000Y-92091000D01*
X175289000Y-92091000D02*
X171840000Y-92091000D01*
X181204000Y-92131000D02*
X177771000Y-92131000D01*
X175289000Y-92131000D02*
X171856000Y-92131000D01*
X181187000Y-92171000D02*
X177771000Y-92171000D01*
X175289000Y-92171000D02*
X171873000Y-92171000D01*
X181169000Y-92211000D02*
X177771000Y-92211000D01*
X175289000Y-92211000D02*
X171891000Y-92211000D01*
X181151000Y-92251000D02*
X177771000Y-92251000D01*
X175289000Y-92251000D02*
X171909000Y-92251000D01*
X181133000Y-92291000D02*
X177771000Y-92291000D01*
X175289000Y-92291000D02*
X171927000Y-92291000D01*
X181114000Y-92331000D02*
X177771000Y-92331000D01*
X175289000Y-92331000D02*
X171946000Y-92331000D01*
X181094000Y-92371000D02*
X177771000Y-92371000D01*
X175289000Y-92371000D02*
X171966000Y-92371000D01*
X181075000Y-92411000D02*
X177771000Y-92411000D01*
X175289000Y-92411000D02*
X171985000Y-92411000D01*
X181055000Y-92451000D02*
X177771000Y-92451000D01*
X175289000Y-92451000D02*
X172005000Y-92451000D01*
X181034000Y-92491000D02*
X177771000Y-92491000D01*
X175289000Y-92491000D02*
X172026000Y-92491000D01*
X181013000Y-92531000D02*
X177771000Y-92531000D01*
X175289000Y-92531000D02*
X172047000Y-92531000D01*
X180992000Y-92571000D02*
X177771000Y-92571000D01*
X175289000Y-92571000D02*
X172068000Y-92571000D01*
X180970000Y-92611000D02*
X177771000Y-92611000D01*
X175289000Y-92611000D02*
X172090000Y-92611000D01*
X180947000Y-92651000D02*
X177771000Y-92651000D01*
X175289000Y-92651000D02*
X172113000Y-92651000D01*
X180925000Y-92691000D02*
X177771000Y-92691000D01*
X175289000Y-92691000D02*
X172135000Y-92691000D01*
X180901000Y-92731000D02*
X177771000Y-92731000D01*
X175289000Y-92731000D02*
X172159000Y-92731000D01*
X180877000Y-92771000D02*
X177771000Y-92771000D01*
X175289000Y-92771000D02*
X172183000Y-92771000D01*
X180853000Y-92811000D02*
X177771000Y-92811000D01*
X175289000Y-92811000D02*
X172207000Y-92811000D01*
X180828000Y-92851000D02*
X177771000Y-92851000D01*
X175289000Y-92851000D02*
X172232000Y-92851000D01*
X180803000Y-92891000D02*
X177771000Y-92891000D01*
X175289000Y-92891000D02*
X172257000Y-92891000D01*
X180777000Y-92931000D02*
X177771000Y-92931000D01*
X175289000Y-92931000D02*
X172283000Y-92931000D01*
X180751000Y-92971000D02*
X177771000Y-92971000D01*
X175289000Y-92971000D02*
X172309000Y-92971000D01*
X180724000Y-93011000D02*
X177771000Y-93011000D01*
X175289000Y-93011000D02*
X172336000Y-93011000D01*
X180696000Y-93051000D02*
X177771000Y-93051000D01*
X175289000Y-93051000D02*
X172364000Y-93051000D01*
X180668000Y-93091000D02*
X177771000Y-93091000D01*
X175289000Y-93091000D02*
X172392000Y-93091000D01*
X180640000Y-93131000D02*
X177771000Y-93131000D01*
X175289000Y-93131000D02*
X172420000Y-93131000D01*
X180610000Y-93171000D02*
X177771000Y-93171000D01*
X175289000Y-93171000D02*
X172450000Y-93171000D01*
X180580000Y-93211000D02*
X177771000Y-93211000D01*
X175289000Y-93211000D02*
X172480000Y-93211000D01*
X180550000Y-93251000D02*
X177771000Y-93251000D01*
X175289000Y-93251000D02*
X172510000Y-93251000D01*
X180519000Y-93291000D02*
X177771000Y-93291000D01*
X175289000Y-93291000D02*
X172541000Y-93291000D01*
X180487000Y-93331000D02*
X177771000Y-93331000D01*
X175289000Y-93331000D02*
X172573000Y-93331000D01*
X180455000Y-93371000D02*
X177771000Y-93371000D01*
X175289000Y-93371000D02*
X172605000Y-93371000D01*
X180422000Y-93411000D02*
X177771000Y-93411000D01*
X175289000Y-93411000D02*
X172638000Y-93411000D01*
X180388000Y-93451000D02*
X177771000Y-93451000D01*
X175289000Y-93451000D02*
X172672000Y-93451000D01*
X180354000Y-93491000D02*
X177771000Y-93491000D01*
X175289000Y-93491000D02*
X172706000Y-93491000D01*
X180319000Y-93531000D02*
X177771000Y-93531000D01*
X175289000Y-93531000D02*
X172741000Y-93531000D01*
X180283000Y-93571000D02*
X177771000Y-93571000D01*
X175289000Y-93571000D02*
X172777000Y-93571000D01*
X180246000Y-93611000D02*
X177771000Y-93611000D01*
X175289000Y-93611000D02*
X172814000Y-93611000D01*
X180209000Y-93651000D02*
X177771000Y-93651000D01*
X175289000Y-93651000D02*
X172851000Y-93651000D01*
X180170000Y-93691000D02*
X177771000Y-93691000D01*
X175289000Y-93691000D02*
X172890000Y-93691000D01*
X180131000Y-93731000D02*
X177771000Y-93731000D01*
X175289000Y-93731000D02*
X172929000Y-93731000D01*
X180091000Y-93771000D02*
X177771000Y-93771000D01*
X175289000Y-93771000D02*
X172969000Y-93771000D01*
X180050000Y-93811000D02*
X177771000Y-93811000D01*
X175289000Y-93811000D02*
X173010000Y-93811000D01*
X180008000Y-93851000D02*
X177771000Y-93851000D01*
X175289000Y-93851000D02*
X173052000Y-93851000D01*
X179966000Y-93891000D02*
X173094000Y-93891000D01*
X179922000Y-93931000D02*
X173138000Y-93931000D01*
X179877000Y-93971000D02*
X173183000Y-93971000D01*
X179831000Y-94011000D02*
X173229000Y-94011000D01*
X179784000Y-94051000D02*
X173276000Y-94051000D01*
X179736000Y-94091000D02*
X173324000Y-94091000D01*
X179686000Y-94131000D02*
X173374000Y-94131000D01*
X179636000Y-94171000D02*
X173424000Y-94171000D01*
X179584000Y-94211000D02*
X173476000Y-94211000D01*
X179530000Y-94251000D02*
X173530000Y-94251000D01*
X179475000Y-94291000D02*
X173585000Y-94291000D01*
X179419000Y-94331000D02*
X173641000Y-94331000D01*
X179360000Y-94371000D02*
X173700000Y-94371000D01*
X179300000Y-94411000D02*
X173760000Y-94411000D01*
X179239000Y-94451000D02*
X173821000Y-94451000D01*
X179175000Y-94491000D02*
X173885000Y-94491000D01*
X179109000Y-94531000D02*
X173951000Y-94531000D01*
X179040000Y-94571000D02*
X174020000Y-94571000D01*
X178969000Y-94611000D02*
X174091000Y-94611000D01*
X178895000Y-94651000D02*
X174165000Y-94651000D01*
X178819000Y-94691000D02*
X174241000Y-94691000D01*
X178739000Y-94731000D02*
X174321000Y-94731000D01*
X178655000Y-94771000D02*
X174405000Y-94771000D01*
X178567000Y-94811000D02*
X174493000Y-94811000D01*
X178474000Y-94851000D02*
X174586000Y-94851000D01*
X178376000Y-94891000D02*
X174684000Y-94891000D01*
X178272000Y-94931000D02*
X174788000Y-94931000D01*
X178160000Y-94971000D02*
X174900000Y-94971000D01*
X178040000Y-95011000D02*
X175020000Y-95011000D01*
X177908000Y-95051000D02*
X175152000Y-95051000D01*
X177760000Y-95091000D02*
X175300000Y-95091000D01*
X177592000Y-95131000D02*
X175468000Y-95131000D01*
X177392000Y-95171000D02*
X175668000Y-95171000D01*
X177129000Y-95211000D02*
X175931000Y-95211000D01*
X179405000Y-84650354D02*
X179405000Y-85650354D01*
X179905000Y-85150354D02*
X178905000Y-85150354D01*
G04 #@! TO.C,C5*
X194660000Y-76821000D02*
X194660000Y-78079000D01*
X196500000Y-76821000D02*
X196500000Y-78079000D01*
G04 #@! TO.C,C6*
X196500000Y-90791000D02*
X196500000Y-92049000D01*
X194660000Y-90791000D02*
X194660000Y-92049000D01*
G04 #@! TO.C,D1*
X133530000Y-74800000D02*
X133530000Y-75130000D01*
X133530000Y-75130000D02*
X128090000Y-75130000D01*
X128090000Y-75130000D02*
X128090000Y-74800000D01*
X133530000Y-72520000D02*
X133530000Y-72190000D01*
X133530000Y-72190000D02*
X128090000Y-72190000D01*
X128090000Y-72190000D02*
X128090000Y-72520000D01*
X132630000Y-75130000D02*
X132630000Y-72190000D01*
X132510000Y-75130000D02*
X132510000Y-72190000D01*
X132750000Y-75130000D02*
X132750000Y-72190000D01*
G04 #@! TO.C,D2*
X132750000Y-99260000D02*
X132750000Y-96320000D01*
X132510000Y-99260000D02*
X132510000Y-96320000D01*
X132630000Y-99260000D02*
X132630000Y-96320000D01*
X128090000Y-96320000D02*
X128090000Y-96650000D01*
X133530000Y-96320000D02*
X128090000Y-96320000D01*
X133530000Y-96650000D02*
X133530000Y-96320000D01*
X128090000Y-99260000D02*
X128090000Y-98930000D01*
X133530000Y-99260000D02*
X128090000Y-99260000D01*
X133530000Y-98930000D02*
X133530000Y-99260000D01*
D11*
G04 #@! TO.C,T1*
X117370000Y-100860000D02*
X117370000Y-71860000D01*
X88370000Y-100860000D02*
X117370000Y-100860000D01*
X88370000Y-71860000D02*
X88370000Y-100860000D01*
X117370000Y-71860000D02*
X88370000Y-71860000D01*
X107870000Y-103860000D02*
X107870000Y-68860000D01*
X97870000Y-103860000D02*
X107870000Y-103860000D01*
X97870000Y-68860000D02*
X97870000Y-103860000D01*
X107870000Y-68860000D02*
X97870000Y-68860000D01*
D10*
G04 #@! TO.C,U1*
X189170000Y-72330000D02*
X190500000Y-72330000D01*
X189170000Y-73660000D02*
X189170000Y-72330000D01*
X189170000Y-74930000D02*
X191830000Y-74930000D01*
X191830000Y-74930000D02*
X191830000Y-80070000D01*
X189170000Y-74930000D02*
X189170000Y-80070000D01*
X189170000Y-80070000D02*
X191830000Y-80070000D01*
G04 #@! TO.C,U2*
X189170000Y-94040000D02*
X191830000Y-94040000D01*
X189170000Y-88900000D02*
X189170000Y-94040000D01*
X191830000Y-88900000D02*
X191830000Y-94040000D01*
X189170000Y-88900000D02*
X191830000Y-88900000D01*
X189170000Y-87630000D02*
X189170000Y-86300000D01*
X189170000Y-86300000D02*
X190500000Y-86300000D01*
G04 #@! TO.C,H3*
X200830000Y-74870000D02*
X200830000Y-77530000D01*
X200830000Y-77530000D02*
X203490000Y-77530000D01*
X203490000Y-77530000D02*
X203490000Y-74870000D01*
X203490000Y-74870000D02*
X200830000Y-74870000D01*
X203490000Y-75820000D02*
X209490000Y-75820000D01*
X209490000Y-75820000D02*
X209490000Y-76580000D01*
X209490000Y-76580000D02*
X203490000Y-76580000D01*
X203490000Y-75880000D02*
X209490000Y-75880000D01*
X203490000Y-76000000D02*
X209490000Y-76000000D01*
X203490000Y-76120000D02*
X209490000Y-76120000D01*
X203490000Y-76240000D02*
X209490000Y-76240000D01*
X203490000Y-76360000D02*
X209490000Y-76360000D01*
X203490000Y-76480000D02*
X209490000Y-76480000D01*
X200500000Y-75820000D02*
X200830000Y-75820000D01*
X200500000Y-76580000D02*
X200830000Y-76580000D01*
X198120000Y-76200000D02*
X198120000Y-74930000D01*
X198120000Y-74930000D02*
X199390000Y-74930000D01*
G04 #@! TO.C,H4*
X198120000Y-88900000D02*
X199390000Y-88900000D01*
X198120000Y-90170000D02*
X198120000Y-88900000D01*
X200500000Y-90550000D02*
X200830000Y-90550000D01*
X200500000Y-89790000D02*
X200830000Y-89790000D01*
X203490000Y-90450000D02*
X209490000Y-90450000D01*
X203490000Y-90330000D02*
X209490000Y-90330000D01*
X203490000Y-90210000D02*
X209490000Y-90210000D01*
X203490000Y-90090000D02*
X209490000Y-90090000D01*
X203490000Y-89970000D02*
X209490000Y-89970000D01*
X203490000Y-89850000D02*
X209490000Y-89850000D01*
X209490000Y-90550000D02*
X203490000Y-90550000D01*
X209490000Y-89790000D02*
X209490000Y-90550000D01*
X203490000Y-89790000D02*
X209490000Y-89790000D01*
X203490000Y-88840000D02*
X200830000Y-88840000D01*
X203490000Y-91500000D02*
X203490000Y-88840000D01*
X200830000Y-91500000D02*
X203490000Y-91500000D01*
X200830000Y-88840000D02*
X200830000Y-91500000D01*
G04 #@! TO.C,H5*
X200830000Y-65980000D02*
X200830000Y-68640000D01*
X200830000Y-68640000D02*
X203490000Y-68640000D01*
X203490000Y-68640000D02*
X203490000Y-65980000D01*
X203490000Y-65980000D02*
X200830000Y-65980000D01*
X203490000Y-66930000D02*
X209490000Y-66930000D01*
X209490000Y-66930000D02*
X209490000Y-67690000D01*
X209490000Y-67690000D02*
X203490000Y-67690000D01*
X203490000Y-66990000D02*
X209490000Y-66990000D01*
X203490000Y-67110000D02*
X209490000Y-67110000D01*
X203490000Y-67230000D02*
X209490000Y-67230000D01*
X203490000Y-67350000D02*
X209490000Y-67350000D01*
X203490000Y-67470000D02*
X209490000Y-67470000D01*
X203490000Y-67590000D02*
X209490000Y-67590000D01*
X200500000Y-66930000D02*
X200830000Y-66930000D01*
X200500000Y-67690000D02*
X200830000Y-67690000D01*
X198120000Y-67310000D02*
X198120000Y-66040000D01*
X198120000Y-66040000D02*
X199390000Y-66040000D01*
G04 #@! TO.C,H6*
X198120000Y-99060000D02*
X199390000Y-99060000D01*
X198120000Y-100330000D02*
X198120000Y-99060000D01*
X200500000Y-100710000D02*
X200830000Y-100710000D01*
X200500000Y-99950000D02*
X200830000Y-99950000D01*
X203490000Y-100610000D02*
X209490000Y-100610000D01*
X203490000Y-100490000D02*
X209490000Y-100490000D01*
X203490000Y-100370000D02*
X209490000Y-100370000D01*
X203490000Y-100250000D02*
X209490000Y-100250000D01*
X203490000Y-100130000D02*
X209490000Y-100130000D01*
X203490000Y-100010000D02*
X209490000Y-100010000D01*
X209490000Y-100710000D02*
X203490000Y-100710000D01*
X209490000Y-99950000D02*
X209490000Y-100710000D01*
X203490000Y-99950000D02*
X209490000Y-99950000D01*
X203490000Y-99000000D02*
X200830000Y-99000000D01*
X203490000Y-101660000D02*
X203490000Y-99000000D01*
X200830000Y-101660000D02*
X203490000Y-101660000D01*
X200830000Y-99000000D02*
X200830000Y-101660000D01*
G04 #@! TO.C,C1*
D11*
X156467142Y-76326666D02*
X156514761Y-76374285D01*
X156562380Y-76517142D01*
X156562380Y-76612380D01*
X156514761Y-76755238D01*
X156419523Y-76850476D01*
X156324285Y-76898095D01*
X156133809Y-76945714D01*
X155990952Y-76945714D01*
X155800476Y-76898095D01*
X155705238Y-76850476D01*
X155610000Y-76755238D01*
X155562380Y-76612380D01*
X155562380Y-76517142D01*
X155610000Y-76374285D01*
X155657619Y-76326666D01*
X156562380Y-75374285D02*
X156562380Y-75945714D01*
X156562380Y-75660000D02*
X155562380Y-75660000D01*
X155705238Y-75755238D01*
X155800476Y-75850476D01*
X155848095Y-75945714D01*
G04 #@! TO.C,C2*
X164967142Y-75076666D02*
X165014761Y-75124285D01*
X165062380Y-75267142D01*
X165062380Y-75362380D01*
X165014761Y-75505238D01*
X164919523Y-75600476D01*
X164824285Y-75648095D01*
X164633809Y-75695714D01*
X164490952Y-75695714D01*
X164300476Y-75648095D01*
X164205238Y-75600476D01*
X164110000Y-75505238D01*
X164062380Y-75362380D01*
X164062380Y-75267142D01*
X164110000Y-75124285D01*
X164157619Y-75076666D01*
X164157619Y-74695714D02*
X164110000Y-74648095D01*
X164062380Y-74552857D01*
X164062380Y-74314761D01*
X164110000Y-74219523D01*
X164157619Y-74171904D01*
X164252857Y-74124285D01*
X164348095Y-74124285D01*
X164490952Y-74171904D01*
X165062380Y-74743333D01*
X165062380Y-74124285D01*
G04 #@! TO.C,C3*
X183137142Y-76326666D02*
X183184761Y-76374285D01*
X183232380Y-76517142D01*
X183232380Y-76612380D01*
X183184761Y-76755238D01*
X183089523Y-76850476D01*
X182994285Y-76898095D01*
X182803809Y-76945714D01*
X182660952Y-76945714D01*
X182470476Y-76898095D01*
X182375238Y-76850476D01*
X182280000Y-76755238D01*
X182232380Y-76612380D01*
X182232380Y-76517142D01*
X182280000Y-76374285D01*
X182327619Y-76326666D01*
X182232380Y-75993333D02*
X182232380Y-75374285D01*
X182613333Y-75707619D01*
X182613333Y-75564761D01*
X182660952Y-75469523D01*
X182708571Y-75421904D01*
X182803809Y-75374285D01*
X183041904Y-75374285D01*
X183137142Y-75421904D01*
X183184761Y-75469523D01*
X183232380Y-75564761D01*
X183232380Y-75850476D01*
X183184761Y-75945714D01*
X183137142Y-75993333D01*
G04 #@! TO.C,C4*
X183137142Y-90296666D02*
X183184761Y-90344285D01*
X183232380Y-90487142D01*
X183232380Y-90582380D01*
X183184761Y-90725238D01*
X183089523Y-90820476D01*
X182994285Y-90868095D01*
X182803809Y-90915714D01*
X182660952Y-90915714D01*
X182470476Y-90868095D01*
X182375238Y-90820476D01*
X182280000Y-90725238D01*
X182232380Y-90582380D01*
X182232380Y-90487142D01*
X182280000Y-90344285D01*
X182327619Y-90296666D01*
X182565714Y-89439523D02*
X183232380Y-89439523D01*
X182184761Y-89677619D02*
X182899047Y-89915714D01*
X182899047Y-89296666D01*
G04 #@! TO.C,C5*
X197987142Y-77616666D02*
X198034761Y-77664285D01*
X198082380Y-77807142D01*
X198082380Y-77902380D01*
X198034761Y-78045238D01*
X197939523Y-78140476D01*
X197844285Y-78188095D01*
X197653809Y-78235714D01*
X197510952Y-78235714D01*
X197320476Y-78188095D01*
X197225238Y-78140476D01*
X197130000Y-78045238D01*
X197082380Y-77902380D01*
X197082380Y-77807142D01*
X197130000Y-77664285D01*
X197177619Y-77616666D01*
X197082380Y-76711904D02*
X197082380Y-77188095D01*
X197558571Y-77235714D01*
X197510952Y-77188095D01*
X197463333Y-77092857D01*
X197463333Y-76854761D01*
X197510952Y-76759523D01*
X197558571Y-76711904D01*
X197653809Y-76664285D01*
X197891904Y-76664285D01*
X197987142Y-76711904D01*
X198034761Y-76759523D01*
X198082380Y-76854761D01*
X198082380Y-77092857D01*
X198034761Y-77188095D01*
X197987142Y-77235714D01*
G04 #@! TO.C,C6*
X197987142Y-91586666D02*
X198034761Y-91634285D01*
X198082380Y-91777142D01*
X198082380Y-91872380D01*
X198034761Y-92015238D01*
X197939523Y-92110476D01*
X197844285Y-92158095D01*
X197653809Y-92205714D01*
X197510952Y-92205714D01*
X197320476Y-92158095D01*
X197225238Y-92110476D01*
X197130000Y-92015238D01*
X197082380Y-91872380D01*
X197082380Y-91777142D01*
X197130000Y-91634285D01*
X197177619Y-91586666D01*
X197082380Y-90729523D02*
X197082380Y-90920000D01*
X197130000Y-91015238D01*
X197177619Y-91062857D01*
X197320476Y-91158095D01*
X197510952Y-91205714D01*
X197891904Y-91205714D01*
X197987142Y-91158095D01*
X198034761Y-91110476D01*
X198082380Y-91015238D01*
X198082380Y-90824761D01*
X198034761Y-90729523D01*
X197987142Y-90681904D01*
X197891904Y-90634285D01*
X197653809Y-90634285D01*
X197558571Y-90681904D01*
X197510952Y-90729523D01*
X197463333Y-90824761D01*
X197463333Y-91015238D01*
X197510952Y-91110476D01*
X197558571Y-91158095D01*
X197653809Y-91205714D01*
G04 #@! TO.C,D1*
X130071904Y-76582380D02*
X130071904Y-75582380D01*
X130310000Y-75582380D01*
X130452857Y-75630000D01*
X130548095Y-75725238D01*
X130595714Y-75820476D01*
X130643333Y-76010952D01*
X130643333Y-76153809D01*
X130595714Y-76344285D01*
X130548095Y-76439523D01*
X130452857Y-76534761D01*
X130310000Y-76582380D01*
X130071904Y-76582380D01*
X131595714Y-76582380D02*
X131024285Y-76582380D01*
X131310000Y-76582380D02*
X131310000Y-75582380D01*
X131214761Y-75725238D01*
X131119523Y-75820476D01*
X131024285Y-75868095D01*
X134358095Y-76012380D02*
X134358095Y-75012380D01*
X134929523Y-76012380D02*
X134500952Y-75440952D01*
X134929523Y-75012380D02*
X134358095Y-75583809D01*
G04 #@! TO.C,D2*
X130071904Y-100712380D02*
X130071904Y-99712380D01*
X130310000Y-99712380D01*
X130452857Y-99760000D01*
X130548095Y-99855238D01*
X130595714Y-99950476D01*
X130643333Y-100140952D01*
X130643333Y-100283809D01*
X130595714Y-100474285D01*
X130548095Y-100569523D01*
X130452857Y-100664761D01*
X130310000Y-100712380D01*
X130071904Y-100712380D01*
X131024285Y-99807619D02*
X131071904Y-99760000D01*
X131167142Y-99712380D01*
X131405238Y-99712380D01*
X131500476Y-99760000D01*
X131548095Y-99807619D01*
X131595714Y-99902857D01*
X131595714Y-99998095D01*
X131548095Y-100140952D01*
X130976666Y-100712380D01*
X131595714Y-100712380D01*
X134358095Y-100142380D02*
X134358095Y-99142380D01*
X134929523Y-100142380D02*
X134500952Y-99570952D01*
X134929523Y-99142380D02*
X134358095Y-99713809D01*
G04 #@! TO.C,T1*
X101822380Y-87121904D02*
X101822380Y-86550476D01*
X102822380Y-86836190D02*
X101822380Y-86836190D01*
X102822380Y-85693333D02*
X102822380Y-86264761D01*
X102822380Y-85979047D02*
X101822380Y-85979047D01*
X101965238Y-86074285D01*
X102060476Y-86169523D01*
X102108095Y-86264761D01*
G04 #@! TO.C,U1*
X189738095Y-70782380D02*
X189738095Y-71591904D01*
X189785714Y-71687142D01*
X189833333Y-71734761D01*
X189928571Y-71782380D01*
X190119047Y-71782380D01*
X190214285Y-71734761D01*
X190261904Y-71687142D01*
X190309523Y-71591904D01*
X190309523Y-70782380D01*
X191309523Y-71782380D02*
X190738095Y-71782380D01*
X191023809Y-71782380D02*
X191023809Y-70782380D01*
X190928571Y-70925238D01*
X190833333Y-71020476D01*
X190738095Y-71068095D01*
G04 #@! TO.C,U2*
X189738095Y-84752380D02*
X189738095Y-85561904D01*
X189785714Y-85657142D01*
X189833333Y-85704761D01*
X189928571Y-85752380D01*
X190119047Y-85752380D01*
X190214285Y-85704761D01*
X190261904Y-85657142D01*
X190309523Y-85561904D01*
X190309523Y-84752380D01*
X190738095Y-84847619D02*
X190785714Y-84800000D01*
X190880952Y-84752380D01*
X191119047Y-84752380D01*
X191214285Y-84800000D01*
X191261904Y-84847619D01*
X191309523Y-84942857D01*
X191309523Y-85038095D01*
X191261904Y-85180952D01*
X190690476Y-85752380D01*
X191309523Y-85752380D01*
G04 #@! TO.C,H1*
X72898095Y-96552380D02*
X72898095Y-95552380D01*
X72898095Y-96028571D02*
X73469523Y-96028571D01*
X73469523Y-96552380D02*
X73469523Y-95552380D01*
X74469523Y-96552380D02*
X73898095Y-96552380D01*
X74183809Y-96552380D02*
X74183809Y-95552380D01*
X74088571Y-95695238D01*
X73993333Y-95790476D01*
X73898095Y-95838095D01*
G04 #@! TO.C,H2*
X72898095Y-71797381D02*
X72898095Y-70797381D01*
X72898095Y-71273572D02*
X73469523Y-71273572D01*
X73469523Y-71797381D02*
X73469523Y-70797381D01*
X73898095Y-70892620D02*
X73945714Y-70845001D01*
X74040952Y-70797381D01*
X74279047Y-70797381D01*
X74374285Y-70845001D01*
X74421904Y-70892620D01*
X74469523Y-70987858D01*
X74469523Y-71083096D01*
X74421904Y-71225953D01*
X73850476Y-71797381D01*
X74469523Y-71797381D01*
G04 #@! TO.C,H3*
X203013095Y-74382380D02*
X203013095Y-73382380D01*
X203013095Y-73858571D02*
X203584523Y-73858571D01*
X203584523Y-74382380D02*
X203584523Y-73382380D01*
X203965476Y-73382380D02*
X204584523Y-73382380D01*
X204251190Y-73763333D01*
X204394047Y-73763333D01*
X204489285Y-73810952D01*
X204536904Y-73858571D01*
X204584523Y-73953809D01*
X204584523Y-74191904D01*
X204536904Y-74287142D01*
X204489285Y-74334761D01*
X204394047Y-74382380D01*
X204108333Y-74382380D01*
X204013095Y-74334761D01*
X203965476Y-74287142D01*
G04 #@! TO.C,H4*
X203013095Y-88352380D02*
X203013095Y-87352380D01*
X203013095Y-87828571D02*
X203584523Y-87828571D01*
X203584523Y-88352380D02*
X203584523Y-87352380D01*
X204489285Y-87685714D02*
X204489285Y-88352380D01*
X204251190Y-87304761D02*
X204013095Y-88019047D01*
X204632142Y-88019047D01*
G04 #@! TO.C,H5*
X203013095Y-65492380D02*
X203013095Y-64492380D01*
X203013095Y-64968571D02*
X203584523Y-64968571D01*
X203584523Y-65492380D02*
X203584523Y-64492380D01*
X204536904Y-64492380D02*
X204060714Y-64492380D01*
X204013095Y-64968571D01*
X204060714Y-64920952D01*
X204155952Y-64873333D01*
X204394047Y-64873333D01*
X204489285Y-64920952D01*
X204536904Y-64968571D01*
X204584523Y-65063809D01*
X204584523Y-65301904D01*
X204536904Y-65397142D01*
X204489285Y-65444761D01*
X204394047Y-65492380D01*
X204155952Y-65492380D01*
X204060714Y-65444761D01*
X204013095Y-65397142D01*
G04 #@! TO.C,H6*
X203013095Y-98512380D02*
X203013095Y-97512380D01*
X203013095Y-97988571D02*
X203584523Y-97988571D01*
X203584523Y-98512380D02*
X203584523Y-97512380D01*
X204489285Y-97512380D02*
X204298809Y-97512380D01*
X204203571Y-97560000D01*
X204155952Y-97607619D01*
X204060714Y-97750476D01*
X204013095Y-97940952D01*
X204013095Y-98321904D01*
X204060714Y-98417142D01*
X204108333Y-98464761D01*
X204203571Y-98512380D01*
X204394047Y-98512380D01*
X204489285Y-98464761D01*
X204536904Y-98417142D01*
X204584523Y-98321904D01*
X204584523Y-98083809D01*
X204536904Y-97988571D01*
X204489285Y-97940952D01*
X204394047Y-97893333D01*
X204203571Y-97893333D01*
X204108333Y-97940952D01*
X204060714Y-97988571D01*
X204013095Y-98083809D01*
G04 #@! TD*
M02*
