G04 #@! TF.GenerationSoftware,KiCad,Pcbnew,(5.0.1-3-g963ef8bb5)*
G04 #@! TF.CreationDate,2018-11-01T00:44:27+09:00*
G04 #@! TF.ProjectId,firstTraining,6669727374547261696E696E672E6B69,rev?*
G04 #@! TF.SameCoordinates,Original*
G04 #@! TF.FileFunction,Copper,L1,Top,Signal*
G04 #@! TF.FilePolarity,Positive*
%FSLAX46Y46*%
G04 Gerber Fmt 4.6, Leading zero omitted, Abs format (unit mm)*
G04 Created by KiCad (PCBNEW (5.0.1-3-g963ef8bb5)) date 2018年11月01日 木曜日 00:44:27*
%MOMM*%
%LPD*%
G01*
G04 APERTURE LIST*
G04 #@! TA.AperFunction,ComponentPad*
%ADD10R,2.000000X2.000000*%
G04 #@! TD*
G04 #@! TA.AperFunction,ComponentPad*
%ADD11C,2.000000*%
G04 #@! TD*
G04 #@! TA.AperFunction,ComponentPad*
%ADD12C,1.600000*%
G04 #@! TD*
G04 #@! TA.AperFunction,ComponentPad*
%ADD13R,1.800000X1.800000*%
G04 #@! TD*
G04 #@! TA.AperFunction,ComponentPad*
%ADD14O,1.800000X1.800000*%
G04 #@! TD*
G04 #@! TA.AperFunction,ComponentPad*
%ADD15O,1.700000X1.700000*%
G04 #@! TD*
G04 #@! TA.AperFunction,ComponentPad*
%ADD16R,1.700000X1.700000*%
G04 #@! TD*
G04 #@! TA.AperFunction,ComponentPad*
%ADD17C,9.000000*%
G04 #@! TD*
G04 #@! TA.AperFunction,ComponentPad*
%ADD18C,0.900000*%
G04 #@! TD*
G04 #@! TA.AperFunction,Conductor*
%ADD19C,0.250000*%
G04 #@! TD*
G04 #@! TA.AperFunction,Conductor*
%ADD20C,0.254000*%
G04 #@! TD*
G04 APERTURE END LIST*
D10*
G04 #@! TO.P,C1,1*
G04 #@! TO.N,Net-(C1-Pad1)*
X149860000Y-73660000D03*
D11*
G04 #@! TO.P,C1,2*
G04 #@! TO.N,GND*
X149860000Y-78660000D03*
G04 #@! TD*
D12*
G04 #@! TO.P,C2,1*
G04 #@! TO.N,Net-(C1-Pad1)*
X162560000Y-73660000D03*
G04 #@! TO.P,C2,2*
G04 #@! TO.N,GND*
X162560000Y-76160000D03*
G04 #@! TD*
D11*
G04 #@! TO.P,C3,2*
G04 #@! TO.N,GND*
X176530000Y-78660000D03*
D10*
G04 #@! TO.P,C3,1*
G04 #@! TO.N,Net-(C1-Pad1)*
X176530000Y-73660000D03*
G04 #@! TD*
G04 #@! TO.P,C4,1*
G04 #@! TO.N,Net-(C1-Pad1)*
X176530000Y-87630000D03*
D11*
G04 #@! TO.P,C4,2*
G04 #@! TO.N,GND*
X176530000Y-92630000D03*
G04 #@! TD*
D12*
G04 #@! TO.P,C5,2*
G04 #@! TO.N,GND*
X195580000Y-78700000D03*
G04 #@! TO.P,C5,1*
G04 #@! TO.N,Net-(C5-Pad1)*
X195580000Y-76200000D03*
G04 #@! TD*
G04 #@! TO.P,C6,1*
G04 #@! TO.N,Net-(C6-Pad1)*
X195580000Y-90170000D03*
G04 #@! TO.P,C6,2*
G04 #@! TO.N,GND*
X195580000Y-92670000D03*
G04 #@! TD*
D13*
G04 #@! TO.P,D1,1*
G04 #@! TO.N,Net-(C1-Pad1)*
X134620000Y-73660000D03*
D14*
G04 #@! TO.P,D1,2*
G04 #@! TO.N,Net-(D1-Pad2)*
X127000000Y-73660000D03*
G04 #@! TD*
G04 #@! TO.P,D2,2*
G04 #@! TO.N,Net-(D2-Pad2)*
X127000000Y-97790000D03*
D13*
G04 #@! TO.P,D2,1*
G04 #@! TO.N,Net-(C1-Pad1)*
X134620000Y-97790000D03*
G04 #@! TD*
D11*
G04 #@! TO.P,T1,5*
G04 #@! TO.N,Net-(D2-Pad2)*
X114870000Y-92360000D03*
G04 #@! TO.P,T1,4*
G04 #@! TO.N,GND*
X114870000Y-86360000D03*
G04 #@! TO.P,T1,3*
G04 #@! TO.N,Net-(D1-Pad2)*
X114870000Y-80360000D03*
G04 #@! TO.P,T1,2*
G04 #@! TO.N,Net-(H2-Pad1)*
X90870000Y-80360000D03*
G04 #@! TO.P,T1,1*
G04 #@! TO.N,AC*
X90870000Y-92360000D03*
G04 #@! TD*
D15*
G04 #@! TO.P,U1,3*
G04 #@! TO.N,GND*
X190500000Y-78740000D03*
G04 #@! TO.P,U1,2*
G04 #@! TO.N,Net-(C5-Pad1)*
X190500000Y-76200000D03*
D16*
G04 #@! TO.P,U1,1*
G04 #@! TO.N,Net-(C1-Pad1)*
X190500000Y-73660000D03*
G04 #@! TD*
G04 #@! TO.P,U2,1*
G04 #@! TO.N,Net-(C1-Pad1)*
X190500000Y-87630000D03*
D15*
G04 #@! TO.P,U2,2*
G04 #@! TO.N,Net-(C6-Pad1)*
X190500000Y-90170000D03*
G04 #@! TO.P,U2,3*
G04 #@! TO.N,GND*
X190500000Y-92710000D03*
G04 #@! TD*
D17*
G04 #@! TO.P,H1,1*
G04 #@! TO.N,AC*
X73660000Y-101600000D03*
D18*
X77035000Y-101600000D03*
X76046485Y-103986485D03*
X73660000Y-104975000D03*
X71273515Y-103986485D03*
X70285000Y-101600000D03*
X71273515Y-99213515D03*
X73660000Y-98225000D03*
X76046485Y-99213515D03*
G04 #@! TD*
G04 #@! TO.P,H2,1*
G04 #@! TO.N,Net-(H2-Pad1)*
X76046485Y-74458516D03*
X73660000Y-73470001D03*
X71273515Y-74458516D03*
X70285000Y-76845001D03*
X71273515Y-79231486D03*
X73660000Y-80220001D03*
X76046485Y-79231486D03*
X77035000Y-76845001D03*
D17*
X73660000Y-76845001D03*
G04 #@! TD*
D16*
G04 #@! TO.P,H3,1*
G04 #@! TO.N,Net-(C5-Pad1)*
X199390000Y-76200000D03*
G04 #@! TD*
G04 #@! TO.P,H4,1*
G04 #@! TO.N,Net-(C6-Pad1)*
X199390000Y-90170000D03*
G04 #@! TD*
G04 #@! TO.P,H5,1*
G04 #@! TO.N,GND*
X199390000Y-67310000D03*
G04 #@! TD*
G04 #@! TO.P,H6,1*
G04 #@! TO.N,GND*
X199390000Y-100330000D03*
G04 #@! TD*
D19*
G04 #@! TO.N,Net-(C1-Pad1)*
X134620000Y-73660000D02*
X149860000Y-73660000D01*
X149860000Y-73660000D02*
X162560000Y-73660000D01*
X162560000Y-73660000D02*
X176530000Y-73660000D01*
X176530000Y-73660000D02*
X190500000Y-73660000D01*
X172720000Y-83820000D02*
X176530000Y-87630000D01*
X172720000Y-78720000D02*
X172720000Y-83820000D01*
X176530000Y-74910000D02*
X172720000Y-78720000D01*
X176530000Y-73660000D02*
X176530000Y-74910000D01*
X190500000Y-87630000D02*
X176530000Y-87630000D01*
D20*
X134620000Y-73660000D02*
X134620000Y-97790000D01*
D19*
G04 #@! TO.N,GND*
X180340000Y-88900000D02*
X180260000Y-88900000D01*
G04 #@! TO.N,Net-(C5-Pad1)*
X195580000Y-76200000D02*
X190500000Y-76200000D01*
D20*
X199390000Y-76200000D02*
X195580000Y-76200000D01*
D19*
G04 #@! TO.N,Net-(C6-Pad1)*
X190500000Y-90170000D02*
X195580000Y-90170000D01*
D20*
X199390000Y-90170000D02*
X195580000Y-90170000D01*
D19*
G04 #@! TO.N,Net-(D1-Pad2)*
X127000000Y-74810000D02*
X127000000Y-73660000D01*
G04 #@! TO.N,Net-(D2-Pad2)*
X127000000Y-96640000D02*
X127000000Y-97790000D01*
D20*
G04 #@! TO.N,AC*
X82900000Y-92360000D02*
X76046485Y-99213515D01*
X90870000Y-92360000D02*
X82900000Y-92360000D01*
G04 #@! TO.N,Net-(H2-Pad1)*
X77484999Y-77295000D02*
X77035000Y-76845001D01*
X80549999Y-80360000D02*
X77484999Y-77295000D01*
X90870000Y-80360000D02*
X80549999Y-80360000D01*
G04 #@! TO.N,Net-(D1-Pad2)*
X121570000Y-73660000D02*
X127000000Y-73660000D01*
X114870000Y-80360000D02*
X121570000Y-73660000D01*
G04 #@! TO.N,Net-(D2-Pad2)*
X114870000Y-92360000D02*
X120300000Y-97790000D01*
X120300000Y-97790000D02*
X127000000Y-97790000D01*
G04 #@! TD*
G04 #@! TO.N,GND*
G36*
X210110000Y-112320000D02*
X64210000Y-112320000D01*
X64210000Y-100578585D01*
X68525000Y-100578585D01*
X68525000Y-102621415D01*
X69306757Y-104508744D01*
X70751256Y-105953243D01*
X72638585Y-106735000D01*
X74681415Y-106735000D01*
X76568744Y-105953243D01*
X78013243Y-104508744D01*
X78795000Y-102621415D01*
X78795000Y-100615750D01*
X197905000Y-100615750D01*
X197905000Y-101306310D01*
X198001673Y-101539699D01*
X198180302Y-101718327D01*
X198413691Y-101815000D01*
X199104250Y-101815000D01*
X199263000Y-101656250D01*
X199263000Y-100457000D01*
X199517000Y-100457000D01*
X199517000Y-101656250D01*
X199675750Y-101815000D01*
X200366309Y-101815000D01*
X200599698Y-101718327D01*
X200778327Y-101539699D01*
X200875000Y-101306310D01*
X200875000Y-100615750D01*
X200716250Y-100457000D01*
X199517000Y-100457000D01*
X199263000Y-100457000D01*
X198063750Y-100457000D01*
X197905000Y-100615750D01*
X78795000Y-100615750D01*
X78795000Y-100578585D01*
X78287633Y-99353690D01*
X197905000Y-99353690D01*
X197905000Y-100044250D01*
X198063750Y-100203000D01*
X199263000Y-100203000D01*
X199263000Y-99003750D01*
X199517000Y-99003750D01*
X199517000Y-100203000D01*
X200716250Y-100203000D01*
X200875000Y-100044250D01*
X200875000Y-99353690D01*
X200778327Y-99120301D01*
X200599698Y-98941673D01*
X200366309Y-98845000D01*
X199675750Y-98845000D01*
X199517000Y-99003750D01*
X199263000Y-99003750D01*
X199104250Y-98845000D01*
X198413691Y-98845000D01*
X198180302Y-98941673D01*
X198001673Y-99120301D01*
X197905000Y-99353690D01*
X78287633Y-99353690D01*
X78013243Y-98691256D01*
X77829809Y-98507822D01*
X83215631Y-93122000D01*
X89415920Y-93122000D01*
X89483914Y-93286153D01*
X89943847Y-93746086D01*
X90544778Y-93995000D01*
X91195222Y-93995000D01*
X91796153Y-93746086D01*
X92256086Y-93286153D01*
X92505000Y-92685222D01*
X92505000Y-92034778D01*
X113235000Y-92034778D01*
X113235000Y-92685222D01*
X113483914Y-93286153D01*
X113943847Y-93746086D01*
X114544778Y-93995000D01*
X115195222Y-93995000D01*
X115359375Y-93927005D01*
X119708118Y-98275749D01*
X119750629Y-98339371D01*
X120002683Y-98507788D01*
X120224952Y-98552000D01*
X120224953Y-98552000D01*
X120300000Y-98566928D01*
X120375047Y-98552000D01*
X125663024Y-98552000D01*
X125893327Y-98896673D01*
X126401073Y-99235938D01*
X126848818Y-99325000D01*
X127151182Y-99325000D01*
X127598927Y-99235938D01*
X128106673Y-98896673D01*
X128445938Y-98388927D01*
X128565072Y-97790000D01*
X128445938Y-97191073D01*
X128106673Y-96683327D01*
X127733972Y-96434296D01*
X127715904Y-96343463D01*
X127547929Y-96092071D01*
X127296536Y-95924096D01*
X127000000Y-95865111D01*
X126703463Y-95924096D01*
X126452071Y-96092071D01*
X126284096Y-96343464D01*
X126266028Y-96434296D01*
X125893327Y-96683327D01*
X125663024Y-97028000D01*
X120615631Y-97028000D01*
X116437005Y-92849375D01*
X116505000Y-92685222D01*
X116505000Y-92034778D01*
X116256086Y-91433847D01*
X115796153Y-90973914D01*
X115195222Y-90725000D01*
X114544778Y-90725000D01*
X113943847Y-90973914D01*
X113483914Y-91433847D01*
X113235000Y-92034778D01*
X92505000Y-92034778D01*
X92256086Y-91433847D01*
X91796153Y-90973914D01*
X91195222Y-90725000D01*
X90544778Y-90725000D01*
X89943847Y-90973914D01*
X89483914Y-91433847D01*
X89415920Y-91598000D01*
X82975047Y-91598000D01*
X82900000Y-91583072D01*
X82824953Y-91598000D01*
X82824952Y-91598000D01*
X82602683Y-91642212D01*
X82350629Y-91810629D01*
X82308118Y-91874251D01*
X76752178Y-97430191D01*
X76568744Y-97246757D01*
X74681415Y-96465000D01*
X72638585Y-96465000D01*
X70751256Y-97246757D01*
X69306757Y-98691256D01*
X68525000Y-100578585D01*
X64210000Y-100578585D01*
X64210000Y-87512532D01*
X113897073Y-87512532D01*
X113995736Y-87779387D01*
X114605461Y-88005908D01*
X115255460Y-87981856D01*
X115744264Y-87779387D01*
X115842927Y-87512532D01*
X114870000Y-86539605D01*
X113897073Y-87512532D01*
X64210000Y-87512532D01*
X64210000Y-86095461D01*
X113224092Y-86095461D01*
X113248144Y-86745460D01*
X113450613Y-87234264D01*
X113717468Y-87332927D01*
X114690395Y-86360000D01*
X115049605Y-86360000D01*
X116022532Y-87332927D01*
X116289387Y-87234264D01*
X116515908Y-86624539D01*
X116491856Y-85974540D01*
X116289387Y-85485736D01*
X116022532Y-85387073D01*
X115049605Y-86360000D01*
X114690395Y-86360000D01*
X113717468Y-85387073D01*
X113450613Y-85485736D01*
X113224092Y-86095461D01*
X64210000Y-86095461D01*
X64210000Y-85207468D01*
X113897073Y-85207468D01*
X114870000Y-86180395D01*
X115842927Y-85207468D01*
X115744264Y-84940613D01*
X115134539Y-84714092D01*
X114484540Y-84738144D01*
X113995736Y-84940613D01*
X113897073Y-85207468D01*
X64210000Y-85207468D01*
X64210000Y-75823586D01*
X68525000Y-75823586D01*
X68525000Y-77866416D01*
X69306757Y-79753745D01*
X70751256Y-81198244D01*
X72638585Y-81980001D01*
X74681415Y-81980001D01*
X76568744Y-81198244D01*
X78013243Y-79753745D01*
X78263043Y-79150674D01*
X79958117Y-80845749D01*
X80000628Y-80909371D01*
X80252682Y-81077788D01*
X80474951Y-81122000D01*
X80474952Y-81122000D01*
X80549999Y-81136928D01*
X80625046Y-81122000D01*
X89415920Y-81122000D01*
X89483914Y-81286153D01*
X89943847Y-81746086D01*
X90544778Y-81995000D01*
X91195222Y-81995000D01*
X91796153Y-81746086D01*
X92256086Y-81286153D01*
X92505000Y-80685222D01*
X92505000Y-80034778D01*
X113235000Y-80034778D01*
X113235000Y-80685222D01*
X113483914Y-81286153D01*
X113943847Y-81746086D01*
X114544778Y-81995000D01*
X115195222Y-81995000D01*
X115796153Y-81746086D01*
X116256086Y-81286153D01*
X116505000Y-80685222D01*
X116505000Y-80034778D01*
X116437005Y-79870625D01*
X121885631Y-74422000D01*
X125663024Y-74422000D01*
X125893327Y-74766673D01*
X126266028Y-75015704D01*
X126284096Y-75106536D01*
X126452071Y-75357929D01*
X126703463Y-75525904D01*
X127000000Y-75584889D01*
X127296536Y-75525904D01*
X127547929Y-75357929D01*
X127715904Y-75106537D01*
X127733972Y-75015704D01*
X128106673Y-74766673D01*
X128445938Y-74258927D01*
X128565072Y-73660000D01*
X128445938Y-73061073D01*
X128244768Y-72760000D01*
X133072560Y-72760000D01*
X133072560Y-74560000D01*
X133121843Y-74807765D01*
X133262191Y-75017809D01*
X133472235Y-75158157D01*
X133720000Y-75207440D01*
X133858000Y-75207440D01*
X133858001Y-96242560D01*
X133720000Y-96242560D01*
X133472235Y-96291843D01*
X133262191Y-96432191D01*
X133121843Y-96642235D01*
X133072560Y-96890000D01*
X133072560Y-98690000D01*
X133121843Y-98937765D01*
X133262191Y-99147809D01*
X133472235Y-99288157D01*
X133720000Y-99337440D01*
X135520000Y-99337440D01*
X135767765Y-99288157D01*
X135977809Y-99147809D01*
X136118157Y-98937765D01*
X136167440Y-98690000D01*
X136167440Y-96890000D01*
X136118157Y-96642235D01*
X135977809Y-96432191D01*
X135767765Y-96291843D01*
X135520000Y-96242560D01*
X135382000Y-96242560D01*
X135382000Y-93782532D01*
X175557073Y-93782532D01*
X175655736Y-94049387D01*
X176265461Y-94275908D01*
X176915460Y-94251856D01*
X177404264Y-94049387D01*
X177502927Y-93782532D01*
X176530000Y-92809605D01*
X175557073Y-93782532D01*
X135382000Y-93782532D01*
X135382000Y-92365461D01*
X174884092Y-92365461D01*
X174908144Y-93015460D01*
X175110613Y-93504264D01*
X175377468Y-93602927D01*
X176350395Y-92630000D01*
X176709605Y-92630000D01*
X177682532Y-93602927D01*
X177949387Y-93504264D01*
X178111877Y-93066890D01*
X189058524Y-93066890D01*
X189228355Y-93476924D01*
X189618642Y-93905183D01*
X190143108Y-94151486D01*
X190373000Y-94030819D01*
X190373000Y-92837000D01*
X190627000Y-92837000D01*
X190627000Y-94030819D01*
X190856892Y-94151486D01*
X191381358Y-93905183D01*
X191588629Y-93677745D01*
X194751861Y-93677745D01*
X194825995Y-93923864D01*
X195363223Y-94116965D01*
X195933454Y-94089778D01*
X196334005Y-93923864D01*
X196408139Y-93677745D01*
X195580000Y-92849605D01*
X194751861Y-93677745D01*
X191588629Y-93677745D01*
X191771645Y-93476924D01*
X191941476Y-93066890D01*
X191820155Y-92837000D01*
X190627000Y-92837000D01*
X190373000Y-92837000D01*
X189179845Y-92837000D01*
X189058524Y-93066890D01*
X178111877Y-93066890D01*
X178175908Y-92894539D01*
X178151856Y-92244540D01*
X177949387Y-91755736D01*
X177682532Y-91657073D01*
X176709605Y-92630000D01*
X176350395Y-92630000D01*
X175377468Y-91657073D01*
X175110613Y-91755736D01*
X174884092Y-92365461D01*
X135382000Y-92365461D01*
X135382000Y-91477468D01*
X175557073Y-91477468D01*
X176530000Y-92450395D01*
X177502927Y-91477468D01*
X177404264Y-91210613D01*
X176794539Y-90984092D01*
X176144540Y-91008144D01*
X175655736Y-91210613D01*
X175557073Y-91477468D01*
X135382000Y-91477468D01*
X135382000Y-79812532D01*
X148887073Y-79812532D01*
X148985736Y-80079387D01*
X149595461Y-80305908D01*
X150245460Y-80281856D01*
X150734264Y-80079387D01*
X150832927Y-79812532D01*
X149860000Y-78839605D01*
X148887073Y-79812532D01*
X135382000Y-79812532D01*
X135382000Y-78395461D01*
X148214092Y-78395461D01*
X148238144Y-79045460D01*
X148440613Y-79534264D01*
X148707468Y-79632927D01*
X149680395Y-78660000D01*
X150039605Y-78660000D01*
X151012532Y-79632927D01*
X151279387Y-79534264D01*
X151505908Y-78924539D01*
X151481856Y-78274540D01*
X151279387Y-77785736D01*
X151012532Y-77687073D01*
X150039605Y-78660000D01*
X149680395Y-78660000D01*
X148707468Y-77687073D01*
X148440613Y-77785736D01*
X148214092Y-78395461D01*
X135382000Y-78395461D01*
X135382000Y-77507468D01*
X148887073Y-77507468D01*
X149860000Y-78480395D01*
X150832927Y-77507468D01*
X150734264Y-77240613D01*
X150538126Y-77167745D01*
X161731861Y-77167745D01*
X161805995Y-77413864D01*
X162343223Y-77606965D01*
X162913454Y-77579778D01*
X163314005Y-77413864D01*
X163388139Y-77167745D01*
X162560000Y-76339605D01*
X161731861Y-77167745D01*
X150538126Y-77167745D01*
X150124539Y-77014092D01*
X149474540Y-77038144D01*
X148985736Y-77240613D01*
X148887073Y-77507468D01*
X135382000Y-77507468D01*
X135382000Y-75943223D01*
X161113035Y-75943223D01*
X161140222Y-76513454D01*
X161306136Y-76914005D01*
X161552255Y-76988139D01*
X162380395Y-76160000D01*
X162739605Y-76160000D01*
X163567745Y-76988139D01*
X163813864Y-76914005D01*
X164006965Y-76376777D01*
X163979778Y-75806546D01*
X163813864Y-75405995D01*
X163567745Y-75331861D01*
X162739605Y-76160000D01*
X162380395Y-76160000D01*
X161552255Y-75331861D01*
X161306136Y-75405995D01*
X161113035Y-75943223D01*
X135382000Y-75943223D01*
X135382000Y-75207440D01*
X135520000Y-75207440D01*
X135767765Y-75158157D01*
X135977809Y-75017809D01*
X136118157Y-74807765D01*
X136167440Y-74560000D01*
X136167440Y-74420000D01*
X148212560Y-74420000D01*
X148212560Y-74660000D01*
X148261843Y-74907765D01*
X148402191Y-75117809D01*
X148612235Y-75258157D01*
X148860000Y-75307440D01*
X150860000Y-75307440D01*
X151107765Y-75258157D01*
X151317809Y-75117809D01*
X151458157Y-74907765D01*
X151507440Y-74660000D01*
X151507440Y-74420000D01*
X161321570Y-74420000D01*
X161343466Y-74472862D01*
X161747138Y-74876534D01*
X161812299Y-74903525D01*
X161805995Y-74906136D01*
X161731861Y-75152255D01*
X162560000Y-75980395D01*
X163388139Y-75152255D01*
X163314005Y-74906136D01*
X163307254Y-74903710D01*
X163372862Y-74876534D01*
X163776534Y-74472862D01*
X163798430Y-74420000D01*
X174882560Y-74420000D01*
X174882560Y-74660000D01*
X174931843Y-74907765D01*
X175072191Y-75117809D01*
X175177214Y-75187984D01*
X172235530Y-78129669D01*
X172172071Y-78172071D01*
X172004096Y-78423464D01*
X171960000Y-78645149D01*
X171960000Y-78645153D01*
X171945112Y-78720000D01*
X171960000Y-78794847D01*
X171960001Y-83745148D01*
X171945112Y-83820000D01*
X171960001Y-83894852D01*
X172004097Y-84116537D01*
X172172072Y-84367929D01*
X172235528Y-84410329D01*
X174882560Y-87057362D01*
X174882560Y-88630000D01*
X174931843Y-88877765D01*
X175072191Y-89087809D01*
X175282235Y-89228157D01*
X175530000Y-89277440D01*
X177530000Y-89277440D01*
X177777765Y-89228157D01*
X177987809Y-89087809D01*
X178128157Y-88877765D01*
X178177440Y-88630000D01*
X178177440Y-88390000D01*
X189002560Y-88390000D01*
X189002560Y-88480000D01*
X189051843Y-88727765D01*
X189192191Y-88937809D01*
X189402235Y-89078157D01*
X189447619Y-89087184D01*
X189429375Y-89099375D01*
X189101161Y-89590582D01*
X188985908Y-90170000D01*
X189101161Y-90749418D01*
X189429375Y-91240625D01*
X189748478Y-91453843D01*
X189618642Y-91514817D01*
X189228355Y-91943076D01*
X189058524Y-92353110D01*
X189179845Y-92583000D01*
X190373000Y-92583000D01*
X190373000Y-92563000D01*
X190627000Y-92563000D01*
X190627000Y-92583000D01*
X191820155Y-92583000D01*
X191888642Y-92453223D01*
X194133035Y-92453223D01*
X194160222Y-93023454D01*
X194326136Y-93424005D01*
X194572255Y-93498139D01*
X195400395Y-92670000D01*
X195759605Y-92670000D01*
X196587745Y-93498139D01*
X196833864Y-93424005D01*
X197026965Y-92886777D01*
X196999778Y-92316546D01*
X196833864Y-91915995D01*
X196587745Y-91841861D01*
X195759605Y-92670000D01*
X195400395Y-92670000D01*
X194572255Y-91841861D01*
X194326136Y-91915995D01*
X194133035Y-92453223D01*
X191888642Y-92453223D01*
X191941476Y-92353110D01*
X191771645Y-91943076D01*
X191381358Y-91514817D01*
X191251522Y-91453843D01*
X191570625Y-91240625D01*
X191778178Y-90930000D01*
X194341570Y-90930000D01*
X194363466Y-90982862D01*
X194767138Y-91386534D01*
X194832299Y-91413525D01*
X194825995Y-91416136D01*
X194751861Y-91662255D01*
X195580000Y-92490395D01*
X196408139Y-91662255D01*
X196334005Y-91416136D01*
X196327254Y-91413710D01*
X196392862Y-91386534D01*
X196796534Y-90982862D01*
X196817602Y-90932000D01*
X197892560Y-90932000D01*
X197892560Y-91020000D01*
X197941843Y-91267765D01*
X198082191Y-91477809D01*
X198292235Y-91618157D01*
X198540000Y-91667440D01*
X200240000Y-91667440D01*
X200487765Y-91618157D01*
X200697809Y-91477809D01*
X200838157Y-91267765D01*
X200887440Y-91020000D01*
X200887440Y-89320000D01*
X200838157Y-89072235D01*
X200697809Y-88862191D01*
X200487765Y-88721843D01*
X200240000Y-88672560D01*
X198540000Y-88672560D01*
X198292235Y-88721843D01*
X198082191Y-88862191D01*
X197941843Y-89072235D01*
X197892560Y-89320000D01*
X197892560Y-89408000D01*
X196817602Y-89408000D01*
X196796534Y-89357138D01*
X196392862Y-88953466D01*
X195865439Y-88735000D01*
X195294561Y-88735000D01*
X194767138Y-88953466D01*
X194363466Y-89357138D01*
X194341570Y-89410000D01*
X191778178Y-89410000D01*
X191570625Y-89099375D01*
X191552381Y-89087184D01*
X191597765Y-89078157D01*
X191807809Y-88937809D01*
X191948157Y-88727765D01*
X191997440Y-88480000D01*
X191997440Y-86780000D01*
X191948157Y-86532235D01*
X191807809Y-86322191D01*
X191597765Y-86181843D01*
X191350000Y-86132560D01*
X189650000Y-86132560D01*
X189402235Y-86181843D01*
X189192191Y-86322191D01*
X189051843Y-86532235D01*
X189002560Y-86780000D01*
X189002560Y-86870000D01*
X178177440Y-86870000D01*
X178177440Y-86630000D01*
X178128157Y-86382235D01*
X177987809Y-86172191D01*
X177777765Y-86031843D01*
X177530000Y-85982560D01*
X175957362Y-85982560D01*
X173480000Y-83505199D01*
X173480000Y-79812532D01*
X175557073Y-79812532D01*
X175655736Y-80079387D01*
X176265461Y-80305908D01*
X176915460Y-80281856D01*
X177404264Y-80079387D01*
X177502927Y-79812532D01*
X176530000Y-78839605D01*
X175557073Y-79812532D01*
X173480000Y-79812532D01*
X173480000Y-79034801D01*
X174119340Y-78395461D01*
X174884092Y-78395461D01*
X174908144Y-79045460D01*
X175110613Y-79534264D01*
X175377468Y-79632927D01*
X176350395Y-78660000D01*
X176709605Y-78660000D01*
X177682532Y-79632927D01*
X177949387Y-79534264D01*
X178111877Y-79096890D01*
X189058524Y-79096890D01*
X189228355Y-79506924D01*
X189618642Y-79935183D01*
X190143108Y-80181486D01*
X190373000Y-80060819D01*
X190373000Y-78867000D01*
X190627000Y-78867000D01*
X190627000Y-80060819D01*
X190856892Y-80181486D01*
X191381358Y-79935183D01*
X191588629Y-79707745D01*
X194751861Y-79707745D01*
X194825995Y-79953864D01*
X195363223Y-80146965D01*
X195933454Y-80119778D01*
X196334005Y-79953864D01*
X196408139Y-79707745D01*
X195580000Y-78879605D01*
X194751861Y-79707745D01*
X191588629Y-79707745D01*
X191771645Y-79506924D01*
X191941476Y-79096890D01*
X191820155Y-78867000D01*
X190627000Y-78867000D01*
X190373000Y-78867000D01*
X189179845Y-78867000D01*
X189058524Y-79096890D01*
X178111877Y-79096890D01*
X178175908Y-78924539D01*
X178151856Y-78274540D01*
X177949387Y-77785736D01*
X177682532Y-77687073D01*
X176709605Y-78660000D01*
X176350395Y-78660000D01*
X175377468Y-77687073D01*
X175110613Y-77785736D01*
X174884092Y-78395461D01*
X174119340Y-78395461D01*
X175007333Y-77507468D01*
X175557073Y-77507468D01*
X176530000Y-78480395D01*
X177502927Y-77507468D01*
X177404264Y-77240613D01*
X176794539Y-77014092D01*
X176144540Y-77038144D01*
X175655736Y-77240613D01*
X175557073Y-77507468D01*
X175007333Y-77507468D01*
X177014473Y-75500329D01*
X177077929Y-75457929D01*
X177178483Y-75307440D01*
X177530000Y-75307440D01*
X177777765Y-75258157D01*
X177987809Y-75117809D01*
X178128157Y-74907765D01*
X178177440Y-74660000D01*
X178177440Y-74420000D01*
X189002560Y-74420000D01*
X189002560Y-74510000D01*
X189051843Y-74757765D01*
X189192191Y-74967809D01*
X189402235Y-75108157D01*
X189447619Y-75117184D01*
X189429375Y-75129375D01*
X189101161Y-75620582D01*
X188985908Y-76200000D01*
X189101161Y-76779418D01*
X189429375Y-77270625D01*
X189748478Y-77483843D01*
X189618642Y-77544817D01*
X189228355Y-77973076D01*
X189058524Y-78383110D01*
X189179845Y-78613000D01*
X190373000Y-78613000D01*
X190373000Y-78593000D01*
X190627000Y-78593000D01*
X190627000Y-78613000D01*
X191820155Y-78613000D01*
X191888642Y-78483223D01*
X194133035Y-78483223D01*
X194160222Y-79053454D01*
X194326136Y-79454005D01*
X194572255Y-79528139D01*
X195400395Y-78700000D01*
X195759605Y-78700000D01*
X196587745Y-79528139D01*
X196833864Y-79454005D01*
X197026965Y-78916777D01*
X196999778Y-78346546D01*
X196833864Y-77945995D01*
X196587745Y-77871861D01*
X195759605Y-78700000D01*
X195400395Y-78700000D01*
X194572255Y-77871861D01*
X194326136Y-77945995D01*
X194133035Y-78483223D01*
X191888642Y-78483223D01*
X191941476Y-78383110D01*
X191771645Y-77973076D01*
X191381358Y-77544817D01*
X191251522Y-77483843D01*
X191570625Y-77270625D01*
X191778178Y-76960000D01*
X194341570Y-76960000D01*
X194363466Y-77012862D01*
X194767138Y-77416534D01*
X194832299Y-77443525D01*
X194825995Y-77446136D01*
X194751861Y-77692255D01*
X195580000Y-78520395D01*
X196408139Y-77692255D01*
X196334005Y-77446136D01*
X196327254Y-77443710D01*
X196392862Y-77416534D01*
X196796534Y-77012862D01*
X196817602Y-76962000D01*
X197892560Y-76962000D01*
X197892560Y-77050000D01*
X197941843Y-77297765D01*
X198082191Y-77507809D01*
X198292235Y-77648157D01*
X198540000Y-77697440D01*
X200240000Y-77697440D01*
X200487765Y-77648157D01*
X200697809Y-77507809D01*
X200838157Y-77297765D01*
X200887440Y-77050000D01*
X200887440Y-75350000D01*
X200838157Y-75102235D01*
X200697809Y-74892191D01*
X200487765Y-74751843D01*
X200240000Y-74702560D01*
X198540000Y-74702560D01*
X198292235Y-74751843D01*
X198082191Y-74892191D01*
X197941843Y-75102235D01*
X197892560Y-75350000D01*
X197892560Y-75438000D01*
X196817602Y-75438000D01*
X196796534Y-75387138D01*
X196392862Y-74983466D01*
X195865439Y-74765000D01*
X195294561Y-74765000D01*
X194767138Y-74983466D01*
X194363466Y-75387138D01*
X194341570Y-75440000D01*
X191778178Y-75440000D01*
X191570625Y-75129375D01*
X191552381Y-75117184D01*
X191597765Y-75108157D01*
X191807809Y-74967809D01*
X191948157Y-74757765D01*
X191997440Y-74510000D01*
X191997440Y-72810000D01*
X191948157Y-72562235D01*
X191807809Y-72352191D01*
X191597765Y-72211843D01*
X191350000Y-72162560D01*
X189650000Y-72162560D01*
X189402235Y-72211843D01*
X189192191Y-72352191D01*
X189051843Y-72562235D01*
X189002560Y-72810000D01*
X189002560Y-72900000D01*
X178177440Y-72900000D01*
X178177440Y-72660000D01*
X178128157Y-72412235D01*
X177987809Y-72202191D01*
X177777765Y-72061843D01*
X177530000Y-72012560D01*
X175530000Y-72012560D01*
X175282235Y-72061843D01*
X175072191Y-72202191D01*
X174931843Y-72412235D01*
X174882560Y-72660000D01*
X174882560Y-72900000D01*
X163798430Y-72900000D01*
X163776534Y-72847138D01*
X163372862Y-72443466D01*
X162845439Y-72225000D01*
X162274561Y-72225000D01*
X161747138Y-72443466D01*
X161343466Y-72847138D01*
X161321570Y-72900000D01*
X151507440Y-72900000D01*
X151507440Y-72660000D01*
X151458157Y-72412235D01*
X151317809Y-72202191D01*
X151107765Y-72061843D01*
X150860000Y-72012560D01*
X148860000Y-72012560D01*
X148612235Y-72061843D01*
X148402191Y-72202191D01*
X148261843Y-72412235D01*
X148212560Y-72660000D01*
X148212560Y-72900000D01*
X136167440Y-72900000D01*
X136167440Y-72760000D01*
X136118157Y-72512235D01*
X135977809Y-72302191D01*
X135767765Y-72161843D01*
X135520000Y-72112560D01*
X133720000Y-72112560D01*
X133472235Y-72161843D01*
X133262191Y-72302191D01*
X133121843Y-72512235D01*
X133072560Y-72760000D01*
X128244768Y-72760000D01*
X128106673Y-72553327D01*
X127598927Y-72214062D01*
X127151182Y-72125000D01*
X126848818Y-72125000D01*
X126401073Y-72214062D01*
X125893327Y-72553327D01*
X125663024Y-72898000D01*
X121645047Y-72898000D01*
X121570000Y-72883072D01*
X121494953Y-72898000D01*
X121494952Y-72898000D01*
X121272683Y-72942212D01*
X121020629Y-73110629D01*
X120978118Y-73174251D01*
X115359375Y-78792995D01*
X115195222Y-78725000D01*
X114544778Y-78725000D01*
X113943847Y-78973914D01*
X113483914Y-79433847D01*
X113235000Y-80034778D01*
X92505000Y-80034778D01*
X92256086Y-79433847D01*
X91796153Y-78973914D01*
X91195222Y-78725000D01*
X90544778Y-78725000D01*
X89943847Y-78973914D01*
X89483914Y-79433847D01*
X89415920Y-79598000D01*
X80865630Y-79598000D01*
X78795000Y-77527371D01*
X78795000Y-75823586D01*
X78013243Y-73936257D01*
X76568744Y-72491758D01*
X74681415Y-71710001D01*
X72638585Y-71710001D01*
X70751256Y-72491758D01*
X69306757Y-73936257D01*
X68525000Y-75823586D01*
X64210000Y-75823586D01*
X64210000Y-67595750D01*
X197905000Y-67595750D01*
X197905000Y-68286310D01*
X198001673Y-68519699D01*
X198180302Y-68698327D01*
X198413691Y-68795000D01*
X199104250Y-68795000D01*
X199263000Y-68636250D01*
X199263000Y-67437000D01*
X199517000Y-67437000D01*
X199517000Y-68636250D01*
X199675750Y-68795000D01*
X200366309Y-68795000D01*
X200599698Y-68698327D01*
X200778327Y-68519699D01*
X200875000Y-68286310D01*
X200875000Y-67595750D01*
X200716250Y-67437000D01*
X199517000Y-67437000D01*
X199263000Y-67437000D01*
X198063750Y-67437000D01*
X197905000Y-67595750D01*
X64210000Y-67595750D01*
X64210000Y-66333690D01*
X197905000Y-66333690D01*
X197905000Y-67024250D01*
X198063750Y-67183000D01*
X199263000Y-67183000D01*
X199263000Y-65983750D01*
X199517000Y-65983750D01*
X199517000Y-67183000D01*
X200716250Y-67183000D01*
X200875000Y-67024250D01*
X200875000Y-66333690D01*
X200778327Y-66100301D01*
X200599698Y-65921673D01*
X200366309Y-65825000D01*
X199675750Y-65825000D01*
X199517000Y-65983750D01*
X199263000Y-65983750D01*
X199104250Y-65825000D01*
X198413691Y-65825000D01*
X198180302Y-65921673D01*
X198001673Y-66100301D01*
X197905000Y-66333690D01*
X64210000Y-66333690D01*
X64210000Y-62940000D01*
X210110001Y-62940000D01*
X210110000Y-112320000D01*
X210110000Y-112320000D01*
G37*
X210110000Y-112320000D02*
X64210000Y-112320000D01*
X64210000Y-100578585D01*
X68525000Y-100578585D01*
X68525000Y-102621415D01*
X69306757Y-104508744D01*
X70751256Y-105953243D01*
X72638585Y-106735000D01*
X74681415Y-106735000D01*
X76568744Y-105953243D01*
X78013243Y-104508744D01*
X78795000Y-102621415D01*
X78795000Y-100615750D01*
X197905000Y-100615750D01*
X197905000Y-101306310D01*
X198001673Y-101539699D01*
X198180302Y-101718327D01*
X198413691Y-101815000D01*
X199104250Y-101815000D01*
X199263000Y-101656250D01*
X199263000Y-100457000D01*
X199517000Y-100457000D01*
X199517000Y-101656250D01*
X199675750Y-101815000D01*
X200366309Y-101815000D01*
X200599698Y-101718327D01*
X200778327Y-101539699D01*
X200875000Y-101306310D01*
X200875000Y-100615750D01*
X200716250Y-100457000D01*
X199517000Y-100457000D01*
X199263000Y-100457000D01*
X198063750Y-100457000D01*
X197905000Y-100615750D01*
X78795000Y-100615750D01*
X78795000Y-100578585D01*
X78287633Y-99353690D01*
X197905000Y-99353690D01*
X197905000Y-100044250D01*
X198063750Y-100203000D01*
X199263000Y-100203000D01*
X199263000Y-99003750D01*
X199517000Y-99003750D01*
X199517000Y-100203000D01*
X200716250Y-100203000D01*
X200875000Y-100044250D01*
X200875000Y-99353690D01*
X200778327Y-99120301D01*
X200599698Y-98941673D01*
X200366309Y-98845000D01*
X199675750Y-98845000D01*
X199517000Y-99003750D01*
X199263000Y-99003750D01*
X199104250Y-98845000D01*
X198413691Y-98845000D01*
X198180302Y-98941673D01*
X198001673Y-99120301D01*
X197905000Y-99353690D01*
X78287633Y-99353690D01*
X78013243Y-98691256D01*
X77829809Y-98507822D01*
X83215631Y-93122000D01*
X89415920Y-93122000D01*
X89483914Y-93286153D01*
X89943847Y-93746086D01*
X90544778Y-93995000D01*
X91195222Y-93995000D01*
X91796153Y-93746086D01*
X92256086Y-93286153D01*
X92505000Y-92685222D01*
X92505000Y-92034778D01*
X113235000Y-92034778D01*
X113235000Y-92685222D01*
X113483914Y-93286153D01*
X113943847Y-93746086D01*
X114544778Y-93995000D01*
X115195222Y-93995000D01*
X115359375Y-93927005D01*
X119708118Y-98275749D01*
X119750629Y-98339371D01*
X120002683Y-98507788D01*
X120224952Y-98552000D01*
X120224953Y-98552000D01*
X120300000Y-98566928D01*
X120375047Y-98552000D01*
X125663024Y-98552000D01*
X125893327Y-98896673D01*
X126401073Y-99235938D01*
X126848818Y-99325000D01*
X127151182Y-99325000D01*
X127598927Y-99235938D01*
X128106673Y-98896673D01*
X128445938Y-98388927D01*
X128565072Y-97790000D01*
X128445938Y-97191073D01*
X128106673Y-96683327D01*
X127733972Y-96434296D01*
X127715904Y-96343463D01*
X127547929Y-96092071D01*
X127296536Y-95924096D01*
X127000000Y-95865111D01*
X126703463Y-95924096D01*
X126452071Y-96092071D01*
X126284096Y-96343464D01*
X126266028Y-96434296D01*
X125893327Y-96683327D01*
X125663024Y-97028000D01*
X120615631Y-97028000D01*
X116437005Y-92849375D01*
X116505000Y-92685222D01*
X116505000Y-92034778D01*
X116256086Y-91433847D01*
X115796153Y-90973914D01*
X115195222Y-90725000D01*
X114544778Y-90725000D01*
X113943847Y-90973914D01*
X113483914Y-91433847D01*
X113235000Y-92034778D01*
X92505000Y-92034778D01*
X92256086Y-91433847D01*
X91796153Y-90973914D01*
X91195222Y-90725000D01*
X90544778Y-90725000D01*
X89943847Y-90973914D01*
X89483914Y-91433847D01*
X89415920Y-91598000D01*
X82975047Y-91598000D01*
X82900000Y-91583072D01*
X82824953Y-91598000D01*
X82824952Y-91598000D01*
X82602683Y-91642212D01*
X82350629Y-91810629D01*
X82308118Y-91874251D01*
X76752178Y-97430191D01*
X76568744Y-97246757D01*
X74681415Y-96465000D01*
X72638585Y-96465000D01*
X70751256Y-97246757D01*
X69306757Y-98691256D01*
X68525000Y-100578585D01*
X64210000Y-100578585D01*
X64210000Y-87512532D01*
X113897073Y-87512532D01*
X113995736Y-87779387D01*
X114605461Y-88005908D01*
X115255460Y-87981856D01*
X115744264Y-87779387D01*
X115842927Y-87512532D01*
X114870000Y-86539605D01*
X113897073Y-87512532D01*
X64210000Y-87512532D01*
X64210000Y-86095461D01*
X113224092Y-86095461D01*
X113248144Y-86745460D01*
X113450613Y-87234264D01*
X113717468Y-87332927D01*
X114690395Y-86360000D01*
X115049605Y-86360000D01*
X116022532Y-87332927D01*
X116289387Y-87234264D01*
X116515908Y-86624539D01*
X116491856Y-85974540D01*
X116289387Y-85485736D01*
X116022532Y-85387073D01*
X115049605Y-86360000D01*
X114690395Y-86360000D01*
X113717468Y-85387073D01*
X113450613Y-85485736D01*
X113224092Y-86095461D01*
X64210000Y-86095461D01*
X64210000Y-85207468D01*
X113897073Y-85207468D01*
X114870000Y-86180395D01*
X115842927Y-85207468D01*
X115744264Y-84940613D01*
X115134539Y-84714092D01*
X114484540Y-84738144D01*
X113995736Y-84940613D01*
X113897073Y-85207468D01*
X64210000Y-85207468D01*
X64210000Y-75823586D01*
X68525000Y-75823586D01*
X68525000Y-77866416D01*
X69306757Y-79753745D01*
X70751256Y-81198244D01*
X72638585Y-81980001D01*
X74681415Y-81980001D01*
X76568744Y-81198244D01*
X78013243Y-79753745D01*
X78263043Y-79150674D01*
X79958117Y-80845749D01*
X80000628Y-80909371D01*
X80252682Y-81077788D01*
X80474951Y-81122000D01*
X80474952Y-81122000D01*
X80549999Y-81136928D01*
X80625046Y-81122000D01*
X89415920Y-81122000D01*
X89483914Y-81286153D01*
X89943847Y-81746086D01*
X90544778Y-81995000D01*
X91195222Y-81995000D01*
X91796153Y-81746086D01*
X92256086Y-81286153D01*
X92505000Y-80685222D01*
X92505000Y-80034778D01*
X113235000Y-80034778D01*
X113235000Y-80685222D01*
X113483914Y-81286153D01*
X113943847Y-81746086D01*
X114544778Y-81995000D01*
X115195222Y-81995000D01*
X115796153Y-81746086D01*
X116256086Y-81286153D01*
X116505000Y-80685222D01*
X116505000Y-80034778D01*
X116437005Y-79870625D01*
X121885631Y-74422000D01*
X125663024Y-74422000D01*
X125893327Y-74766673D01*
X126266028Y-75015704D01*
X126284096Y-75106536D01*
X126452071Y-75357929D01*
X126703463Y-75525904D01*
X127000000Y-75584889D01*
X127296536Y-75525904D01*
X127547929Y-75357929D01*
X127715904Y-75106537D01*
X127733972Y-75015704D01*
X128106673Y-74766673D01*
X128445938Y-74258927D01*
X128565072Y-73660000D01*
X128445938Y-73061073D01*
X128244768Y-72760000D01*
X133072560Y-72760000D01*
X133072560Y-74560000D01*
X133121843Y-74807765D01*
X133262191Y-75017809D01*
X133472235Y-75158157D01*
X133720000Y-75207440D01*
X133858000Y-75207440D01*
X133858001Y-96242560D01*
X133720000Y-96242560D01*
X133472235Y-96291843D01*
X133262191Y-96432191D01*
X133121843Y-96642235D01*
X133072560Y-96890000D01*
X133072560Y-98690000D01*
X133121843Y-98937765D01*
X133262191Y-99147809D01*
X133472235Y-99288157D01*
X133720000Y-99337440D01*
X135520000Y-99337440D01*
X135767765Y-99288157D01*
X135977809Y-99147809D01*
X136118157Y-98937765D01*
X136167440Y-98690000D01*
X136167440Y-96890000D01*
X136118157Y-96642235D01*
X135977809Y-96432191D01*
X135767765Y-96291843D01*
X135520000Y-96242560D01*
X135382000Y-96242560D01*
X135382000Y-93782532D01*
X175557073Y-93782532D01*
X175655736Y-94049387D01*
X176265461Y-94275908D01*
X176915460Y-94251856D01*
X177404264Y-94049387D01*
X177502927Y-93782532D01*
X176530000Y-92809605D01*
X175557073Y-93782532D01*
X135382000Y-93782532D01*
X135382000Y-92365461D01*
X174884092Y-92365461D01*
X174908144Y-93015460D01*
X175110613Y-93504264D01*
X175377468Y-93602927D01*
X176350395Y-92630000D01*
X176709605Y-92630000D01*
X177682532Y-93602927D01*
X177949387Y-93504264D01*
X178111877Y-93066890D01*
X189058524Y-93066890D01*
X189228355Y-93476924D01*
X189618642Y-93905183D01*
X190143108Y-94151486D01*
X190373000Y-94030819D01*
X190373000Y-92837000D01*
X190627000Y-92837000D01*
X190627000Y-94030819D01*
X190856892Y-94151486D01*
X191381358Y-93905183D01*
X191588629Y-93677745D01*
X194751861Y-93677745D01*
X194825995Y-93923864D01*
X195363223Y-94116965D01*
X195933454Y-94089778D01*
X196334005Y-93923864D01*
X196408139Y-93677745D01*
X195580000Y-92849605D01*
X194751861Y-93677745D01*
X191588629Y-93677745D01*
X191771645Y-93476924D01*
X191941476Y-93066890D01*
X191820155Y-92837000D01*
X190627000Y-92837000D01*
X190373000Y-92837000D01*
X189179845Y-92837000D01*
X189058524Y-93066890D01*
X178111877Y-93066890D01*
X178175908Y-92894539D01*
X178151856Y-92244540D01*
X177949387Y-91755736D01*
X177682532Y-91657073D01*
X176709605Y-92630000D01*
X176350395Y-92630000D01*
X175377468Y-91657073D01*
X175110613Y-91755736D01*
X174884092Y-92365461D01*
X135382000Y-92365461D01*
X135382000Y-91477468D01*
X175557073Y-91477468D01*
X176530000Y-92450395D01*
X177502927Y-91477468D01*
X177404264Y-91210613D01*
X176794539Y-90984092D01*
X176144540Y-91008144D01*
X175655736Y-91210613D01*
X175557073Y-91477468D01*
X135382000Y-91477468D01*
X135382000Y-79812532D01*
X148887073Y-79812532D01*
X148985736Y-80079387D01*
X149595461Y-80305908D01*
X150245460Y-80281856D01*
X150734264Y-80079387D01*
X150832927Y-79812532D01*
X149860000Y-78839605D01*
X148887073Y-79812532D01*
X135382000Y-79812532D01*
X135382000Y-78395461D01*
X148214092Y-78395461D01*
X148238144Y-79045460D01*
X148440613Y-79534264D01*
X148707468Y-79632927D01*
X149680395Y-78660000D01*
X150039605Y-78660000D01*
X151012532Y-79632927D01*
X151279387Y-79534264D01*
X151505908Y-78924539D01*
X151481856Y-78274540D01*
X151279387Y-77785736D01*
X151012532Y-77687073D01*
X150039605Y-78660000D01*
X149680395Y-78660000D01*
X148707468Y-77687073D01*
X148440613Y-77785736D01*
X148214092Y-78395461D01*
X135382000Y-78395461D01*
X135382000Y-77507468D01*
X148887073Y-77507468D01*
X149860000Y-78480395D01*
X150832927Y-77507468D01*
X150734264Y-77240613D01*
X150538126Y-77167745D01*
X161731861Y-77167745D01*
X161805995Y-77413864D01*
X162343223Y-77606965D01*
X162913454Y-77579778D01*
X163314005Y-77413864D01*
X163388139Y-77167745D01*
X162560000Y-76339605D01*
X161731861Y-77167745D01*
X150538126Y-77167745D01*
X150124539Y-77014092D01*
X149474540Y-77038144D01*
X148985736Y-77240613D01*
X148887073Y-77507468D01*
X135382000Y-77507468D01*
X135382000Y-75943223D01*
X161113035Y-75943223D01*
X161140222Y-76513454D01*
X161306136Y-76914005D01*
X161552255Y-76988139D01*
X162380395Y-76160000D01*
X162739605Y-76160000D01*
X163567745Y-76988139D01*
X163813864Y-76914005D01*
X164006965Y-76376777D01*
X163979778Y-75806546D01*
X163813864Y-75405995D01*
X163567745Y-75331861D01*
X162739605Y-76160000D01*
X162380395Y-76160000D01*
X161552255Y-75331861D01*
X161306136Y-75405995D01*
X161113035Y-75943223D01*
X135382000Y-75943223D01*
X135382000Y-75207440D01*
X135520000Y-75207440D01*
X135767765Y-75158157D01*
X135977809Y-75017809D01*
X136118157Y-74807765D01*
X136167440Y-74560000D01*
X136167440Y-74420000D01*
X148212560Y-74420000D01*
X148212560Y-74660000D01*
X148261843Y-74907765D01*
X148402191Y-75117809D01*
X148612235Y-75258157D01*
X148860000Y-75307440D01*
X150860000Y-75307440D01*
X151107765Y-75258157D01*
X151317809Y-75117809D01*
X151458157Y-74907765D01*
X151507440Y-74660000D01*
X151507440Y-74420000D01*
X161321570Y-74420000D01*
X161343466Y-74472862D01*
X161747138Y-74876534D01*
X161812299Y-74903525D01*
X161805995Y-74906136D01*
X161731861Y-75152255D01*
X162560000Y-75980395D01*
X163388139Y-75152255D01*
X163314005Y-74906136D01*
X163307254Y-74903710D01*
X163372862Y-74876534D01*
X163776534Y-74472862D01*
X163798430Y-74420000D01*
X174882560Y-74420000D01*
X174882560Y-74660000D01*
X174931843Y-74907765D01*
X175072191Y-75117809D01*
X175177214Y-75187984D01*
X172235530Y-78129669D01*
X172172071Y-78172071D01*
X172004096Y-78423464D01*
X171960000Y-78645149D01*
X171960000Y-78645153D01*
X171945112Y-78720000D01*
X171960000Y-78794847D01*
X171960001Y-83745148D01*
X171945112Y-83820000D01*
X171960001Y-83894852D01*
X172004097Y-84116537D01*
X172172072Y-84367929D01*
X172235528Y-84410329D01*
X174882560Y-87057362D01*
X174882560Y-88630000D01*
X174931843Y-88877765D01*
X175072191Y-89087809D01*
X175282235Y-89228157D01*
X175530000Y-89277440D01*
X177530000Y-89277440D01*
X177777765Y-89228157D01*
X177987809Y-89087809D01*
X178128157Y-88877765D01*
X178177440Y-88630000D01*
X178177440Y-88390000D01*
X189002560Y-88390000D01*
X189002560Y-88480000D01*
X189051843Y-88727765D01*
X189192191Y-88937809D01*
X189402235Y-89078157D01*
X189447619Y-89087184D01*
X189429375Y-89099375D01*
X189101161Y-89590582D01*
X188985908Y-90170000D01*
X189101161Y-90749418D01*
X189429375Y-91240625D01*
X189748478Y-91453843D01*
X189618642Y-91514817D01*
X189228355Y-91943076D01*
X189058524Y-92353110D01*
X189179845Y-92583000D01*
X190373000Y-92583000D01*
X190373000Y-92563000D01*
X190627000Y-92563000D01*
X190627000Y-92583000D01*
X191820155Y-92583000D01*
X191888642Y-92453223D01*
X194133035Y-92453223D01*
X194160222Y-93023454D01*
X194326136Y-93424005D01*
X194572255Y-93498139D01*
X195400395Y-92670000D01*
X195759605Y-92670000D01*
X196587745Y-93498139D01*
X196833864Y-93424005D01*
X197026965Y-92886777D01*
X196999778Y-92316546D01*
X196833864Y-91915995D01*
X196587745Y-91841861D01*
X195759605Y-92670000D01*
X195400395Y-92670000D01*
X194572255Y-91841861D01*
X194326136Y-91915995D01*
X194133035Y-92453223D01*
X191888642Y-92453223D01*
X191941476Y-92353110D01*
X191771645Y-91943076D01*
X191381358Y-91514817D01*
X191251522Y-91453843D01*
X191570625Y-91240625D01*
X191778178Y-90930000D01*
X194341570Y-90930000D01*
X194363466Y-90982862D01*
X194767138Y-91386534D01*
X194832299Y-91413525D01*
X194825995Y-91416136D01*
X194751861Y-91662255D01*
X195580000Y-92490395D01*
X196408139Y-91662255D01*
X196334005Y-91416136D01*
X196327254Y-91413710D01*
X196392862Y-91386534D01*
X196796534Y-90982862D01*
X196817602Y-90932000D01*
X197892560Y-90932000D01*
X197892560Y-91020000D01*
X197941843Y-91267765D01*
X198082191Y-91477809D01*
X198292235Y-91618157D01*
X198540000Y-91667440D01*
X200240000Y-91667440D01*
X200487765Y-91618157D01*
X200697809Y-91477809D01*
X200838157Y-91267765D01*
X200887440Y-91020000D01*
X200887440Y-89320000D01*
X200838157Y-89072235D01*
X200697809Y-88862191D01*
X200487765Y-88721843D01*
X200240000Y-88672560D01*
X198540000Y-88672560D01*
X198292235Y-88721843D01*
X198082191Y-88862191D01*
X197941843Y-89072235D01*
X197892560Y-89320000D01*
X197892560Y-89408000D01*
X196817602Y-89408000D01*
X196796534Y-89357138D01*
X196392862Y-88953466D01*
X195865439Y-88735000D01*
X195294561Y-88735000D01*
X194767138Y-88953466D01*
X194363466Y-89357138D01*
X194341570Y-89410000D01*
X191778178Y-89410000D01*
X191570625Y-89099375D01*
X191552381Y-89087184D01*
X191597765Y-89078157D01*
X191807809Y-88937809D01*
X191948157Y-88727765D01*
X191997440Y-88480000D01*
X191997440Y-86780000D01*
X191948157Y-86532235D01*
X191807809Y-86322191D01*
X191597765Y-86181843D01*
X191350000Y-86132560D01*
X189650000Y-86132560D01*
X189402235Y-86181843D01*
X189192191Y-86322191D01*
X189051843Y-86532235D01*
X189002560Y-86780000D01*
X189002560Y-86870000D01*
X178177440Y-86870000D01*
X178177440Y-86630000D01*
X178128157Y-86382235D01*
X177987809Y-86172191D01*
X177777765Y-86031843D01*
X177530000Y-85982560D01*
X175957362Y-85982560D01*
X173480000Y-83505199D01*
X173480000Y-79812532D01*
X175557073Y-79812532D01*
X175655736Y-80079387D01*
X176265461Y-80305908D01*
X176915460Y-80281856D01*
X177404264Y-80079387D01*
X177502927Y-79812532D01*
X176530000Y-78839605D01*
X175557073Y-79812532D01*
X173480000Y-79812532D01*
X173480000Y-79034801D01*
X174119340Y-78395461D01*
X174884092Y-78395461D01*
X174908144Y-79045460D01*
X175110613Y-79534264D01*
X175377468Y-79632927D01*
X176350395Y-78660000D01*
X176709605Y-78660000D01*
X177682532Y-79632927D01*
X177949387Y-79534264D01*
X178111877Y-79096890D01*
X189058524Y-79096890D01*
X189228355Y-79506924D01*
X189618642Y-79935183D01*
X190143108Y-80181486D01*
X190373000Y-80060819D01*
X190373000Y-78867000D01*
X190627000Y-78867000D01*
X190627000Y-80060819D01*
X190856892Y-80181486D01*
X191381358Y-79935183D01*
X191588629Y-79707745D01*
X194751861Y-79707745D01*
X194825995Y-79953864D01*
X195363223Y-80146965D01*
X195933454Y-80119778D01*
X196334005Y-79953864D01*
X196408139Y-79707745D01*
X195580000Y-78879605D01*
X194751861Y-79707745D01*
X191588629Y-79707745D01*
X191771645Y-79506924D01*
X191941476Y-79096890D01*
X191820155Y-78867000D01*
X190627000Y-78867000D01*
X190373000Y-78867000D01*
X189179845Y-78867000D01*
X189058524Y-79096890D01*
X178111877Y-79096890D01*
X178175908Y-78924539D01*
X178151856Y-78274540D01*
X177949387Y-77785736D01*
X177682532Y-77687073D01*
X176709605Y-78660000D01*
X176350395Y-78660000D01*
X175377468Y-77687073D01*
X175110613Y-77785736D01*
X174884092Y-78395461D01*
X174119340Y-78395461D01*
X175007333Y-77507468D01*
X175557073Y-77507468D01*
X176530000Y-78480395D01*
X177502927Y-77507468D01*
X177404264Y-77240613D01*
X176794539Y-77014092D01*
X176144540Y-77038144D01*
X175655736Y-77240613D01*
X175557073Y-77507468D01*
X175007333Y-77507468D01*
X177014473Y-75500329D01*
X177077929Y-75457929D01*
X177178483Y-75307440D01*
X177530000Y-75307440D01*
X177777765Y-75258157D01*
X177987809Y-75117809D01*
X178128157Y-74907765D01*
X178177440Y-74660000D01*
X178177440Y-74420000D01*
X189002560Y-74420000D01*
X189002560Y-74510000D01*
X189051843Y-74757765D01*
X189192191Y-74967809D01*
X189402235Y-75108157D01*
X189447619Y-75117184D01*
X189429375Y-75129375D01*
X189101161Y-75620582D01*
X188985908Y-76200000D01*
X189101161Y-76779418D01*
X189429375Y-77270625D01*
X189748478Y-77483843D01*
X189618642Y-77544817D01*
X189228355Y-77973076D01*
X189058524Y-78383110D01*
X189179845Y-78613000D01*
X190373000Y-78613000D01*
X190373000Y-78593000D01*
X190627000Y-78593000D01*
X190627000Y-78613000D01*
X191820155Y-78613000D01*
X191888642Y-78483223D01*
X194133035Y-78483223D01*
X194160222Y-79053454D01*
X194326136Y-79454005D01*
X194572255Y-79528139D01*
X195400395Y-78700000D01*
X195759605Y-78700000D01*
X196587745Y-79528139D01*
X196833864Y-79454005D01*
X197026965Y-78916777D01*
X196999778Y-78346546D01*
X196833864Y-77945995D01*
X196587745Y-77871861D01*
X195759605Y-78700000D01*
X195400395Y-78700000D01*
X194572255Y-77871861D01*
X194326136Y-77945995D01*
X194133035Y-78483223D01*
X191888642Y-78483223D01*
X191941476Y-78383110D01*
X191771645Y-77973076D01*
X191381358Y-77544817D01*
X191251522Y-77483843D01*
X191570625Y-77270625D01*
X191778178Y-76960000D01*
X194341570Y-76960000D01*
X194363466Y-77012862D01*
X194767138Y-77416534D01*
X194832299Y-77443525D01*
X194825995Y-77446136D01*
X194751861Y-77692255D01*
X195580000Y-78520395D01*
X196408139Y-77692255D01*
X196334005Y-77446136D01*
X196327254Y-77443710D01*
X196392862Y-77416534D01*
X196796534Y-77012862D01*
X196817602Y-76962000D01*
X197892560Y-76962000D01*
X197892560Y-77050000D01*
X197941843Y-77297765D01*
X198082191Y-77507809D01*
X198292235Y-77648157D01*
X198540000Y-77697440D01*
X200240000Y-77697440D01*
X200487765Y-77648157D01*
X200697809Y-77507809D01*
X200838157Y-77297765D01*
X200887440Y-77050000D01*
X200887440Y-75350000D01*
X200838157Y-75102235D01*
X200697809Y-74892191D01*
X200487765Y-74751843D01*
X200240000Y-74702560D01*
X198540000Y-74702560D01*
X198292235Y-74751843D01*
X198082191Y-74892191D01*
X197941843Y-75102235D01*
X197892560Y-75350000D01*
X197892560Y-75438000D01*
X196817602Y-75438000D01*
X196796534Y-75387138D01*
X196392862Y-74983466D01*
X195865439Y-74765000D01*
X195294561Y-74765000D01*
X194767138Y-74983466D01*
X194363466Y-75387138D01*
X194341570Y-75440000D01*
X191778178Y-75440000D01*
X191570625Y-75129375D01*
X191552381Y-75117184D01*
X191597765Y-75108157D01*
X191807809Y-74967809D01*
X191948157Y-74757765D01*
X191997440Y-74510000D01*
X191997440Y-72810000D01*
X191948157Y-72562235D01*
X191807809Y-72352191D01*
X191597765Y-72211843D01*
X191350000Y-72162560D01*
X189650000Y-72162560D01*
X189402235Y-72211843D01*
X189192191Y-72352191D01*
X189051843Y-72562235D01*
X189002560Y-72810000D01*
X189002560Y-72900000D01*
X178177440Y-72900000D01*
X178177440Y-72660000D01*
X178128157Y-72412235D01*
X177987809Y-72202191D01*
X177777765Y-72061843D01*
X177530000Y-72012560D01*
X175530000Y-72012560D01*
X175282235Y-72061843D01*
X175072191Y-72202191D01*
X174931843Y-72412235D01*
X174882560Y-72660000D01*
X174882560Y-72900000D01*
X163798430Y-72900000D01*
X163776534Y-72847138D01*
X163372862Y-72443466D01*
X162845439Y-72225000D01*
X162274561Y-72225000D01*
X161747138Y-72443466D01*
X161343466Y-72847138D01*
X161321570Y-72900000D01*
X151507440Y-72900000D01*
X151507440Y-72660000D01*
X151458157Y-72412235D01*
X151317809Y-72202191D01*
X151107765Y-72061843D01*
X150860000Y-72012560D01*
X148860000Y-72012560D01*
X148612235Y-72061843D01*
X148402191Y-72202191D01*
X148261843Y-72412235D01*
X148212560Y-72660000D01*
X148212560Y-72900000D01*
X136167440Y-72900000D01*
X136167440Y-72760000D01*
X136118157Y-72512235D01*
X135977809Y-72302191D01*
X135767765Y-72161843D01*
X135520000Y-72112560D01*
X133720000Y-72112560D01*
X133472235Y-72161843D01*
X133262191Y-72302191D01*
X133121843Y-72512235D01*
X133072560Y-72760000D01*
X128244768Y-72760000D01*
X128106673Y-72553327D01*
X127598927Y-72214062D01*
X127151182Y-72125000D01*
X126848818Y-72125000D01*
X126401073Y-72214062D01*
X125893327Y-72553327D01*
X125663024Y-72898000D01*
X121645047Y-72898000D01*
X121570000Y-72883072D01*
X121494953Y-72898000D01*
X121494952Y-72898000D01*
X121272683Y-72942212D01*
X121020629Y-73110629D01*
X120978118Y-73174251D01*
X115359375Y-78792995D01*
X115195222Y-78725000D01*
X114544778Y-78725000D01*
X113943847Y-78973914D01*
X113483914Y-79433847D01*
X113235000Y-80034778D01*
X92505000Y-80034778D01*
X92256086Y-79433847D01*
X91796153Y-78973914D01*
X91195222Y-78725000D01*
X90544778Y-78725000D01*
X89943847Y-78973914D01*
X89483914Y-79433847D01*
X89415920Y-79598000D01*
X80865630Y-79598000D01*
X78795000Y-77527371D01*
X78795000Y-75823586D01*
X78013243Y-73936257D01*
X76568744Y-72491758D01*
X74681415Y-71710001D01*
X72638585Y-71710001D01*
X70751256Y-72491758D01*
X69306757Y-73936257D01*
X68525000Y-75823586D01*
X64210000Y-75823586D01*
X64210000Y-67595750D01*
X197905000Y-67595750D01*
X197905000Y-68286310D01*
X198001673Y-68519699D01*
X198180302Y-68698327D01*
X198413691Y-68795000D01*
X199104250Y-68795000D01*
X199263000Y-68636250D01*
X199263000Y-67437000D01*
X199517000Y-67437000D01*
X199517000Y-68636250D01*
X199675750Y-68795000D01*
X200366309Y-68795000D01*
X200599698Y-68698327D01*
X200778327Y-68519699D01*
X200875000Y-68286310D01*
X200875000Y-67595750D01*
X200716250Y-67437000D01*
X199517000Y-67437000D01*
X199263000Y-67437000D01*
X198063750Y-67437000D01*
X197905000Y-67595750D01*
X64210000Y-67595750D01*
X64210000Y-66333690D01*
X197905000Y-66333690D01*
X197905000Y-67024250D01*
X198063750Y-67183000D01*
X199263000Y-67183000D01*
X199263000Y-65983750D01*
X199517000Y-65983750D01*
X199517000Y-67183000D01*
X200716250Y-67183000D01*
X200875000Y-67024250D01*
X200875000Y-66333690D01*
X200778327Y-66100301D01*
X200599698Y-65921673D01*
X200366309Y-65825000D01*
X199675750Y-65825000D01*
X199517000Y-65983750D01*
X199263000Y-65983750D01*
X199104250Y-65825000D01*
X198413691Y-65825000D01*
X198180302Y-65921673D01*
X198001673Y-66100301D01*
X197905000Y-66333690D01*
X64210000Y-66333690D01*
X64210000Y-62940000D01*
X210110001Y-62940000D01*
X210110000Y-112320000D01*
G36*
X210110000Y-112320000D02*
X64210000Y-112320000D01*
X64210000Y-100578585D01*
X68525000Y-100578585D01*
X68525000Y-102621415D01*
X69306757Y-104508744D01*
X70751256Y-105953243D01*
X72638585Y-106735000D01*
X74681415Y-106735000D01*
X76568744Y-105953243D01*
X78013243Y-104508744D01*
X78795000Y-102621415D01*
X78795000Y-100615750D01*
X197905000Y-100615750D01*
X197905000Y-101306310D01*
X198001673Y-101539699D01*
X198180302Y-101718327D01*
X198413691Y-101815000D01*
X199104250Y-101815000D01*
X199263000Y-101656250D01*
X199263000Y-100457000D01*
X199517000Y-100457000D01*
X199517000Y-101656250D01*
X199675750Y-101815000D01*
X200366309Y-101815000D01*
X200599698Y-101718327D01*
X200778327Y-101539699D01*
X200875000Y-101306310D01*
X200875000Y-100615750D01*
X200716250Y-100457000D01*
X199517000Y-100457000D01*
X199263000Y-100457000D01*
X198063750Y-100457000D01*
X197905000Y-100615750D01*
X78795000Y-100615750D01*
X78795000Y-100578585D01*
X78287633Y-99353690D01*
X197905000Y-99353690D01*
X197905000Y-100044250D01*
X198063750Y-100203000D01*
X199263000Y-100203000D01*
X199263000Y-99003750D01*
X199517000Y-99003750D01*
X199517000Y-100203000D01*
X200716250Y-100203000D01*
X200875000Y-100044250D01*
X200875000Y-99353690D01*
X200778327Y-99120301D01*
X200599698Y-98941673D01*
X200366309Y-98845000D01*
X199675750Y-98845000D01*
X199517000Y-99003750D01*
X199263000Y-99003750D01*
X199104250Y-98845000D01*
X198413691Y-98845000D01*
X198180302Y-98941673D01*
X198001673Y-99120301D01*
X197905000Y-99353690D01*
X78287633Y-99353690D01*
X78013243Y-98691256D01*
X77829809Y-98507822D01*
X83215631Y-93122000D01*
X89415920Y-93122000D01*
X89483914Y-93286153D01*
X89943847Y-93746086D01*
X90544778Y-93995000D01*
X91195222Y-93995000D01*
X91796153Y-93746086D01*
X92256086Y-93286153D01*
X92505000Y-92685222D01*
X92505000Y-92034778D01*
X113235000Y-92034778D01*
X113235000Y-92685222D01*
X113483914Y-93286153D01*
X113943847Y-93746086D01*
X114544778Y-93995000D01*
X115195222Y-93995000D01*
X115359375Y-93927005D01*
X119708118Y-98275749D01*
X119750629Y-98339371D01*
X120002683Y-98507788D01*
X120224952Y-98552000D01*
X120224953Y-98552000D01*
X120300000Y-98566928D01*
X120375047Y-98552000D01*
X125663024Y-98552000D01*
X125893327Y-98896673D01*
X126401073Y-99235938D01*
X126848818Y-99325000D01*
X127151182Y-99325000D01*
X127598927Y-99235938D01*
X128106673Y-98896673D01*
X128445938Y-98388927D01*
X128565072Y-97790000D01*
X128445938Y-97191073D01*
X128106673Y-96683327D01*
X127733972Y-96434296D01*
X127715904Y-96343463D01*
X127547929Y-96092071D01*
X127296536Y-95924096D01*
X127000000Y-95865111D01*
X126703463Y-95924096D01*
X126452071Y-96092071D01*
X126284096Y-96343464D01*
X126266028Y-96434296D01*
X125893327Y-96683327D01*
X125663024Y-97028000D01*
X120615631Y-97028000D01*
X116437005Y-92849375D01*
X116505000Y-92685222D01*
X116505000Y-92034778D01*
X116256086Y-91433847D01*
X115796153Y-90973914D01*
X115195222Y-90725000D01*
X114544778Y-90725000D01*
X113943847Y-90973914D01*
X113483914Y-91433847D01*
X113235000Y-92034778D01*
X92505000Y-92034778D01*
X92256086Y-91433847D01*
X91796153Y-90973914D01*
X91195222Y-90725000D01*
X90544778Y-90725000D01*
X89943847Y-90973914D01*
X89483914Y-91433847D01*
X89415920Y-91598000D01*
X82975047Y-91598000D01*
X82900000Y-91583072D01*
X82824953Y-91598000D01*
X82824952Y-91598000D01*
X82602683Y-91642212D01*
X82350629Y-91810629D01*
X82308118Y-91874251D01*
X76752178Y-97430191D01*
X76568744Y-97246757D01*
X74681415Y-96465000D01*
X72638585Y-96465000D01*
X70751256Y-97246757D01*
X69306757Y-98691256D01*
X68525000Y-100578585D01*
X64210000Y-100578585D01*
X64210000Y-87512532D01*
X113897073Y-87512532D01*
X113995736Y-87779387D01*
X114605461Y-88005908D01*
X115255460Y-87981856D01*
X115744264Y-87779387D01*
X115842927Y-87512532D01*
X114870000Y-86539605D01*
X113897073Y-87512532D01*
X64210000Y-87512532D01*
X64210000Y-86095461D01*
X113224092Y-86095461D01*
X113248144Y-86745460D01*
X113450613Y-87234264D01*
X113717468Y-87332927D01*
X114690395Y-86360000D01*
X115049605Y-86360000D01*
X116022532Y-87332927D01*
X116289387Y-87234264D01*
X116515908Y-86624539D01*
X116491856Y-85974540D01*
X116289387Y-85485736D01*
X116022532Y-85387073D01*
X115049605Y-86360000D01*
X114690395Y-86360000D01*
X113717468Y-85387073D01*
X113450613Y-85485736D01*
X113224092Y-86095461D01*
X64210000Y-86095461D01*
X64210000Y-85207468D01*
X113897073Y-85207468D01*
X114870000Y-86180395D01*
X115842927Y-85207468D01*
X115744264Y-84940613D01*
X115134539Y-84714092D01*
X114484540Y-84738144D01*
X113995736Y-84940613D01*
X113897073Y-85207468D01*
X64210000Y-85207468D01*
X64210000Y-75823586D01*
X68525000Y-75823586D01*
X68525000Y-77866416D01*
X69306757Y-79753745D01*
X70751256Y-81198244D01*
X72638585Y-81980001D01*
X74681415Y-81980001D01*
X76568744Y-81198244D01*
X78013243Y-79753745D01*
X78263043Y-79150674D01*
X79958117Y-80845749D01*
X80000628Y-80909371D01*
X80252682Y-81077788D01*
X80474951Y-81122000D01*
X80474952Y-81122000D01*
X80549999Y-81136928D01*
X80625046Y-81122000D01*
X89415920Y-81122000D01*
X89483914Y-81286153D01*
X89943847Y-81746086D01*
X90544778Y-81995000D01*
X91195222Y-81995000D01*
X91796153Y-81746086D01*
X92256086Y-81286153D01*
X92505000Y-80685222D01*
X92505000Y-80034778D01*
X113235000Y-80034778D01*
X113235000Y-80685222D01*
X113483914Y-81286153D01*
X113943847Y-81746086D01*
X114544778Y-81995000D01*
X115195222Y-81995000D01*
X115796153Y-81746086D01*
X116256086Y-81286153D01*
X116505000Y-80685222D01*
X116505000Y-80034778D01*
X116437005Y-79870625D01*
X121885631Y-74422000D01*
X125663024Y-74422000D01*
X125893327Y-74766673D01*
X126266028Y-75015704D01*
X126284096Y-75106536D01*
X126452071Y-75357929D01*
X126703463Y-75525904D01*
X127000000Y-75584889D01*
X127296536Y-75525904D01*
X127547929Y-75357929D01*
X127715904Y-75106537D01*
X127733972Y-75015704D01*
X128106673Y-74766673D01*
X128445938Y-74258927D01*
X128565072Y-73660000D01*
X128445938Y-73061073D01*
X128244768Y-72760000D01*
X133072560Y-72760000D01*
X133072560Y-74560000D01*
X133121843Y-74807765D01*
X133262191Y-75017809D01*
X133472235Y-75158157D01*
X133720000Y-75207440D01*
X133858000Y-75207440D01*
X133858001Y-96242560D01*
X133720000Y-96242560D01*
X133472235Y-96291843D01*
X133262191Y-96432191D01*
X133121843Y-96642235D01*
X133072560Y-96890000D01*
X133072560Y-98690000D01*
X133121843Y-98937765D01*
X133262191Y-99147809D01*
X133472235Y-99288157D01*
X133720000Y-99337440D01*
X135520000Y-99337440D01*
X135767765Y-99288157D01*
X135977809Y-99147809D01*
X136118157Y-98937765D01*
X136167440Y-98690000D01*
X136167440Y-96890000D01*
X136118157Y-96642235D01*
X135977809Y-96432191D01*
X135767765Y-96291843D01*
X135520000Y-96242560D01*
X135382000Y-96242560D01*
X135382000Y-93782532D01*
X175557073Y-93782532D01*
X175655736Y-94049387D01*
X176265461Y-94275908D01*
X176915460Y-94251856D01*
X177404264Y-94049387D01*
X177502927Y-93782532D01*
X176530000Y-92809605D01*
X175557073Y-93782532D01*
X135382000Y-93782532D01*
X135382000Y-92365461D01*
X174884092Y-92365461D01*
X174908144Y-93015460D01*
X175110613Y-93504264D01*
X175377468Y-93602927D01*
X176350395Y-92630000D01*
X176709605Y-92630000D01*
X177682532Y-93602927D01*
X177949387Y-93504264D01*
X178111877Y-93066890D01*
X189058524Y-93066890D01*
X189228355Y-93476924D01*
X189618642Y-93905183D01*
X190143108Y-94151486D01*
X190373000Y-94030819D01*
X190373000Y-92837000D01*
X190627000Y-92837000D01*
X190627000Y-94030819D01*
X190856892Y-94151486D01*
X191381358Y-93905183D01*
X191588629Y-93677745D01*
X194751861Y-93677745D01*
X194825995Y-93923864D01*
X195363223Y-94116965D01*
X195933454Y-94089778D01*
X196334005Y-93923864D01*
X196408139Y-93677745D01*
X195580000Y-92849605D01*
X194751861Y-93677745D01*
X191588629Y-93677745D01*
X191771645Y-93476924D01*
X191941476Y-93066890D01*
X191820155Y-92837000D01*
X190627000Y-92837000D01*
X190373000Y-92837000D01*
X189179845Y-92837000D01*
X189058524Y-93066890D01*
X178111877Y-93066890D01*
X178175908Y-92894539D01*
X178151856Y-92244540D01*
X177949387Y-91755736D01*
X177682532Y-91657073D01*
X176709605Y-92630000D01*
X176350395Y-92630000D01*
X175377468Y-91657073D01*
X175110613Y-91755736D01*
X174884092Y-92365461D01*
X135382000Y-92365461D01*
X135382000Y-91477468D01*
X175557073Y-91477468D01*
X176530000Y-92450395D01*
X177502927Y-91477468D01*
X177404264Y-91210613D01*
X176794539Y-90984092D01*
X176144540Y-91008144D01*
X175655736Y-91210613D01*
X175557073Y-91477468D01*
X135382000Y-91477468D01*
X135382000Y-79812532D01*
X148887073Y-79812532D01*
X148985736Y-80079387D01*
X149595461Y-80305908D01*
X150245460Y-80281856D01*
X150734264Y-80079387D01*
X150832927Y-79812532D01*
X149860000Y-78839605D01*
X148887073Y-79812532D01*
X135382000Y-79812532D01*
X135382000Y-78395461D01*
X148214092Y-78395461D01*
X148238144Y-79045460D01*
X148440613Y-79534264D01*
X148707468Y-79632927D01*
X149680395Y-78660000D01*
X150039605Y-78660000D01*
X151012532Y-79632927D01*
X151279387Y-79534264D01*
X151505908Y-78924539D01*
X151481856Y-78274540D01*
X151279387Y-77785736D01*
X151012532Y-77687073D01*
X150039605Y-78660000D01*
X149680395Y-78660000D01*
X148707468Y-77687073D01*
X148440613Y-77785736D01*
X148214092Y-78395461D01*
X135382000Y-78395461D01*
X135382000Y-77507468D01*
X148887073Y-77507468D01*
X149860000Y-78480395D01*
X150832927Y-77507468D01*
X150734264Y-77240613D01*
X150538126Y-77167745D01*
X161731861Y-77167745D01*
X161805995Y-77413864D01*
X162343223Y-77606965D01*
X162913454Y-77579778D01*
X163314005Y-77413864D01*
X163388139Y-77167745D01*
X162560000Y-76339605D01*
X161731861Y-77167745D01*
X150538126Y-77167745D01*
X150124539Y-77014092D01*
X149474540Y-77038144D01*
X148985736Y-77240613D01*
X148887073Y-77507468D01*
X135382000Y-77507468D01*
X135382000Y-75943223D01*
X161113035Y-75943223D01*
X161140222Y-76513454D01*
X161306136Y-76914005D01*
X161552255Y-76988139D01*
X162380395Y-76160000D01*
X162739605Y-76160000D01*
X163567745Y-76988139D01*
X163813864Y-76914005D01*
X164006965Y-76376777D01*
X163979778Y-75806546D01*
X163813864Y-75405995D01*
X163567745Y-75331861D01*
X162739605Y-76160000D01*
X162380395Y-76160000D01*
X161552255Y-75331861D01*
X161306136Y-75405995D01*
X161113035Y-75943223D01*
X135382000Y-75943223D01*
X135382000Y-75207440D01*
X135520000Y-75207440D01*
X135767765Y-75158157D01*
X135977809Y-75017809D01*
X136118157Y-74807765D01*
X136167440Y-74560000D01*
X136167440Y-74420000D01*
X148212560Y-74420000D01*
X148212560Y-74660000D01*
X148261843Y-74907765D01*
X148402191Y-75117809D01*
X148612235Y-75258157D01*
X148860000Y-75307440D01*
X150860000Y-75307440D01*
X151107765Y-75258157D01*
X151317809Y-75117809D01*
X151458157Y-74907765D01*
X151507440Y-74660000D01*
X151507440Y-74420000D01*
X161321570Y-74420000D01*
X161343466Y-74472862D01*
X161747138Y-74876534D01*
X161812299Y-74903525D01*
X161805995Y-74906136D01*
X161731861Y-75152255D01*
X162560000Y-75980395D01*
X163388139Y-75152255D01*
X163314005Y-74906136D01*
X163307254Y-74903710D01*
X163372862Y-74876534D01*
X163776534Y-74472862D01*
X163798430Y-74420000D01*
X174882560Y-74420000D01*
X174882560Y-74660000D01*
X174931843Y-74907765D01*
X175072191Y-75117809D01*
X175177214Y-75187984D01*
X172235530Y-78129669D01*
X172172071Y-78172071D01*
X172004096Y-78423464D01*
X171960000Y-78645149D01*
X171960000Y-78645153D01*
X171945112Y-78720000D01*
X171960000Y-78794847D01*
X171960001Y-83745148D01*
X171945112Y-83820000D01*
X171960001Y-83894852D01*
X172004097Y-84116537D01*
X172172072Y-84367929D01*
X172235528Y-84410329D01*
X174882560Y-87057362D01*
X174882560Y-88630000D01*
X174931843Y-88877765D01*
X175072191Y-89087809D01*
X175282235Y-89228157D01*
X175530000Y-89277440D01*
X177530000Y-89277440D01*
X177777765Y-89228157D01*
X177987809Y-89087809D01*
X178128157Y-88877765D01*
X178177440Y-88630000D01*
X178177440Y-88390000D01*
X189002560Y-88390000D01*
X189002560Y-88480000D01*
X189051843Y-88727765D01*
X189192191Y-88937809D01*
X189402235Y-89078157D01*
X189447619Y-89087184D01*
X189429375Y-89099375D01*
X189101161Y-89590582D01*
X188985908Y-90170000D01*
X189101161Y-90749418D01*
X189429375Y-91240625D01*
X189748478Y-91453843D01*
X189618642Y-91514817D01*
X189228355Y-91943076D01*
X189058524Y-92353110D01*
X189179845Y-92583000D01*
X190373000Y-92583000D01*
X190373000Y-92563000D01*
X190627000Y-92563000D01*
X190627000Y-92583000D01*
X191820155Y-92583000D01*
X191888642Y-92453223D01*
X194133035Y-92453223D01*
X194160222Y-93023454D01*
X194326136Y-93424005D01*
X194572255Y-93498139D01*
X195400395Y-92670000D01*
X195759605Y-92670000D01*
X196587745Y-93498139D01*
X196833864Y-93424005D01*
X197026965Y-92886777D01*
X196999778Y-92316546D01*
X196833864Y-91915995D01*
X196587745Y-91841861D01*
X195759605Y-92670000D01*
X195400395Y-92670000D01*
X194572255Y-91841861D01*
X194326136Y-91915995D01*
X194133035Y-92453223D01*
X191888642Y-92453223D01*
X191941476Y-92353110D01*
X191771645Y-91943076D01*
X191381358Y-91514817D01*
X191251522Y-91453843D01*
X191570625Y-91240625D01*
X191778178Y-90930000D01*
X194341570Y-90930000D01*
X194363466Y-90982862D01*
X194767138Y-91386534D01*
X194832299Y-91413525D01*
X194825995Y-91416136D01*
X194751861Y-91662255D01*
X195580000Y-92490395D01*
X196408139Y-91662255D01*
X196334005Y-91416136D01*
X196327254Y-91413710D01*
X196392862Y-91386534D01*
X196796534Y-90982862D01*
X196817602Y-90932000D01*
X197892560Y-90932000D01*
X197892560Y-91020000D01*
X197941843Y-91267765D01*
X198082191Y-91477809D01*
X198292235Y-91618157D01*
X198540000Y-91667440D01*
X200240000Y-91667440D01*
X200487765Y-91618157D01*
X200697809Y-91477809D01*
X200838157Y-91267765D01*
X200887440Y-91020000D01*
X200887440Y-89320000D01*
X200838157Y-89072235D01*
X200697809Y-88862191D01*
X200487765Y-88721843D01*
X200240000Y-88672560D01*
X198540000Y-88672560D01*
X198292235Y-88721843D01*
X198082191Y-88862191D01*
X197941843Y-89072235D01*
X197892560Y-89320000D01*
X197892560Y-89408000D01*
X196817602Y-89408000D01*
X196796534Y-89357138D01*
X196392862Y-88953466D01*
X195865439Y-88735000D01*
X195294561Y-88735000D01*
X194767138Y-88953466D01*
X194363466Y-89357138D01*
X194341570Y-89410000D01*
X191778178Y-89410000D01*
X191570625Y-89099375D01*
X191552381Y-89087184D01*
X191597765Y-89078157D01*
X191807809Y-88937809D01*
X191948157Y-88727765D01*
X191997440Y-88480000D01*
X191997440Y-86780000D01*
X191948157Y-86532235D01*
X191807809Y-86322191D01*
X191597765Y-86181843D01*
X191350000Y-86132560D01*
X189650000Y-86132560D01*
X189402235Y-86181843D01*
X189192191Y-86322191D01*
X189051843Y-86532235D01*
X189002560Y-86780000D01*
X189002560Y-86870000D01*
X178177440Y-86870000D01*
X178177440Y-86630000D01*
X178128157Y-86382235D01*
X177987809Y-86172191D01*
X177777765Y-86031843D01*
X177530000Y-85982560D01*
X175957362Y-85982560D01*
X173480000Y-83505199D01*
X173480000Y-79812532D01*
X175557073Y-79812532D01*
X175655736Y-80079387D01*
X176265461Y-80305908D01*
X176915460Y-80281856D01*
X177404264Y-80079387D01*
X177502927Y-79812532D01*
X176530000Y-78839605D01*
X175557073Y-79812532D01*
X173480000Y-79812532D01*
X173480000Y-79034801D01*
X174119340Y-78395461D01*
X174884092Y-78395461D01*
X174908144Y-79045460D01*
X175110613Y-79534264D01*
X175377468Y-79632927D01*
X176350395Y-78660000D01*
X176709605Y-78660000D01*
X177682532Y-79632927D01*
X177949387Y-79534264D01*
X178111877Y-79096890D01*
X189058524Y-79096890D01*
X189228355Y-79506924D01*
X189618642Y-79935183D01*
X190143108Y-80181486D01*
X190373000Y-80060819D01*
X190373000Y-78867000D01*
X190627000Y-78867000D01*
X190627000Y-80060819D01*
X190856892Y-80181486D01*
X191381358Y-79935183D01*
X191588629Y-79707745D01*
X194751861Y-79707745D01*
X194825995Y-79953864D01*
X195363223Y-80146965D01*
X195933454Y-80119778D01*
X196334005Y-79953864D01*
X196408139Y-79707745D01*
X195580000Y-78879605D01*
X194751861Y-79707745D01*
X191588629Y-79707745D01*
X191771645Y-79506924D01*
X191941476Y-79096890D01*
X191820155Y-78867000D01*
X190627000Y-78867000D01*
X190373000Y-78867000D01*
X189179845Y-78867000D01*
X189058524Y-79096890D01*
X178111877Y-79096890D01*
X178175908Y-78924539D01*
X178151856Y-78274540D01*
X177949387Y-77785736D01*
X177682532Y-77687073D01*
X176709605Y-78660000D01*
X176350395Y-78660000D01*
X175377468Y-77687073D01*
X175110613Y-77785736D01*
X174884092Y-78395461D01*
X174119340Y-78395461D01*
X175007333Y-77507468D01*
X175557073Y-77507468D01*
X176530000Y-78480395D01*
X177502927Y-77507468D01*
X177404264Y-77240613D01*
X176794539Y-77014092D01*
X176144540Y-77038144D01*
X175655736Y-77240613D01*
X175557073Y-77507468D01*
X175007333Y-77507468D01*
X177014473Y-75500329D01*
X177077929Y-75457929D01*
X177178483Y-75307440D01*
X177530000Y-75307440D01*
X177777765Y-75258157D01*
X177987809Y-75117809D01*
X178128157Y-74907765D01*
X178177440Y-74660000D01*
X178177440Y-74420000D01*
X189002560Y-74420000D01*
X189002560Y-74510000D01*
X189051843Y-74757765D01*
X189192191Y-74967809D01*
X189402235Y-75108157D01*
X189447619Y-75117184D01*
X189429375Y-75129375D01*
X189101161Y-75620582D01*
X188985908Y-76200000D01*
X189101161Y-76779418D01*
X189429375Y-77270625D01*
X189748478Y-77483843D01*
X189618642Y-77544817D01*
X189228355Y-77973076D01*
X189058524Y-78383110D01*
X189179845Y-78613000D01*
X190373000Y-78613000D01*
X190373000Y-78593000D01*
X190627000Y-78593000D01*
X190627000Y-78613000D01*
X191820155Y-78613000D01*
X191888642Y-78483223D01*
X194133035Y-78483223D01*
X194160222Y-79053454D01*
X194326136Y-79454005D01*
X194572255Y-79528139D01*
X195400395Y-78700000D01*
X195759605Y-78700000D01*
X196587745Y-79528139D01*
X196833864Y-79454005D01*
X197026965Y-78916777D01*
X196999778Y-78346546D01*
X196833864Y-77945995D01*
X196587745Y-77871861D01*
X195759605Y-78700000D01*
X195400395Y-78700000D01*
X194572255Y-77871861D01*
X194326136Y-77945995D01*
X194133035Y-78483223D01*
X191888642Y-78483223D01*
X191941476Y-78383110D01*
X191771645Y-77973076D01*
X191381358Y-77544817D01*
X191251522Y-77483843D01*
X191570625Y-77270625D01*
X191778178Y-76960000D01*
X194341570Y-76960000D01*
X194363466Y-77012862D01*
X194767138Y-77416534D01*
X194832299Y-77443525D01*
X194825995Y-77446136D01*
X194751861Y-77692255D01*
X195580000Y-78520395D01*
X196408139Y-77692255D01*
X196334005Y-77446136D01*
X196327254Y-77443710D01*
X196392862Y-77416534D01*
X196796534Y-77012862D01*
X196817602Y-76962000D01*
X197892560Y-76962000D01*
X197892560Y-77050000D01*
X197941843Y-77297765D01*
X198082191Y-77507809D01*
X198292235Y-77648157D01*
X198540000Y-77697440D01*
X200240000Y-77697440D01*
X200487765Y-77648157D01*
X200697809Y-77507809D01*
X200838157Y-77297765D01*
X200887440Y-77050000D01*
X200887440Y-75350000D01*
X200838157Y-75102235D01*
X200697809Y-74892191D01*
X200487765Y-74751843D01*
X200240000Y-74702560D01*
X198540000Y-74702560D01*
X198292235Y-74751843D01*
X198082191Y-74892191D01*
X197941843Y-75102235D01*
X197892560Y-75350000D01*
X197892560Y-75438000D01*
X196817602Y-75438000D01*
X196796534Y-75387138D01*
X196392862Y-74983466D01*
X195865439Y-74765000D01*
X195294561Y-74765000D01*
X194767138Y-74983466D01*
X194363466Y-75387138D01*
X194341570Y-75440000D01*
X191778178Y-75440000D01*
X191570625Y-75129375D01*
X191552381Y-75117184D01*
X191597765Y-75108157D01*
X191807809Y-74967809D01*
X191948157Y-74757765D01*
X191997440Y-74510000D01*
X191997440Y-72810000D01*
X191948157Y-72562235D01*
X191807809Y-72352191D01*
X191597765Y-72211843D01*
X191350000Y-72162560D01*
X189650000Y-72162560D01*
X189402235Y-72211843D01*
X189192191Y-72352191D01*
X189051843Y-72562235D01*
X189002560Y-72810000D01*
X189002560Y-72900000D01*
X178177440Y-72900000D01*
X178177440Y-72660000D01*
X178128157Y-72412235D01*
X177987809Y-72202191D01*
X177777765Y-72061843D01*
X177530000Y-72012560D01*
X175530000Y-72012560D01*
X175282235Y-72061843D01*
X175072191Y-72202191D01*
X174931843Y-72412235D01*
X174882560Y-72660000D01*
X174882560Y-72900000D01*
X163798430Y-72900000D01*
X163776534Y-72847138D01*
X163372862Y-72443466D01*
X162845439Y-72225000D01*
X162274561Y-72225000D01*
X161747138Y-72443466D01*
X161343466Y-72847138D01*
X161321570Y-72900000D01*
X151507440Y-72900000D01*
X151507440Y-72660000D01*
X151458157Y-72412235D01*
X151317809Y-72202191D01*
X151107765Y-72061843D01*
X150860000Y-72012560D01*
X148860000Y-72012560D01*
X148612235Y-72061843D01*
X148402191Y-72202191D01*
X148261843Y-72412235D01*
X148212560Y-72660000D01*
X148212560Y-72900000D01*
X136167440Y-72900000D01*
X136167440Y-72760000D01*
X136118157Y-72512235D01*
X135977809Y-72302191D01*
X135767765Y-72161843D01*
X135520000Y-72112560D01*
X133720000Y-72112560D01*
X133472235Y-72161843D01*
X133262191Y-72302191D01*
X133121843Y-72512235D01*
X133072560Y-72760000D01*
X128244768Y-72760000D01*
X128106673Y-72553327D01*
X127598927Y-72214062D01*
X127151182Y-72125000D01*
X126848818Y-72125000D01*
X126401073Y-72214062D01*
X125893327Y-72553327D01*
X125663024Y-72898000D01*
X121645047Y-72898000D01*
X121570000Y-72883072D01*
X121494953Y-72898000D01*
X121494952Y-72898000D01*
X121272683Y-72942212D01*
X121020629Y-73110629D01*
X120978118Y-73174251D01*
X115359375Y-78792995D01*
X115195222Y-78725000D01*
X114544778Y-78725000D01*
X113943847Y-78973914D01*
X113483914Y-79433847D01*
X113235000Y-80034778D01*
X92505000Y-80034778D01*
X92256086Y-79433847D01*
X91796153Y-78973914D01*
X91195222Y-78725000D01*
X90544778Y-78725000D01*
X89943847Y-78973914D01*
X89483914Y-79433847D01*
X89415920Y-79598000D01*
X80865630Y-79598000D01*
X78795000Y-77527371D01*
X78795000Y-75823586D01*
X78013243Y-73936257D01*
X76568744Y-72491758D01*
X74681415Y-71710001D01*
X72638585Y-71710001D01*
X70751256Y-72491758D01*
X69306757Y-73936257D01*
X68525000Y-75823586D01*
X64210000Y-75823586D01*
X64210000Y-67595750D01*
X197905000Y-67595750D01*
X197905000Y-68286310D01*
X198001673Y-68519699D01*
X198180302Y-68698327D01*
X198413691Y-68795000D01*
X199104250Y-68795000D01*
X199263000Y-68636250D01*
X199263000Y-67437000D01*
X199517000Y-67437000D01*
X199517000Y-68636250D01*
X199675750Y-68795000D01*
X200366309Y-68795000D01*
X200599698Y-68698327D01*
X200778327Y-68519699D01*
X200875000Y-68286310D01*
X200875000Y-67595750D01*
X200716250Y-67437000D01*
X199517000Y-67437000D01*
X199263000Y-67437000D01*
X198063750Y-67437000D01*
X197905000Y-67595750D01*
X64210000Y-67595750D01*
X64210000Y-66333690D01*
X197905000Y-66333690D01*
X197905000Y-67024250D01*
X198063750Y-67183000D01*
X199263000Y-67183000D01*
X199263000Y-65983750D01*
X199517000Y-65983750D01*
X199517000Y-67183000D01*
X200716250Y-67183000D01*
X200875000Y-67024250D01*
X200875000Y-66333690D01*
X200778327Y-66100301D01*
X200599698Y-65921673D01*
X200366309Y-65825000D01*
X199675750Y-65825000D01*
X199517000Y-65983750D01*
X199263000Y-65983750D01*
X199104250Y-65825000D01*
X198413691Y-65825000D01*
X198180302Y-65921673D01*
X198001673Y-66100301D01*
X197905000Y-66333690D01*
X64210000Y-66333690D01*
X64210000Y-62940000D01*
X210110001Y-62940000D01*
X210110000Y-112320000D01*
X210110000Y-112320000D01*
G37*
X210110000Y-112320000D02*
X64210000Y-112320000D01*
X64210000Y-100578585D01*
X68525000Y-100578585D01*
X68525000Y-102621415D01*
X69306757Y-104508744D01*
X70751256Y-105953243D01*
X72638585Y-106735000D01*
X74681415Y-106735000D01*
X76568744Y-105953243D01*
X78013243Y-104508744D01*
X78795000Y-102621415D01*
X78795000Y-100615750D01*
X197905000Y-100615750D01*
X197905000Y-101306310D01*
X198001673Y-101539699D01*
X198180302Y-101718327D01*
X198413691Y-101815000D01*
X199104250Y-101815000D01*
X199263000Y-101656250D01*
X199263000Y-100457000D01*
X199517000Y-100457000D01*
X199517000Y-101656250D01*
X199675750Y-101815000D01*
X200366309Y-101815000D01*
X200599698Y-101718327D01*
X200778327Y-101539699D01*
X200875000Y-101306310D01*
X200875000Y-100615750D01*
X200716250Y-100457000D01*
X199517000Y-100457000D01*
X199263000Y-100457000D01*
X198063750Y-100457000D01*
X197905000Y-100615750D01*
X78795000Y-100615750D01*
X78795000Y-100578585D01*
X78287633Y-99353690D01*
X197905000Y-99353690D01*
X197905000Y-100044250D01*
X198063750Y-100203000D01*
X199263000Y-100203000D01*
X199263000Y-99003750D01*
X199517000Y-99003750D01*
X199517000Y-100203000D01*
X200716250Y-100203000D01*
X200875000Y-100044250D01*
X200875000Y-99353690D01*
X200778327Y-99120301D01*
X200599698Y-98941673D01*
X200366309Y-98845000D01*
X199675750Y-98845000D01*
X199517000Y-99003750D01*
X199263000Y-99003750D01*
X199104250Y-98845000D01*
X198413691Y-98845000D01*
X198180302Y-98941673D01*
X198001673Y-99120301D01*
X197905000Y-99353690D01*
X78287633Y-99353690D01*
X78013243Y-98691256D01*
X77829809Y-98507822D01*
X83215631Y-93122000D01*
X89415920Y-93122000D01*
X89483914Y-93286153D01*
X89943847Y-93746086D01*
X90544778Y-93995000D01*
X91195222Y-93995000D01*
X91796153Y-93746086D01*
X92256086Y-93286153D01*
X92505000Y-92685222D01*
X92505000Y-92034778D01*
X113235000Y-92034778D01*
X113235000Y-92685222D01*
X113483914Y-93286153D01*
X113943847Y-93746086D01*
X114544778Y-93995000D01*
X115195222Y-93995000D01*
X115359375Y-93927005D01*
X119708118Y-98275749D01*
X119750629Y-98339371D01*
X120002683Y-98507788D01*
X120224952Y-98552000D01*
X120224953Y-98552000D01*
X120300000Y-98566928D01*
X120375047Y-98552000D01*
X125663024Y-98552000D01*
X125893327Y-98896673D01*
X126401073Y-99235938D01*
X126848818Y-99325000D01*
X127151182Y-99325000D01*
X127598927Y-99235938D01*
X128106673Y-98896673D01*
X128445938Y-98388927D01*
X128565072Y-97790000D01*
X128445938Y-97191073D01*
X128106673Y-96683327D01*
X127733972Y-96434296D01*
X127715904Y-96343463D01*
X127547929Y-96092071D01*
X127296536Y-95924096D01*
X127000000Y-95865111D01*
X126703463Y-95924096D01*
X126452071Y-96092071D01*
X126284096Y-96343464D01*
X126266028Y-96434296D01*
X125893327Y-96683327D01*
X125663024Y-97028000D01*
X120615631Y-97028000D01*
X116437005Y-92849375D01*
X116505000Y-92685222D01*
X116505000Y-92034778D01*
X116256086Y-91433847D01*
X115796153Y-90973914D01*
X115195222Y-90725000D01*
X114544778Y-90725000D01*
X113943847Y-90973914D01*
X113483914Y-91433847D01*
X113235000Y-92034778D01*
X92505000Y-92034778D01*
X92256086Y-91433847D01*
X91796153Y-90973914D01*
X91195222Y-90725000D01*
X90544778Y-90725000D01*
X89943847Y-90973914D01*
X89483914Y-91433847D01*
X89415920Y-91598000D01*
X82975047Y-91598000D01*
X82900000Y-91583072D01*
X82824953Y-91598000D01*
X82824952Y-91598000D01*
X82602683Y-91642212D01*
X82350629Y-91810629D01*
X82308118Y-91874251D01*
X76752178Y-97430191D01*
X76568744Y-97246757D01*
X74681415Y-96465000D01*
X72638585Y-96465000D01*
X70751256Y-97246757D01*
X69306757Y-98691256D01*
X68525000Y-100578585D01*
X64210000Y-100578585D01*
X64210000Y-87512532D01*
X113897073Y-87512532D01*
X113995736Y-87779387D01*
X114605461Y-88005908D01*
X115255460Y-87981856D01*
X115744264Y-87779387D01*
X115842927Y-87512532D01*
X114870000Y-86539605D01*
X113897073Y-87512532D01*
X64210000Y-87512532D01*
X64210000Y-86095461D01*
X113224092Y-86095461D01*
X113248144Y-86745460D01*
X113450613Y-87234264D01*
X113717468Y-87332927D01*
X114690395Y-86360000D01*
X115049605Y-86360000D01*
X116022532Y-87332927D01*
X116289387Y-87234264D01*
X116515908Y-86624539D01*
X116491856Y-85974540D01*
X116289387Y-85485736D01*
X116022532Y-85387073D01*
X115049605Y-86360000D01*
X114690395Y-86360000D01*
X113717468Y-85387073D01*
X113450613Y-85485736D01*
X113224092Y-86095461D01*
X64210000Y-86095461D01*
X64210000Y-85207468D01*
X113897073Y-85207468D01*
X114870000Y-86180395D01*
X115842927Y-85207468D01*
X115744264Y-84940613D01*
X115134539Y-84714092D01*
X114484540Y-84738144D01*
X113995736Y-84940613D01*
X113897073Y-85207468D01*
X64210000Y-85207468D01*
X64210000Y-75823586D01*
X68525000Y-75823586D01*
X68525000Y-77866416D01*
X69306757Y-79753745D01*
X70751256Y-81198244D01*
X72638585Y-81980001D01*
X74681415Y-81980001D01*
X76568744Y-81198244D01*
X78013243Y-79753745D01*
X78263043Y-79150674D01*
X79958117Y-80845749D01*
X80000628Y-80909371D01*
X80252682Y-81077788D01*
X80474951Y-81122000D01*
X80474952Y-81122000D01*
X80549999Y-81136928D01*
X80625046Y-81122000D01*
X89415920Y-81122000D01*
X89483914Y-81286153D01*
X89943847Y-81746086D01*
X90544778Y-81995000D01*
X91195222Y-81995000D01*
X91796153Y-81746086D01*
X92256086Y-81286153D01*
X92505000Y-80685222D01*
X92505000Y-80034778D01*
X113235000Y-80034778D01*
X113235000Y-80685222D01*
X113483914Y-81286153D01*
X113943847Y-81746086D01*
X114544778Y-81995000D01*
X115195222Y-81995000D01*
X115796153Y-81746086D01*
X116256086Y-81286153D01*
X116505000Y-80685222D01*
X116505000Y-80034778D01*
X116437005Y-79870625D01*
X121885631Y-74422000D01*
X125663024Y-74422000D01*
X125893327Y-74766673D01*
X126266028Y-75015704D01*
X126284096Y-75106536D01*
X126452071Y-75357929D01*
X126703463Y-75525904D01*
X127000000Y-75584889D01*
X127296536Y-75525904D01*
X127547929Y-75357929D01*
X127715904Y-75106537D01*
X127733972Y-75015704D01*
X128106673Y-74766673D01*
X128445938Y-74258927D01*
X128565072Y-73660000D01*
X128445938Y-73061073D01*
X128244768Y-72760000D01*
X133072560Y-72760000D01*
X133072560Y-74560000D01*
X133121843Y-74807765D01*
X133262191Y-75017809D01*
X133472235Y-75158157D01*
X133720000Y-75207440D01*
X133858000Y-75207440D01*
X133858001Y-96242560D01*
X133720000Y-96242560D01*
X133472235Y-96291843D01*
X133262191Y-96432191D01*
X133121843Y-96642235D01*
X133072560Y-96890000D01*
X133072560Y-98690000D01*
X133121843Y-98937765D01*
X133262191Y-99147809D01*
X133472235Y-99288157D01*
X133720000Y-99337440D01*
X135520000Y-99337440D01*
X135767765Y-99288157D01*
X135977809Y-99147809D01*
X136118157Y-98937765D01*
X136167440Y-98690000D01*
X136167440Y-96890000D01*
X136118157Y-96642235D01*
X135977809Y-96432191D01*
X135767765Y-96291843D01*
X135520000Y-96242560D01*
X135382000Y-96242560D01*
X135382000Y-93782532D01*
X175557073Y-93782532D01*
X175655736Y-94049387D01*
X176265461Y-94275908D01*
X176915460Y-94251856D01*
X177404264Y-94049387D01*
X177502927Y-93782532D01*
X176530000Y-92809605D01*
X175557073Y-93782532D01*
X135382000Y-93782532D01*
X135382000Y-92365461D01*
X174884092Y-92365461D01*
X174908144Y-93015460D01*
X175110613Y-93504264D01*
X175377468Y-93602927D01*
X176350395Y-92630000D01*
X176709605Y-92630000D01*
X177682532Y-93602927D01*
X177949387Y-93504264D01*
X178111877Y-93066890D01*
X189058524Y-93066890D01*
X189228355Y-93476924D01*
X189618642Y-93905183D01*
X190143108Y-94151486D01*
X190373000Y-94030819D01*
X190373000Y-92837000D01*
X190627000Y-92837000D01*
X190627000Y-94030819D01*
X190856892Y-94151486D01*
X191381358Y-93905183D01*
X191588629Y-93677745D01*
X194751861Y-93677745D01*
X194825995Y-93923864D01*
X195363223Y-94116965D01*
X195933454Y-94089778D01*
X196334005Y-93923864D01*
X196408139Y-93677745D01*
X195580000Y-92849605D01*
X194751861Y-93677745D01*
X191588629Y-93677745D01*
X191771645Y-93476924D01*
X191941476Y-93066890D01*
X191820155Y-92837000D01*
X190627000Y-92837000D01*
X190373000Y-92837000D01*
X189179845Y-92837000D01*
X189058524Y-93066890D01*
X178111877Y-93066890D01*
X178175908Y-92894539D01*
X178151856Y-92244540D01*
X177949387Y-91755736D01*
X177682532Y-91657073D01*
X176709605Y-92630000D01*
X176350395Y-92630000D01*
X175377468Y-91657073D01*
X175110613Y-91755736D01*
X174884092Y-92365461D01*
X135382000Y-92365461D01*
X135382000Y-91477468D01*
X175557073Y-91477468D01*
X176530000Y-92450395D01*
X177502927Y-91477468D01*
X177404264Y-91210613D01*
X176794539Y-90984092D01*
X176144540Y-91008144D01*
X175655736Y-91210613D01*
X175557073Y-91477468D01*
X135382000Y-91477468D01*
X135382000Y-79812532D01*
X148887073Y-79812532D01*
X148985736Y-80079387D01*
X149595461Y-80305908D01*
X150245460Y-80281856D01*
X150734264Y-80079387D01*
X150832927Y-79812532D01*
X149860000Y-78839605D01*
X148887073Y-79812532D01*
X135382000Y-79812532D01*
X135382000Y-78395461D01*
X148214092Y-78395461D01*
X148238144Y-79045460D01*
X148440613Y-79534264D01*
X148707468Y-79632927D01*
X149680395Y-78660000D01*
X150039605Y-78660000D01*
X151012532Y-79632927D01*
X151279387Y-79534264D01*
X151505908Y-78924539D01*
X151481856Y-78274540D01*
X151279387Y-77785736D01*
X151012532Y-77687073D01*
X150039605Y-78660000D01*
X149680395Y-78660000D01*
X148707468Y-77687073D01*
X148440613Y-77785736D01*
X148214092Y-78395461D01*
X135382000Y-78395461D01*
X135382000Y-77507468D01*
X148887073Y-77507468D01*
X149860000Y-78480395D01*
X150832927Y-77507468D01*
X150734264Y-77240613D01*
X150538126Y-77167745D01*
X161731861Y-77167745D01*
X161805995Y-77413864D01*
X162343223Y-77606965D01*
X162913454Y-77579778D01*
X163314005Y-77413864D01*
X163388139Y-77167745D01*
X162560000Y-76339605D01*
X161731861Y-77167745D01*
X150538126Y-77167745D01*
X150124539Y-77014092D01*
X149474540Y-77038144D01*
X148985736Y-77240613D01*
X148887073Y-77507468D01*
X135382000Y-77507468D01*
X135382000Y-75943223D01*
X161113035Y-75943223D01*
X161140222Y-76513454D01*
X161306136Y-76914005D01*
X161552255Y-76988139D01*
X162380395Y-76160000D01*
X162739605Y-76160000D01*
X163567745Y-76988139D01*
X163813864Y-76914005D01*
X164006965Y-76376777D01*
X163979778Y-75806546D01*
X163813864Y-75405995D01*
X163567745Y-75331861D01*
X162739605Y-76160000D01*
X162380395Y-76160000D01*
X161552255Y-75331861D01*
X161306136Y-75405995D01*
X161113035Y-75943223D01*
X135382000Y-75943223D01*
X135382000Y-75207440D01*
X135520000Y-75207440D01*
X135767765Y-75158157D01*
X135977809Y-75017809D01*
X136118157Y-74807765D01*
X136167440Y-74560000D01*
X136167440Y-74420000D01*
X148212560Y-74420000D01*
X148212560Y-74660000D01*
X148261843Y-74907765D01*
X148402191Y-75117809D01*
X148612235Y-75258157D01*
X148860000Y-75307440D01*
X150860000Y-75307440D01*
X151107765Y-75258157D01*
X151317809Y-75117809D01*
X151458157Y-74907765D01*
X151507440Y-74660000D01*
X151507440Y-74420000D01*
X161321570Y-74420000D01*
X161343466Y-74472862D01*
X161747138Y-74876534D01*
X161812299Y-74903525D01*
X161805995Y-74906136D01*
X161731861Y-75152255D01*
X162560000Y-75980395D01*
X163388139Y-75152255D01*
X163314005Y-74906136D01*
X163307254Y-74903710D01*
X163372862Y-74876534D01*
X163776534Y-74472862D01*
X163798430Y-74420000D01*
X174882560Y-74420000D01*
X174882560Y-74660000D01*
X174931843Y-74907765D01*
X175072191Y-75117809D01*
X175177214Y-75187984D01*
X172235530Y-78129669D01*
X172172071Y-78172071D01*
X172004096Y-78423464D01*
X171960000Y-78645149D01*
X171960000Y-78645153D01*
X171945112Y-78720000D01*
X171960000Y-78794847D01*
X171960001Y-83745148D01*
X171945112Y-83820000D01*
X171960001Y-83894852D01*
X172004097Y-84116537D01*
X172172072Y-84367929D01*
X172235528Y-84410329D01*
X174882560Y-87057362D01*
X174882560Y-88630000D01*
X174931843Y-88877765D01*
X175072191Y-89087809D01*
X175282235Y-89228157D01*
X175530000Y-89277440D01*
X177530000Y-89277440D01*
X177777765Y-89228157D01*
X177987809Y-89087809D01*
X178128157Y-88877765D01*
X178177440Y-88630000D01*
X178177440Y-88390000D01*
X189002560Y-88390000D01*
X189002560Y-88480000D01*
X189051843Y-88727765D01*
X189192191Y-88937809D01*
X189402235Y-89078157D01*
X189447619Y-89087184D01*
X189429375Y-89099375D01*
X189101161Y-89590582D01*
X188985908Y-90170000D01*
X189101161Y-90749418D01*
X189429375Y-91240625D01*
X189748478Y-91453843D01*
X189618642Y-91514817D01*
X189228355Y-91943076D01*
X189058524Y-92353110D01*
X189179845Y-92583000D01*
X190373000Y-92583000D01*
X190373000Y-92563000D01*
X190627000Y-92563000D01*
X190627000Y-92583000D01*
X191820155Y-92583000D01*
X191888642Y-92453223D01*
X194133035Y-92453223D01*
X194160222Y-93023454D01*
X194326136Y-93424005D01*
X194572255Y-93498139D01*
X195400395Y-92670000D01*
X195759605Y-92670000D01*
X196587745Y-93498139D01*
X196833864Y-93424005D01*
X197026965Y-92886777D01*
X196999778Y-92316546D01*
X196833864Y-91915995D01*
X196587745Y-91841861D01*
X195759605Y-92670000D01*
X195400395Y-92670000D01*
X194572255Y-91841861D01*
X194326136Y-91915995D01*
X194133035Y-92453223D01*
X191888642Y-92453223D01*
X191941476Y-92353110D01*
X191771645Y-91943076D01*
X191381358Y-91514817D01*
X191251522Y-91453843D01*
X191570625Y-91240625D01*
X191778178Y-90930000D01*
X194341570Y-90930000D01*
X194363466Y-90982862D01*
X194767138Y-91386534D01*
X194832299Y-91413525D01*
X194825995Y-91416136D01*
X194751861Y-91662255D01*
X195580000Y-92490395D01*
X196408139Y-91662255D01*
X196334005Y-91416136D01*
X196327254Y-91413710D01*
X196392862Y-91386534D01*
X196796534Y-90982862D01*
X196817602Y-90932000D01*
X197892560Y-90932000D01*
X197892560Y-91020000D01*
X197941843Y-91267765D01*
X198082191Y-91477809D01*
X198292235Y-91618157D01*
X198540000Y-91667440D01*
X200240000Y-91667440D01*
X200487765Y-91618157D01*
X200697809Y-91477809D01*
X200838157Y-91267765D01*
X200887440Y-91020000D01*
X200887440Y-89320000D01*
X200838157Y-89072235D01*
X200697809Y-88862191D01*
X200487765Y-88721843D01*
X200240000Y-88672560D01*
X198540000Y-88672560D01*
X198292235Y-88721843D01*
X198082191Y-88862191D01*
X197941843Y-89072235D01*
X197892560Y-89320000D01*
X197892560Y-89408000D01*
X196817602Y-89408000D01*
X196796534Y-89357138D01*
X196392862Y-88953466D01*
X195865439Y-88735000D01*
X195294561Y-88735000D01*
X194767138Y-88953466D01*
X194363466Y-89357138D01*
X194341570Y-89410000D01*
X191778178Y-89410000D01*
X191570625Y-89099375D01*
X191552381Y-89087184D01*
X191597765Y-89078157D01*
X191807809Y-88937809D01*
X191948157Y-88727765D01*
X191997440Y-88480000D01*
X191997440Y-86780000D01*
X191948157Y-86532235D01*
X191807809Y-86322191D01*
X191597765Y-86181843D01*
X191350000Y-86132560D01*
X189650000Y-86132560D01*
X189402235Y-86181843D01*
X189192191Y-86322191D01*
X189051843Y-86532235D01*
X189002560Y-86780000D01*
X189002560Y-86870000D01*
X178177440Y-86870000D01*
X178177440Y-86630000D01*
X178128157Y-86382235D01*
X177987809Y-86172191D01*
X177777765Y-86031843D01*
X177530000Y-85982560D01*
X175957362Y-85982560D01*
X173480000Y-83505199D01*
X173480000Y-79812532D01*
X175557073Y-79812532D01*
X175655736Y-80079387D01*
X176265461Y-80305908D01*
X176915460Y-80281856D01*
X177404264Y-80079387D01*
X177502927Y-79812532D01*
X176530000Y-78839605D01*
X175557073Y-79812532D01*
X173480000Y-79812532D01*
X173480000Y-79034801D01*
X174119340Y-78395461D01*
X174884092Y-78395461D01*
X174908144Y-79045460D01*
X175110613Y-79534264D01*
X175377468Y-79632927D01*
X176350395Y-78660000D01*
X176709605Y-78660000D01*
X177682532Y-79632927D01*
X177949387Y-79534264D01*
X178111877Y-79096890D01*
X189058524Y-79096890D01*
X189228355Y-79506924D01*
X189618642Y-79935183D01*
X190143108Y-80181486D01*
X190373000Y-80060819D01*
X190373000Y-78867000D01*
X190627000Y-78867000D01*
X190627000Y-80060819D01*
X190856892Y-80181486D01*
X191381358Y-79935183D01*
X191588629Y-79707745D01*
X194751861Y-79707745D01*
X194825995Y-79953864D01*
X195363223Y-80146965D01*
X195933454Y-80119778D01*
X196334005Y-79953864D01*
X196408139Y-79707745D01*
X195580000Y-78879605D01*
X194751861Y-79707745D01*
X191588629Y-79707745D01*
X191771645Y-79506924D01*
X191941476Y-79096890D01*
X191820155Y-78867000D01*
X190627000Y-78867000D01*
X190373000Y-78867000D01*
X189179845Y-78867000D01*
X189058524Y-79096890D01*
X178111877Y-79096890D01*
X178175908Y-78924539D01*
X178151856Y-78274540D01*
X177949387Y-77785736D01*
X177682532Y-77687073D01*
X176709605Y-78660000D01*
X176350395Y-78660000D01*
X175377468Y-77687073D01*
X175110613Y-77785736D01*
X174884092Y-78395461D01*
X174119340Y-78395461D01*
X175007333Y-77507468D01*
X175557073Y-77507468D01*
X176530000Y-78480395D01*
X177502927Y-77507468D01*
X177404264Y-77240613D01*
X176794539Y-77014092D01*
X176144540Y-77038144D01*
X175655736Y-77240613D01*
X175557073Y-77507468D01*
X175007333Y-77507468D01*
X177014473Y-75500329D01*
X177077929Y-75457929D01*
X177178483Y-75307440D01*
X177530000Y-75307440D01*
X177777765Y-75258157D01*
X177987809Y-75117809D01*
X178128157Y-74907765D01*
X178177440Y-74660000D01*
X178177440Y-74420000D01*
X189002560Y-74420000D01*
X189002560Y-74510000D01*
X189051843Y-74757765D01*
X189192191Y-74967809D01*
X189402235Y-75108157D01*
X189447619Y-75117184D01*
X189429375Y-75129375D01*
X189101161Y-75620582D01*
X188985908Y-76200000D01*
X189101161Y-76779418D01*
X189429375Y-77270625D01*
X189748478Y-77483843D01*
X189618642Y-77544817D01*
X189228355Y-77973076D01*
X189058524Y-78383110D01*
X189179845Y-78613000D01*
X190373000Y-78613000D01*
X190373000Y-78593000D01*
X190627000Y-78593000D01*
X190627000Y-78613000D01*
X191820155Y-78613000D01*
X191888642Y-78483223D01*
X194133035Y-78483223D01*
X194160222Y-79053454D01*
X194326136Y-79454005D01*
X194572255Y-79528139D01*
X195400395Y-78700000D01*
X195759605Y-78700000D01*
X196587745Y-79528139D01*
X196833864Y-79454005D01*
X197026965Y-78916777D01*
X196999778Y-78346546D01*
X196833864Y-77945995D01*
X196587745Y-77871861D01*
X195759605Y-78700000D01*
X195400395Y-78700000D01*
X194572255Y-77871861D01*
X194326136Y-77945995D01*
X194133035Y-78483223D01*
X191888642Y-78483223D01*
X191941476Y-78383110D01*
X191771645Y-77973076D01*
X191381358Y-77544817D01*
X191251522Y-77483843D01*
X191570625Y-77270625D01*
X191778178Y-76960000D01*
X194341570Y-76960000D01*
X194363466Y-77012862D01*
X194767138Y-77416534D01*
X194832299Y-77443525D01*
X194825995Y-77446136D01*
X194751861Y-77692255D01*
X195580000Y-78520395D01*
X196408139Y-77692255D01*
X196334005Y-77446136D01*
X196327254Y-77443710D01*
X196392862Y-77416534D01*
X196796534Y-77012862D01*
X196817602Y-76962000D01*
X197892560Y-76962000D01*
X197892560Y-77050000D01*
X197941843Y-77297765D01*
X198082191Y-77507809D01*
X198292235Y-77648157D01*
X198540000Y-77697440D01*
X200240000Y-77697440D01*
X200487765Y-77648157D01*
X200697809Y-77507809D01*
X200838157Y-77297765D01*
X200887440Y-77050000D01*
X200887440Y-75350000D01*
X200838157Y-75102235D01*
X200697809Y-74892191D01*
X200487765Y-74751843D01*
X200240000Y-74702560D01*
X198540000Y-74702560D01*
X198292235Y-74751843D01*
X198082191Y-74892191D01*
X197941843Y-75102235D01*
X197892560Y-75350000D01*
X197892560Y-75438000D01*
X196817602Y-75438000D01*
X196796534Y-75387138D01*
X196392862Y-74983466D01*
X195865439Y-74765000D01*
X195294561Y-74765000D01*
X194767138Y-74983466D01*
X194363466Y-75387138D01*
X194341570Y-75440000D01*
X191778178Y-75440000D01*
X191570625Y-75129375D01*
X191552381Y-75117184D01*
X191597765Y-75108157D01*
X191807809Y-74967809D01*
X191948157Y-74757765D01*
X191997440Y-74510000D01*
X191997440Y-72810000D01*
X191948157Y-72562235D01*
X191807809Y-72352191D01*
X191597765Y-72211843D01*
X191350000Y-72162560D01*
X189650000Y-72162560D01*
X189402235Y-72211843D01*
X189192191Y-72352191D01*
X189051843Y-72562235D01*
X189002560Y-72810000D01*
X189002560Y-72900000D01*
X178177440Y-72900000D01*
X178177440Y-72660000D01*
X178128157Y-72412235D01*
X177987809Y-72202191D01*
X177777765Y-72061843D01*
X177530000Y-72012560D01*
X175530000Y-72012560D01*
X175282235Y-72061843D01*
X175072191Y-72202191D01*
X174931843Y-72412235D01*
X174882560Y-72660000D01*
X174882560Y-72900000D01*
X163798430Y-72900000D01*
X163776534Y-72847138D01*
X163372862Y-72443466D01*
X162845439Y-72225000D01*
X162274561Y-72225000D01*
X161747138Y-72443466D01*
X161343466Y-72847138D01*
X161321570Y-72900000D01*
X151507440Y-72900000D01*
X151507440Y-72660000D01*
X151458157Y-72412235D01*
X151317809Y-72202191D01*
X151107765Y-72061843D01*
X150860000Y-72012560D01*
X148860000Y-72012560D01*
X148612235Y-72061843D01*
X148402191Y-72202191D01*
X148261843Y-72412235D01*
X148212560Y-72660000D01*
X148212560Y-72900000D01*
X136167440Y-72900000D01*
X136167440Y-72760000D01*
X136118157Y-72512235D01*
X135977809Y-72302191D01*
X135767765Y-72161843D01*
X135520000Y-72112560D01*
X133720000Y-72112560D01*
X133472235Y-72161843D01*
X133262191Y-72302191D01*
X133121843Y-72512235D01*
X133072560Y-72760000D01*
X128244768Y-72760000D01*
X128106673Y-72553327D01*
X127598927Y-72214062D01*
X127151182Y-72125000D01*
X126848818Y-72125000D01*
X126401073Y-72214062D01*
X125893327Y-72553327D01*
X125663024Y-72898000D01*
X121645047Y-72898000D01*
X121570000Y-72883072D01*
X121494953Y-72898000D01*
X121494952Y-72898000D01*
X121272683Y-72942212D01*
X121020629Y-73110629D01*
X120978118Y-73174251D01*
X115359375Y-78792995D01*
X115195222Y-78725000D01*
X114544778Y-78725000D01*
X113943847Y-78973914D01*
X113483914Y-79433847D01*
X113235000Y-80034778D01*
X92505000Y-80034778D01*
X92256086Y-79433847D01*
X91796153Y-78973914D01*
X91195222Y-78725000D01*
X90544778Y-78725000D01*
X89943847Y-78973914D01*
X89483914Y-79433847D01*
X89415920Y-79598000D01*
X80865630Y-79598000D01*
X78795000Y-77527371D01*
X78795000Y-75823586D01*
X78013243Y-73936257D01*
X76568744Y-72491758D01*
X74681415Y-71710001D01*
X72638585Y-71710001D01*
X70751256Y-72491758D01*
X69306757Y-73936257D01*
X68525000Y-75823586D01*
X64210000Y-75823586D01*
X64210000Y-67595750D01*
X197905000Y-67595750D01*
X197905000Y-68286310D01*
X198001673Y-68519699D01*
X198180302Y-68698327D01*
X198413691Y-68795000D01*
X199104250Y-68795000D01*
X199263000Y-68636250D01*
X199263000Y-67437000D01*
X199517000Y-67437000D01*
X199517000Y-68636250D01*
X199675750Y-68795000D01*
X200366309Y-68795000D01*
X200599698Y-68698327D01*
X200778327Y-68519699D01*
X200875000Y-68286310D01*
X200875000Y-67595750D01*
X200716250Y-67437000D01*
X199517000Y-67437000D01*
X199263000Y-67437000D01*
X198063750Y-67437000D01*
X197905000Y-67595750D01*
X64210000Y-67595750D01*
X64210000Y-66333690D01*
X197905000Y-66333690D01*
X197905000Y-67024250D01*
X198063750Y-67183000D01*
X199263000Y-67183000D01*
X199263000Y-65983750D01*
X199517000Y-65983750D01*
X199517000Y-67183000D01*
X200716250Y-67183000D01*
X200875000Y-67024250D01*
X200875000Y-66333690D01*
X200778327Y-66100301D01*
X200599698Y-65921673D01*
X200366309Y-65825000D01*
X199675750Y-65825000D01*
X199517000Y-65983750D01*
X199263000Y-65983750D01*
X199104250Y-65825000D01*
X198413691Y-65825000D01*
X198180302Y-65921673D01*
X198001673Y-66100301D01*
X197905000Y-66333690D01*
X64210000Y-66333690D01*
X64210000Y-62940000D01*
X210110001Y-62940000D01*
X210110000Y-112320000D01*
G04 #@! TD*
M02*
