G04 #@! TF.GenerationSoftware,KiCad,Pcbnew,(5.0.1-3-g963ef8bb5)*
G04 #@! TF.CreationDate,2018-11-19T01:27:49+09:00*
G04 #@! TF.ProjectId,firstTraining,6669727374547261696E696E672E6B69,rev?*
G04 #@! TF.SameCoordinates,Original*
G04 #@! TF.FileFunction,Legend,Top*
G04 #@! TF.FilePolarity,Positive*
%FSLAX46Y46*%
G04 Gerber Fmt 4.6, Leading zero omitted, Abs format (unit mm)*
G04 Created by KiCad (PCBNEW (5.0.1-3-g963ef8bb5)) date 2018年11月19日 月曜日 01:27:49*
%MOMM*%
%LPD*%
G01*
G04 APERTURE LIST*
%ADD10C,0.120000*%
%ADD11C,0.150000*%
G04 APERTURE END LIST*
D10*
G04 #@! TO.C,C1*
X174160000Y-93980000D02*
G75*
G03X174160000Y-93980000I-9120000J0D01*
G01*
X165040000Y-84899000D02*
X165040000Y-103061000D01*
X165080000Y-84900000D02*
X165080000Y-103060000D01*
X165120000Y-84900000D02*
X165120000Y-103060000D01*
X165160000Y-84900000D02*
X165160000Y-103060000D01*
X165200000Y-84901000D02*
X165200000Y-103059000D01*
X165240000Y-84902000D02*
X165240000Y-103058000D01*
X165280000Y-84903000D02*
X165280000Y-103057000D01*
X165320000Y-84904000D02*
X165320000Y-103056000D01*
X165360000Y-84905000D02*
X165360000Y-103055000D01*
X165400000Y-84907000D02*
X165400000Y-103053000D01*
X165440000Y-84908000D02*
X165440000Y-103052000D01*
X165480000Y-84910000D02*
X165480000Y-103050000D01*
X165520000Y-84912000D02*
X165520000Y-103048000D01*
X165560000Y-84914000D02*
X165560000Y-103046000D01*
X165600000Y-84917000D02*
X165600000Y-103043000D01*
X165640000Y-84919000D02*
X165640000Y-103041000D01*
X165680000Y-84922000D02*
X165680000Y-103038000D01*
X165720000Y-84925000D02*
X165720000Y-103035000D01*
X165761000Y-84928000D02*
X165761000Y-103032000D01*
X165801000Y-84931000D02*
X165801000Y-103029000D01*
X165841000Y-84935000D02*
X165841000Y-103025000D01*
X165881000Y-84938000D02*
X165881000Y-103022000D01*
X165921000Y-84942000D02*
X165921000Y-103018000D01*
X165961000Y-84946000D02*
X165961000Y-103014000D01*
X166001000Y-84950000D02*
X166001000Y-103010000D01*
X166041000Y-84954000D02*
X166041000Y-103006000D01*
X166081000Y-84959000D02*
X166081000Y-103001000D01*
X166121000Y-84964000D02*
X166121000Y-102996000D01*
X166161000Y-84969000D02*
X166161000Y-102991000D01*
X166201000Y-84974000D02*
X166201000Y-102986000D01*
X166241000Y-84979000D02*
X166241000Y-102981000D01*
X166281000Y-84984000D02*
X166281000Y-102976000D01*
X166321000Y-84990000D02*
X166321000Y-102970000D01*
X166361000Y-84996000D02*
X166361000Y-102964000D01*
X166401000Y-85001000D02*
X166401000Y-102959000D01*
X166441000Y-85008000D02*
X166441000Y-102952000D01*
X166481000Y-85014000D02*
X166481000Y-102946000D01*
X166521000Y-85020000D02*
X166521000Y-102940000D01*
X166561000Y-85027000D02*
X166561000Y-102933000D01*
X166601000Y-85034000D02*
X166601000Y-102926000D01*
X166641000Y-85041000D02*
X166641000Y-102919000D01*
X166681000Y-85048000D02*
X166681000Y-102912000D01*
X166721000Y-85056000D02*
X166721000Y-102904000D01*
X166761000Y-85063000D02*
X166761000Y-102897000D01*
X166801000Y-85071000D02*
X166801000Y-102889000D01*
X166841000Y-85079000D02*
X166841000Y-102881000D01*
X166881000Y-85087000D02*
X166881000Y-102873000D01*
X166921000Y-85095000D02*
X166921000Y-102865000D01*
X166961000Y-85104000D02*
X166961000Y-102856000D01*
X167001000Y-85113000D02*
X167001000Y-102847000D01*
X167041000Y-85122000D02*
X167041000Y-102838000D01*
X167081000Y-85131000D02*
X167081000Y-102829000D01*
X167121000Y-85140000D02*
X167121000Y-102820000D01*
X167161000Y-85149000D02*
X167161000Y-102811000D01*
X167201000Y-85159000D02*
X167201000Y-102801000D01*
X167241000Y-85169000D02*
X167241000Y-102791000D01*
X167281000Y-85179000D02*
X167281000Y-102781000D01*
X167321000Y-85189000D02*
X167321000Y-102771000D01*
X167361000Y-85200000D02*
X167361000Y-92540000D01*
X167361000Y-95420000D02*
X167361000Y-102760000D01*
X167401000Y-85210000D02*
X167401000Y-92540000D01*
X167401000Y-95420000D02*
X167401000Y-102750000D01*
X167441000Y-85221000D02*
X167441000Y-92540000D01*
X167441000Y-95420000D02*
X167441000Y-102739000D01*
X167481000Y-85232000D02*
X167481000Y-92540000D01*
X167481000Y-95420000D02*
X167481000Y-102728000D01*
X167521000Y-85243000D02*
X167521000Y-92540000D01*
X167521000Y-95420000D02*
X167521000Y-102717000D01*
X167561000Y-85255000D02*
X167561000Y-92540000D01*
X167561000Y-95420000D02*
X167561000Y-102705000D01*
X167601000Y-85266000D02*
X167601000Y-92540000D01*
X167601000Y-95420000D02*
X167601000Y-102694000D01*
X167641000Y-85278000D02*
X167641000Y-92540000D01*
X167641000Y-95420000D02*
X167641000Y-102682000D01*
X167681000Y-85290000D02*
X167681000Y-92540000D01*
X167681000Y-95420000D02*
X167681000Y-102670000D01*
X167721000Y-85302000D02*
X167721000Y-92540000D01*
X167721000Y-95420000D02*
X167721000Y-102658000D01*
X167761000Y-85315000D02*
X167761000Y-92540000D01*
X167761000Y-95420000D02*
X167761000Y-102645000D01*
X167801000Y-85327000D02*
X167801000Y-92540000D01*
X167801000Y-95420000D02*
X167801000Y-102633000D01*
X167841000Y-85340000D02*
X167841000Y-92540000D01*
X167841000Y-95420000D02*
X167841000Y-102620000D01*
X167881000Y-85353000D02*
X167881000Y-92540000D01*
X167881000Y-95420000D02*
X167881000Y-102607000D01*
X167921000Y-85366000D02*
X167921000Y-92540000D01*
X167921000Y-95420000D02*
X167921000Y-102594000D01*
X167961000Y-85380000D02*
X167961000Y-92540000D01*
X167961000Y-95420000D02*
X167961000Y-102580000D01*
X168001000Y-85393000D02*
X168001000Y-92540000D01*
X168001000Y-95420000D02*
X168001000Y-102567000D01*
X168041000Y-85407000D02*
X168041000Y-92540000D01*
X168041000Y-95420000D02*
X168041000Y-102553000D01*
X168081000Y-85421000D02*
X168081000Y-92540000D01*
X168081000Y-95420000D02*
X168081000Y-102539000D01*
X168121000Y-85435000D02*
X168121000Y-92540000D01*
X168121000Y-95420000D02*
X168121000Y-102525000D01*
X168161000Y-85450000D02*
X168161000Y-92540000D01*
X168161000Y-95420000D02*
X168161000Y-102510000D01*
X168201000Y-85464000D02*
X168201000Y-92540000D01*
X168201000Y-95420000D02*
X168201000Y-102496000D01*
X168241000Y-85479000D02*
X168241000Y-92540000D01*
X168241000Y-95420000D02*
X168241000Y-102481000D01*
X168281000Y-85494000D02*
X168281000Y-92540000D01*
X168281000Y-95420000D02*
X168281000Y-102466000D01*
X168321000Y-85510000D02*
X168321000Y-92540000D01*
X168321000Y-95420000D02*
X168321000Y-102450000D01*
X168361000Y-85525000D02*
X168361000Y-92540000D01*
X168361000Y-95420000D02*
X168361000Y-102435000D01*
X168401000Y-85541000D02*
X168401000Y-92540000D01*
X168401000Y-95420000D02*
X168401000Y-102419000D01*
X168441000Y-85557000D02*
X168441000Y-92540000D01*
X168441000Y-95420000D02*
X168441000Y-102403000D01*
X168481000Y-85573000D02*
X168481000Y-92540000D01*
X168481000Y-95420000D02*
X168481000Y-102387000D01*
X168521000Y-85590000D02*
X168521000Y-92540000D01*
X168521000Y-95420000D02*
X168521000Y-102370000D01*
X168561000Y-85606000D02*
X168561000Y-92540000D01*
X168561000Y-95420000D02*
X168561000Y-102354000D01*
X168601000Y-85623000D02*
X168601000Y-92540000D01*
X168601000Y-95420000D02*
X168601000Y-102337000D01*
X168641000Y-85640000D02*
X168641000Y-92540000D01*
X168641000Y-95420000D02*
X168641000Y-102320000D01*
X168681000Y-85657000D02*
X168681000Y-92540000D01*
X168681000Y-95420000D02*
X168681000Y-102303000D01*
X168721000Y-85675000D02*
X168721000Y-92540000D01*
X168721000Y-95420000D02*
X168721000Y-102285000D01*
X168761000Y-85693000D02*
X168761000Y-92540000D01*
X168761000Y-95420000D02*
X168761000Y-102267000D01*
X168801000Y-85711000D02*
X168801000Y-92540000D01*
X168801000Y-95420000D02*
X168801000Y-102249000D01*
X168841000Y-85729000D02*
X168841000Y-92540000D01*
X168841000Y-95420000D02*
X168841000Y-102231000D01*
X168881000Y-85747000D02*
X168881000Y-92540000D01*
X168881000Y-95420000D02*
X168881000Y-102213000D01*
X168921000Y-85766000D02*
X168921000Y-92540000D01*
X168921000Y-95420000D02*
X168921000Y-102194000D01*
X168961000Y-85785000D02*
X168961000Y-92540000D01*
X168961000Y-95420000D02*
X168961000Y-102175000D01*
X169001000Y-85804000D02*
X169001000Y-92540000D01*
X169001000Y-95420000D02*
X169001000Y-102156000D01*
X169041000Y-85824000D02*
X169041000Y-92540000D01*
X169041000Y-95420000D02*
X169041000Y-102136000D01*
X169081000Y-85843000D02*
X169081000Y-92540000D01*
X169081000Y-95420000D02*
X169081000Y-102117000D01*
X169121000Y-85863000D02*
X169121000Y-92540000D01*
X169121000Y-95420000D02*
X169121000Y-102097000D01*
X169161000Y-85883000D02*
X169161000Y-92540000D01*
X169161000Y-95420000D02*
X169161000Y-102077000D01*
X169201000Y-85904000D02*
X169201000Y-92540000D01*
X169201000Y-95420000D02*
X169201000Y-102056000D01*
X169241000Y-85924000D02*
X169241000Y-92540000D01*
X169241000Y-95420000D02*
X169241000Y-102036000D01*
X169281000Y-85945000D02*
X169281000Y-92540000D01*
X169281000Y-95420000D02*
X169281000Y-102015000D01*
X169321000Y-85966000D02*
X169321000Y-92540000D01*
X169321000Y-95420000D02*
X169321000Y-101994000D01*
X169361000Y-85988000D02*
X169361000Y-92540000D01*
X169361000Y-95420000D02*
X169361000Y-101972000D01*
X169401000Y-86009000D02*
X169401000Y-92540000D01*
X169401000Y-95420000D02*
X169401000Y-101951000D01*
X169441000Y-86031000D02*
X169441000Y-92540000D01*
X169441000Y-95420000D02*
X169441000Y-101929000D01*
X169481000Y-86053000D02*
X169481000Y-92540000D01*
X169481000Y-95420000D02*
X169481000Y-101907000D01*
X169521000Y-86076000D02*
X169521000Y-92540000D01*
X169521000Y-95420000D02*
X169521000Y-101884000D01*
X169561000Y-86098000D02*
X169561000Y-92540000D01*
X169561000Y-95420000D02*
X169561000Y-101862000D01*
X169601000Y-86121000D02*
X169601000Y-92540000D01*
X169601000Y-95420000D02*
X169601000Y-101839000D01*
X169641000Y-86145000D02*
X169641000Y-92540000D01*
X169641000Y-95420000D02*
X169641000Y-101815000D01*
X169681000Y-86168000D02*
X169681000Y-92540000D01*
X169681000Y-95420000D02*
X169681000Y-101792000D01*
X169721000Y-86192000D02*
X169721000Y-92540000D01*
X169721000Y-95420000D02*
X169721000Y-101768000D01*
X169761000Y-86216000D02*
X169761000Y-92540000D01*
X169761000Y-95420000D02*
X169761000Y-101744000D01*
X169801000Y-86240000D02*
X169801000Y-92540000D01*
X169801000Y-95420000D02*
X169801000Y-101720000D01*
X169841000Y-86265000D02*
X169841000Y-92540000D01*
X169841000Y-95420000D02*
X169841000Y-101695000D01*
X169881000Y-86290000D02*
X169881000Y-92540000D01*
X169881000Y-95420000D02*
X169881000Y-101670000D01*
X169921000Y-86315000D02*
X169921000Y-92540000D01*
X169921000Y-95420000D02*
X169921000Y-101645000D01*
X169961000Y-86340000D02*
X169961000Y-92540000D01*
X169961000Y-95420000D02*
X169961000Y-101620000D01*
X170001000Y-86366000D02*
X170001000Y-92540000D01*
X170001000Y-95420000D02*
X170001000Y-101594000D01*
X170041000Y-86392000D02*
X170041000Y-92540000D01*
X170041000Y-95420000D02*
X170041000Y-101568000D01*
X170081000Y-86419000D02*
X170081000Y-92540000D01*
X170081000Y-95420000D02*
X170081000Y-101541000D01*
X170121000Y-86445000D02*
X170121000Y-92540000D01*
X170121000Y-95420000D02*
X170121000Y-101515000D01*
X170161000Y-86472000D02*
X170161000Y-92540000D01*
X170161000Y-95420000D02*
X170161000Y-101488000D01*
X170201000Y-86500000D02*
X170201000Y-92540000D01*
X170201000Y-95420000D02*
X170201000Y-101460000D01*
X170241000Y-86527000D02*
X170241000Y-101433000D01*
X170281000Y-86555000D02*
X170281000Y-101405000D01*
X170321000Y-86583000D02*
X170321000Y-101377000D01*
X170361000Y-86612000D02*
X170361000Y-101348000D01*
X170401000Y-86641000D02*
X170401000Y-101319000D01*
X170441000Y-86670000D02*
X170441000Y-101290000D01*
X170481000Y-86700000D02*
X170481000Y-101260000D01*
X170521000Y-86730000D02*
X170521000Y-101230000D01*
X170561000Y-86760000D02*
X170561000Y-101200000D01*
X170601000Y-86790000D02*
X170601000Y-101170000D01*
X170641000Y-86821000D02*
X170641000Y-101139000D01*
X170681000Y-86853000D02*
X170681000Y-101107000D01*
X170721000Y-86884000D02*
X170721000Y-101076000D01*
X170761000Y-86916000D02*
X170761000Y-101044000D01*
X170801000Y-86949000D02*
X170801000Y-101011000D01*
X170841000Y-86981000D02*
X170841000Y-100979000D01*
X170881000Y-87015000D02*
X170881000Y-100945000D01*
X170921000Y-87048000D02*
X170921000Y-100912000D01*
X170961000Y-87082000D02*
X170961000Y-100878000D01*
X171001000Y-87116000D02*
X171001000Y-100844000D01*
X171041000Y-87151000D02*
X171041000Y-100809000D01*
X171081000Y-87186000D02*
X171081000Y-100774000D01*
X171121000Y-87222000D02*
X171121000Y-100738000D01*
X171161000Y-87258000D02*
X171161000Y-100702000D01*
X171201000Y-87294000D02*
X171201000Y-100666000D01*
X171241000Y-87331000D02*
X171241000Y-100629000D01*
X171281000Y-87368000D02*
X171281000Y-100592000D01*
X171321000Y-87406000D02*
X171321000Y-100554000D01*
X171361000Y-87444000D02*
X171361000Y-100516000D01*
X171401000Y-87483000D02*
X171401000Y-100477000D01*
X171441000Y-87522000D02*
X171441000Y-100438000D01*
X171481000Y-87562000D02*
X171481000Y-100398000D01*
X171521000Y-87602000D02*
X171521000Y-100358000D01*
X171561000Y-87643000D02*
X171561000Y-100317000D01*
X171601000Y-87684000D02*
X171601000Y-100276000D01*
X171641000Y-87726000D02*
X171641000Y-100234000D01*
X171681000Y-87768000D02*
X171681000Y-100192000D01*
X171721000Y-87810000D02*
X171721000Y-100150000D01*
X171761000Y-87854000D02*
X171761000Y-100106000D01*
X171801000Y-87898000D02*
X171801000Y-100062000D01*
X171841000Y-87942000D02*
X171841000Y-100018000D01*
X171881000Y-87987000D02*
X171881000Y-99973000D01*
X171921000Y-88033000D02*
X171921000Y-99927000D01*
X171961000Y-88079000D02*
X171961000Y-99881000D01*
X172001000Y-88126000D02*
X172001000Y-99834000D01*
X172041000Y-88174000D02*
X172041000Y-99786000D01*
X172081000Y-88222000D02*
X172081000Y-99738000D01*
X172121000Y-88271000D02*
X172121000Y-99689000D01*
X172161000Y-88320000D02*
X172161000Y-99640000D01*
X172201000Y-88371000D02*
X172201000Y-99589000D01*
X172241000Y-88422000D02*
X172241000Y-99538000D01*
X172281000Y-88474000D02*
X172281000Y-99486000D01*
X172321000Y-88526000D02*
X172321000Y-99434000D01*
X172361000Y-88580000D02*
X172361000Y-99380000D01*
X172401000Y-88634000D02*
X172401000Y-99326000D01*
X172441000Y-88689000D02*
X172441000Y-99271000D01*
X172481000Y-88745000D02*
X172481000Y-99215000D01*
X172521000Y-88802000D02*
X172521000Y-99158000D01*
X172561000Y-88860000D02*
X172561000Y-99100000D01*
X172601000Y-88918000D02*
X172601000Y-99042000D01*
X172641000Y-88978000D02*
X172641000Y-98982000D01*
X172681000Y-89039000D02*
X172681000Y-98921000D01*
X172721000Y-89101000D02*
X172721000Y-98859000D01*
X172761000Y-89164000D02*
X172761000Y-98796000D01*
X172801000Y-89228000D02*
X172801000Y-98732000D01*
X172841000Y-89294000D02*
X172841000Y-98666000D01*
X172881000Y-89360000D02*
X172881000Y-98600000D01*
X172921000Y-89428000D02*
X172921000Y-98532000D01*
X172961000Y-89498000D02*
X172961000Y-98462000D01*
X173001000Y-89568000D02*
X173001000Y-98392000D01*
X173041000Y-89641000D02*
X173041000Y-98319000D01*
X173081000Y-89715000D02*
X173081000Y-98245000D01*
X173121000Y-89790000D02*
X173121000Y-98170000D01*
X173161000Y-89867000D02*
X173161000Y-98093000D01*
X173201000Y-89947000D02*
X173201000Y-98013000D01*
X173240000Y-90028000D02*
X173240000Y-97932000D01*
X173280000Y-90111000D02*
X173280000Y-97849000D01*
X173320000Y-90196000D02*
X173320000Y-97764000D01*
X173360000Y-90284000D02*
X173360000Y-97676000D01*
X173400000Y-90375000D02*
X173400000Y-97585000D01*
X173440000Y-90468000D02*
X173440000Y-97492000D01*
X173480000Y-90564000D02*
X173480000Y-97396000D01*
X173520000Y-90663000D02*
X173520000Y-97297000D01*
X173560000Y-90766000D02*
X173560000Y-97194000D01*
X173600000Y-90873000D02*
X173600000Y-97087000D01*
X173640000Y-90984000D02*
X173640000Y-96976000D01*
X173680000Y-91100000D02*
X173680000Y-96860000D01*
X173720000Y-91221000D02*
X173720000Y-96739000D01*
X173760000Y-91348000D02*
X173760000Y-96612000D01*
X173800000Y-91482000D02*
X173800000Y-96478000D01*
X173840000Y-91625000D02*
X173840000Y-96335000D01*
X173880000Y-91777000D02*
X173880000Y-96183000D01*
X173920000Y-91941000D02*
X173920000Y-96019000D01*
X173960000Y-92120000D02*
X173960000Y-95840000D01*
X174000000Y-92319000D02*
X174000000Y-95641000D01*
X174040000Y-92545000D02*
X174040000Y-95415000D01*
X174080000Y-92814000D02*
X174080000Y-95146000D01*
X174120000Y-93166000D02*
X174120000Y-94794000D01*
X174160000Y-93940000D02*
X174160000Y-94020000D01*
X155280560Y-88865000D02*
X157080560Y-88865000D01*
X156180560Y-87965000D02*
X156180560Y-89765000D01*
G04 #@! TO.C,C2*
X162210000Y-111111000D02*
X162210000Y-112369000D01*
X160370000Y-111111000D02*
X160370000Y-112369000D01*
G04 #@! TO.C,C3*
X189310000Y-94980000D02*
G75*
G03X189310000Y-94980000I-2620000J0D01*
G01*
X185650000Y-94980000D02*
X184110000Y-94980000D01*
X189270000Y-94980000D02*
X187730000Y-94980000D01*
X185650000Y-95020000D02*
X184110000Y-95020000D01*
X189270000Y-95020000D02*
X187730000Y-95020000D01*
X189269000Y-95060000D02*
X187730000Y-95060000D01*
X185650000Y-95060000D02*
X184111000Y-95060000D01*
X189268000Y-95100000D02*
X187730000Y-95100000D01*
X185650000Y-95100000D02*
X184112000Y-95100000D01*
X189266000Y-95140000D02*
X187730000Y-95140000D01*
X185650000Y-95140000D02*
X184114000Y-95140000D01*
X189263000Y-95180000D02*
X187730000Y-95180000D01*
X185650000Y-95180000D02*
X184117000Y-95180000D01*
X189259000Y-95220000D02*
X187730000Y-95220000D01*
X185650000Y-95220000D02*
X184121000Y-95220000D01*
X189255000Y-95260000D02*
X187730000Y-95260000D01*
X185650000Y-95260000D02*
X184125000Y-95260000D01*
X189251000Y-95300000D02*
X187730000Y-95300000D01*
X185650000Y-95300000D02*
X184129000Y-95300000D01*
X189246000Y-95340000D02*
X187730000Y-95340000D01*
X185650000Y-95340000D02*
X184134000Y-95340000D01*
X189240000Y-95380000D02*
X187730000Y-95380000D01*
X185650000Y-95380000D02*
X184140000Y-95380000D01*
X189233000Y-95420000D02*
X187730000Y-95420000D01*
X185650000Y-95420000D02*
X184147000Y-95420000D01*
X189226000Y-95460000D02*
X187730000Y-95460000D01*
X185650000Y-95460000D02*
X184154000Y-95460000D01*
X189218000Y-95500000D02*
X187730000Y-95500000D01*
X185650000Y-95500000D02*
X184162000Y-95500000D01*
X189210000Y-95540000D02*
X187730000Y-95540000D01*
X185650000Y-95540000D02*
X184170000Y-95540000D01*
X189201000Y-95580000D02*
X187730000Y-95580000D01*
X185650000Y-95580000D02*
X184179000Y-95580000D01*
X189191000Y-95620000D02*
X187730000Y-95620000D01*
X185650000Y-95620000D02*
X184189000Y-95620000D01*
X189181000Y-95660000D02*
X187730000Y-95660000D01*
X185650000Y-95660000D02*
X184199000Y-95660000D01*
X189170000Y-95701000D02*
X187730000Y-95701000D01*
X185650000Y-95701000D02*
X184210000Y-95701000D01*
X189158000Y-95741000D02*
X187730000Y-95741000D01*
X185650000Y-95741000D02*
X184222000Y-95741000D01*
X189145000Y-95781000D02*
X187730000Y-95781000D01*
X185650000Y-95781000D02*
X184235000Y-95781000D01*
X189132000Y-95821000D02*
X187730000Y-95821000D01*
X185650000Y-95821000D02*
X184248000Y-95821000D01*
X189118000Y-95861000D02*
X187730000Y-95861000D01*
X185650000Y-95861000D02*
X184262000Y-95861000D01*
X189104000Y-95901000D02*
X187730000Y-95901000D01*
X185650000Y-95901000D02*
X184276000Y-95901000D01*
X189088000Y-95941000D02*
X187730000Y-95941000D01*
X185650000Y-95941000D02*
X184292000Y-95941000D01*
X189072000Y-95981000D02*
X187730000Y-95981000D01*
X185650000Y-95981000D02*
X184308000Y-95981000D01*
X189055000Y-96021000D02*
X187730000Y-96021000D01*
X185650000Y-96021000D02*
X184325000Y-96021000D01*
X189038000Y-96061000D02*
X187730000Y-96061000D01*
X185650000Y-96061000D02*
X184342000Y-96061000D01*
X189019000Y-96101000D02*
X187730000Y-96101000D01*
X185650000Y-96101000D02*
X184361000Y-96101000D01*
X189000000Y-96141000D02*
X187730000Y-96141000D01*
X185650000Y-96141000D02*
X184380000Y-96141000D01*
X188980000Y-96181000D02*
X187730000Y-96181000D01*
X185650000Y-96181000D02*
X184400000Y-96181000D01*
X188958000Y-96221000D02*
X187730000Y-96221000D01*
X185650000Y-96221000D02*
X184422000Y-96221000D01*
X188937000Y-96261000D02*
X187730000Y-96261000D01*
X185650000Y-96261000D02*
X184443000Y-96261000D01*
X188914000Y-96301000D02*
X187730000Y-96301000D01*
X185650000Y-96301000D02*
X184466000Y-96301000D01*
X188890000Y-96341000D02*
X187730000Y-96341000D01*
X185650000Y-96341000D02*
X184490000Y-96341000D01*
X188865000Y-96381000D02*
X187730000Y-96381000D01*
X185650000Y-96381000D02*
X184515000Y-96381000D01*
X188839000Y-96421000D02*
X187730000Y-96421000D01*
X185650000Y-96421000D02*
X184541000Y-96421000D01*
X188812000Y-96461000D02*
X187730000Y-96461000D01*
X185650000Y-96461000D02*
X184568000Y-96461000D01*
X188785000Y-96501000D02*
X187730000Y-96501000D01*
X185650000Y-96501000D02*
X184595000Y-96501000D01*
X188755000Y-96541000D02*
X187730000Y-96541000D01*
X185650000Y-96541000D02*
X184625000Y-96541000D01*
X188725000Y-96581000D02*
X187730000Y-96581000D01*
X185650000Y-96581000D02*
X184655000Y-96581000D01*
X188694000Y-96621000D02*
X187730000Y-96621000D01*
X185650000Y-96621000D02*
X184686000Y-96621000D01*
X188661000Y-96661000D02*
X187730000Y-96661000D01*
X185650000Y-96661000D02*
X184719000Y-96661000D01*
X188627000Y-96701000D02*
X187730000Y-96701000D01*
X185650000Y-96701000D02*
X184753000Y-96701000D01*
X188591000Y-96741000D02*
X187730000Y-96741000D01*
X185650000Y-96741000D02*
X184789000Y-96741000D01*
X188554000Y-96781000D02*
X187730000Y-96781000D01*
X185650000Y-96781000D02*
X184826000Y-96781000D01*
X188516000Y-96821000D02*
X187730000Y-96821000D01*
X185650000Y-96821000D02*
X184864000Y-96821000D01*
X188475000Y-96861000D02*
X187730000Y-96861000D01*
X185650000Y-96861000D02*
X184905000Y-96861000D01*
X188433000Y-96901000D02*
X187730000Y-96901000D01*
X185650000Y-96901000D02*
X184947000Y-96901000D01*
X188389000Y-96941000D02*
X187730000Y-96941000D01*
X185650000Y-96941000D02*
X184991000Y-96941000D01*
X188343000Y-96981000D02*
X187730000Y-96981000D01*
X185650000Y-96981000D02*
X185037000Y-96981000D01*
X188295000Y-97021000D02*
X185085000Y-97021000D01*
X188244000Y-97061000D02*
X185136000Y-97061000D01*
X188190000Y-97101000D02*
X185190000Y-97101000D01*
X188133000Y-97141000D02*
X185247000Y-97141000D01*
X188073000Y-97181000D02*
X185307000Y-97181000D01*
X188009000Y-97221000D02*
X185371000Y-97221000D01*
X187941000Y-97261000D02*
X185439000Y-97261000D01*
X187868000Y-97301000D02*
X185512000Y-97301000D01*
X187788000Y-97341000D02*
X185592000Y-97341000D01*
X187701000Y-97381000D02*
X185679000Y-97381000D01*
X187605000Y-97421000D02*
X185775000Y-97421000D01*
X187495000Y-97461000D02*
X185885000Y-97461000D01*
X187367000Y-97501000D02*
X186013000Y-97501000D01*
X187208000Y-97541000D02*
X186172000Y-97541000D01*
X186974000Y-97581000D02*
X186406000Y-97581000D01*
X188165000Y-92175225D02*
X188165000Y-92675225D01*
X188415000Y-92425225D02*
X187915000Y-92425225D01*
G04 #@! TO.C,C4*
X188415000Y-105125225D02*
X187915000Y-105125225D01*
X188165000Y-104875225D02*
X188165000Y-105375225D01*
X186974000Y-110281000D02*
X186406000Y-110281000D01*
X187208000Y-110241000D02*
X186172000Y-110241000D01*
X187367000Y-110201000D02*
X186013000Y-110201000D01*
X187495000Y-110161000D02*
X185885000Y-110161000D01*
X187605000Y-110121000D02*
X185775000Y-110121000D01*
X187701000Y-110081000D02*
X185679000Y-110081000D01*
X187788000Y-110041000D02*
X185592000Y-110041000D01*
X187868000Y-110001000D02*
X185512000Y-110001000D01*
X187941000Y-109961000D02*
X185439000Y-109961000D01*
X188009000Y-109921000D02*
X185371000Y-109921000D01*
X188073000Y-109881000D02*
X185307000Y-109881000D01*
X188133000Y-109841000D02*
X185247000Y-109841000D01*
X188190000Y-109801000D02*
X185190000Y-109801000D01*
X188244000Y-109761000D02*
X185136000Y-109761000D01*
X188295000Y-109721000D02*
X185085000Y-109721000D01*
X185650000Y-109681000D02*
X185037000Y-109681000D01*
X188343000Y-109681000D02*
X187730000Y-109681000D01*
X185650000Y-109641000D02*
X184991000Y-109641000D01*
X188389000Y-109641000D02*
X187730000Y-109641000D01*
X185650000Y-109601000D02*
X184947000Y-109601000D01*
X188433000Y-109601000D02*
X187730000Y-109601000D01*
X185650000Y-109561000D02*
X184905000Y-109561000D01*
X188475000Y-109561000D02*
X187730000Y-109561000D01*
X185650000Y-109521000D02*
X184864000Y-109521000D01*
X188516000Y-109521000D02*
X187730000Y-109521000D01*
X185650000Y-109481000D02*
X184826000Y-109481000D01*
X188554000Y-109481000D02*
X187730000Y-109481000D01*
X185650000Y-109441000D02*
X184789000Y-109441000D01*
X188591000Y-109441000D02*
X187730000Y-109441000D01*
X185650000Y-109401000D02*
X184753000Y-109401000D01*
X188627000Y-109401000D02*
X187730000Y-109401000D01*
X185650000Y-109361000D02*
X184719000Y-109361000D01*
X188661000Y-109361000D02*
X187730000Y-109361000D01*
X185650000Y-109321000D02*
X184686000Y-109321000D01*
X188694000Y-109321000D02*
X187730000Y-109321000D01*
X185650000Y-109281000D02*
X184655000Y-109281000D01*
X188725000Y-109281000D02*
X187730000Y-109281000D01*
X185650000Y-109241000D02*
X184625000Y-109241000D01*
X188755000Y-109241000D02*
X187730000Y-109241000D01*
X185650000Y-109201000D02*
X184595000Y-109201000D01*
X188785000Y-109201000D02*
X187730000Y-109201000D01*
X185650000Y-109161000D02*
X184568000Y-109161000D01*
X188812000Y-109161000D02*
X187730000Y-109161000D01*
X185650000Y-109121000D02*
X184541000Y-109121000D01*
X188839000Y-109121000D02*
X187730000Y-109121000D01*
X185650000Y-109081000D02*
X184515000Y-109081000D01*
X188865000Y-109081000D02*
X187730000Y-109081000D01*
X185650000Y-109041000D02*
X184490000Y-109041000D01*
X188890000Y-109041000D02*
X187730000Y-109041000D01*
X185650000Y-109001000D02*
X184466000Y-109001000D01*
X188914000Y-109001000D02*
X187730000Y-109001000D01*
X185650000Y-108961000D02*
X184443000Y-108961000D01*
X188937000Y-108961000D02*
X187730000Y-108961000D01*
X185650000Y-108921000D02*
X184422000Y-108921000D01*
X188958000Y-108921000D02*
X187730000Y-108921000D01*
X185650000Y-108881000D02*
X184400000Y-108881000D01*
X188980000Y-108881000D02*
X187730000Y-108881000D01*
X185650000Y-108841000D02*
X184380000Y-108841000D01*
X189000000Y-108841000D02*
X187730000Y-108841000D01*
X185650000Y-108801000D02*
X184361000Y-108801000D01*
X189019000Y-108801000D02*
X187730000Y-108801000D01*
X185650000Y-108761000D02*
X184342000Y-108761000D01*
X189038000Y-108761000D02*
X187730000Y-108761000D01*
X185650000Y-108721000D02*
X184325000Y-108721000D01*
X189055000Y-108721000D02*
X187730000Y-108721000D01*
X185650000Y-108681000D02*
X184308000Y-108681000D01*
X189072000Y-108681000D02*
X187730000Y-108681000D01*
X185650000Y-108641000D02*
X184292000Y-108641000D01*
X189088000Y-108641000D02*
X187730000Y-108641000D01*
X185650000Y-108601000D02*
X184276000Y-108601000D01*
X189104000Y-108601000D02*
X187730000Y-108601000D01*
X185650000Y-108561000D02*
X184262000Y-108561000D01*
X189118000Y-108561000D02*
X187730000Y-108561000D01*
X185650000Y-108521000D02*
X184248000Y-108521000D01*
X189132000Y-108521000D02*
X187730000Y-108521000D01*
X185650000Y-108481000D02*
X184235000Y-108481000D01*
X189145000Y-108481000D02*
X187730000Y-108481000D01*
X185650000Y-108441000D02*
X184222000Y-108441000D01*
X189158000Y-108441000D02*
X187730000Y-108441000D01*
X185650000Y-108401000D02*
X184210000Y-108401000D01*
X189170000Y-108401000D02*
X187730000Y-108401000D01*
X185650000Y-108360000D02*
X184199000Y-108360000D01*
X189181000Y-108360000D02*
X187730000Y-108360000D01*
X185650000Y-108320000D02*
X184189000Y-108320000D01*
X189191000Y-108320000D02*
X187730000Y-108320000D01*
X185650000Y-108280000D02*
X184179000Y-108280000D01*
X189201000Y-108280000D02*
X187730000Y-108280000D01*
X185650000Y-108240000D02*
X184170000Y-108240000D01*
X189210000Y-108240000D02*
X187730000Y-108240000D01*
X185650000Y-108200000D02*
X184162000Y-108200000D01*
X189218000Y-108200000D02*
X187730000Y-108200000D01*
X185650000Y-108160000D02*
X184154000Y-108160000D01*
X189226000Y-108160000D02*
X187730000Y-108160000D01*
X185650000Y-108120000D02*
X184147000Y-108120000D01*
X189233000Y-108120000D02*
X187730000Y-108120000D01*
X185650000Y-108080000D02*
X184140000Y-108080000D01*
X189240000Y-108080000D02*
X187730000Y-108080000D01*
X185650000Y-108040000D02*
X184134000Y-108040000D01*
X189246000Y-108040000D02*
X187730000Y-108040000D01*
X185650000Y-108000000D02*
X184129000Y-108000000D01*
X189251000Y-108000000D02*
X187730000Y-108000000D01*
X185650000Y-107960000D02*
X184125000Y-107960000D01*
X189255000Y-107960000D02*
X187730000Y-107960000D01*
X185650000Y-107920000D02*
X184121000Y-107920000D01*
X189259000Y-107920000D02*
X187730000Y-107920000D01*
X185650000Y-107880000D02*
X184117000Y-107880000D01*
X189263000Y-107880000D02*
X187730000Y-107880000D01*
X185650000Y-107840000D02*
X184114000Y-107840000D01*
X189266000Y-107840000D02*
X187730000Y-107840000D01*
X185650000Y-107800000D02*
X184112000Y-107800000D01*
X189268000Y-107800000D02*
X187730000Y-107800000D01*
X185650000Y-107760000D02*
X184111000Y-107760000D01*
X189269000Y-107760000D02*
X187730000Y-107760000D01*
X189270000Y-107720000D02*
X187730000Y-107720000D01*
X185650000Y-107720000D02*
X184110000Y-107720000D01*
X189270000Y-107680000D02*
X187730000Y-107680000D01*
X185650000Y-107680000D02*
X184110000Y-107680000D01*
X189310000Y-107680000D02*
G75*
G03X189310000Y-107680000I-2620000J0D01*
G01*
G04 #@! TO.C,C5*
X176880000Y-92061000D02*
X176880000Y-93319000D01*
X178720000Y-92061000D02*
X178720000Y-93319000D01*
G04 #@! TO.C,C6*
X178720000Y-104761000D02*
X178720000Y-106019000D01*
X176880000Y-104761000D02*
X176880000Y-106019000D01*
G04 #@! TO.C,D1*
X149990000Y-92890000D02*
X149660000Y-92890000D01*
X149660000Y-92890000D02*
X149660000Y-87450000D01*
X149660000Y-87450000D02*
X149990000Y-87450000D01*
X152270000Y-92890000D02*
X152600000Y-92890000D01*
X152600000Y-92890000D02*
X152600000Y-87450000D01*
X152600000Y-87450000D02*
X152270000Y-87450000D01*
X149660000Y-91990000D02*
X152600000Y-91990000D01*
X149660000Y-91870000D02*
X152600000Y-91870000D01*
X149660000Y-92110000D02*
X152600000Y-92110000D01*
G04 #@! TO.C,D2*
X152600000Y-109820000D02*
X149660000Y-109820000D01*
X152600000Y-110060000D02*
X149660000Y-110060000D01*
X152600000Y-109940000D02*
X149660000Y-109940000D01*
X149660000Y-114480000D02*
X149990000Y-114480000D01*
X149660000Y-109040000D02*
X149660000Y-114480000D01*
X149990000Y-109040000D02*
X149660000Y-109040000D01*
X152600000Y-114480000D02*
X152270000Y-114480000D01*
X152600000Y-109040000D02*
X152600000Y-114480000D01*
X152270000Y-109040000D02*
X152600000Y-109040000D01*
G04 #@! TO.C,H3*
X194480000Y-92650000D02*
X194480000Y-95310000D01*
X194480000Y-95310000D02*
X197140000Y-95310000D01*
X197140000Y-95310000D02*
X197140000Y-92650000D01*
X197140000Y-92650000D02*
X194480000Y-92650000D01*
X197140000Y-93600000D02*
X203140000Y-93600000D01*
X203140000Y-93600000D02*
X203140000Y-94360000D01*
X203140000Y-94360000D02*
X197140000Y-94360000D01*
X197140000Y-93660000D02*
X203140000Y-93660000D01*
X197140000Y-93780000D02*
X203140000Y-93780000D01*
X197140000Y-93900000D02*
X203140000Y-93900000D01*
X197140000Y-94020000D02*
X203140000Y-94020000D01*
X197140000Y-94140000D02*
X203140000Y-94140000D01*
X197140000Y-94260000D02*
X203140000Y-94260000D01*
X194150000Y-93600000D02*
X194480000Y-93600000D01*
X194150000Y-94360000D02*
X194480000Y-94360000D01*
X191770000Y-93980000D02*
X191770000Y-92710000D01*
X191770000Y-92710000D02*
X193040000Y-92710000D01*
G04 #@! TO.C,H4*
X191770000Y-105410000D02*
X193040000Y-105410000D01*
X191770000Y-106680000D02*
X191770000Y-105410000D01*
X194150000Y-107060000D02*
X194480000Y-107060000D01*
X194150000Y-106300000D02*
X194480000Y-106300000D01*
X197140000Y-106960000D02*
X203140000Y-106960000D01*
X197140000Y-106840000D02*
X203140000Y-106840000D01*
X197140000Y-106720000D02*
X203140000Y-106720000D01*
X197140000Y-106600000D02*
X203140000Y-106600000D01*
X197140000Y-106480000D02*
X203140000Y-106480000D01*
X197140000Y-106360000D02*
X203140000Y-106360000D01*
X203140000Y-107060000D02*
X197140000Y-107060000D01*
X203140000Y-106300000D02*
X203140000Y-107060000D01*
X197140000Y-106300000D02*
X203140000Y-106300000D01*
X197140000Y-105350000D02*
X194480000Y-105350000D01*
X197140000Y-108010000D02*
X197140000Y-105350000D01*
X194480000Y-108010000D02*
X197140000Y-108010000D01*
X194480000Y-105350000D02*
X194480000Y-108010000D01*
G04 #@! TO.C,H5*
X194480000Y-99000000D02*
X194480000Y-101660000D01*
X194480000Y-101660000D02*
X197140000Y-101660000D01*
X197140000Y-101660000D02*
X197140000Y-99000000D01*
X197140000Y-99000000D02*
X194480000Y-99000000D01*
X197140000Y-99950000D02*
X203140000Y-99950000D01*
X203140000Y-99950000D02*
X203140000Y-100710000D01*
X203140000Y-100710000D02*
X197140000Y-100710000D01*
X197140000Y-100010000D02*
X203140000Y-100010000D01*
X197140000Y-100130000D02*
X203140000Y-100130000D01*
X197140000Y-100250000D02*
X203140000Y-100250000D01*
X197140000Y-100370000D02*
X203140000Y-100370000D01*
X197140000Y-100490000D02*
X203140000Y-100490000D01*
X197140000Y-100610000D02*
X203140000Y-100610000D01*
X194150000Y-99950000D02*
X194480000Y-99950000D01*
X194150000Y-100710000D02*
X194480000Y-100710000D01*
X191770000Y-100330000D02*
X191770000Y-99060000D01*
X191770000Y-99060000D02*
X193040000Y-99060000D01*
G04 #@! TO.C,H6*
X191770000Y-111760000D02*
X193040000Y-111760000D01*
X191770000Y-113030000D02*
X191770000Y-111760000D01*
X194150000Y-113410000D02*
X194480000Y-113410000D01*
X194150000Y-112650000D02*
X194480000Y-112650000D01*
X197140000Y-113310000D02*
X203140000Y-113310000D01*
X197140000Y-113190000D02*
X203140000Y-113190000D01*
X197140000Y-113070000D02*
X203140000Y-113070000D01*
X197140000Y-112950000D02*
X203140000Y-112950000D01*
X197140000Y-112830000D02*
X203140000Y-112830000D01*
X197140000Y-112710000D02*
X203140000Y-112710000D01*
X203140000Y-113410000D02*
X197140000Y-113410000D01*
X203140000Y-112650000D02*
X203140000Y-113410000D01*
X197140000Y-112650000D02*
X203140000Y-112650000D01*
X197140000Y-111700000D02*
X194480000Y-111700000D01*
X197140000Y-114360000D02*
X197140000Y-111700000D01*
X194480000Y-114360000D02*
X197140000Y-114360000D01*
X194480000Y-111700000D02*
X194480000Y-114360000D01*
D11*
G04 #@! TO.C,T1*
X146580000Y-114830000D02*
X146580000Y-85830000D01*
X117580000Y-114830000D02*
X146580000Y-114830000D01*
X117580000Y-85830000D02*
X117580000Y-114830000D01*
X146580000Y-85830000D02*
X117580000Y-85830000D01*
X137080000Y-117830000D02*
X137080000Y-82830000D01*
X127080000Y-117830000D02*
X137080000Y-117830000D01*
X127080000Y-82830000D02*
X127080000Y-117830000D01*
X137080000Y-82830000D02*
X127080000Y-82830000D01*
G04 #@! TO.C,U1*
X180210000Y-89580000D02*
X183610000Y-89580000D01*
X180210000Y-98580000D02*
X180210000Y-89580000D01*
X183610000Y-98580000D02*
X180210000Y-98580000D01*
X183610000Y-89680000D02*
X183610000Y-98580000D01*
G04 #@! TO.C,U2*
X183610000Y-102380000D02*
X183610000Y-111280000D01*
X183610000Y-111280000D02*
X180210000Y-111280000D01*
X180210000Y-111280000D02*
X180210000Y-102280000D01*
X180210000Y-102280000D02*
X183610000Y-102280000D01*
G04 #@! TO.C,C1*
X164873333Y-84087142D02*
X164825714Y-84134761D01*
X164682857Y-84182380D01*
X164587619Y-84182380D01*
X164444761Y-84134761D01*
X164349523Y-84039523D01*
X164301904Y-83944285D01*
X164254285Y-83753809D01*
X164254285Y-83610952D01*
X164301904Y-83420476D01*
X164349523Y-83325238D01*
X164444761Y-83230000D01*
X164587619Y-83182380D01*
X164682857Y-83182380D01*
X164825714Y-83230000D01*
X164873333Y-83277619D01*
X165825714Y-84182380D02*
X165254285Y-84182380D01*
X165540000Y-84182380D02*
X165540000Y-83182380D01*
X165444761Y-83325238D01*
X165349523Y-83420476D01*
X165254285Y-83468095D01*
G04 #@! TO.C,C2*
X163697142Y-111906666D02*
X163744761Y-111954285D01*
X163792380Y-112097142D01*
X163792380Y-112192380D01*
X163744761Y-112335238D01*
X163649523Y-112430476D01*
X163554285Y-112478095D01*
X163363809Y-112525714D01*
X163220952Y-112525714D01*
X163030476Y-112478095D01*
X162935238Y-112430476D01*
X162840000Y-112335238D01*
X162792380Y-112192380D01*
X162792380Y-112097142D01*
X162840000Y-111954285D01*
X162887619Y-111906666D01*
X162887619Y-111525714D02*
X162840000Y-111478095D01*
X162792380Y-111382857D01*
X162792380Y-111144761D01*
X162840000Y-111049523D01*
X162887619Y-111001904D01*
X162982857Y-110954285D01*
X163078095Y-110954285D01*
X163220952Y-111001904D01*
X163792380Y-111573333D01*
X163792380Y-110954285D01*
G04 #@! TO.C,C3*
X190797142Y-95146666D02*
X190844761Y-95194285D01*
X190892380Y-95337142D01*
X190892380Y-95432380D01*
X190844761Y-95575238D01*
X190749523Y-95670476D01*
X190654285Y-95718095D01*
X190463809Y-95765714D01*
X190320952Y-95765714D01*
X190130476Y-95718095D01*
X190035238Y-95670476D01*
X189940000Y-95575238D01*
X189892380Y-95432380D01*
X189892380Y-95337142D01*
X189940000Y-95194285D01*
X189987619Y-95146666D01*
X189892380Y-94813333D02*
X189892380Y-94194285D01*
X190273333Y-94527619D01*
X190273333Y-94384761D01*
X190320952Y-94289523D01*
X190368571Y-94241904D01*
X190463809Y-94194285D01*
X190701904Y-94194285D01*
X190797142Y-94241904D01*
X190844761Y-94289523D01*
X190892380Y-94384761D01*
X190892380Y-94670476D01*
X190844761Y-94765714D01*
X190797142Y-94813333D01*
G04 #@! TO.C,C4*
X190797142Y-107846666D02*
X190844761Y-107894285D01*
X190892380Y-108037142D01*
X190892380Y-108132380D01*
X190844761Y-108275238D01*
X190749523Y-108370476D01*
X190654285Y-108418095D01*
X190463809Y-108465714D01*
X190320952Y-108465714D01*
X190130476Y-108418095D01*
X190035238Y-108370476D01*
X189940000Y-108275238D01*
X189892380Y-108132380D01*
X189892380Y-108037142D01*
X189940000Y-107894285D01*
X189987619Y-107846666D01*
X190225714Y-106989523D02*
X190892380Y-106989523D01*
X189844761Y-107227619D02*
X190559047Y-107465714D01*
X190559047Y-106846666D01*
G04 #@! TO.C,C5*
X180207142Y-92856666D02*
X180254761Y-92904285D01*
X180302380Y-93047142D01*
X180302380Y-93142380D01*
X180254761Y-93285238D01*
X180159523Y-93380476D01*
X180064285Y-93428095D01*
X179873809Y-93475714D01*
X179730952Y-93475714D01*
X179540476Y-93428095D01*
X179445238Y-93380476D01*
X179350000Y-93285238D01*
X179302380Y-93142380D01*
X179302380Y-93047142D01*
X179350000Y-92904285D01*
X179397619Y-92856666D01*
X179302380Y-91951904D02*
X179302380Y-92428095D01*
X179778571Y-92475714D01*
X179730952Y-92428095D01*
X179683333Y-92332857D01*
X179683333Y-92094761D01*
X179730952Y-91999523D01*
X179778571Y-91951904D01*
X179873809Y-91904285D01*
X180111904Y-91904285D01*
X180207142Y-91951904D01*
X180254761Y-91999523D01*
X180302380Y-92094761D01*
X180302380Y-92332857D01*
X180254761Y-92428095D01*
X180207142Y-92475714D01*
G04 #@! TO.C,C6*
X180207142Y-105556666D02*
X180254761Y-105604285D01*
X180302380Y-105747142D01*
X180302380Y-105842380D01*
X180254761Y-105985238D01*
X180159523Y-106080476D01*
X180064285Y-106128095D01*
X179873809Y-106175714D01*
X179730952Y-106175714D01*
X179540476Y-106128095D01*
X179445238Y-106080476D01*
X179350000Y-105985238D01*
X179302380Y-105842380D01*
X179302380Y-105747142D01*
X179350000Y-105604285D01*
X179397619Y-105556666D01*
X179302380Y-104699523D02*
X179302380Y-104890000D01*
X179350000Y-104985238D01*
X179397619Y-105032857D01*
X179540476Y-105128095D01*
X179730952Y-105175714D01*
X180111904Y-105175714D01*
X180207142Y-105128095D01*
X180254761Y-105080476D01*
X180302380Y-104985238D01*
X180302380Y-104794761D01*
X180254761Y-104699523D01*
X180207142Y-104651904D01*
X180111904Y-104604285D01*
X179873809Y-104604285D01*
X179778571Y-104651904D01*
X179730952Y-104699523D01*
X179683333Y-104794761D01*
X179683333Y-104985238D01*
X179730952Y-105080476D01*
X179778571Y-105128095D01*
X179873809Y-105175714D01*
G04 #@! TO.C,D1*
X149112380Y-90908095D02*
X148112380Y-90908095D01*
X148112380Y-90670000D01*
X148160000Y-90527142D01*
X148255238Y-90431904D01*
X148350476Y-90384285D01*
X148540952Y-90336666D01*
X148683809Y-90336666D01*
X148874285Y-90384285D01*
X148969523Y-90431904D01*
X149064761Y-90527142D01*
X149112380Y-90670000D01*
X149112380Y-90908095D01*
X149112380Y-89384285D02*
X149112380Y-89955714D01*
X149112380Y-89670000D02*
X148112380Y-89670000D01*
X148255238Y-89765238D01*
X148350476Y-89860476D01*
X148398095Y-89955714D01*
X149682380Y-94241904D02*
X148682380Y-94241904D01*
X149682380Y-93670476D02*
X149110952Y-94099047D01*
X148682380Y-93670476D02*
X149253809Y-94241904D01*
G04 #@! TO.C,D2*
X154052380Y-112498095D02*
X153052380Y-112498095D01*
X153052380Y-112260000D01*
X153100000Y-112117142D01*
X153195238Y-112021904D01*
X153290476Y-111974285D01*
X153480952Y-111926666D01*
X153623809Y-111926666D01*
X153814285Y-111974285D01*
X153909523Y-112021904D01*
X154004761Y-112117142D01*
X154052380Y-112260000D01*
X154052380Y-112498095D01*
X153147619Y-111545714D02*
X153100000Y-111498095D01*
X153052380Y-111402857D01*
X153052380Y-111164761D01*
X153100000Y-111069523D01*
X153147619Y-111021904D01*
X153242857Y-110974285D01*
X153338095Y-110974285D01*
X153480952Y-111021904D01*
X154052380Y-111593333D01*
X154052380Y-110974285D01*
X153482380Y-108211904D02*
X152482380Y-108211904D01*
X153482380Y-107640476D02*
X152910952Y-108069047D01*
X152482380Y-107640476D02*
X153053809Y-108211904D01*
G04 #@! TO.C,H1*
X103378095Y-111792380D02*
X103378095Y-110792380D01*
X103378095Y-111268571D02*
X103949523Y-111268571D01*
X103949523Y-111792380D02*
X103949523Y-110792380D01*
X104949523Y-111792380D02*
X104378095Y-111792380D01*
X104663809Y-111792380D02*
X104663809Y-110792380D01*
X104568571Y-110935238D01*
X104473333Y-111030476D01*
X104378095Y-111078095D01*
G04 #@! TO.C,H2*
X103378095Y-78772380D02*
X103378095Y-77772380D01*
X103378095Y-78248571D02*
X103949523Y-78248571D01*
X103949523Y-78772380D02*
X103949523Y-77772380D01*
X104378095Y-77867619D02*
X104425714Y-77820000D01*
X104520952Y-77772380D01*
X104759047Y-77772380D01*
X104854285Y-77820000D01*
X104901904Y-77867619D01*
X104949523Y-77962857D01*
X104949523Y-78058095D01*
X104901904Y-78200952D01*
X104330476Y-78772380D01*
X104949523Y-78772380D01*
G04 #@! TO.C,H3*
X196663095Y-92162380D02*
X196663095Y-91162380D01*
X196663095Y-91638571D02*
X197234523Y-91638571D01*
X197234523Y-92162380D02*
X197234523Y-91162380D01*
X197615476Y-91162380D02*
X198234523Y-91162380D01*
X197901190Y-91543333D01*
X198044047Y-91543333D01*
X198139285Y-91590952D01*
X198186904Y-91638571D01*
X198234523Y-91733809D01*
X198234523Y-91971904D01*
X198186904Y-92067142D01*
X198139285Y-92114761D01*
X198044047Y-92162380D01*
X197758333Y-92162380D01*
X197663095Y-92114761D01*
X197615476Y-92067142D01*
G04 #@! TO.C,H4*
X196663095Y-104862380D02*
X196663095Y-103862380D01*
X196663095Y-104338571D02*
X197234523Y-104338571D01*
X197234523Y-104862380D02*
X197234523Y-103862380D01*
X198139285Y-104195714D02*
X198139285Y-104862380D01*
X197901190Y-103814761D02*
X197663095Y-104529047D01*
X198282142Y-104529047D01*
G04 #@! TO.C,H5*
X196663095Y-98512380D02*
X196663095Y-97512380D01*
X196663095Y-97988571D02*
X197234523Y-97988571D01*
X197234523Y-98512380D02*
X197234523Y-97512380D01*
X198186904Y-97512380D02*
X197710714Y-97512380D01*
X197663095Y-97988571D01*
X197710714Y-97940952D01*
X197805952Y-97893333D01*
X198044047Y-97893333D01*
X198139285Y-97940952D01*
X198186904Y-97988571D01*
X198234523Y-98083809D01*
X198234523Y-98321904D01*
X198186904Y-98417142D01*
X198139285Y-98464761D01*
X198044047Y-98512380D01*
X197805952Y-98512380D01*
X197710714Y-98464761D01*
X197663095Y-98417142D01*
G04 #@! TO.C,H6*
X196663095Y-111212380D02*
X196663095Y-110212380D01*
X196663095Y-110688571D02*
X197234523Y-110688571D01*
X197234523Y-111212380D02*
X197234523Y-110212380D01*
X198139285Y-110212380D02*
X197948809Y-110212380D01*
X197853571Y-110260000D01*
X197805952Y-110307619D01*
X197710714Y-110450476D01*
X197663095Y-110640952D01*
X197663095Y-111021904D01*
X197710714Y-111117142D01*
X197758333Y-111164761D01*
X197853571Y-111212380D01*
X198044047Y-111212380D01*
X198139285Y-111164761D01*
X198186904Y-111117142D01*
X198234523Y-111021904D01*
X198234523Y-110783809D01*
X198186904Y-110688571D01*
X198139285Y-110640952D01*
X198044047Y-110593333D01*
X197853571Y-110593333D01*
X197758333Y-110640952D01*
X197710714Y-110688571D01*
X197663095Y-110783809D01*
G04 #@! TO.C,T1*
X131032380Y-101091904D02*
X131032380Y-100520476D01*
X132032380Y-100806190D02*
X131032380Y-100806190D01*
X132032380Y-99663333D02*
X132032380Y-100234761D01*
X132032380Y-99949047D02*
X131032380Y-99949047D01*
X131175238Y-100044285D01*
X131270476Y-100139523D01*
X131318095Y-100234761D01*
G04 #@! TO.C,U1*
X174262380Y-94741904D02*
X175071904Y-94741904D01*
X175167142Y-94694285D01*
X175214761Y-94646666D01*
X175262380Y-94551428D01*
X175262380Y-94360952D01*
X175214761Y-94265714D01*
X175167142Y-94218095D01*
X175071904Y-94170476D01*
X174262380Y-94170476D01*
X175262380Y-93170476D02*
X175262380Y-93741904D01*
X175262380Y-93456190D02*
X174262380Y-93456190D01*
X174405238Y-93551428D01*
X174500476Y-93646666D01*
X174548095Y-93741904D01*
G04 #@! TO.C,U2*
X174262380Y-107441904D02*
X175071904Y-107441904D01*
X175167142Y-107394285D01*
X175214761Y-107346666D01*
X175262380Y-107251428D01*
X175262380Y-107060952D01*
X175214761Y-106965714D01*
X175167142Y-106918095D01*
X175071904Y-106870476D01*
X174262380Y-106870476D01*
X174357619Y-106441904D02*
X174310000Y-106394285D01*
X174262380Y-106299047D01*
X174262380Y-106060952D01*
X174310000Y-105965714D01*
X174357619Y-105918095D01*
X174452857Y-105870476D01*
X174548095Y-105870476D01*
X174690952Y-105918095D01*
X175262380Y-106489523D01*
X175262380Y-105870476D01*
G04 #@! TD*
M02*
