M48
;DRILL file {KiCad (5.0.1-3-g963ef8bb5)} date 2018年11月19日 月曜日 01:27:23
;FORMAT={-:-/ absolute / inch / decimal}
FMAT,2
INCH,TZ
T1C0.0236
T2C0.0300
T3C0.0315
T4C0.0354
T5C0.0394
T6C0.0472
T7C0.1772
%
G90
G05
M72
T1
X3.9671Y-4.6
X4.006Y-4.506
X4.006Y-4.694
X4.1Y-4.4671
X4.1Y-4.7329
X4.194Y-4.506
X4.194Y-4.694
X4.2329Y-4.6
X3.9671Y-3.3
X4.006Y-3.206
X4.006Y-3.394
X4.1Y-3.1671
X4.1Y-3.4329
X4.194Y-3.206
X4.194Y-3.394
X4.2329Y-3.3
T2
X7.15Y-3.6
X7.15Y-3.7
X7.15Y-3.8
X7.15Y-4.1
X7.15Y-4.2
X7.15Y-4.3
T3
X7.Y-4.1
X7.Y-4.1984
X6.35Y-4.35
X6.35Y-4.4484
X7.35Y-3.7
X7.35Y-3.7787
X7.Y-3.6
X7.Y-3.6984
X7.35Y-4.2
X7.35Y-4.2787
T4
X5.95Y-3.4
X5.95Y-3.7
X5.95Y-4.25
X5.95Y-4.55
T5
X7.6Y-3.95
X7.6Y-3.7
X7.6Y-4.2
X7.6Y-4.45
X4.7276Y-3.7138
X4.7276Y-4.1862
X5.6724Y-3.7138
X5.6724Y-3.95
X5.6724Y-4.1862
T6
X6.35Y-3.7
X6.6453Y-3.7
T7
X4.1Y-4.6
X4.1Y-3.3
T0
M30
