G04 #@! TF.GenerationSoftware,KiCad,Pcbnew,(5.0.1-3-g963ef8bb5)*
G04 #@! TF.CreationDate,2018-11-01T01:45:16+09:00*
G04 #@! TF.ProjectId,firstTraining,6669727374547261696E696E672E6B69,rev?*
G04 #@! TF.SameCoordinates,Original*
G04 #@! TF.FileFunction,Soldermask,Top*
G04 #@! TF.FilePolarity,Negative*
%FSLAX46Y46*%
G04 Gerber Fmt 4.6, Leading zero omitted, Abs format (unit mm)*
G04 Created by KiCad (PCBNEW (5.0.1-3-g963ef8bb5)) date 2018年11月01日 木曜日 01:45:16*
%MOMM*%
%LPD*%
G01*
G04 APERTURE LIST*
%ADD10C,0.100000*%
G04 APERTURE END LIST*
D10*
G36*
X74987475Y-89603892D02*
X74987477Y-89603893D01*
X74987478Y-89603893D01*
X75815707Y-89946956D01*
X76557727Y-90442759D01*
X76561096Y-90445010D01*
X77194990Y-91078904D01*
X77194992Y-91078907D01*
X77693044Y-91824293D01*
X77957817Y-92463514D01*
X78036108Y-92652525D01*
X78211000Y-93531764D01*
X78211000Y-94428236D01*
X78115050Y-94910610D01*
X78036107Y-95307478D01*
X77693044Y-96135707D01*
X77325447Y-96685854D01*
X77194990Y-96881096D01*
X76561096Y-97514990D01*
X76561093Y-97514992D01*
X75815707Y-98013044D01*
X74987478Y-98356107D01*
X74987477Y-98356107D01*
X74987475Y-98356108D01*
X74108236Y-98531000D01*
X73211764Y-98531000D01*
X72332525Y-98356108D01*
X72332523Y-98356107D01*
X72332522Y-98356107D01*
X71504293Y-98013044D01*
X70758907Y-97514992D01*
X70758904Y-97514990D01*
X70125010Y-96881096D01*
X69994553Y-96685854D01*
X69626956Y-96135707D01*
X69283893Y-95307478D01*
X69204951Y-94910610D01*
X69109000Y-94428236D01*
X69109000Y-93531764D01*
X69283892Y-92652525D01*
X69362183Y-92463514D01*
X69626956Y-91824293D01*
X70125008Y-91078907D01*
X70125010Y-91078904D01*
X70758904Y-90445010D01*
X70762273Y-90442759D01*
X71504293Y-89946956D01*
X72332522Y-89603893D01*
X72332523Y-89603893D01*
X72332525Y-89603892D01*
X73211764Y-89429000D01*
X74108236Y-89429000D01*
X74987475Y-89603892D01*
X74987475Y-89603892D01*
G37*
G36*
X167271000Y-97421000D02*
X165469000Y-97421000D01*
X165469000Y-95619000D01*
X167271000Y-95619000D01*
X167271000Y-97421000D01*
X167271000Y-97421000D01*
G37*
G36*
X143816565Y-92889389D02*
X144007834Y-92968615D01*
X144179976Y-93083637D01*
X144326363Y-93230024D01*
X144441385Y-93402166D01*
X144520611Y-93593435D01*
X144561000Y-93796484D01*
X144561000Y-94003516D01*
X144520611Y-94206565D01*
X144441385Y-94397834D01*
X144326363Y-94569976D01*
X144179976Y-94716363D01*
X144007834Y-94831385D01*
X143816565Y-94910611D01*
X143613516Y-94951000D01*
X143406484Y-94951000D01*
X143203435Y-94910611D01*
X143012166Y-94831385D01*
X142840024Y-94716363D01*
X142693637Y-94569976D01*
X142578615Y-94397834D01*
X142499389Y-94206565D01*
X142459000Y-94003516D01*
X142459000Y-93796484D01*
X142499389Y-93593435D01*
X142578615Y-93402166D01*
X142693637Y-93230024D01*
X142840024Y-93083637D01*
X143012166Y-92968615D01*
X143203435Y-92889389D01*
X143406484Y-92849000D01*
X143613516Y-92849000D01*
X143816565Y-92889389D01*
X143816565Y-92889389D01*
G37*
G36*
X155050443Y-93085519D02*
X155116627Y-93092037D01*
X155214423Y-93121703D01*
X155286467Y-93143557D01*
X155365596Y-93185853D01*
X155442991Y-93227222D01*
X155478729Y-93256552D01*
X155580186Y-93339814D01*
X155663448Y-93441271D01*
X155692778Y-93477009D01*
X155692779Y-93477011D01*
X155776443Y-93633533D01*
X155776443Y-93633534D01*
X155827963Y-93803373D01*
X155845359Y-93980000D01*
X155827963Y-94156627D01*
X155809554Y-94217312D01*
X155776443Y-94326467D01*
X155704133Y-94461747D01*
X155692778Y-94482991D01*
X155663448Y-94518729D01*
X155580186Y-94620186D01*
X155490064Y-94694146D01*
X155442991Y-94732778D01*
X155442989Y-94732779D01*
X155286467Y-94816443D01*
X155237212Y-94831384D01*
X155116627Y-94867963D01*
X155050443Y-94874481D01*
X154984260Y-94881000D01*
X154895740Y-94881000D01*
X154829557Y-94874481D01*
X154763373Y-94867963D01*
X154642788Y-94831384D01*
X154593533Y-94816443D01*
X154437011Y-94732779D01*
X154437009Y-94732778D01*
X154389936Y-94694146D01*
X154299814Y-94620186D01*
X154216552Y-94518729D01*
X154187222Y-94482991D01*
X154175867Y-94461747D01*
X154103557Y-94326467D01*
X154070446Y-94217312D01*
X154052037Y-94156627D01*
X154034641Y-93980000D01*
X154052037Y-93803373D01*
X154103557Y-93633534D01*
X154103557Y-93633533D01*
X154187221Y-93477011D01*
X154187222Y-93477009D01*
X154216552Y-93441271D01*
X154299814Y-93339814D01*
X154401271Y-93256552D01*
X154437009Y-93227222D01*
X154514404Y-93185853D01*
X154593533Y-93143557D01*
X154665577Y-93121703D01*
X154763373Y-93092037D01*
X154829557Y-93085519D01*
X154895740Y-93079000D01*
X154984260Y-93079000D01*
X155050443Y-93085519D01*
X155050443Y-93085519D01*
G37*
G36*
X160268228Y-93121703D02*
X160423100Y-93185853D01*
X160562481Y-93278985D01*
X160681015Y-93397519D01*
X160774147Y-93536900D01*
X160838297Y-93691772D01*
X160871000Y-93856184D01*
X160871000Y-94023816D01*
X160838297Y-94188228D01*
X160774147Y-94343100D01*
X160681015Y-94482481D01*
X160562481Y-94601015D01*
X160423100Y-94694147D01*
X160268228Y-94758297D01*
X160103816Y-94791000D01*
X159936184Y-94791000D01*
X159771772Y-94758297D01*
X159616900Y-94694147D01*
X159477519Y-94601015D01*
X159358985Y-94482481D01*
X159265853Y-94343100D01*
X159201703Y-94188228D01*
X159169000Y-94023816D01*
X159169000Y-93856184D01*
X159201703Y-93691772D01*
X159265853Y-93536900D01*
X159358985Y-93397519D01*
X159477519Y-93278985D01*
X159616900Y-93185853D01*
X159771772Y-93121703D01*
X159936184Y-93089000D01*
X160103816Y-93089000D01*
X160268228Y-93121703D01*
X160268228Y-93121703D01*
G37*
G36*
X108826565Y-91349389D02*
X109017834Y-91428615D01*
X109189976Y-91543637D01*
X109336363Y-91690024D01*
X109451385Y-91862166D01*
X109530611Y-92053435D01*
X109571000Y-92256484D01*
X109571000Y-92463516D01*
X109530611Y-92666565D01*
X109451385Y-92857834D01*
X109336363Y-93029976D01*
X109189976Y-93176363D01*
X109017834Y-93291385D01*
X108826565Y-93370611D01*
X108623516Y-93411000D01*
X108416484Y-93411000D01*
X108213435Y-93370611D01*
X108022166Y-93291385D01*
X107850024Y-93176363D01*
X107703637Y-93029976D01*
X107588615Y-92857834D01*
X107509389Y-92666565D01*
X107469000Y-92463516D01*
X107469000Y-92256484D01*
X107509389Y-92053435D01*
X107588615Y-91862166D01*
X107703637Y-91690024D01*
X107850024Y-91543637D01*
X108022166Y-91428615D01*
X108213435Y-91349389D01*
X108416484Y-91309000D01*
X108623516Y-91309000D01*
X108826565Y-91349389D01*
X108826565Y-91349389D01*
G37*
G36*
X84826565Y-91349389D02*
X85017834Y-91428615D01*
X85189976Y-91543637D01*
X85336363Y-91690024D01*
X85451385Y-91862166D01*
X85530611Y-92053435D01*
X85571000Y-92256484D01*
X85571000Y-92463516D01*
X85530611Y-92666565D01*
X85451385Y-92857834D01*
X85336363Y-93029976D01*
X85189976Y-93176363D01*
X85017834Y-93291385D01*
X84826565Y-93370611D01*
X84623516Y-93411000D01*
X84416484Y-93411000D01*
X84213435Y-93370611D01*
X84022166Y-93291385D01*
X83850024Y-93176363D01*
X83703637Y-93029976D01*
X83588615Y-92857834D01*
X83509389Y-92666565D01*
X83469000Y-92463516D01*
X83469000Y-92256484D01*
X83509389Y-92053435D01*
X83588615Y-91862166D01*
X83703637Y-91690024D01*
X83850024Y-91543637D01*
X84022166Y-91428615D01*
X84213435Y-91349389D01*
X84416484Y-91309000D01*
X84623516Y-91309000D01*
X84826565Y-91349389D01*
X84826565Y-91349389D01*
G37*
G36*
X167271000Y-92341000D02*
X165469000Y-92341000D01*
X165469000Y-90539000D01*
X167271000Y-90539000D01*
X167271000Y-92341000D01*
X167271000Y-92341000D01*
G37*
G36*
X155050443Y-90545519D02*
X155116627Y-90552037D01*
X155229853Y-90586384D01*
X155286467Y-90603557D01*
X155381481Y-90654344D01*
X155442991Y-90687222D01*
X155478729Y-90716552D01*
X155580186Y-90799814D01*
X155660369Y-90897519D01*
X155692778Y-90937009D01*
X155692779Y-90937011D01*
X155776443Y-91093533D01*
X155776443Y-91093534D01*
X155827963Y-91263373D01*
X155845359Y-91440000D01*
X155827963Y-91616627D01*
X155806243Y-91688228D01*
X155776443Y-91786467D01*
X155735981Y-91862165D01*
X155692778Y-91942991D01*
X155663448Y-91978729D01*
X155580186Y-92080186D01*
X155478729Y-92163448D01*
X155442991Y-92192778D01*
X155442989Y-92192779D01*
X155286467Y-92276443D01*
X155238478Y-92291000D01*
X155116627Y-92327963D01*
X155050443Y-92334481D01*
X154984260Y-92341000D01*
X154895740Y-92341000D01*
X154829557Y-92334481D01*
X154763373Y-92327963D01*
X154641522Y-92291000D01*
X154593533Y-92276443D01*
X154437011Y-92192779D01*
X154437009Y-92192778D01*
X154401271Y-92163448D01*
X154299814Y-92080186D01*
X154216552Y-91978729D01*
X154187222Y-91942991D01*
X154144019Y-91862165D01*
X154103557Y-91786467D01*
X154073757Y-91688228D01*
X154052037Y-91616627D01*
X154034641Y-91440000D01*
X154052037Y-91263373D01*
X154103557Y-91093534D01*
X154103557Y-91093533D01*
X154187221Y-90937011D01*
X154187222Y-90937009D01*
X154219631Y-90897519D01*
X154299814Y-90799814D01*
X154401271Y-90716552D01*
X154437009Y-90687222D01*
X154498519Y-90654344D01*
X154593533Y-90603557D01*
X154650147Y-90586384D01*
X154763373Y-90552037D01*
X154829558Y-90545518D01*
X154895740Y-90539000D01*
X154984260Y-90539000D01*
X155050443Y-90545519D01*
X155050443Y-90545519D01*
G37*
G36*
X160268228Y-90621703D02*
X160423100Y-90685853D01*
X160562481Y-90778985D01*
X160681015Y-90897519D01*
X160774147Y-91036900D01*
X160838297Y-91191772D01*
X160871000Y-91356184D01*
X160871000Y-91523816D01*
X160838297Y-91688228D01*
X160774147Y-91843100D01*
X160681015Y-91982481D01*
X160562481Y-92101015D01*
X160423100Y-92194147D01*
X160268228Y-92258297D01*
X160103816Y-92291000D01*
X159936184Y-92291000D01*
X159771772Y-92258297D01*
X159616900Y-92194147D01*
X159477519Y-92101015D01*
X159358985Y-91982481D01*
X159265853Y-91843100D01*
X159201703Y-91688228D01*
X159169000Y-91523816D01*
X159169000Y-91356184D01*
X159201703Y-91191772D01*
X159265853Y-91036900D01*
X159358985Y-90897519D01*
X159477519Y-90778985D01*
X159616900Y-90685853D01*
X159771772Y-90621703D01*
X159936184Y-90589000D01*
X160103816Y-90589000D01*
X160268228Y-90621703D01*
X160268228Y-90621703D01*
G37*
G36*
X144561000Y-89951000D02*
X142459000Y-89951000D01*
X142459000Y-87849000D01*
X144561000Y-87849000D01*
X144561000Y-89951000D01*
X144561000Y-89951000D01*
G37*
G36*
X155841000Y-89801000D02*
X154039000Y-89801000D01*
X154039000Y-87999000D01*
X155841000Y-87999000D01*
X155841000Y-89801000D01*
X155841000Y-89801000D01*
G37*
G36*
X114486425Y-86692760D02*
X114486428Y-86692761D01*
X114486429Y-86692761D01*
X114665693Y-86747140D01*
X114665695Y-86747141D01*
X114830905Y-86835448D01*
X114975712Y-86954288D01*
X115094552Y-87099095D01*
X115094553Y-87099097D01*
X115182860Y-87264307D01*
X115237239Y-87443571D01*
X115237240Y-87443575D01*
X115255601Y-87630000D01*
X115237240Y-87816425D01*
X115237239Y-87816428D01*
X115237239Y-87816429D01*
X115227359Y-87849000D01*
X115182859Y-87995695D01*
X115094552Y-88160905D01*
X114975712Y-88305712D01*
X114830905Y-88424552D01*
X114830903Y-88424553D01*
X114665693Y-88512860D01*
X114486429Y-88567239D01*
X114486428Y-88567239D01*
X114486425Y-88567240D01*
X114346718Y-88581000D01*
X114253282Y-88581000D01*
X114113575Y-88567240D01*
X114113572Y-88567239D01*
X114113571Y-88567239D01*
X113934307Y-88512860D01*
X113769097Y-88424553D01*
X113769095Y-88424552D01*
X113624288Y-88305712D01*
X113505448Y-88160905D01*
X113417141Y-87995695D01*
X113372642Y-87849000D01*
X113362761Y-87816429D01*
X113362761Y-87816428D01*
X113362760Y-87816425D01*
X113344399Y-87630000D01*
X113362760Y-87443575D01*
X113362761Y-87443571D01*
X113417140Y-87264307D01*
X113505447Y-87099097D01*
X113505448Y-87099095D01*
X113624288Y-86954288D01*
X113769095Y-86835448D01*
X113934305Y-86747141D01*
X113934307Y-86747140D01*
X114113571Y-86692761D01*
X114113572Y-86692761D01*
X114113575Y-86692760D01*
X114253282Y-86679000D01*
X114346718Y-86679000D01*
X114486425Y-86692760D01*
X114486425Y-86692760D01*
G37*
G36*
X108826565Y-85349389D02*
X109017834Y-85428615D01*
X109189976Y-85543637D01*
X109336363Y-85690024D01*
X109451385Y-85862166D01*
X109530611Y-86053435D01*
X109571000Y-86256484D01*
X109571000Y-86463516D01*
X109530611Y-86666565D01*
X109451385Y-86857834D01*
X109336363Y-87029976D01*
X109189976Y-87176363D01*
X109017834Y-87291385D01*
X108826565Y-87370611D01*
X108623516Y-87411000D01*
X108416484Y-87411000D01*
X108213435Y-87370611D01*
X108022166Y-87291385D01*
X107850024Y-87176363D01*
X107703637Y-87029976D01*
X107588615Y-86857834D01*
X107509389Y-86666565D01*
X107469000Y-86463516D01*
X107469000Y-86256484D01*
X107509389Y-86053435D01*
X107588615Y-85862166D01*
X107703637Y-85690024D01*
X107850024Y-85543637D01*
X108022166Y-85428615D01*
X108213435Y-85349389D01*
X108416484Y-85309000D01*
X108623516Y-85309000D01*
X108826565Y-85349389D01*
X108826565Y-85349389D01*
G37*
G36*
X167271000Y-83451000D02*
X165469000Y-83451000D01*
X165469000Y-81649000D01*
X167271000Y-81649000D01*
X167271000Y-83451000D01*
X167271000Y-83451000D01*
G37*
G36*
X108826565Y-79349389D02*
X109017834Y-79428615D01*
X109189976Y-79543637D01*
X109336363Y-79690024D01*
X109451385Y-79862166D01*
X109530611Y-80053435D01*
X109571000Y-80256484D01*
X109571000Y-80463516D01*
X109530611Y-80666565D01*
X109451385Y-80857834D01*
X109336363Y-81029976D01*
X109189976Y-81176363D01*
X109017834Y-81291385D01*
X108826565Y-81370611D01*
X108623516Y-81411000D01*
X108416484Y-81411000D01*
X108213435Y-81370611D01*
X108022166Y-81291385D01*
X107850024Y-81176363D01*
X107703637Y-81029976D01*
X107588615Y-80857834D01*
X107509389Y-80666565D01*
X107469000Y-80463516D01*
X107469000Y-80256484D01*
X107509389Y-80053435D01*
X107588615Y-79862166D01*
X107703637Y-79690024D01*
X107850024Y-79543637D01*
X108022166Y-79428615D01*
X108213435Y-79349389D01*
X108416484Y-79309000D01*
X108623516Y-79309000D01*
X108826565Y-79349389D01*
X108826565Y-79349389D01*
G37*
G36*
X84826565Y-79349389D02*
X85017834Y-79428615D01*
X85189976Y-79543637D01*
X85336363Y-79690024D01*
X85451385Y-79862166D01*
X85530611Y-80053435D01*
X85571000Y-80256484D01*
X85571000Y-80463516D01*
X85530611Y-80666565D01*
X85451385Y-80857834D01*
X85336363Y-81029976D01*
X85189976Y-81176363D01*
X85017834Y-81291385D01*
X84826565Y-81370611D01*
X84623516Y-81411000D01*
X84416484Y-81411000D01*
X84213435Y-81370611D01*
X84022166Y-81291385D01*
X83850024Y-81176363D01*
X83703637Y-81029976D01*
X83588615Y-80857834D01*
X83509389Y-80666565D01*
X83469000Y-80463516D01*
X83469000Y-80256484D01*
X83509389Y-80053435D01*
X83588615Y-79862166D01*
X83703637Y-79690024D01*
X83850024Y-79543637D01*
X84022166Y-79428615D01*
X84213435Y-79349389D01*
X84416484Y-79309000D01*
X84623516Y-79309000D01*
X84826565Y-79349389D01*
X84826565Y-79349389D01*
G37*
G36*
X74987475Y-72468893D02*
X74987477Y-72468894D01*
X74987478Y-72468894D01*
X75815707Y-72811957D01*
X76557727Y-73307760D01*
X76561096Y-73310011D01*
X77194990Y-73943905D01*
X77194992Y-73943908D01*
X77693044Y-74689294D01*
X78017450Y-75472481D01*
X78036108Y-75517526D01*
X78211000Y-76396765D01*
X78211000Y-77293237D01*
X78052312Y-78091015D01*
X78036107Y-78172479D01*
X77693044Y-79000708D01*
X77325447Y-79550855D01*
X77194990Y-79746097D01*
X76561096Y-80379991D01*
X76561093Y-80379993D01*
X75815707Y-80878045D01*
X74987478Y-81221108D01*
X74987477Y-81221108D01*
X74987475Y-81221109D01*
X74108236Y-81396001D01*
X73211764Y-81396001D01*
X72332525Y-81221109D01*
X72332523Y-81221108D01*
X72332522Y-81221108D01*
X71504293Y-80878045D01*
X70758907Y-80379993D01*
X70758904Y-80379991D01*
X70125010Y-79746097D01*
X69994553Y-79550855D01*
X69626956Y-79000708D01*
X69283893Y-78172479D01*
X69267689Y-78091015D01*
X69109000Y-77293237D01*
X69109000Y-76396765D01*
X69283892Y-75517526D01*
X69302550Y-75472481D01*
X69626956Y-74689294D01*
X70125008Y-73943908D01*
X70125010Y-73943905D01*
X70758904Y-73310011D01*
X70762273Y-73307760D01*
X71504293Y-72811957D01*
X72332522Y-72468894D01*
X72332523Y-72468894D01*
X72332525Y-72468893D01*
X73211764Y-72294001D01*
X74108236Y-72294001D01*
X74987475Y-72468893D01*
X74987475Y-72468893D01*
G37*
G36*
X143816565Y-78919389D02*
X144007834Y-78998615D01*
X144179976Y-79113637D01*
X144326363Y-79260024D01*
X144441385Y-79432166D01*
X144520611Y-79623435D01*
X144561000Y-79826484D01*
X144561000Y-80033516D01*
X144520611Y-80236565D01*
X144441385Y-80427834D01*
X144326363Y-80599976D01*
X144179976Y-80746363D01*
X144007834Y-80861385D01*
X143816565Y-80940611D01*
X143613516Y-80981000D01*
X143406484Y-80981000D01*
X143203435Y-80940611D01*
X143012166Y-80861385D01*
X142840024Y-80746363D01*
X142693637Y-80599976D01*
X142578615Y-80427834D01*
X142499389Y-80236565D01*
X142459000Y-80033516D01*
X142459000Y-79826484D01*
X142499389Y-79623435D01*
X142578615Y-79432166D01*
X142693637Y-79260024D01*
X142840024Y-79113637D01*
X143012166Y-78998615D01*
X143203435Y-78919389D01*
X143406484Y-78879000D01*
X143613516Y-78879000D01*
X143816565Y-78919389D01*
X143816565Y-78919389D01*
G37*
G36*
X123496565Y-78919389D02*
X123687834Y-78998615D01*
X123859976Y-79113637D01*
X124006363Y-79260024D01*
X124121385Y-79432166D01*
X124200611Y-79623435D01*
X124241000Y-79826484D01*
X124241000Y-80033516D01*
X124200611Y-80236565D01*
X124121385Y-80427834D01*
X124006363Y-80599976D01*
X123859976Y-80746363D01*
X123687834Y-80861385D01*
X123496565Y-80940611D01*
X123293516Y-80981000D01*
X123086484Y-80981000D01*
X122883435Y-80940611D01*
X122692166Y-80861385D01*
X122520024Y-80746363D01*
X122373637Y-80599976D01*
X122258615Y-80427834D01*
X122179389Y-80236565D01*
X122139000Y-80033516D01*
X122139000Y-79826484D01*
X122179389Y-79623435D01*
X122258615Y-79432166D01*
X122373637Y-79260024D01*
X122520024Y-79113637D01*
X122692166Y-78998615D01*
X122883435Y-78919389D01*
X123086484Y-78879000D01*
X123293516Y-78879000D01*
X123496565Y-78919389D01*
X123496565Y-78919389D01*
G37*
G36*
X115251000Y-80961000D02*
X113349000Y-80961000D01*
X113349000Y-79059000D01*
X115251000Y-79059000D01*
X115251000Y-80961000D01*
X115251000Y-80961000D01*
G37*
G36*
X155050443Y-79115519D02*
X155116627Y-79122037D01*
X155214423Y-79151703D01*
X155286467Y-79173557D01*
X155365596Y-79215853D01*
X155442991Y-79257222D01*
X155471757Y-79280830D01*
X155580186Y-79369814D01*
X155631355Y-79432165D01*
X155692778Y-79507009D01*
X155692779Y-79507011D01*
X155776443Y-79663533D01*
X155776443Y-79663534D01*
X155827963Y-79833373D01*
X155845359Y-80010000D01*
X155827963Y-80186627D01*
X155802871Y-80269345D01*
X155776443Y-80356467D01*
X155738296Y-80427834D01*
X155692778Y-80512991D01*
X155671129Y-80539370D01*
X155580186Y-80650186D01*
X155493896Y-80721001D01*
X155442991Y-80762778D01*
X155442989Y-80762779D01*
X155286467Y-80846443D01*
X155248915Y-80857834D01*
X155116627Y-80897963D01*
X155050442Y-80904482D01*
X154984260Y-80911000D01*
X154895740Y-80911000D01*
X154829558Y-80904482D01*
X154763373Y-80897963D01*
X154631085Y-80857834D01*
X154593533Y-80846443D01*
X154437011Y-80762779D01*
X154437009Y-80762778D01*
X154386104Y-80721001D01*
X154299814Y-80650186D01*
X154208871Y-80539370D01*
X154187222Y-80512991D01*
X154141704Y-80427834D01*
X154103557Y-80356467D01*
X154077129Y-80269345D01*
X154052037Y-80186627D01*
X154034641Y-80010000D01*
X154052037Y-79833373D01*
X154103557Y-79663534D01*
X154103557Y-79663533D01*
X154187221Y-79507011D01*
X154187222Y-79507009D01*
X154248645Y-79432165D01*
X154299814Y-79369814D01*
X154408243Y-79280830D01*
X154437009Y-79257222D01*
X154514404Y-79215853D01*
X154593533Y-79173557D01*
X154665577Y-79151703D01*
X154763373Y-79122037D01*
X154829557Y-79115519D01*
X154895740Y-79109000D01*
X154984260Y-79109000D01*
X155050443Y-79115519D01*
X155050443Y-79115519D01*
G37*
G36*
X160268228Y-79151703D02*
X160423100Y-79215853D01*
X160562481Y-79308985D01*
X160681015Y-79427519D01*
X160774147Y-79566900D01*
X160838297Y-79721772D01*
X160871000Y-79886184D01*
X160871000Y-80053816D01*
X160838297Y-80218228D01*
X160774147Y-80373100D01*
X160681015Y-80512481D01*
X160562481Y-80631015D01*
X160423100Y-80724147D01*
X160268228Y-80788297D01*
X160103816Y-80821000D01*
X159936184Y-80821000D01*
X159771772Y-80788297D01*
X159616900Y-80724147D01*
X159477519Y-80631015D01*
X159358985Y-80512481D01*
X159265853Y-80373100D01*
X159201703Y-80218228D01*
X159169000Y-80053816D01*
X159169000Y-79886184D01*
X159201703Y-79721772D01*
X159265853Y-79566900D01*
X159358985Y-79427519D01*
X159477519Y-79308985D01*
X159616900Y-79215853D01*
X159771772Y-79151703D01*
X159936184Y-79119000D01*
X160103816Y-79119000D01*
X160268228Y-79151703D01*
X160268228Y-79151703D01*
G37*
G36*
X155050443Y-76575519D02*
X155116627Y-76582037D01*
X155201190Y-76607689D01*
X155286467Y-76633557D01*
X155365596Y-76675853D01*
X155442991Y-76717222D01*
X155478729Y-76746552D01*
X155580186Y-76829814D01*
X155633144Y-76894345D01*
X155692778Y-76967009D01*
X155692779Y-76967011D01*
X155776443Y-77123533D01*
X155793616Y-77180147D01*
X155827963Y-77293373D01*
X155845359Y-77470000D01*
X155827963Y-77646627D01*
X155818377Y-77678228D01*
X155776443Y-77816467D01*
X155702348Y-77955087D01*
X155692778Y-77972991D01*
X155663448Y-78008729D01*
X155580186Y-78110186D01*
X155490064Y-78184146D01*
X155442991Y-78222778D01*
X155442989Y-78222779D01*
X155286467Y-78306443D01*
X155238478Y-78321000D01*
X155116627Y-78357963D01*
X155050443Y-78364481D01*
X154984260Y-78371000D01*
X154895740Y-78371000D01*
X154829557Y-78364481D01*
X154763373Y-78357963D01*
X154641522Y-78321000D01*
X154593533Y-78306443D01*
X154437011Y-78222779D01*
X154437009Y-78222778D01*
X154389936Y-78184146D01*
X154299814Y-78110186D01*
X154216552Y-78008729D01*
X154187222Y-77972991D01*
X154177652Y-77955087D01*
X154103557Y-77816467D01*
X154061623Y-77678228D01*
X154052037Y-77646627D01*
X154034641Y-77470000D01*
X154052037Y-77293373D01*
X154086384Y-77180147D01*
X154103557Y-77123533D01*
X154187221Y-76967011D01*
X154187222Y-76967009D01*
X154246856Y-76894345D01*
X154299814Y-76829814D01*
X154401271Y-76746552D01*
X154437009Y-76717222D01*
X154514404Y-76675853D01*
X154593533Y-76633557D01*
X154678810Y-76607689D01*
X154763373Y-76582037D01*
X154829557Y-76575519D01*
X154895740Y-76569000D01*
X154984260Y-76569000D01*
X155050443Y-76575519D01*
X155050443Y-76575519D01*
G37*
G36*
X167271000Y-78371000D02*
X165469000Y-78371000D01*
X165469000Y-76569000D01*
X167271000Y-76569000D01*
X167271000Y-78371000D01*
X167271000Y-78371000D01*
G37*
G36*
X160268228Y-76651703D02*
X160423100Y-76715853D01*
X160562481Y-76808985D01*
X160681015Y-76927519D01*
X160774147Y-77066900D01*
X160838297Y-77221772D01*
X160871000Y-77386184D01*
X160871000Y-77553816D01*
X160838297Y-77718228D01*
X160774147Y-77873100D01*
X160681015Y-78012481D01*
X160562481Y-78131015D01*
X160423100Y-78224147D01*
X160268228Y-78288297D01*
X160103816Y-78321000D01*
X159936184Y-78321000D01*
X159771772Y-78288297D01*
X159616900Y-78224147D01*
X159477519Y-78131015D01*
X159358985Y-78012481D01*
X159265853Y-77873100D01*
X159201703Y-77718228D01*
X159169000Y-77553816D01*
X159169000Y-77386184D01*
X159201703Y-77221772D01*
X159265853Y-77066900D01*
X159358985Y-76927519D01*
X159477519Y-76808985D01*
X159616900Y-76715853D01*
X159771772Y-76651703D01*
X159936184Y-76619000D01*
X160103816Y-76619000D01*
X160268228Y-76651703D01*
X160268228Y-76651703D01*
G37*
G36*
X133598228Y-76611703D02*
X133753100Y-76675853D01*
X133892481Y-76768985D01*
X134011015Y-76887519D01*
X134104147Y-77026900D01*
X134168297Y-77181772D01*
X134201000Y-77346184D01*
X134201000Y-77513816D01*
X134168297Y-77678228D01*
X134104147Y-77833100D01*
X134011015Y-77972481D01*
X133892481Y-78091015D01*
X133753100Y-78184147D01*
X133598228Y-78248297D01*
X133433816Y-78281000D01*
X133266184Y-78281000D01*
X133101772Y-78248297D01*
X132946900Y-78184147D01*
X132807519Y-78091015D01*
X132688985Y-77972481D01*
X132595853Y-77833100D01*
X132531703Y-77678228D01*
X132499000Y-77513816D01*
X132499000Y-77346184D01*
X132531703Y-77181772D01*
X132595853Y-77026900D01*
X132688985Y-76887519D01*
X132807519Y-76768985D01*
X132946900Y-76675853D01*
X133101772Y-76611703D01*
X133266184Y-76579000D01*
X133433816Y-76579000D01*
X133598228Y-76611703D01*
X133598228Y-76611703D01*
G37*
G36*
X144561000Y-75981000D02*
X142459000Y-75981000D01*
X142459000Y-73879000D01*
X144561000Y-73879000D01*
X144561000Y-75981000D01*
X144561000Y-75981000D01*
G37*
G36*
X124241000Y-75981000D02*
X122139000Y-75981000D01*
X122139000Y-73879000D01*
X124241000Y-73879000D01*
X124241000Y-75981000D01*
X124241000Y-75981000D01*
G37*
G36*
X115251000Y-75881000D02*
X113349000Y-75881000D01*
X113349000Y-73979000D01*
X115251000Y-73979000D01*
X115251000Y-75881000D01*
X115251000Y-75881000D01*
G37*
G36*
X155841000Y-75831000D02*
X154039000Y-75831000D01*
X154039000Y-74029000D01*
X155841000Y-74029000D01*
X155841000Y-75831000D01*
X155841000Y-75831000D01*
G37*
G36*
X133598228Y-74111703D02*
X133753100Y-74175853D01*
X133892481Y-74268985D01*
X134011015Y-74387519D01*
X134104147Y-74526900D01*
X134168297Y-74681772D01*
X134201000Y-74846184D01*
X134201000Y-75013816D01*
X134168297Y-75178228D01*
X134104147Y-75333100D01*
X134011015Y-75472481D01*
X133892481Y-75591015D01*
X133753100Y-75684147D01*
X133598228Y-75748297D01*
X133433816Y-75781000D01*
X133266184Y-75781000D01*
X133101772Y-75748297D01*
X132946900Y-75684147D01*
X132807519Y-75591015D01*
X132688985Y-75472481D01*
X132595853Y-75333100D01*
X132531703Y-75178228D01*
X132499000Y-75013816D01*
X132499000Y-74846184D01*
X132531703Y-74681772D01*
X132595853Y-74526900D01*
X132688985Y-74387519D01*
X132807519Y-74268985D01*
X132946900Y-74175853D01*
X133101772Y-74111703D01*
X133266184Y-74079000D01*
X133433816Y-74079000D01*
X133598228Y-74111703D01*
X133598228Y-74111703D01*
G37*
G36*
X114486425Y-66372760D02*
X114486428Y-66372761D01*
X114486429Y-66372761D01*
X114665693Y-66427140D01*
X114665695Y-66427141D01*
X114830905Y-66515448D01*
X114975712Y-66634288D01*
X115094552Y-66779095D01*
X115182859Y-66944305D01*
X115237240Y-67123575D01*
X115255601Y-67310000D01*
X115237240Y-67496425D01*
X115182859Y-67675695D01*
X115094552Y-67840905D01*
X114975712Y-67985712D01*
X114830905Y-68104552D01*
X114830903Y-68104553D01*
X114665693Y-68192860D01*
X114486429Y-68247239D01*
X114486428Y-68247239D01*
X114486425Y-68247240D01*
X114346718Y-68261000D01*
X114253282Y-68261000D01*
X114113575Y-68247240D01*
X114113572Y-68247239D01*
X114113571Y-68247239D01*
X113934307Y-68192860D01*
X113769097Y-68104553D01*
X113769095Y-68104552D01*
X113624288Y-67985712D01*
X113505448Y-67840905D01*
X113417141Y-67675695D01*
X113362760Y-67496425D01*
X113344399Y-67310000D01*
X113362760Y-67123575D01*
X113417141Y-66944305D01*
X113505448Y-66779095D01*
X113624288Y-66634288D01*
X113769095Y-66515448D01*
X113934305Y-66427141D01*
X113934307Y-66427140D01*
X114113571Y-66372761D01*
X114113572Y-66372761D01*
X114113575Y-66372760D01*
X114253282Y-66359000D01*
X114346718Y-66359000D01*
X114486425Y-66372760D01*
X114486425Y-66372760D01*
G37*
M02*
