G04 #@! TF.GenerationSoftware,KiCad,Pcbnew,(5.0.1-3-g963ef8bb5)*
G04 #@! TF.CreationDate,2018-11-19T01:27:49+09:00*
G04 #@! TF.ProjectId,firstTraining,6669727374547261696E696E672E6B69,rev?*
G04 #@! TF.SameCoordinates,Original*
G04 #@! TF.FileFunction,Soldermask,Top*
G04 #@! TF.FilePolarity,Negative*
%FSLAX46Y46*%
G04 Gerber Fmt 4.6, Leading zero omitted, Abs format (unit mm)*
G04 Created by KiCad (PCBNEW (5.0.1-3-g963ef8bb5)) date 2018年11月19日 月曜日 01:27:49*
%MOMM*%
%LPD*%
G01*
G04 APERTURE LIST*
%ADD10C,0.100000*%
G04 APERTURE END LIST*
D10*
G36*
X104799819Y-112383086D02*
X105452602Y-112512932D01*
X106271550Y-112852151D01*
X107008583Y-113344621D01*
X107635379Y-113971417D01*
X108127849Y-114708450D01*
X108467068Y-115527398D01*
X108575482Y-116072433D01*
X108625113Y-116321944D01*
X108640000Y-116396789D01*
X108640000Y-117283211D01*
X108467068Y-118152602D01*
X108127849Y-118971550D01*
X107635379Y-119708583D01*
X107008583Y-120335379D01*
X106271550Y-120827849D01*
X105452602Y-121167068D01*
X104799819Y-121296914D01*
X104583213Y-121340000D01*
X103696787Y-121340000D01*
X103480181Y-121296914D01*
X102827398Y-121167068D01*
X102008450Y-120827849D01*
X101271417Y-120335379D01*
X100644621Y-119708583D01*
X100152151Y-118971550D01*
X99812932Y-118152602D01*
X99640000Y-117283211D01*
X99640000Y-116396789D01*
X99654888Y-116321944D01*
X99704518Y-116072433D01*
X99812932Y-115527398D01*
X100152151Y-114708450D01*
X100644621Y-113971417D01*
X101271417Y-113344621D01*
X102008450Y-112852151D01*
X102827398Y-112512932D01*
X103480181Y-112383086D01*
X103696787Y-112340000D01*
X104583213Y-112340000D01*
X104799819Y-112383086D01*
X104799819Y-112383086D01*
G37*
G36*
X151306432Y-114683022D02*
X151476081Y-114734485D01*
X151632433Y-114818056D01*
X151769475Y-114930525D01*
X151881944Y-115067567D01*
X151965515Y-115223919D01*
X152016978Y-115393568D01*
X152034354Y-115570000D01*
X152016978Y-115746432D01*
X151965515Y-115916081D01*
X151881944Y-116072433D01*
X151769475Y-116209475D01*
X151632433Y-116321944D01*
X151476081Y-116405515D01*
X151306432Y-116456978D01*
X151174211Y-116470000D01*
X151085789Y-116470000D01*
X150953568Y-116456978D01*
X150783919Y-116405515D01*
X150627567Y-116321944D01*
X150490525Y-116209475D01*
X150378056Y-116072433D01*
X150294485Y-115916081D01*
X150243022Y-115746432D01*
X150225646Y-115570000D01*
X150243022Y-115393568D01*
X150294485Y-115223919D01*
X150378056Y-115067567D01*
X150490525Y-114930525D01*
X150627567Y-114818056D01*
X150783919Y-114734485D01*
X150953568Y-114683022D01*
X151085789Y-114670000D01*
X151174211Y-114670000D01*
X151306432Y-114683022D01*
X151306432Y-114683022D01*
G37*
G36*
X193890000Y-113880000D02*
X192190000Y-113880000D01*
X192190000Y-112180000D01*
X193890000Y-112180000D01*
X193890000Y-113880000D01*
X193890000Y-113880000D01*
G37*
G36*
X161523352Y-112220743D02*
X161668941Y-112281048D01*
X161799973Y-112368601D01*
X161911399Y-112480027D01*
X161998952Y-112611059D01*
X162059257Y-112756648D01*
X162090000Y-112911205D01*
X162090000Y-113068795D01*
X162059257Y-113223352D01*
X161998952Y-113368941D01*
X161911399Y-113499973D01*
X161799973Y-113611399D01*
X161668941Y-113698952D01*
X161523352Y-113759257D01*
X161368795Y-113790000D01*
X161211205Y-113790000D01*
X161056648Y-113759257D01*
X160911059Y-113698952D01*
X160780027Y-113611399D01*
X160668601Y-113499973D01*
X160581048Y-113368941D01*
X160520743Y-113223352D01*
X160490000Y-113068795D01*
X160490000Y-112911205D01*
X160520743Y-112756648D01*
X160581048Y-112611059D01*
X160668601Y-112480027D01*
X160780027Y-112368601D01*
X160911059Y-112281048D01*
X161056648Y-112220743D01*
X161211205Y-112190000D01*
X161368795Y-112190000D01*
X161523352Y-112220743D01*
X161523352Y-112220743D01*
G37*
G36*
X161523352Y-109720743D02*
X161668941Y-109781048D01*
X161799973Y-109868601D01*
X161911399Y-109980027D01*
X161998952Y-110111059D01*
X162059257Y-110256648D01*
X162090000Y-110411205D01*
X162090000Y-110568795D01*
X162059257Y-110723352D01*
X161998952Y-110868941D01*
X161911399Y-110999973D01*
X161799973Y-111111399D01*
X161668941Y-111198952D01*
X161523352Y-111259257D01*
X161368795Y-111290000D01*
X161211205Y-111290000D01*
X161056648Y-111259257D01*
X160911059Y-111198952D01*
X160780027Y-111111399D01*
X160668601Y-110999973D01*
X160581048Y-110868941D01*
X160520743Y-110723352D01*
X160490000Y-110568795D01*
X160490000Y-110411205D01*
X160520743Y-110256648D01*
X160581048Y-110111059D01*
X160668601Y-109980027D01*
X160780027Y-109868601D01*
X160911059Y-109781048D01*
X161056648Y-109720743D01*
X161211205Y-109690000D01*
X161368795Y-109690000D01*
X161523352Y-109720743D01*
X161523352Y-109720743D01*
G37*
G36*
X181783195Y-108477522D02*
X181832267Y-108487283D01*
X181970942Y-108544724D01*
X182095750Y-108628118D01*
X182201882Y-108734250D01*
X182201884Y-108734253D01*
X182285276Y-108859058D01*
X182342717Y-108997733D01*
X182372000Y-109144950D01*
X182372000Y-109295050D01*
X182342717Y-109442267D01*
X182327087Y-109480000D01*
X182285276Y-109580942D01*
X182201882Y-109705750D01*
X182095750Y-109811882D01*
X182095747Y-109811884D01*
X181970942Y-109895276D01*
X181832267Y-109952717D01*
X181783195Y-109962478D01*
X181685052Y-109982000D01*
X181534948Y-109982000D01*
X181436805Y-109962478D01*
X181387733Y-109952717D01*
X181249058Y-109895276D01*
X181124253Y-109811884D01*
X181124250Y-109811882D01*
X181018118Y-109705750D01*
X180934724Y-109580942D01*
X180892913Y-109480000D01*
X180877283Y-109442267D01*
X180848000Y-109295050D01*
X180848000Y-109144950D01*
X180877283Y-108997733D01*
X180934724Y-108859058D01*
X181018116Y-108734253D01*
X181018118Y-108734250D01*
X181124250Y-108628118D01*
X181249058Y-108544724D01*
X181387733Y-108487283D01*
X181436805Y-108477522D01*
X181534948Y-108458000D01*
X181685052Y-108458000D01*
X181783195Y-108477522D01*
X181783195Y-108477522D01*
G37*
G36*
X186923352Y-107910743D02*
X187068941Y-107971048D01*
X187199973Y-108058601D01*
X187311399Y-108170027D01*
X187398952Y-108301059D01*
X187459257Y-108446648D01*
X187490000Y-108601205D01*
X187490000Y-108758795D01*
X187459257Y-108913352D01*
X187398952Y-109058941D01*
X187311399Y-109189973D01*
X187199973Y-109301399D01*
X187068941Y-109388952D01*
X186923352Y-109449257D01*
X186768795Y-109480000D01*
X186611205Y-109480000D01*
X186456648Y-109449257D01*
X186311059Y-109388952D01*
X186180027Y-109301399D01*
X186068601Y-109189973D01*
X185981048Y-109058941D01*
X185920743Y-108913352D01*
X185890000Y-108758795D01*
X185890000Y-108601205D01*
X185920743Y-108446648D01*
X185981048Y-108301059D01*
X186068601Y-108170027D01*
X186180027Y-108058601D01*
X186311059Y-107971048D01*
X186456648Y-107910743D01*
X186611205Y-107880000D01*
X186768795Y-107880000D01*
X186923352Y-107910743D01*
X186923352Y-107910743D01*
G37*
G36*
X152030000Y-108850000D02*
X150230000Y-108850000D01*
X150230000Y-107050000D01*
X152030000Y-107050000D01*
X152030000Y-108850000D01*
X152030000Y-108850000D01*
G37*
G36*
X193890000Y-107530000D02*
X192190000Y-107530000D01*
X192190000Y-105830000D01*
X193890000Y-105830000D01*
X193890000Y-107530000D01*
X193890000Y-107530000D01*
G37*
G36*
X187490000Y-107480000D02*
X185890000Y-107480000D01*
X185890000Y-105880000D01*
X187490000Y-105880000D01*
X187490000Y-107480000D01*
X187490000Y-107480000D01*
G37*
G36*
X181783195Y-105937522D02*
X181832267Y-105947283D01*
X181970942Y-106004724D01*
X182095750Y-106088118D01*
X182201882Y-106194250D01*
X182201884Y-106194253D01*
X182285276Y-106319058D01*
X182330605Y-106428491D01*
X182342717Y-106457734D01*
X182372000Y-106604948D01*
X182372000Y-106755052D01*
X182342717Y-106902266D01*
X182285276Y-107040942D01*
X182201882Y-107165750D01*
X182095750Y-107271882D01*
X182095747Y-107271884D01*
X181970942Y-107355276D01*
X181832267Y-107412717D01*
X181783195Y-107422478D01*
X181685052Y-107442000D01*
X181534948Y-107442000D01*
X181436805Y-107422478D01*
X181387733Y-107412717D01*
X181249058Y-107355276D01*
X181124253Y-107271884D01*
X181124250Y-107271882D01*
X181018118Y-107165750D01*
X180934724Y-107040942D01*
X180877283Y-106902266D01*
X180848000Y-106755052D01*
X180848000Y-106604948D01*
X180877283Y-106457734D01*
X180889396Y-106428491D01*
X180934724Y-106319058D01*
X181018116Y-106194253D01*
X181018118Y-106194250D01*
X181124250Y-106088118D01*
X181249058Y-106004724D01*
X181387733Y-105947283D01*
X181436805Y-105937522D01*
X181534948Y-105918000D01*
X181685052Y-105918000D01*
X181783195Y-105937522D01*
X181783195Y-105937522D01*
G37*
G36*
X178033352Y-105870743D02*
X178178941Y-105931048D01*
X178309973Y-106018601D01*
X178421399Y-106130027D01*
X178508952Y-106261059D01*
X178569257Y-106406648D01*
X178600000Y-106561205D01*
X178600000Y-106718795D01*
X178569257Y-106873352D01*
X178508952Y-107018941D01*
X178421399Y-107149973D01*
X178309973Y-107261399D01*
X178178941Y-107348952D01*
X178033352Y-107409257D01*
X177878795Y-107440000D01*
X177721205Y-107440000D01*
X177566648Y-107409257D01*
X177421059Y-107348952D01*
X177290027Y-107261399D01*
X177178601Y-107149973D01*
X177091048Y-107018941D01*
X177030743Y-106873352D01*
X177000000Y-106718795D01*
X177000000Y-106561205D01*
X177030743Y-106406648D01*
X177091048Y-106261059D01*
X177178601Y-106130027D01*
X177290027Y-106018601D01*
X177421059Y-105931048D01*
X177566648Y-105870743D01*
X177721205Y-105840000D01*
X177878795Y-105840000D01*
X178033352Y-105870743D01*
X178033352Y-105870743D01*
G37*
G36*
X144255770Y-105345372D02*
X144371689Y-105368429D01*
X144553678Y-105443811D01*
X144717463Y-105553249D01*
X144856751Y-105692537D01*
X144966189Y-105856322D01*
X145041571Y-106038311D01*
X145051478Y-106088118D01*
X145080000Y-106231507D01*
X145080000Y-106428493D01*
X145064628Y-106505770D01*
X145041571Y-106621689D01*
X144966189Y-106803678D01*
X144856751Y-106967463D01*
X144717463Y-107106751D01*
X144553678Y-107216189D01*
X144371689Y-107291571D01*
X144255770Y-107314628D01*
X144178493Y-107330000D01*
X143981507Y-107330000D01*
X143904230Y-107314628D01*
X143788311Y-107291571D01*
X143606322Y-107216189D01*
X143442537Y-107106751D01*
X143303249Y-106967463D01*
X143193811Y-106803678D01*
X143118429Y-106621689D01*
X143095372Y-106505770D01*
X143080000Y-106428493D01*
X143080000Y-106231507D01*
X143108522Y-106088118D01*
X143118429Y-106038311D01*
X143193811Y-105856322D01*
X143303249Y-105692537D01*
X143442537Y-105553249D01*
X143606322Y-105443811D01*
X143788311Y-105368429D01*
X143904230Y-105345372D01*
X143981507Y-105330000D01*
X144178493Y-105330000D01*
X144255770Y-105345372D01*
X144255770Y-105345372D01*
G37*
G36*
X120255770Y-105345372D02*
X120371689Y-105368429D01*
X120553678Y-105443811D01*
X120717463Y-105553249D01*
X120856751Y-105692537D01*
X120966189Y-105856322D01*
X121041571Y-106038311D01*
X121051478Y-106088118D01*
X121080000Y-106231507D01*
X121080000Y-106428493D01*
X121064628Y-106505770D01*
X121041571Y-106621689D01*
X120966189Y-106803678D01*
X120856751Y-106967463D01*
X120717463Y-107106751D01*
X120553678Y-107216189D01*
X120371689Y-107291571D01*
X120255770Y-107314628D01*
X120178493Y-107330000D01*
X119981507Y-107330000D01*
X119904230Y-107314628D01*
X119788311Y-107291571D01*
X119606322Y-107216189D01*
X119442537Y-107106751D01*
X119303249Y-106967463D01*
X119193811Y-106803678D01*
X119118429Y-106621689D01*
X119095372Y-106505770D01*
X119080000Y-106428493D01*
X119080000Y-106231507D01*
X119108522Y-106088118D01*
X119118429Y-106038311D01*
X119193811Y-105856322D01*
X119303249Y-105692537D01*
X119442537Y-105553249D01*
X119606322Y-105443811D01*
X119788311Y-105368429D01*
X119904230Y-105345372D01*
X119981507Y-105330000D01*
X120178493Y-105330000D01*
X120255770Y-105345372D01*
X120255770Y-105345372D01*
G37*
G36*
X178033352Y-103370743D02*
X178178941Y-103431048D01*
X178309973Y-103518601D01*
X178421399Y-103630027D01*
X178508952Y-103761059D01*
X178569257Y-103906648D01*
X178600000Y-104061205D01*
X178600000Y-104218795D01*
X178569257Y-104373352D01*
X178508952Y-104518941D01*
X178421399Y-104649973D01*
X178309973Y-104761399D01*
X178178941Y-104848952D01*
X178033352Y-104909257D01*
X177878795Y-104940000D01*
X177721205Y-104940000D01*
X177566648Y-104909257D01*
X177421059Y-104848952D01*
X177290027Y-104761399D01*
X177178601Y-104649973D01*
X177091048Y-104518941D01*
X177030743Y-104373352D01*
X177000000Y-104218795D01*
X177000000Y-104061205D01*
X177030743Y-103906648D01*
X177091048Y-103761059D01*
X177178601Y-103630027D01*
X177290027Y-103518601D01*
X177421059Y-103431048D01*
X177566648Y-103370743D01*
X177721205Y-103340000D01*
X177878795Y-103340000D01*
X178033352Y-103370743D01*
X178033352Y-103370743D01*
G37*
G36*
X181783195Y-103397522D02*
X181832267Y-103407283D01*
X181889643Y-103431049D01*
X181970942Y-103464724D01*
X182095750Y-103548118D01*
X182201882Y-103654250D01*
X182201884Y-103654253D01*
X182285276Y-103779058D01*
X182338126Y-103906649D01*
X182342717Y-103917734D01*
X182372000Y-104064948D01*
X182372000Y-104215052D01*
X182371255Y-104218795D01*
X182342717Y-104362267D01*
X182338125Y-104373352D01*
X182285276Y-104500942D01*
X182201882Y-104625750D01*
X182095750Y-104731882D01*
X182095747Y-104731884D01*
X181970942Y-104815276D01*
X181832267Y-104872717D01*
X181783195Y-104882478D01*
X181685052Y-104902000D01*
X181534948Y-104902000D01*
X181436805Y-104882478D01*
X181387733Y-104872717D01*
X181249058Y-104815276D01*
X181124253Y-104731884D01*
X181124250Y-104731882D01*
X181018118Y-104625750D01*
X180934724Y-104500942D01*
X180881875Y-104373352D01*
X180877283Y-104362267D01*
X180848745Y-104218795D01*
X180848000Y-104215052D01*
X180848000Y-104064948D01*
X180877283Y-103917734D01*
X180881875Y-103906649D01*
X180934724Y-103779058D01*
X181018116Y-103654253D01*
X181018118Y-103654250D01*
X181124250Y-103548118D01*
X181249058Y-103464724D01*
X181330357Y-103431049D01*
X181387733Y-103407283D01*
X181436805Y-103397522D01*
X181534948Y-103378000D01*
X181685052Y-103378000D01*
X181783195Y-103397522D01*
X181783195Y-103397522D01*
G37*
G36*
X144255770Y-99345372D02*
X144371689Y-99368429D01*
X144553678Y-99443811D01*
X144717463Y-99553249D01*
X144856751Y-99692537D01*
X144966189Y-99856322D01*
X145041571Y-100038311D01*
X145080000Y-100231509D01*
X145080000Y-100428491D01*
X145041571Y-100621689D01*
X144966189Y-100803678D01*
X144856751Y-100967463D01*
X144717463Y-101106751D01*
X144553678Y-101216189D01*
X144371689Y-101291571D01*
X144255770Y-101314628D01*
X144178493Y-101330000D01*
X143981507Y-101330000D01*
X143904230Y-101314628D01*
X143788311Y-101291571D01*
X143606322Y-101216189D01*
X143442537Y-101106751D01*
X143303249Y-100967463D01*
X143193811Y-100803678D01*
X143118429Y-100621689D01*
X143080000Y-100428491D01*
X143080000Y-100231509D01*
X143118429Y-100038311D01*
X143193811Y-99856322D01*
X143303249Y-99692537D01*
X143442537Y-99553249D01*
X143606322Y-99443811D01*
X143788311Y-99368429D01*
X143904230Y-99345372D01*
X143981507Y-99330000D01*
X144178493Y-99330000D01*
X144255770Y-99345372D01*
X144255770Y-99345372D01*
G37*
G36*
X193890000Y-101180000D02*
X192190000Y-101180000D01*
X192190000Y-99480000D01*
X193890000Y-99480000D01*
X193890000Y-101180000D01*
X193890000Y-101180000D01*
G37*
G36*
X181783195Y-95777522D02*
X181832267Y-95787283D01*
X181970942Y-95844724D01*
X182095750Y-95928118D01*
X182201882Y-96034250D01*
X182201884Y-96034253D01*
X182285276Y-96159058D01*
X182342717Y-96297733D01*
X182372000Y-96444950D01*
X182372000Y-96595050D01*
X182342717Y-96742267D01*
X182327087Y-96780000D01*
X182285276Y-96880942D01*
X182201882Y-97005750D01*
X182095750Y-97111882D01*
X182095747Y-97111884D01*
X181970942Y-97195276D01*
X181832267Y-97252717D01*
X181783195Y-97262478D01*
X181685052Y-97282000D01*
X181534948Y-97282000D01*
X181436805Y-97262478D01*
X181387733Y-97252717D01*
X181249058Y-97195276D01*
X181124253Y-97111884D01*
X181124250Y-97111882D01*
X181018118Y-97005750D01*
X180934724Y-96880942D01*
X180892913Y-96780000D01*
X180877283Y-96742267D01*
X180848000Y-96595050D01*
X180848000Y-96444950D01*
X180877283Y-96297733D01*
X180934724Y-96159058D01*
X181018116Y-96034253D01*
X181018118Y-96034250D01*
X181124250Y-95928118D01*
X181249058Y-95844724D01*
X181387733Y-95787283D01*
X181436805Y-95777522D01*
X181534948Y-95758000D01*
X181685052Y-95758000D01*
X181783195Y-95777522D01*
X181783195Y-95777522D01*
G37*
G36*
X186923352Y-95210743D02*
X187068941Y-95271048D01*
X187199973Y-95358601D01*
X187311399Y-95470027D01*
X187398952Y-95601059D01*
X187459257Y-95746648D01*
X187490000Y-95901205D01*
X187490000Y-96058795D01*
X187459257Y-96213352D01*
X187398952Y-96358941D01*
X187311399Y-96489973D01*
X187199973Y-96601399D01*
X187068941Y-96688952D01*
X186923352Y-96749257D01*
X186768795Y-96780000D01*
X186611205Y-96780000D01*
X186456648Y-96749257D01*
X186311059Y-96688952D01*
X186180027Y-96601399D01*
X186068601Y-96489973D01*
X185981048Y-96358941D01*
X185920743Y-96213352D01*
X185890000Y-96058795D01*
X185890000Y-95901205D01*
X185920743Y-95746648D01*
X185981048Y-95601059D01*
X186068601Y-95470027D01*
X186180027Y-95358601D01*
X186311059Y-95271048D01*
X186456648Y-95210743D01*
X186611205Y-95180000D01*
X186768795Y-95180000D01*
X186923352Y-95210743D01*
X186923352Y-95210743D01*
G37*
G36*
X120255770Y-93345372D02*
X120371689Y-93368429D01*
X120553678Y-93443811D01*
X120717463Y-93553249D01*
X120856751Y-93692537D01*
X120966189Y-93856322D01*
X121041571Y-94038311D01*
X121064628Y-94154230D01*
X121080000Y-94231507D01*
X121080000Y-94428493D01*
X121072589Y-94465750D01*
X121041571Y-94621689D01*
X120966189Y-94803678D01*
X120856751Y-94967463D01*
X120717463Y-95106751D01*
X120553678Y-95216189D01*
X120371689Y-95291571D01*
X120255770Y-95314628D01*
X120178493Y-95330000D01*
X119981507Y-95330000D01*
X119904230Y-95314628D01*
X119788311Y-95291571D01*
X119606322Y-95216189D01*
X119442537Y-95106751D01*
X119303249Y-94967463D01*
X119193811Y-94803678D01*
X119118429Y-94621689D01*
X119087411Y-94465750D01*
X119080000Y-94428493D01*
X119080000Y-94231507D01*
X119095372Y-94154230D01*
X119118429Y-94038311D01*
X119193811Y-93856322D01*
X119303249Y-93692537D01*
X119442537Y-93553249D01*
X119606322Y-93443811D01*
X119788311Y-93368429D01*
X119904230Y-93345372D01*
X119981507Y-93330000D01*
X120178493Y-93330000D01*
X120255770Y-93345372D01*
X120255770Y-93345372D01*
G37*
G36*
X144255770Y-93345372D02*
X144371689Y-93368429D01*
X144553678Y-93443811D01*
X144717463Y-93553249D01*
X144856751Y-93692537D01*
X144966189Y-93856322D01*
X145041571Y-94038311D01*
X145064628Y-94154230D01*
X145080000Y-94231507D01*
X145080000Y-94428493D01*
X145072589Y-94465750D01*
X145041571Y-94621689D01*
X144966189Y-94803678D01*
X144856751Y-94967463D01*
X144717463Y-95106751D01*
X144553678Y-95216189D01*
X144371689Y-95291571D01*
X144255770Y-95314628D01*
X144178493Y-95330000D01*
X143981507Y-95330000D01*
X143904230Y-95314628D01*
X143788311Y-95291571D01*
X143606322Y-95216189D01*
X143442537Y-95106751D01*
X143303249Y-94967463D01*
X143193811Y-94803678D01*
X143118429Y-94621689D01*
X143087411Y-94465750D01*
X143080000Y-94428493D01*
X143080000Y-94231507D01*
X143095372Y-94154230D01*
X143118429Y-94038311D01*
X143193811Y-93856322D01*
X143303249Y-93692537D01*
X143442537Y-93553249D01*
X143606322Y-93443811D01*
X143788311Y-93368429D01*
X143904230Y-93345372D01*
X143981507Y-93330000D01*
X144178493Y-93330000D01*
X144255770Y-93345372D01*
X144255770Y-93345372D01*
G37*
G36*
X162490000Y-95180000D02*
X160090000Y-95180000D01*
X160090000Y-92780000D01*
X162490000Y-92780000D01*
X162490000Y-95180000D01*
X162490000Y-95180000D01*
G37*
G36*
X169140026Y-92826115D02*
X169358412Y-92916573D01*
X169554958Y-93047901D01*
X169722099Y-93215042D01*
X169853427Y-93411588D01*
X169943885Y-93629974D01*
X169990000Y-93861809D01*
X169990000Y-94098191D01*
X169943885Y-94330026D01*
X169853427Y-94548412D01*
X169722099Y-94744958D01*
X169554958Y-94912099D01*
X169358412Y-95043427D01*
X169140026Y-95133885D01*
X168908191Y-95180000D01*
X168671809Y-95180000D01*
X168439974Y-95133885D01*
X168221588Y-95043427D01*
X168025042Y-94912099D01*
X167857901Y-94744958D01*
X167726573Y-94548412D01*
X167636115Y-94330026D01*
X167590000Y-94098191D01*
X167590000Y-93861809D01*
X167636115Y-93629974D01*
X167726573Y-93411588D01*
X167857901Y-93215042D01*
X168025042Y-93047901D01*
X168221588Y-92916573D01*
X168439974Y-92826115D01*
X168671809Y-92780000D01*
X168908191Y-92780000D01*
X169140026Y-92826115D01*
X169140026Y-92826115D01*
G37*
G36*
X152030000Y-94880000D02*
X150230000Y-94880000D01*
X150230000Y-93080000D01*
X152030000Y-93080000D01*
X152030000Y-94880000D01*
X152030000Y-94880000D01*
G37*
G36*
X193890000Y-94830000D02*
X192190000Y-94830000D01*
X192190000Y-93130000D01*
X193890000Y-93130000D01*
X193890000Y-94830000D01*
X193890000Y-94830000D01*
G37*
G36*
X187490000Y-94780000D02*
X185890000Y-94780000D01*
X185890000Y-93180000D01*
X187490000Y-93180000D01*
X187490000Y-94780000D01*
X187490000Y-94780000D01*
G37*
G36*
X181783195Y-93237522D02*
X181832267Y-93247283D01*
X181970942Y-93304724D01*
X182095750Y-93388118D01*
X182201882Y-93494250D01*
X182285276Y-93619058D01*
X182342717Y-93757734D01*
X182362328Y-93856322D01*
X182372000Y-93904950D01*
X182372000Y-94055050D01*
X182342717Y-94202267D01*
X182294389Y-94318941D01*
X182285276Y-94340942D01*
X182201882Y-94465750D01*
X182095750Y-94571882D01*
X182095747Y-94571884D01*
X181970942Y-94655276D01*
X181832267Y-94712717D01*
X181783195Y-94722478D01*
X181685052Y-94742000D01*
X181534948Y-94742000D01*
X181436805Y-94722478D01*
X181387733Y-94712717D01*
X181249058Y-94655276D01*
X181124253Y-94571884D01*
X181124250Y-94571882D01*
X181018118Y-94465750D01*
X180934724Y-94340942D01*
X180925611Y-94318941D01*
X180877283Y-94202267D01*
X180848000Y-94055050D01*
X180848000Y-93904950D01*
X180857673Y-93856322D01*
X180877283Y-93757734D01*
X180934724Y-93619058D01*
X181018118Y-93494250D01*
X181124250Y-93388118D01*
X181249058Y-93304724D01*
X181387733Y-93247283D01*
X181436805Y-93237522D01*
X181534948Y-93218000D01*
X181685052Y-93218000D01*
X181783195Y-93237522D01*
X181783195Y-93237522D01*
G37*
G36*
X178033352Y-93170743D02*
X178178941Y-93231048D01*
X178309973Y-93318601D01*
X178421399Y-93430027D01*
X178508952Y-93561059D01*
X178569257Y-93706648D01*
X178600000Y-93861205D01*
X178600000Y-94018795D01*
X178569257Y-94173352D01*
X178508952Y-94318941D01*
X178421399Y-94449973D01*
X178309973Y-94561399D01*
X178178941Y-94648952D01*
X178033352Y-94709257D01*
X177878795Y-94740000D01*
X177721205Y-94740000D01*
X177566648Y-94709257D01*
X177421059Y-94648952D01*
X177290027Y-94561399D01*
X177178601Y-94449973D01*
X177091048Y-94318941D01*
X177030743Y-94173352D01*
X177000000Y-94018795D01*
X177000000Y-93861205D01*
X177030743Y-93706648D01*
X177091048Y-93561059D01*
X177178601Y-93430027D01*
X177290027Y-93318601D01*
X177421059Y-93231048D01*
X177566648Y-93170743D01*
X177721205Y-93140000D01*
X177878795Y-93140000D01*
X178033352Y-93170743D01*
X178033352Y-93170743D01*
G37*
G36*
X178033352Y-90670743D02*
X178178941Y-90731048D01*
X178309973Y-90818601D01*
X178421399Y-90930027D01*
X178508952Y-91061059D01*
X178569257Y-91206648D01*
X178600000Y-91361205D01*
X178600000Y-91518795D01*
X178569257Y-91673352D01*
X178508952Y-91818941D01*
X178421399Y-91949973D01*
X178309973Y-92061399D01*
X178178941Y-92148952D01*
X178033352Y-92209257D01*
X177878795Y-92240000D01*
X177721205Y-92240000D01*
X177566648Y-92209257D01*
X177421059Y-92148952D01*
X177290027Y-92061399D01*
X177178601Y-91949973D01*
X177091048Y-91818941D01*
X177030743Y-91673352D01*
X177000000Y-91518795D01*
X177000000Y-91361205D01*
X177030743Y-91206648D01*
X177091048Y-91061059D01*
X177178601Y-90930027D01*
X177290027Y-90818601D01*
X177421059Y-90731048D01*
X177566648Y-90670743D01*
X177721205Y-90640000D01*
X177878795Y-90640000D01*
X178033352Y-90670743D01*
X178033352Y-90670743D01*
G37*
G36*
X181783195Y-90697522D02*
X181832267Y-90707283D01*
X181889643Y-90731049D01*
X181970942Y-90764724D01*
X182095750Y-90848118D01*
X182201882Y-90954250D01*
X182201884Y-90954253D01*
X182285276Y-91079058D01*
X182338126Y-91206649D01*
X182342717Y-91217734D01*
X182372000Y-91364948D01*
X182372000Y-91515052D01*
X182371255Y-91518795D01*
X182342717Y-91662267D01*
X182338125Y-91673352D01*
X182285276Y-91800942D01*
X182201882Y-91925750D01*
X182095750Y-92031882D01*
X182095747Y-92031884D01*
X181970942Y-92115276D01*
X181832267Y-92172717D01*
X181783195Y-92182478D01*
X181685052Y-92202000D01*
X181534948Y-92202000D01*
X181436805Y-92182478D01*
X181387733Y-92172717D01*
X181249058Y-92115276D01*
X181124253Y-92031884D01*
X181124250Y-92031882D01*
X181018118Y-91925750D01*
X180934724Y-91800942D01*
X180881875Y-91673352D01*
X180877283Y-91662267D01*
X180848745Y-91518795D01*
X180848000Y-91515052D01*
X180848000Y-91364948D01*
X180877283Y-91217734D01*
X180881875Y-91206649D01*
X180934724Y-91079058D01*
X181018116Y-90954253D01*
X181018118Y-90954250D01*
X181124250Y-90848118D01*
X181249058Y-90764724D01*
X181330357Y-90731049D01*
X181387733Y-90707283D01*
X181436805Y-90697522D01*
X181534948Y-90678000D01*
X181685052Y-90678000D01*
X181783195Y-90697522D01*
X181783195Y-90697522D01*
G37*
G36*
X104799819Y-79363086D02*
X105452602Y-79492932D01*
X106271550Y-79832151D01*
X107008583Y-80324621D01*
X107635379Y-80951417D01*
X108127849Y-81688450D01*
X108467068Y-82507398D01*
X108640000Y-83376789D01*
X108640000Y-84263211D01*
X108467068Y-85132602D01*
X108127849Y-85951550D01*
X107635379Y-86688583D01*
X107008583Y-87315379D01*
X106271550Y-87807849D01*
X105452602Y-88147068D01*
X104799819Y-88276914D01*
X104583213Y-88320000D01*
X103696787Y-88320000D01*
X103480181Y-88276914D01*
X102827398Y-88147068D01*
X102008450Y-87807849D01*
X101271417Y-87315379D01*
X100644621Y-86688583D01*
X100152151Y-85951550D01*
X99812932Y-85132602D01*
X99640000Y-84263211D01*
X99640000Y-83376789D01*
X99812932Y-82507398D01*
X100152151Y-81688450D01*
X100644621Y-80951417D01*
X101271417Y-80324621D01*
X102008450Y-79832151D01*
X102827398Y-79492932D01*
X103480181Y-79363086D01*
X103696787Y-79320000D01*
X104583213Y-79320000D01*
X104799819Y-79363086D01*
X104799819Y-79363086D01*
G37*
G36*
X151306432Y-85473022D02*
X151476081Y-85524485D01*
X151632433Y-85608056D01*
X151769475Y-85720525D01*
X151881944Y-85857567D01*
X151965515Y-86013919D01*
X152016978Y-86183568D01*
X152034354Y-86360000D01*
X152016978Y-86536432D01*
X151965515Y-86706081D01*
X151881944Y-86862433D01*
X151769475Y-86999475D01*
X151632433Y-87111944D01*
X151476081Y-87195515D01*
X151306432Y-87246978D01*
X151174211Y-87260000D01*
X151085789Y-87260000D01*
X150953568Y-87246978D01*
X150783919Y-87195515D01*
X150627567Y-87111944D01*
X150490525Y-86999475D01*
X150378056Y-86862433D01*
X150294485Y-86706081D01*
X150243022Y-86536432D01*
X150225646Y-86360000D01*
X150243022Y-86183568D01*
X150294485Y-86013919D01*
X150378056Y-85857567D01*
X150490525Y-85720525D01*
X150627567Y-85608056D01*
X150783919Y-85524485D01*
X150953568Y-85473022D01*
X151085789Y-85460000D01*
X151174211Y-85460000D01*
X151306432Y-85473022D01*
X151306432Y-85473022D01*
G37*
M02*
