M48
;DRILL file {KiCad (5.0.1-3-g963ef8bb5)} date 2018年11月01日 木曜日 00:45:29
;FORMAT={-:-/ absolute / inch / decimal}
FMAT,2
INCH,TZ
T1C0.0236
T2C0.0315
T3C0.0354
T4C0.0394
T5C0.1772
%
G90
G05
M72
T1
X2.7671Y-3.0254
X2.806Y-2.9314
X2.806Y-3.1193
X2.9Y-2.8925
X2.9Y-3.1583
X2.994Y-2.9314
X2.994Y-3.1193
X3.0329Y-3.0254
X2.7671Y-4.
X2.806Y-3.906
X2.806Y-4.094
X2.9Y-3.8671
X2.9Y-4.1329
X2.994Y-3.906
X2.994Y-4.094
X3.0329Y-4.
T2
X7.7Y-3.
X7.7Y-3.0984
X6.4Y-2.9
X6.4Y-2.9984
X7.7Y-3.55
X7.7Y-3.6484
T3
X5.Y-2.9
X5.3Y-2.9
X5.Y-3.85
X5.3Y-3.85
T4
X6.95Y-2.9
X6.95Y-3.0969
X7.5Y-2.9
X7.5Y-3.
X7.5Y-3.1
X7.85Y-2.65
X7.85Y-3.55
X6.95Y-3.45
X6.95Y-3.6469
X7.5Y-3.45
X7.5Y-3.55
X7.5Y-3.65
X5.9Y-2.9
X5.9Y-3.0969
X7.85Y-3.95
X7.85Y-3.
X3.5776Y-3.1638
X3.5776Y-3.6362
X4.5224Y-3.1638
X4.5224Y-3.4
X4.5224Y-3.6362
T5
X2.9Y-3.0254
X2.9Y-4.
T0
M30
