G04 #@! TF.GenerationSoftware,KiCad,Pcbnew,(5.0.1-3-g963ef8bb5)*
G04 #@! TF.CreationDate,2018-11-01T00:56:35+09:00*
G04 #@! TF.ProjectId,firstTraining,6669727374547261696E696E672E6B69,rev?*
G04 #@! TF.SameCoordinates,Original*
G04 #@! TF.FileFunction,Soldermask,Top*
G04 #@! TF.FilePolarity,Negative*
%FSLAX46Y46*%
G04 Gerber Fmt 4.6, Leading zero omitted, Abs format (unit mm)*
G04 Created by KiCad (PCBNEW (5.0.1-3-g963ef8bb5)) date 2018年11月01日 木曜日 00:56:35*
%MOMM*%
%LPD*%
G01*
G04 APERTURE LIST*
%ADD10C,0.100000*%
G04 APERTURE END LIST*
D10*
G36*
X74987475Y-97223892D02*
X74987477Y-97223893D01*
X74987478Y-97223893D01*
X75815707Y-97566956D01*
X76557727Y-98062759D01*
X76561096Y-98065010D01*
X77194990Y-98698904D01*
X77194992Y-98698907D01*
X77693044Y-99444293D01*
X77804973Y-99714515D01*
X78036108Y-100272525D01*
X78211000Y-101151764D01*
X78211000Y-102048236D01*
X78200505Y-102101000D01*
X78036107Y-102927478D01*
X77693044Y-103755707D01*
X77325447Y-104305854D01*
X77194990Y-104501096D01*
X76561096Y-105134990D01*
X76561093Y-105134992D01*
X75815707Y-105633044D01*
X74987478Y-105976107D01*
X74987477Y-105976107D01*
X74987475Y-105976108D01*
X74108236Y-106151000D01*
X73211764Y-106151000D01*
X72332525Y-105976108D01*
X72332523Y-105976107D01*
X72332522Y-105976107D01*
X71504293Y-105633044D01*
X70758907Y-105134992D01*
X70758904Y-105134990D01*
X70125010Y-104501096D01*
X69994553Y-104305854D01*
X69626956Y-103755707D01*
X69283893Y-102927478D01*
X69119496Y-102101000D01*
X69109000Y-102048236D01*
X69109000Y-101151764D01*
X69283892Y-100272525D01*
X69515027Y-99714515D01*
X69626956Y-99444293D01*
X70125008Y-98698907D01*
X70125010Y-98698904D01*
X70758904Y-98065010D01*
X70762273Y-98062759D01*
X71504293Y-97566956D01*
X72332522Y-97223893D01*
X72332523Y-97223893D01*
X72332525Y-97223892D01*
X73211764Y-97049000D01*
X74108236Y-97049000D01*
X74987475Y-97223892D01*
X74987475Y-97223892D01*
G37*
G36*
X200291000Y-101231000D02*
X198489000Y-101231000D01*
X198489000Y-99429000D01*
X200291000Y-99429000D01*
X200291000Y-101231000D01*
X200291000Y-101231000D01*
G37*
G36*
X135571000Y-98741000D02*
X133669000Y-98741000D01*
X133669000Y-96839000D01*
X135571000Y-96839000D01*
X135571000Y-98741000D01*
X135571000Y-98741000D01*
G37*
G36*
X127186425Y-96852760D02*
X127186428Y-96852761D01*
X127186429Y-96852761D01*
X127365693Y-96907140D01*
X127365695Y-96907141D01*
X127530905Y-96995448D01*
X127675712Y-97114288D01*
X127794552Y-97259095D01*
X127882859Y-97424305D01*
X127937240Y-97603575D01*
X127955601Y-97790000D01*
X127937240Y-97976425D01*
X127937239Y-97976428D01*
X127937239Y-97976429D01*
X127906166Y-98078864D01*
X127882859Y-98155695D01*
X127794552Y-98320905D01*
X127675712Y-98465712D01*
X127530905Y-98584552D01*
X127372952Y-98668980D01*
X127365693Y-98672860D01*
X127186429Y-98727239D01*
X127186428Y-98727239D01*
X127186425Y-98727240D01*
X127046718Y-98741000D01*
X126953282Y-98741000D01*
X126813575Y-98727240D01*
X126813572Y-98727239D01*
X126813571Y-98727239D01*
X126634307Y-98672860D01*
X126627048Y-98668980D01*
X126469095Y-98584552D01*
X126324288Y-98465712D01*
X126205448Y-98320905D01*
X126117141Y-98155695D01*
X126093835Y-98078864D01*
X126062761Y-97976429D01*
X126062761Y-97976428D01*
X126062760Y-97976425D01*
X126044399Y-97790000D01*
X126062760Y-97603575D01*
X126117141Y-97424305D01*
X126205448Y-97259095D01*
X126324288Y-97114288D01*
X126469095Y-96995448D01*
X126634305Y-96907141D01*
X126634307Y-96907140D01*
X126813571Y-96852761D01*
X126813572Y-96852761D01*
X126813575Y-96852760D01*
X126953282Y-96839000D01*
X127046718Y-96839000D01*
X127186425Y-96852760D01*
X127186425Y-96852760D01*
G37*
G36*
X176836565Y-91619389D02*
X177027834Y-91698615D01*
X177199976Y-91813637D01*
X177346363Y-91960024D01*
X177461385Y-92132166D01*
X177540611Y-92323435D01*
X177581000Y-92526484D01*
X177581000Y-92733516D01*
X177540611Y-92936565D01*
X177461385Y-93127834D01*
X177346363Y-93299976D01*
X177199976Y-93446363D01*
X177027834Y-93561385D01*
X176836565Y-93640611D01*
X176633516Y-93681000D01*
X176426484Y-93681000D01*
X176223435Y-93640611D01*
X176032166Y-93561385D01*
X175860024Y-93446363D01*
X175713637Y-93299976D01*
X175598615Y-93127834D01*
X175519389Y-92936565D01*
X175479000Y-92733516D01*
X175479000Y-92526484D01*
X175519389Y-92323435D01*
X175598615Y-92132166D01*
X175713637Y-91960024D01*
X175860024Y-91813637D01*
X176032166Y-91698615D01*
X176223435Y-91619389D01*
X176426484Y-91579000D01*
X176633516Y-91579000D01*
X176836565Y-91619389D01*
X176836565Y-91619389D01*
G37*
G36*
X190610442Y-91815518D02*
X190676627Y-91822037D01*
X190774423Y-91851703D01*
X190846467Y-91873557D01*
X190925596Y-91915853D01*
X191002991Y-91957222D01*
X191038729Y-91986552D01*
X191140186Y-92069814D01*
X191191355Y-92132165D01*
X191252778Y-92207009D01*
X191252779Y-92207011D01*
X191336443Y-92363533D01*
X191336443Y-92363534D01*
X191387963Y-92533373D01*
X191405359Y-92710000D01*
X191387963Y-92886627D01*
X191353616Y-92999853D01*
X191336443Y-93056467D01*
X191327552Y-93073100D01*
X191252778Y-93212991D01*
X191223448Y-93248729D01*
X191140186Y-93350186D01*
X191050064Y-93424146D01*
X191002991Y-93462778D01*
X191002989Y-93462779D01*
X190846467Y-93546443D01*
X190797212Y-93561384D01*
X190676627Y-93597963D01*
X190610442Y-93604482D01*
X190544260Y-93611000D01*
X190455740Y-93611000D01*
X190389557Y-93604481D01*
X190323373Y-93597963D01*
X190202788Y-93561384D01*
X190153533Y-93546443D01*
X189997011Y-93462779D01*
X189997009Y-93462778D01*
X189949936Y-93424146D01*
X189859814Y-93350186D01*
X189776552Y-93248729D01*
X189747222Y-93212991D01*
X189672448Y-93073100D01*
X189663557Y-93056467D01*
X189646384Y-92999853D01*
X189612037Y-92886627D01*
X189594641Y-92710000D01*
X189612037Y-92533373D01*
X189663557Y-92363534D01*
X189663557Y-92363533D01*
X189747221Y-92207011D01*
X189747222Y-92207009D01*
X189808645Y-92132165D01*
X189859814Y-92069814D01*
X189961271Y-91986552D01*
X189997009Y-91957222D01*
X190074404Y-91915853D01*
X190153533Y-91873557D01*
X190225577Y-91851703D01*
X190323373Y-91822037D01*
X190389558Y-91815518D01*
X190455740Y-91809000D01*
X190544260Y-91809000D01*
X190610442Y-91815518D01*
X190610442Y-91815518D01*
G37*
G36*
X195828228Y-91851703D02*
X195983100Y-91915853D01*
X196122481Y-92008985D01*
X196241015Y-92127519D01*
X196334147Y-92266900D01*
X196398297Y-92421772D01*
X196431000Y-92586184D01*
X196431000Y-92753816D01*
X196398297Y-92918228D01*
X196334147Y-93073100D01*
X196241015Y-93212481D01*
X196122481Y-93331015D01*
X195983100Y-93424147D01*
X195828228Y-93488297D01*
X195663816Y-93521000D01*
X195496184Y-93521000D01*
X195331772Y-93488297D01*
X195176900Y-93424147D01*
X195037519Y-93331015D01*
X194918985Y-93212481D01*
X194825853Y-93073100D01*
X194761703Y-92918228D01*
X194729000Y-92753816D01*
X194729000Y-92586184D01*
X194761703Y-92421772D01*
X194825853Y-92266900D01*
X194918985Y-92127519D01*
X195037519Y-92008985D01*
X195176900Y-91915853D01*
X195331772Y-91851703D01*
X195496184Y-91819000D01*
X195663816Y-91819000D01*
X195828228Y-91851703D01*
X195828228Y-91851703D01*
G37*
G36*
X91176565Y-91349389D02*
X91367834Y-91428615D01*
X91539976Y-91543637D01*
X91686363Y-91690024D01*
X91801385Y-91862166D01*
X91880611Y-92053435D01*
X91921000Y-92256484D01*
X91921000Y-92463516D01*
X91880611Y-92666565D01*
X91801385Y-92857834D01*
X91686363Y-93029976D01*
X91539976Y-93176363D01*
X91367834Y-93291385D01*
X91176565Y-93370611D01*
X90973516Y-93411000D01*
X90766484Y-93411000D01*
X90563435Y-93370611D01*
X90372166Y-93291385D01*
X90200024Y-93176363D01*
X90053637Y-93029976D01*
X89938615Y-92857834D01*
X89859389Y-92666565D01*
X89819000Y-92463516D01*
X89819000Y-92256484D01*
X89859389Y-92053435D01*
X89938615Y-91862166D01*
X90053637Y-91690024D01*
X90200024Y-91543637D01*
X90372166Y-91428615D01*
X90563435Y-91349389D01*
X90766484Y-91309000D01*
X90973516Y-91309000D01*
X91176565Y-91349389D01*
X91176565Y-91349389D01*
G37*
G36*
X115176565Y-91349389D02*
X115367834Y-91428615D01*
X115539976Y-91543637D01*
X115686363Y-91690024D01*
X115801385Y-91862166D01*
X115880611Y-92053435D01*
X115921000Y-92256484D01*
X115921000Y-92463516D01*
X115880611Y-92666565D01*
X115801385Y-92857834D01*
X115686363Y-93029976D01*
X115539976Y-93176363D01*
X115367834Y-93291385D01*
X115176565Y-93370611D01*
X114973516Y-93411000D01*
X114766484Y-93411000D01*
X114563435Y-93370611D01*
X114372166Y-93291385D01*
X114200024Y-93176363D01*
X114053637Y-93029976D01*
X113938615Y-92857834D01*
X113859389Y-92666565D01*
X113819000Y-92463516D01*
X113819000Y-92256484D01*
X113859389Y-92053435D01*
X113938615Y-91862166D01*
X114053637Y-91690024D01*
X114200024Y-91543637D01*
X114372166Y-91428615D01*
X114563435Y-91349389D01*
X114766484Y-91309000D01*
X114973516Y-91309000D01*
X115176565Y-91349389D01*
X115176565Y-91349389D01*
G37*
G36*
X200291000Y-91071000D02*
X198489000Y-91071000D01*
X198489000Y-89269000D01*
X200291000Y-89269000D01*
X200291000Y-91071000D01*
X200291000Y-91071000D01*
G37*
G36*
X190610443Y-89275519D02*
X190676627Y-89282037D01*
X190789853Y-89316384D01*
X190846467Y-89333557D01*
X190985087Y-89407652D01*
X191002991Y-89417222D01*
X191038729Y-89446552D01*
X191140186Y-89529814D01*
X191220369Y-89627519D01*
X191252778Y-89667009D01*
X191252779Y-89667011D01*
X191336443Y-89823533D01*
X191336443Y-89823534D01*
X191387963Y-89993373D01*
X191405359Y-90170000D01*
X191387963Y-90346627D01*
X191366243Y-90418228D01*
X191336443Y-90516467D01*
X191262348Y-90655087D01*
X191252778Y-90672991D01*
X191223448Y-90708729D01*
X191140186Y-90810186D01*
X191038729Y-90893448D01*
X191002991Y-90922778D01*
X191002989Y-90922779D01*
X190846467Y-91006443D01*
X190798478Y-91021000D01*
X190676627Y-91057963D01*
X190610442Y-91064482D01*
X190544260Y-91071000D01*
X190455740Y-91071000D01*
X190389558Y-91064482D01*
X190323373Y-91057963D01*
X190201522Y-91021000D01*
X190153533Y-91006443D01*
X189997011Y-90922779D01*
X189997009Y-90922778D01*
X189961271Y-90893448D01*
X189859814Y-90810186D01*
X189776552Y-90708729D01*
X189747222Y-90672991D01*
X189737652Y-90655087D01*
X189663557Y-90516467D01*
X189633757Y-90418228D01*
X189612037Y-90346627D01*
X189594641Y-90170000D01*
X189612037Y-89993373D01*
X189663557Y-89823534D01*
X189663557Y-89823533D01*
X189747221Y-89667011D01*
X189747222Y-89667009D01*
X189779631Y-89627519D01*
X189859814Y-89529814D01*
X189961271Y-89446552D01*
X189997009Y-89417222D01*
X190014913Y-89407652D01*
X190153533Y-89333557D01*
X190210147Y-89316384D01*
X190323373Y-89282037D01*
X190389557Y-89275519D01*
X190455740Y-89269000D01*
X190544260Y-89269000D01*
X190610443Y-89275519D01*
X190610443Y-89275519D01*
G37*
G36*
X195828228Y-89351703D02*
X195983100Y-89415853D01*
X196122481Y-89508985D01*
X196241015Y-89627519D01*
X196334147Y-89766900D01*
X196398297Y-89921772D01*
X196431000Y-90086184D01*
X196431000Y-90253816D01*
X196398297Y-90418228D01*
X196334147Y-90573100D01*
X196241015Y-90712481D01*
X196122481Y-90831015D01*
X195983100Y-90924147D01*
X195828228Y-90988297D01*
X195663816Y-91021000D01*
X195496184Y-91021000D01*
X195331772Y-90988297D01*
X195176900Y-90924147D01*
X195037519Y-90831015D01*
X194918985Y-90712481D01*
X194825853Y-90573100D01*
X194761703Y-90418228D01*
X194729000Y-90253816D01*
X194729000Y-90086184D01*
X194761703Y-89921772D01*
X194825853Y-89766900D01*
X194918985Y-89627519D01*
X195037519Y-89508985D01*
X195176900Y-89415853D01*
X195331772Y-89351703D01*
X195496184Y-89319000D01*
X195663816Y-89319000D01*
X195828228Y-89351703D01*
X195828228Y-89351703D01*
G37*
G36*
X177581000Y-88681000D02*
X175479000Y-88681000D01*
X175479000Y-86579000D01*
X177581000Y-86579000D01*
X177581000Y-88681000D01*
X177581000Y-88681000D01*
G37*
G36*
X191401000Y-88531000D02*
X189599000Y-88531000D01*
X189599000Y-86729000D01*
X191401000Y-86729000D01*
X191401000Y-88531000D01*
X191401000Y-88531000D01*
G37*
G36*
X115176565Y-85349389D02*
X115367834Y-85428615D01*
X115539976Y-85543637D01*
X115686363Y-85690024D01*
X115801385Y-85862166D01*
X115880611Y-86053435D01*
X115921000Y-86256484D01*
X115921000Y-86463516D01*
X115880611Y-86666565D01*
X115801385Y-86857834D01*
X115686363Y-87029976D01*
X115539976Y-87176363D01*
X115367834Y-87291385D01*
X115176565Y-87370611D01*
X114973516Y-87411000D01*
X114766484Y-87411000D01*
X114563435Y-87370611D01*
X114372166Y-87291385D01*
X114200024Y-87176363D01*
X114053637Y-87029976D01*
X113938615Y-86857834D01*
X113859389Y-86666565D01*
X113819000Y-86463516D01*
X113819000Y-86256484D01*
X113859389Y-86053435D01*
X113938615Y-85862166D01*
X114053637Y-85690024D01*
X114200024Y-85543637D01*
X114372166Y-85428615D01*
X114563435Y-85349389D01*
X114766484Y-85309000D01*
X114973516Y-85309000D01*
X115176565Y-85349389D01*
X115176565Y-85349389D01*
G37*
G36*
X91176565Y-79349389D02*
X91367834Y-79428615D01*
X91539976Y-79543637D01*
X91686363Y-79690024D01*
X91801385Y-79862166D01*
X91880611Y-80053435D01*
X91921000Y-80256484D01*
X91921000Y-80463516D01*
X91880611Y-80666565D01*
X91801385Y-80857834D01*
X91686363Y-81029976D01*
X91539976Y-81176363D01*
X91367834Y-81291385D01*
X91176565Y-81370611D01*
X90973516Y-81411000D01*
X90766484Y-81411000D01*
X90563435Y-81370611D01*
X90372166Y-81291385D01*
X90200024Y-81176363D01*
X90053637Y-81029976D01*
X89938615Y-80857834D01*
X89859389Y-80666565D01*
X89819000Y-80463516D01*
X89819000Y-80256484D01*
X89859389Y-80053435D01*
X89938615Y-79862166D01*
X90053637Y-79690024D01*
X90200024Y-79543637D01*
X90372166Y-79428615D01*
X90563435Y-79349389D01*
X90766484Y-79309000D01*
X90973516Y-79309000D01*
X91176565Y-79349389D01*
X91176565Y-79349389D01*
G37*
G36*
X115176565Y-79349389D02*
X115367834Y-79428615D01*
X115539976Y-79543637D01*
X115686363Y-79690024D01*
X115801385Y-79862166D01*
X115880611Y-80053435D01*
X115921000Y-80256484D01*
X115921000Y-80463516D01*
X115880611Y-80666565D01*
X115801385Y-80857834D01*
X115686363Y-81029976D01*
X115539976Y-81176363D01*
X115367834Y-81291385D01*
X115176565Y-81370611D01*
X114973516Y-81411000D01*
X114766484Y-81411000D01*
X114563435Y-81370611D01*
X114372166Y-81291385D01*
X114200024Y-81176363D01*
X114053637Y-81029976D01*
X113938615Y-80857834D01*
X113859389Y-80666565D01*
X113819000Y-80463516D01*
X113819000Y-80256484D01*
X113859389Y-80053435D01*
X113938615Y-79862166D01*
X114053637Y-79690024D01*
X114200024Y-79543637D01*
X114372166Y-79428615D01*
X114563435Y-79349389D01*
X114766484Y-79309000D01*
X114973516Y-79309000D01*
X115176565Y-79349389D01*
X115176565Y-79349389D01*
G37*
G36*
X74987475Y-72468893D02*
X74987477Y-72468894D01*
X74987478Y-72468894D01*
X75815707Y-72811957D01*
X76481610Y-73256900D01*
X76561096Y-73310011D01*
X77194990Y-73943905D01*
X77194992Y-73943908D01*
X77693044Y-74689294D01*
X78036107Y-75517523D01*
X78036108Y-75517526D01*
X78211000Y-76396765D01*
X78211000Y-77293237D01*
X78038159Y-78162166D01*
X78036107Y-78172479D01*
X77693044Y-79000708D01*
X77325447Y-79550855D01*
X77194990Y-79746097D01*
X76561096Y-80379991D01*
X76561093Y-80379993D01*
X75815707Y-80878045D01*
X74987478Y-81221108D01*
X74987477Y-81221108D01*
X74987475Y-81221109D01*
X74108236Y-81396001D01*
X73211764Y-81396001D01*
X72332525Y-81221109D01*
X72332523Y-81221108D01*
X72332522Y-81221108D01*
X71504293Y-80878045D01*
X70758907Y-80379993D01*
X70758904Y-80379991D01*
X70125010Y-79746097D01*
X69994553Y-79550855D01*
X69626956Y-79000708D01*
X69283893Y-78172479D01*
X69281842Y-78162166D01*
X69109000Y-77293237D01*
X69109000Y-76396765D01*
X69283892Y-75517526D01*
X69283893Y-75517523D01*
X69626956Y-74689294D01*
X70125008Y-73943908D01*
X70125010Y-73943905D01*
X70758904Y-73310011D01*
X70838390Y-73256900D01*
X71504293Y-72811957D01*
X72332522Y-72468894D01*
X72332523Y-72468894D01*
X72332525Y-72468893D01*
X73211764Y-72294001D01*
X74108236Y-72294001D01*
X74987475Y-72468893D01*
X74987475Y-72468893D01*
G37*
G36*
X150166565Y-77649389D02*
X150357834Y-77728615D01*
X150529976Y-77843637D01*
X150676363Y-77990024D01*
X150791385Y-78162166D01*
X150870611Y-78353435D01*
X150911000Y-78556484D01*
X150911000Y-78763516D01*
X150870611Y-78966565D01*
X150791385Y-79157834D01*
X150676363Y-79329976D01*
X150529976Y-79476363D01*
X150357834Y-79591385D01*
X150166565Y-79670611D01*
X149963516Y-79711000D01*
X149756484Y-79711000D01*
X149553435Y-79670611D01*
X149362166Y-79591385D01*
X149190024Y-79476363D01*
X149043637Y-79329976D01*
X148928615Y-79157834D01*
X148849389Y-78966565D01*
X148809000Y-78763516D01*
X148809000Y-78556484D01*
X148849389Y-78353435D01*
X148928615Y-78162166D01*
X149043637Y-77990024D01*
X149190024Y-77843637D01*
X149362166Y-77728615D01*
X149553435Y-77649389D01*
X149756484Y-77609000D01*
X149963516Y-77609000D01*
X150166565Y-77649389D01*
X150166565Y-77649389D01*
G37*
G36*
X176836565Y-77649389D02*
X177027834Y-77728615D01*
X177199976Y-77843637D01*
X177346363Y-77990024D01*
X177461385Y-78162166D01*
X177540611Y-78353435D01*
X177581000Y-78556484D01*
X177581000Y-78763516D01*
X177540611Y-78966565D01*
X177461385Y-79157834D01*
X177346363Y-79329976D01*
X177199976Y-79476363D01*
X177027834Y-79591385D01*
X176836565Y-79670611D01*
X176633516Y-79711000D01*
X176426484Y-79711000D01*
X176223435Y-79670611D01*
X176032166Y-79591385D01*
X175860024Y-79476363D01*
X175713637Y-79329976D01*
X175598615Y-79157834D01*
X175519389Y-78966565D01*
X175479000Y-78763516D01*
X175479000Y-78556484D01*
X175519389Y-78353435D01*
X175598615Y-78162166D01*
X175713637Y-77990024D01*
X175860024Y-77843637D01*
X176032166Y-77728615D01*
X176223435Y-77649389D01*
X176426484Y-77609000D01*
X176633516Y-77609000D01*
X176836565Y-77649389D01*
X176836565Y-77649389D01*
G37*
G36*
X190610443Y-77845519D02*
X190676627Y-77852037D01*
X190774423Y-77881703D01*
X190846467Y-77903557D01*
X190925596Y-77945853D01*
X191002991Y-77987222D01*
X191038729Y-78016552D01*
X191140186Y-78099814D01*
X191223448Y-78201271D01*
X191252778Y-78237009D01*
X191252779Y-78237011D01*
X191336443Y-78393533D01*
X191336443Y-78393534D01*
X191387963Y-78563373D01*
X191405359Y-78740000D01*
X191387963Y-78916627D01*
X191364439Y-78994174D01*
X191336443Y-79086467D01*
X191327552Y-79103100D01*
X191252778Y-79242991D01*
X191223448Y-79278729D01*
X191140186Y-79380186D01*
X191050064Y-79454146D01*
X191002991Y-79492778D01*
X191002989Y-79492779D01*
X190846467Y-79576443D01*
X190797212Y-79591384D01*
X190676627Y-79627963D01*
X190610442Y-79634482D01*
X190544260Y-79641000D01*
X190455740Y-79641000D01*
X190389558Y-79634482D01*
X190323373Y-79627963D01*
X190202788Y-79591384D01*
X190153533Y-79576443D01*
X189997011Y-79492779D01*
X189997009Y-79492778D01*
X189949936Y-79454146D01*
X189859814Y-79380186D01*
X189776552Y-79278729D01*
X189747222Y-79242991D01*
X189672448Y-79103100D01*
X189663557Y-79086467D01*
X189635561Y-78994174D01*
X189612037Y-78916627D01*
X189594641Y-78740000D01*
X189612037Y-78563373D01*
X189663557Y-78393534D01*
X189663557Y-78393533D01*
X189747221Y-78237011D01*
X189747222Y-78237009D01*
X189776552Y-78201271D01*
X189859814Y-78099814D01*
X189961271Y-78016552D01*
X189997009Y-77987222D01*
X190074404Y-77945853D01*
X190153533Y-77903557D01*
X190225577Y-77881703D01*
X190323373Y-77852037D01*
X190389557Y-77845519D01*
X190455740Y-77839000D01*
X190544260Y-77839000D01*
X190610443Y-77845519D01*
X190610443Y-77845519D01*
G37*
G36*
X195828228Y-77881703D02*
X195983100Y-77945853D01*
X196122481Y-78038985D01*
X196241015Y-78157519D01*
X196334147Y-78296900D01*
X196398297Y-78451772D01*
X196431000Y-78616184D01*
X196431000Y-78783816D01*
X196398297Y-78948228D01*
X196334147Y-79103100D01*
X196241015Y-79242481D01*
X196122481Y-79361015D01*
X195983100Y-79454147D01*
X195828228Y-79518297D01*
X195663816Y-79551000D01*
X195496184Y-79551000D01*
X195331772Y-79518297D01*
X195176900Y-79454147D01*
X195037519Y-79361015D01*
X194918985Y-79242481D01*
X194825853Y-79103100D01*
X194761703Y-78948228D01*
X194729000Y-78783816D01*
X194729000Y-78616184D01*
X194761703Y-78451772D01*
X194825853Y-78296900D01*
X194918985Y-78157519D01*
X195037519Y-78038985D01*
X195176900Y-77945853D01*
X195331772Y-77881703D01*
X195496184Y-77849000D01*
X195663816Y-77849000D01*
X195828228Y-77881703D01*
X195828228Y-77881703D01*
G37*
G36*
X190610442Y-75305518D02*
X190676627Y-75312037D01*
X190774423Y-75341703D01*
X190846467Y-75363557D01*
X190925596Y-75405853D01*
X191002991Y-75447222D01*
X191038729Y-75476552D01*
X191140186Y-75559814D01*
X191220369Y-75657519D01*
X191252778Y-75697009D01*
X191252779Y-75697011D01*
X191336443Y-75853533D01*
X191336443Y-75853534D01*
X191387963Y-76023373D01*
X191405359Y-76200000D01*
X191387963Y-76376627D01*
X191380563Y-76401021D01*
X191336443Y-76546467D01*
X191262348Y-76685087D01*
X191252778Y-76702991D01*
X191223448Y-76738729D01*
X191140186Y-76840186D01*
X191050064Y-76914146D01*
X191002991Y-76952778D01*
X191002989Y-76952779D01*
X190846467Y-77036443D01*
X190798478Y-77051000D01*
X190676627Y-77087963D01*
X190610442Y-77094482D01*
X190544260Y-77101000D01*
X190455740Y-77101000D01*
X190389558Y-77094482D01*
X190323373Y-77087963D01*
X190201522Y-77051000D01*
X190153533Y-77036443D01*
X189997011Y-76952779D01*
X189997009Y-76952778D01*
X189949936Y-76914146D01*
X189859814Y-76840186D01*
X189776552Y-76738729D01*
X189747222Y-76702991D01*
X189737652Y-76685087D01*
X189663557Y-76546467D01*
X189619437Y-76401021D01*
X189612037Y-76376627D01*
X189594641Y-76200000D01*
X189612037Y-76023373D01*
X189663557Y-75853534D01*
X189663557Y-75853533D01*
X189747221Y-75697011D01*
X189747222Y-75697009D01*
X189779631Y-75657519D01*
X189859814Y-75559814D01*
X189961271Y-75476552D01*
X189997009Y-75447222D01*
X190074404Y-75405853D01*
X190153533Y-75363557D01*
X190225577Y-75341703D01*
X190323373Y-75312037D01*
X190389558Y-75305518D01*
X190455740Y-75299000D01*
X190544260Y-75299000D01*
X190610442Y-75305518D01*
X190610442Y-75305518D01*
G37*
G36*
X200291000Y-77101000D02*
X198489000Y-77101000D01*
X198489000Y-75299000D01*
X200291000Y-75299000D01*
X200291000Y-77101000D01*
X200291000Y-77101000D01*
G37*
G36*
X195828228Y-75381703D02*
X195983100Y-75445853D01*
X196122481Y-75538985D01*
X196241015Y-75657519D01*
X196334147Y-75796900D01*
X196398297Y-75951772D01*
X196431000Y-76116184D01*
X196431000Y-76283816D01*
X196398297Y-76448228D01*
X196334147Y-76603100D01*
X196241015Y-76742481D01*
X196122481Y-76861015D01*
X195983100Y-76954147D01*
X195828228Y-77018297D01*
X195663816Y-77051000D01*
X195496184Y-77051000D01*
X195331772Y-77018297D01*
X195176900Y-76954147D01*
X195037519Y-76861015D01*
X194918985Y-76742481D01*
X194825853Y-76603100D01*
X194761703Y-76448228D01*
X194729000Y-76283816D01*
X194729000Y-76116184D01*
X194761703Y-75951772D01*
X194825853Y-75796900D01*
X194918985Y-75657519D01*
X195037519Y-75538985D01*
X195176900Y-75445853D01*
X195331772Y-75381703D01*
X195496184Y-75349000D01*
X195663816Y-75349000D01*
X195828228Y-75381703D01*
X195828228Y-75381703D01*
G37*
G36*
X162808228Y-75341703D02*
X162963100Y-75405853D01*
X163102481Y-75498985D01*
X163221015Y-75617519D01*
X163314147Y-75756900D01*
X163378297Y-75911772D01*
X163411000Y-76076184D01*
X163411000Y-76243816D01*
X163378297Y-76408228D01*
X163314147Y-76563100D01*
X163221015Y-76702481D01*
X163102481Y-76821015D01*
X162963100Y-76914147D01*
X162808228Y-76978297D01*
X162643816Y-77011000D01*
X162476184Y-77011000D01*
X162311772Y-76978297D01*
X162156900Y-76914147D01*
X162017519Y-76821015D01*
X161898985Y-76702481D01*
X161805853Y-76563100D01*
X161741703Y-76408228D01*
X161709000Y-76243816D01*
X161709000Y-76076184D01*
X161741703Y-75911772D01*
X161805853Y-75756900D01*
X161898985Y-75617519D01*
X162017519Y-75498985D01*
X162156900Y-75405853D01*
X162311772Y-75341703D01*
X162476184Y-75309000D01*
X162643816Y-75309000D01*
X162808228Y-75341703D01*
X162808228Y-75341703D01*
G37*
G36*
X177581000Y-74711000D02*
X175479000Y-74711000D01*
X175479000Y-72609000D01*
X177581000Y-72609000D01*
X177581000Y-74711000D01*
X177581000Y-74711000D01*
G37*
G36*
X150911000Y-74711000D02*
X148809000Y-74711000D01*
X148809000Y-72609000D01*
X150911000Y-72609000D01*
X150911000Y-74711000D01*
X150911000Y-74711000D01*
G37*
G36*
X127186425Y-72722760D02*
X127186428Y-72722761D01*
X127186429Y-72722761D01*
X127365693Y-72777140D01*
X127365695Y-72777141D01*
X127530905Y-72865448D01*
X127675712Y-72984288D01*
X127794552Y-73129095D01*
X127882859Y-73294305D01*
X127882860Y-73294307D01*
X127937239Y-73473571D01*
X127937240Y-73473575D01*
X127955601Y-73660000D01*
X127937240Y-73846425D01*
X127937239Y-73846428D01*
X127937239Y-73846429D01*
X127899451Y-73971001D01*
X127882859Y-74025695D01*
X127794552Y-74190905D01*
X127675712Y-74335712D01*
X127530905Y-74454552D01*
X127530903Y-74454553D01*
X127365693Y-74542860D01*
X127186429Y-74597239D01*
X127186428Y-74597239D01*
X127186425Y-74597240D01*
X127046718Y-74611000D01*
X126953282Y-74611000D01*
X126813575Y-74597240D01*
X126813572Y-74597239D01*
X126813571Y-74597239D01*
X126634307Y-74542860D01*
X126469097Y-74454553D01*
X126469095Y-74454552D01*
X126324288Y-74335712D01*
X126205448Y-74190905D01*
X126117141Y-74025695D01*
X126100550Y-73971001D01*
X126062761Y-73846429D01*
X126062761Y-73846428D01*
X126062760Y-73846425D01*
X126044399Y-73660000D01*
X126062760Y-73473575D01*
X126062761Y-73473571D01*
X126117140Y-73294307D01*
X126117141Y-73294305D01*
X126205448Y-73129095D01*
X126324288Y-72984288D01*
X126469095Y-72865448D01*
X126634305Y-72777141D01*
X126634307Y-72777140D01*
X126813571Y-72722761D01*
X126813572Y-72722761D01*
X126813575Y-72722760D01*
X126953282Y-72709000D01*
X127046718Y-72709000D01*
X127186425Y-72722760D01*
X127186425Y-72722760D01*
G37*
G36*
X135571000Y-74611000D02*
X133669000Y-74611000D01*
X133669000Y-72709000D01*
X135571000Y-72709000D01*
X135571000Y-74611000D01*
X135571000Y-74611000D01*
G37*
G36*
X191401000Y-74561000D02*
X189599000Y-74561000D01*
X189599000Y-72759000D01*
X191401000Y-72759000D01*
X191401000Y-74561000D01*
X191401000Y-74561000D01*
G37*
G36*
X162808228Y-72841703D02*
X162963100Y-72905853D01*
X163102481Y-72998985D01*
X163221015Y-73117519D01*
X163314147Y-73256900D01*
X163378297Y-73411772D01*
X163411000Y-73576184D01*
X163411000Y-73743816D01*
X163378297Y-73908228D01*
X163314147Y-74063100D01*
X163221015Y-74202481D01*
X163102481Y-74321015D01*
X162963100Y-74414147D01*
X162808228Y-74478297D01*
X162643816Y-74511000D01*
X162476184Y-74511000D01*
X162311772Y-74478297D01*
X162156900Y-74414147D01*
X162017519Y-74321015D01*
X161898985Y-74202481D01*
X161805853Y-74063100D01*
X161741703Y-73908228D01*
X161709000Y-73743816D01*
X161709000Y-73576184D01*
X161741703Y-73411772D01*
X161805853Y-73256900D01*
X161898985Y-73117519D01*
X162017519Y-72998985D01*
X162156900Y-72905853D01*
X162311772Y-72841703D01*
X162476184Y-72809000D01*
X162643816Y-72809000D01*
X162808228Y-72841703D01*
X162808228Y-72841703D01*
G37*
G36*
X200291000Y-68211000D02*
X198489000Y-68211000D01*
X198489000Y-66409000D01*
X200291000Y-66409000D01*
X200291000Y-68211000D01*
X200291000Y-68211000D01*
G37*
M02*
